<svg width="68" height="68" viewBox="0 0 68 68" fill="none" xmlns="http://www.w3.org/2000/svg">
<g id="Group">
<g id="laptop-lock-2">
<path id="Rectangle-path" fill-rule="evenodd" clip-rule="evenodd" d="M40.5625 46.4375C40.5625 45.6091 41.2341 44.9375 42.0625 44.9375H65.3125C66.1409 44.9375 66.8125 45.6091 66.8125 46.4375V65.3125C66.8125 66.1409 66.1409 66.8125 65.3125 66.8125H42.0625C41.2341 66.8125 40.5625 66.1409 40.5625 65.3125V46.4375Z" stroke="#E961FF" stroke-linecap="round" stroke-linejoin="round"/>
<path id="Shape" fill-rule="evenodd" clip-rule="evenodd" d="M53.6875 31.8125V31.8125C48.855 31.8125 44.9375 35.73 44.9375 40.5625V44.9375H62.4375V40.5625C62.4375 35.73 58.52 31.8125 53.6875 31.8125Z" stroke="#E961FF" stroke-linecap="round" stroke-linejoin="round"/>
<path id="Shape_2" d="M53.6875 54.8652C54.2916 54.8652 54.7813 55.3549 54.7813 55.959C54.7813 56.563 54.2916 57.0527 53.6875 57.0527C53.0834 57.0527 52.5938 56.563 52.5938 55.959C52.5938 55.3549 53.0834 54.8652 53.6875 54.8652" stroke="#E961FF" stroke-linecap="round" stroke-linejoin="round"/>
<path id="Shape_3" d="M7.75 34V5.5625C7.75 3.14625 9.70875 1.1875 12.125 1.1875H55.875C58.2912 1.1875 60.25 3.14625 60.25 5.5625V23.0625" stroke="#00E5E5" stroke-linecap="round" stroke-linejoin="round"/>
<path id="Shape_4" d="M36.1875 34H1.1875C1.1875 40.0406 6.08439 44.9375 12.125 44.9375H31.8125" stroke="#00E5E5" stroke-linecap="round" stroke-linejoin="round"/>
</g>
</g>
</svg>
