<svg width="68" height="68" viewBox="0 0 68 68" fill="none" xmlns="http://www.w3.org/2000/svg">
<g id="Group">
<g id="server-settings-1">
<path id="Shape" d="M12.125 8.84375C11.5209 8.84375 11.0312 9.33344 11.0312 9.9375C11.0312 10.5416 11.5209 11.0313 12.125 11.0313C12.7291 11.0313 13.2188 10.5416 13.2188 9.9375C13.2188 9.33344 12.7291 8.84375 12.125 8.84375V8.84375" stroke="#00E5E5" stroke-linecap="round" stroke-linejoin="round"/>
<path id="Shape_2" d="M27.4404 9.9375H31.8154" stroke="#00E5E5" stroke-linecap="round" stroke-linejoin="round"/>
<path id="Shape_3" d="M40.5654 9.9375H44.9404" stroke="#00E5E5" stroke-linecap="round" stroke-linejoin="round"/>
<path id="Shape_4" d="M12.125 26.3438C11.5209 26.3438 11.0312 26.8334 11.0312 27.4375C11.0312 28.0416 11.5209 28.5313 12.125 28.5313C12.7291 28.5313 13.2188 28.0416 13.2188 27.4375C13.2188 26.8334 12.7291 26.3438 12.125 26.3438V26.3438" stroke="#00E5E5" stroke-linecap="round" stroke-linejoin="round"/>
<path id="Shape_5" d="M27.4404 27.4375H31.8154" stroke="#00E5E5" stroke-linecap="round" stroke-linejoin="round"/>
<path id="Shape_6" d="M12.1279 53.6875H23.0654V36.1875" stroke="#00E5E5" stroke-linecap="round" stroke-linejoin="round"/>
<path id="Shape_7" d="M2.28418 51.5C1.68012 51.5 1.19043 51.9897 1.19043 52.5938C1.19043 53.1978 1.68012 53.6875 2.28418 53.6875C2.88824 53.6875 3.37793 53.1978 3.37793 52.5938C3.37793 51.9897 2.88824 51.5 2.28418 51.5V51.5" stroke="#00E5E5" stroke-linecap="round" stroke-linejoin="round"/>
<path id="Shape_8" fill-rule="evenodd" clip-rule="evenodd" d="M53.6904 9.9375C53.6904 14.77 49.7729 18.6875 44.9404 18.6875H9.94043C5.10794 18.6875 1.19043 14.77 1.19043 9.9375C1.19043 5.10501 5.10794 1.1875 9.94043 1.1875H44.9404C49.7729 1.1875 53.6904 5.10501 53.6904 9.9375Z" stroke="#00E5E5" stroke-linecap="round" stroke-linejoin="round"/>
<path id="Shape_9" d="M23.0654 36.1875H9.94043C5.10794 36.1875 1.19043 32.27 1.19043 27.4375C1.19043 22.605 5.10794 18.6875 9.94043 18.6875H44.9404" stroke="#00E5E5" stroke-linecap="round" stroke-linejoin="round"/>
<path id="Oval" fill-rule="evenodd" clip-rule="evenodd" d="M49.3125 51.5C51.7287 51.5 53.6875 49.5412 53.6875 47.125C53.6875 44.7088 51.7287 42.75 49.3125 42.75C46.8963 42.75 44.9375 44.7088 44.9375 47.125C44.9375 49.5412 46.8963 51.5 49.3125 51.5Z" stroke="#E961FF" stroke-linecap="round" stroke-linejoin="round"/>
<path id="Shape_10" fill-rule="evenodd" clip-rule="evenodd" d="M53.0284 30.2078L54.3205 34.4457C54.7606 35.9048 56.2563 36.7731 57.7417 36.4319L62.038 35.4373C63.709 35.0582 65.432 35.8135 66.2854 37.2994C67.1389 38.7853 66.9233 40.6541 65.7538 41.9065L62.7467 45.1469C61.7056 46.2665 61.7056 47.9999 62.7467 49.1194L65.7538 52.3598C66.9233 53.6123 67.1389 55.4811 66.2854 56.967C65.432 58.4529 63.709 59.2082 62.038 58.829L57.7417 57.8344C56.2563 57.4932 54.7606 58.3616 54.3205 59.8207L53.0284 64.0411C52.5364 65.6824 51.0259 66.8065 49.3125 66.8065C47.5991 66.8065 46.0887 65.6824 45.5967 64.0411L44.3075 59.8032C43.8661 58.3436 42.3695 57.4755 40.8834 57.8169L36.59 58.8115C34.919 59.1907 33.196 58.4354 32.3425 56.9495C31.4891 55.4636 31.7047 53.5948 32.8742 52.3423L35.8784 49.1019C36.9195 47.9824 36.9195 46.249 35.8784 45.1294L32.8742 41.889C31.7047 40.6366 31.4891 38.7678 32.3425 37.2819C33.196 35.796 34.919 35.0407 36.59 35.4198L40.8834 36.4144C42.3695 36.7559 43.8661 35.8877 44.3075 34.4282L45.5967 30.1903C46.0925 28.5501 47.6056 27.4296 49.319 27.4336C51.0325 27.4376 52.5403 28.5653 53.0284 30.2078Z" stroke="#E961FF" stroke-linecap="round" stroke-linejoin="round"/>
</g>
</g>
</svg>
