<svg width="68" height="67" viewBox="0 0 68 67" fill="none" xmlns="http://www.w3.org/2000/svg">
<g id="Group">
<g id="baggage-check-in-user">
<path id="Oval" fill-rule="evenodd" clip-rule="evenodd" d="M55.875 16.8484C60.1034 16.8484 63.5313 13.5577 63.5313 9.49844C63.5313 5.43914 60.1034 2.14844 55.875 2.14844C51.6466 2.14844 48.2188 5.43914 48.2188 9.49844C48.2188 13.5577 51.6466 16.8484 55.875 16.8484Z" stroke="#E961FF" stroke-linecap="round" stroke-linejoin="round"/>
<path id="Shape" fill-rule="evenodd" clip-rule="evenodd" d="M49.3125 57.8016C49.3125 61.281 52.2506 64.1016 55.875 64.1016C59.4994 64.1016 62.4375 61.281 62.4375 57.8016V47.3016C64.8537 47.3016 66.8125 45.4212 66.8125 43.1016V30.5016C66.8125 25.8624 62.895 22.1016 58.0625 22.1016H53.6875C48.855 22.1016 44.9375 25.8624 44.9375 30.5016V43.1016C44.9375 45.4212 46.8963 47.3016 49.3125 47.3016V57.8016Z" stroke="#E961FF" stroke-linecap="round" stroke-linejoin="round"/>
<path id="Shape_2" d="M1.1875 64.0977H40.5625" stroke="#00E5E5" stroke-linecap="round" stroke-linejoin="round"/>
<path id="Shape_3" d="M31.8125 26.2977H5.5625C3.14625 26.2977 1.1875 24.4173 1.1875 22.0977V5.29766C1.1875 2.97806 3.14625 1.09766 5.5625 1.09766H36.1875C38.6037 1.09766 40.5625 2.97806 40.5625 5.29766V17.8977" stroke="#00E5E5" stroke-linecap="round" stroke-linejoin="round"/>
<path id="Shape_4" d="M9.9375 9.49609H18.6875" stroke="#00E5E5" stroke-linecap="round" stroke-linejoin="round"/>
<path id="Shape_5" d="M9.9375 17.8984H27.4375" stroke="#00E5E5" stroke-linecap="round" stroke-linejoin="round"/>
<path id="Rectangle-path" fill-rule="evenodd" clip-rule="evenodd" d="M5.5625 48.7969C5.5625 47.9684 6.23407 47.2969 7.0625 47.2969H30.3125C31.1409 47.2969 31.8125 47.9684 31.8125 48.7969V62.5969C31.8125 63.4253 31.1409 64.0969 30.3125 64.0969H7.0625C6.23407 64.0969 5.5625 63.4253 5.5625 62.5969V48.7969Z" stroke="#00E5E5" stroke-linecap="round" stroke-linejoin="round"/>
<path id="Shape_6" d="M25.25 47.2984V43.0984C25.25 40.7788 23.2912 38.8984 20.875 38.8984H16.5C14.0838 38.8984 12.125 40.7788 12.125 43.0984V47.2984" stroke="#00E5E5" stroke-linecap="round" stroke-linejoin="round"/>
</g>
</g>
</svg>
