<svg width="68" height="68" viewBox="0 0 68 68" fill="none" xmlns="http://www.w3.org/2000/svg">
<g id="Group">
<g id="passport-ticket">
<path id="Shape" d="M23.0625 62.4375H5.5625C3.14625 62.4375 1.1875 60.4787 1.1875 58.0625V5.5625C1.1875 3.14625 3.14625 1.1875 5.5625 1.1875H44.9375C47.3537 1.1875 49.3125 3.14625 49.3125 5.5625V18.6875" stroke="#00E5E5" stroke-linecap="round" stroke-linejoin="round"/>
<path id="Shape_2" d="M18.6962 45.6659C12.8874 42.9108 9.41763 36.8211 10.009 30.4193C10.6004 24.0175 15.127 18.6665 21.3422 17.0221C27.5574 15.3777 34.138 17.79 37.8179 23.0617" stroke="#00E5E5" stroke-linecap="round" stroke-linejoin="round"/>
<path id="Shape_3" fill-rule="evenodd" clip-rule="evenodd" d="M61.5304 36.7833C59.8213 38.4916 57.0509 38.4909 55.3426 36.7818C53.6344 35.0727 53.635 32.3024 55.3441 30.5941L50.7037 25.9537C50.2934 25.5432 49.7368 25.3125 49.1564 25.3125C48.576 25.3125 48.0194 25.5432 47.6091 25.9537L25.9558 47.6099C25.5452 48.0202 25.3146 48.5768 25.3146 49.1572C25.3146 49.7376 25.5452 50.2943 25.9558 50.7045L30.5962 55.3449C32.3128 53.6869 35.0416 53.7107 36.7291 55.3982C38.4167 57.0858 38.4404 59.8145 36.7824 61.5312L41.4229 66.1716C41.8331 66.5822 42.3897 66.8128 42.9702 66.8128C43.5506 66.8128 44.1072 66.5822 44.5174 66.1716L66.1708 44.5154C66.5811 44.1056 66.8117 43.5495 66.8117 42.9695C66.8117 42.3896 66.5811 41.8335 66.1708 41.4237L61.5304 36.7833Z" stroke="#E961FF" stroke-linecap="round" stroke-linejoin="round"/>
<path id="Shape_4" d="M25.25 16.5V38.375" stroke="#00E5E5" stroke-linecap="round" stroke-linejoin="round"/>
<path id="Shape_5" d="M9.9375 31.8125H31.8125" stroke="#00E5E5" stroke-linecap="round" stroke-linejoin="round"/>
</g>
</g>
</svg>
