<svg width="24" height="24" viewBox="0 0 24 24" fill="none" xmlns="http://www.w3.org/2000/svg">
<path d="M15.375 17.25C15.5821 17.25 15.75 17.4179 15.75 17.625C15.75 17.8321 15.5821 18 15.375 18C15.1679 18 15 17.8321 15 17.625C15 17.4179 15.1679 17.25 15.375 17.25" stroke="url(#paint0_linear_2720_9081)" stroke-linecap="round" stroke-linejoin="round"/>
<path d="M19.125 17.25C19.3321 17.25 19.5 17.4179 19.5 17.625C19.5 17.8321 19.3321 18 19.125 18C18.9179 18 18.75 17.8321 18.75 17.625C18.75 17.4179 18.9179 17.25 19.125 17.25" stroke="url(#paint1_linear_2720_9081)" stroke-linecap="round" stroke-linejoin="round"/>
<path d="M15.375 20.25C15.5821 20.25 15.75 20.4179 15.75 20.625C15.75 20.8321 15.5821 21 15.375 21C15.1679 21 15 20.8321 15 20.625C15 20.4179 15.1679 20.25 15.375 20.25" stroke="url(#paint2_linear_2720_9081)" stroke-linecap="round" stroke-linejoin="round"/>
<path d="M19.125 20.25C19.3321 20.25 19.5 20.4179 19.5 20.625C19.5 20.8321 19.3321 21 19.125 21C18.9179 21 18.75 20.8321 18.75 20.625C18.75 20.4179 18.9179 20.25 19.125 20.25" stroke="url(#paint3_linear_2720_9081)" stroke-linecap="round" stroke-linejoin="round"/>
<path fill-rule="evenodd" clip-rule="evenodd" d="M20.25 13.75C20.25 14.103 20.036 14.25 19.821 14.25H14.679C14.464 14.25 14.251 14.086 14.251 13.732V11.75C14.251 11.396 14.465 11.25 14.68 11.25H19.822C20.037 11.25 20.251 11.396 20.251 11.75L20.25 13.75Z" stroke="url(#paint4_linear_2720_9081)" stroke-linecap="round" stroke-linejoin="round"/>
<path fill-rule="evenodd" clip-rule="evenodd" d="M11.25 9.41C11.25 8.76935 11.7693 8.25 12.41 8.25H22.09C22.7307 8.25 23.25 8.76935 23.25 9.41V22.09C23.25 22.7307 22.7307 23.25 22.09 23.25H12.41C11.7693 23.25 11.25 22.7307 11.25 22.09V9.41Z" stroke="url(#paint5_linear_2720_9081)" stroke-linecap="round" stroke-linejoin="round"/>
<path d="M4.125 3.75C4.33211 3.75 4.5 3.91789 4.5 4.125C4.5 4.33211 4.33211 4.5 4.125 4.5C3.91789 4.5 3.75 4.33211 3.75 4.125C3.75 3.91789 3.91789 3.75 4.125 3.75" stroke="url(#paint6_linear_2720_9081)" stroke-linecap="round" stroke-linejoin="round"/>
<path d="M8.25 12.75H2.25C1.42157 12.75 0.75 12.0784 0.75 11.25V2.25C0.75 1.42157 1.42157 0.75 2.25 0.75H18.75C19.5784 0.75 20.25 1.42157 20.25 2.25V5.25" stroke="url(#paint7_linear_2720_9081)" stroke-linecap="round" stroke-linejoin="round"/>
<path d="M7.90476 8.25571C7.36012 7.31222 7.36974 6.14763 7.92991 5.21327C8.49008 4.27892 9.51275 3.72167 10.6016 3.75749C11.6904 3.7933 12.6742 4.41656 13.1718 5.38571" stroke="url(#paint8_linear_2720_9081)" stroke-linecap="round" stroke-linejoin="round"/>
<defs>
<linearGradient id="paint0_linear_2720_9081" x1="15.9114" y1="17.3359" x2="15.1032" y2="18.1785" gradientUnits="userSpaceOnUse">
<stop stop-color="#00E5E5"/>
<stop offset="0.510417" stop-color="#72A5F2"/>
<stop offset="1" stop-color="#E961FF"/>
</linearGradient>
<linearGradient id="paint1_linear_2720_9081" x1="19.6614" y1="17.3359" x2="18.8532" y2="18.1785" gradientUnits="userSpaceOnUse">
<stop stop-color="#00E5E5"/>
<stop offset="0.510417" stop-color="#72A5F2"/>
<stop offset="1" stop-color="#E961FF"/>
</linearGradient>
<linearGradient id="paint2_linear_2720_9081" x1="15.9114" y1="20.3359" x2="15.1032" y2="21.1785" gradientUnits="userSpaceOnUse">
<stop stop-color="#00E5E5"/>
<stop offset="0.510417" stop-color="#72A5F2"/>
<stop offset="1" stop-color="#E961FF"/>
</linearGradient>
<linearGradient id="paint3_linear_2720_9081" x1="19.6614" y1="20.3359" x2="18.8532" y2="21.1785" gradientUnits="userSpaceOnUse">
<stop stop-color="#00E5E5"/>
<stop offset="0.510417" stop-color="#72A5F2"/>
<stop offset="1" stop-color="#E961FF"/>
</linearGradient>
<linearGradient id="paint4_linear_2720_9081" x1="19.7193" y1="11.5078" x2="17.8271" y2="15.4536" gradientUnits="userSpaceOnUse">
<stop stop-color="#00E5E5"/>
<stop offset="0.510417" stop-color="#72A5F2"/>
<stop offset="1" stop-color="#E961FF"/>
</linearGradient>
<linearGradient id="paint5_linear_2720_9081" x1="22.1867" y1="9.53906" x2="10.2506" y2="19.4947" gradientUnits="userSpaceOnUse">
<stop stop-color="#00E5E5"/>
<stop offset="0.510417" stop-color="#72A5F2"/>
<stop offset="1" stop-color="#E961FF"/>
</linearGradient>
<linearGradient id="paint6_linear_2720_9081" x1="4.66139" y1="3.83594" x2="3.85322" y2="4.67853" gradientUnits="userSpaceOnUse">
<stop stop-color="#00E5E5"/>
<stop offset="0.510417" stop-color="#72A5F2"/>
<stop offset="1" stop-color="#E961FF"/>
</linearGradient>
<linearGradient id="paint7_linear_2720_9081" x1="18.5222" y1="1.78125" x2="10.0243" y2="16.1784" gradientUnits="userSpaceOnUse">
<stop stop-color="#00E5E5"/>
<stop offset="0.510417" stop-color="#72A5F2"/>
<stop offset="1" stop-color="#E961FF"/>
</linearGradient>
<linearGradient id="paint8_linear_2720_9081" x1="12.6695" y1="4.14256" x2="9.16088" y2="8.75088" gradientUnits="userSpaceOnUse">
<stop stop-color="#00E5E5"/>
<stop offset="0.510417" stop-color="#72A5F2"/>
<stop offset="1" stop-color="#E961FF"/>
</linearGradient>
</defs>
</svg>
