<svg width="24" height="24" viewBox="0 0 24 24" fill="none" xmlns="http://www.w3.org/2000/svg">
<path fill-rule="evenodd" clip-rule="evenodd" d="M0.75 7.5C0.75 6.67157 1.42157 6 2.25 6H21.75C22.5784 6 23.25 6.67157 23.25 7.5V21C23.25 21.8284 22.5784 22.5 21.75 22.5H2.25C1.42157 22.5 0.75 21.8284 0.75 21V7.5Z" stroke="url(#paint0_linear_2720_9588)" stroke-linecap="round" stroke-linejoin="round"/>
<path d="M5.25 11.25H18.75" stroke="url(#paint1_linear_2720_9588)" stroke-linecap="round" stroke-linejoin="round"/>
<path d="M5.25 17.25H18.75" stroke="url(#paint2_linear_2720_9588)" stroke-linecap="round" stroke-linejoin="round"/>
<path fill-rule="evenodd" clip-rule="evenodd" d="M15.342 2.525C15.1376 1.91276 14.5645 1.49992 13.919 1.5H10.081C9.43554 1.49992 8.8624 1.91276 8.658 2.525L7.5 6H16.5L15.342 2.525Z" stroke="url(#paint3_linear_2720_9588)" stroke-linecap="round" stroke-linejoin="round"/>
<path d="M3.75 6V4.5" stroke="url(#paint4_linear_2720_9588)" stroke-linecap="round" stroke-linejoin="round"/>
<path d="M20.25 6V4.5" stroke="url(#paint5_linear_2720_9588)" stroke-linecap="round" stroke-linejoin="round"/>
<defs>
<linearGradient id="paint0_linear_2720_9588" x1="21.2563" y1="7.41797" x2="8.69556" y2="25.2758" gradientUnits="userSpaceOnUse">
<stop stop-color="#00E5E5"/>
<stop offset="0.510417" stop-color="#72A5F2"/>
<stop offset="1" stop-color="#E961FF"/>
</linearGradient>
<linearGradient id="paint1_linear_2720_9588" x1="17.5538" y1="11.3359" x2="17.4394" y2="12.9456" gradientUnits="userSpaceOnUse">
<stop stop-color="#00E5E5"/>
<stop offset="0.510417" stop-color="#72A5F2"/>
<stop offset="1" stop-color="#E961FF"/>
</linearGradient>
<linearGradient id="paint2_linear_2720_9588" x1="17.5538" y1="17.3359" x2="17.4394" y2="18.9456" gradientUnits="userSpaceOnUse">
<stop stop-color="#00E5E5"/>
<stop offset="0.510417" stop-color="#72A5F2"/>
<stop offset="1" stop-color="#E961FF"/>
</linearGradient>
<linearGradient id="paint3_linear_2720_9588" x1="15.7025" y1="1.88672" x2="12.8641" y2="7.80534" gradientUnits="userSpaceOnUse">
<stop stop-color="#00E5E5"/>
<stop offset="0.510417" stop-color="#72A5F2"/>
<stop offset="1" stop-color="#E961FF"/>
</linearGradient>
<linearGradient id="paint4_linear_2720_9588" x1="4.66139" y1="4.62891" x2="3.52415" y2="5.41936" gradientUnits="userSpaceOnUse">
<stop stop-color="#00E5E5"/>
<stop offset="0.510417" stop-color="#72A5F2"/>
<stop offset="1" stop-color="#E961FF"/>
</linearGradient>
<linearGradient id="paint5_linear_2720_9588" x1="21.1614" y1="4.62891" x2="20.0242" y2="5.41936" gradientUnits="userSpaceOnUse">
<stop stop-color="#00E5E5"/>
<stop offset="0.510417" stop-color="#72A5F2"/>
<stop offset="1" stop-color="#E961FF"/>
</linearGradient>
</defs>
</svg>
