<svg width="24" height="24" viewBox="0 0 24 24" fill="none" xmlns="http://www.w3.org/2000/svg">
<path d="M4.5 8.25V5.25C4.5 4.42157 5.17157 3.75 6 3.75C6.82843 3.75 7.5 4.42157 7.5 5.25V8.25" stroke="url(#paint0_linear_2720_8924)" stroke-linecap="round" stroke-linejoin="round"/>
<path d="M4.5 6.75H7.5" stroke="url(#paint1_linear_2720_8924)" stroke-linecap="round" stroke-linejoin="round"/>
<path d="M16.5 10.5V12" stroke="url(#paint2_linear_2720_8924)" stroke-linecap="round" stroke-linejoin="round"/>
<path d="M13.5 12H19.5" stroke="url(#paint3_linear_2720_8924)" stroke-linecap="round" stroke-linejoin="round"/>
<path d="M18 12C18 12 16.5 16.5 13.5 16.5" stroke="url(#paint4_linear_2720_8924)" stroke-linecap="round" stroke-linejoin="round"/>
<path d="M16.5 14.7676C17.1779 15.7784 18.2857 16.4184 19.5 16.5006" stroke="url(#paint5_linear_2720_8924)" stroke-linecap="round" stroke-linejoin="round"/>
<path fill-rule="evenodd" clip-rule="evenodd" d="M11.25 18.75C10.4216 18.75 9.75 18.0784 9.75 17.25V9.75C9.75 8.92157 10.4216 8.25 11.25 8.25H21.75C22.5784 8.25 23.25 8.92157 23.25 9.75V17.25C23.25 18.0784 22.5784 18.75 21.75 18.75H20.25V23.25L15.75 18.75H11.25Z" stroke="url(#paint6_linear_2720_8924)" stroke-linecap="round" stroke-linejoin="round"/>
<path d="M6.75 12.75L3.75 15.75V11.25H2.25C1.42157 11.25 0.75 10.5784 0.75 9.75V2.25C0.75 1.42157 1.42157 0.75 2.25 0.75H12.75C13.5784 0.75 14.25 1.42157 14.25 2.25V5.25" stroke="url(#paint7_linear_2720_8924)" stroke-linecap="round" stroke-linejoin="round"/>
<defs>
<linearGradient id="paint0_linear_2720_8924" x1="7.23418" y1="4.13672" x2="3.82246" y2="6.50807" gradientUnits="userSpaceOnUse">
<stop stop-color="#00E5E5"/>
<stop offset="0.510417" stop-color="#72A5F2"/>
<stop offset="1" stop-color="#E961FF"/>
</linearGradient>
<linearGradient id="paint1_linear_2720_8924" x1="7.23418" y1="6.83594" x2="6.76493" y2="8.30366" gradientUnits="userSpaceOnUse">
<stop stop-color="#00E5E5"/>
<stop offset="0.510417" stop-color="#72A5F2"/>
<stop offset="1" stop-color="#E961FF"/>
</linearGradient>
<linearGradient id="paint2_linear_2720_8924" x1="17.4114" y1="10.6289" x2="16.2742" y2="11.4194" gradientUnits="userSpaceOnUse">
<stop stop-color="#00E5E5"/>
<stop offset="0.510417" stop-color="#72A5F2"/>
<stop offset="1" stop-color="#E961FF"/>
</linearGradient>
<linearGradient id="paint3_linear_2720_8924" x1="18.9684" y1="12.0859" x2="18.7162" y2="13.6634" gradientUnits="userSpaceOnUse">
<stop stop-color="#00E5E5"/>
<stop offset="0.510417" stop-color="#72A5F2"/>
<stop offset="1" stop-color="#E961FF"/>
</linearGradient>
<linearGradient id="paint4_linear_2720_8924" x1="17.6013" y1="12.3867" x2="13.9645" y2="16.1784" gradientUnits="userSpaceOnUse">
<stop stop-color="#00E5E5"/>
<stop offset="0.510417" stop-color="#72A5F2"/>
<stop offset="1" stop-color="#E961FF"/>
</linearGradient>
<linearGradient id="paint5_linear_2720_8924" x1="19.2342" y1="14.9165" x2="18.0457" y2="17.0616" gradientUnits="userSpaceOnUse">
<stop stop-color="#00E5E5"/>
<stop offset="0.510417" stop-color="#72A5F2"/>
<stop offset="1" stop-color="#E961FF"/>
</linearGradient>
<linearGradient id="paint6_linear_2720_8924" x1="22.0538" y1="9.53906" x2="9.94525" y2="20.9009" gradientUnits="userSpaceOnUse">
<stop stop-color="#00E5E5"/>
<stop offset="0.510417" stop-color="#72A5F2"/>
<stop offset="1" stop-color="#E961FF"/>
</linearGradient>
<linearGradient id="paint7_linear_2720_8924" x1="13.0538" y1="2.03906" x2="0.945247" y2="13.4009" gradientUnits="userSpaceOnUse">
<stop stop-color="#00E5E5"/>
<stop offset="0.510417" stop-color="#72A5F2"/>
<stop offset="1" stop-color="#E961FF"/>
</linearGradient>
</defs>
</svg>
