<svg width="24" height="24" viewBox="0 0 24 24" fill="none" xmlns="http://www.w3.org/2000/svg">
<path d="M7.69531 12.6061L15.4003 13.1071L19.8963 6.83008" stroke="url(#paint0_linear_2725_11288)" stroke-linecap="round" stroke-linejoin="round"/>
<path d="M15.75 18.7499L22.392 15.6059C22.7522 15.4357 23.0299 15.1292 23.1638 14.754C23.2978 14.3788 23.2769 13.9657 23.106 13.6059L19.9 6.82988C19.7298 6.46967 19.4233 6.19197 19.0481 6.05803C18.6729 5.92408 18.2598 5.9449 17.9 6.11588L8.40996 10.6079C8.04975 10.7781 7.77205 11.0846 7.63811 11.4598C7.50416 11.835 7.52497 12.248 7.69596 12.6079L10.6 18.7499" stroke="url(#paint1_linear_2725_11288)" stroke-linecap="round" stroke-linejoin="round"/>
<path d="M2.25 2.25C2.25 3.90685 3.59315 5.25 5.25 5.25H14.25C15.9069 5.25 17.25 3.90685 17.25 2.25" stroke="url(#paint2_linear_2725_11288)" stroke-linecap="round" stroke-linejoin="round"/>
<path d="M2.25 18.75V2.25C2.25 1.42157 2.92157 0.75 3.75 0.75H15.75C16.5784 0.75 17.25 1.42157 17.25 2.25V6.423" stroke="url(#paint3_linear_2725_11288)" stroke-linecap="round" stroke-linejoin="round"/>
<path d="M9.75 5.25V9.973" stroke="url(#paint4_linear_2725_11288)" stroke-linecap="round" stroke-linejoin="round"/>
<path fill-rule="evenodd" clip-rule="evenodd" d="M21.75 23.25H2.25C1.42157 23.25 0.75 22.5784 0.75 21.75V18.75H23.25V21.75C23.25 22.5784 22.5784 23.25 21.75 23.25Z" stroke="url(#paint5_linear_2725_11288)" stroke-linecap="round" stroke-linejoin="round"/>
<defs>
<linearGradient id="paint0_linear_2725_11288" x1="18.8152" y1="7.36951" x2="14.7856" y2="15.5357" gradientUnits="userSpaceOnUse">
<stop stop-color="#00E5E5"/>
<stop offset="0.510417" stop-color="#72A5F2"/>
<stop offset="1" stop-color="#E961FF"/>
</linearGradient>
<linearGradient id="paint1_linear_2725_11288" x1="21.86" y1="7.06891" x2="11.8321" y2="19.9137" gradientUnits="userSpaceOnUse">
<stop stop-color="#00E5E5"/>
<stop offset="0.510417" stop-color="#72A5F2"/>
<stop offset="1" stop-color="#E961FF"/>
</linearGradient>
<linearGradient id="paint2_linear_2725_11288" x1="15.9209" y1="2.50781" x2="15.0229" y2="7.18879" gradientUnits="userSpaceOnUse">
<stop stop-color="#00E5E5"/>
<stop offset="0.510417" stop-color="#72A5F2"/>
<stop offset="1" stop-color="#E961FF"/>
</linearGradient>
<linearGradient id="paint3_linear_2725_11288" x1="15.9209" y1="2.29687" x2="1.50394" y2="14.8227" gradientUnits="userSpaceOnUse">
<stop stop-color="#00E5E5"/>
<stop offset="0.510417" stop-color="#72A5F2"/>
<stop offset="1" stop-color="#E961FF"/>
</linearGradient>
<linearGradient id="paint4_linear_2725_11288" x1="10.6614" y1="5.65588" x2="9.05311" y2="6.01091" gradientUnits="userSpaceOnUse">
<stop stop-color="#00E5E5"/>
<stop offset="0.510417" stop-color="#72A5F2"/>
<stop offset="1" stop-color="#E961FF"/>
</linearGradient>
<linearGradient id="paint5_linear_2725_11288" x1="21.2563" y1="19.1367" x2="19.9094" y2="26.1582" gradientUnits="userSpaceOnUse">
<stop stop-color="#00E5E5"/>
<stop offset="0.510417" stop-color="#72A5F2"/>
<stop offset="1" stop-color="#E961FF"/>
</linearGradient>
</defs>
</svg>
