<svg width="24" height="24" viewBox="0 0 24 24" fill="none" xmlns="http://www.w3.org/2000/svg">
<path d="M10.5 23.2539H2.25C1.42157 23.2539 0.75 22.5823 0.75 21.7539V2.25391C0.75 1.42548 1.42157 0.753906 2.25 0.753906H12.879C13.277 0.753991 13.6587 0.912276 13.94 1.19391L19.811 7.06491C20.0923 7.34635 20.2502 7.72801 20.25 8.12591V12.7539" stroke="url(#paint0_linear_2720_9379)" stroke-linecap="round" stroke-linejoin="round"/>
<path d="M20.25 8.25391H14.25C13.4216 8.25391 12.75 7.58233 12.75 6.75391V0.753906" stroke="url(#paint1_linear_2720_9379)" stroke-linecap="round" stroke-linejoin="round"/>
<path d="M17.25 15.7539V21.7539C17.25 22.5823 16.5784 23.2539 15.75 23.2539H14.25" stroke="url(#paint2_linear_2720_9379)" stroke-linecap="round" stroke-linejoin="round"/>
<path d="M23.25 15.7539H21.75C20.9216 15.7539 20.25 16.4255 20.25 17.2539C20.25 19.5039 23.25 19.5039 23.25 21.7539C23.25 22.5823 22.5784 23.2539 21.75 23.2539H20.25" stroke="url(#paint3_linear_2720_9379)" stroke-linecap="round" stroke-linejoin="round"/>
<defs>
<linearGradient id="paint0_linear_2720_9379" x1="18.5222" y1="2.6875" x2="0.415668" y2="19.0482" gradientUnits="userSpaceOnUse">
<stop stop-color="#00E5E5"/>
<stop offset="0.510417" stop-color="#72A5F2"/>
<stop offset="1" stop-color="#E961FF"/>
</linearGradient>
<linearGradient id="paint1_linear_2720_9379" x1="19.5854" y1="1.39844" x2="13.5242" y2="7.71788" gradientUnits="userSpaceOnUse">
<stop stop-color="#00E5E5"/>
<stop offset="0.510417" stop-color="#72A5F2"/>
<stop offset="1" stop-color="#E961FF"/>
</linearGradient>
<linearGradient id="paint2_linear_2720_9379" x1="16.9842" y1="16.3984" x2="12.6739" y2="18.196" gradientUnits="userSpaceOnUse">
<stop stop-color="#00E5E5"/>
<stop offset="0.510417" stop-color="#72A5F2"/>
<stop offset="1" stop-color="#E961FF"/>
</linearGradient>
<linearGradient id="paint3_linear_2720_9379" x1="22.9842" y1="16.3984" x2="18.6739" y2="18.196" gradientUnits="userSpaceOnUse">
<stop stop-color="#00E5E5"/>
<stop offset="0.510417" stop-color="#72A5F2"/>
<stop offset="1" stop-color="#E961FF"/>
</linearGradient>
</defs>
</svg>
