<svg width="24" height="24" viewBox="0 0 24 24" fill="none" xmlns="http://www.w3.org/2000/svg">
<path d="M23.1356 23.2494L23.2356 22.1274C23.3721 20.6248 22.3714 19.2546 20.8986 18.9274L17.2476 18.1164V12.3744C17.2474 11.8644 17.0397 11.3764 16.6722 11.0227C16.3048 10.669 15.8092 10.4801 15.2996 10.4994C14.8081 10.4969 14.3372 10.6964 13.9969 11.051C13.6566 11.4056 13.4768 11.8844 13.4996 12.3754V21.5754L12.0226 20.4674C11.4124 20.0117 10.5602 20.073 10.0215 20.6114C9.4829 21.1498 9.42116 22.002 9.87659 22.6124L10.3516 23.2454" stroke="url(#paint0_linear_2720_9578)" stroke-linecap="round" stroke-linejoin="round"/>
<path d="M6.75 19.32H2.25C1.42157 19.32 0.75 18.6484 0.75 17.82V2.25C0.75 1.42157 1.42157 0.75 2.25 0.75H15.75C16.5784 0.75 17.25 1.42157 17.25 2.25V7.5" stroke="url(#paint1_linear_2720_9578)" stroke-linecap="round" stroke-linejoin="round"/>
<path fill-rule="evenodd" clip-rule="evenodd" d="M9 9C10.4497 9 11.625 7.82475 11.625 6.375C11.625 4.92525 10.4497 3.75 9 3.75C7.55025 3.75 6.375 4.92525 6.375 6.375C6.375 7.82475 7.55025 9 9 9Z" stroke="url(#paint2_linear_2720_9578)" stroke-linecap="round" stroke-linejoin="round"/>
<path d="M11.0167 10.218C10.3893 9.90893 9.6991 9.74878 8.99972 9.75001C7.09811 9.75341 5.40535 10.9557 4.77572 12.75C4.60377 13.2315 4.51451 13.7387 4.51172 14.25" stroke="url(#paint3_linear_2720_9578)" stroke-linecap="round" stroke-linejoin="round"/>
<path d="M4.5 14.25H10.5" stroke="url(#paint4_linear_2720_9578)" stroke-linecap="round" stroke-linejoin="round"/>
<defs>
<linearGradient id="paint0_linear_2720_9578" x1="22.0362" y1="11.5939" x2="11.786" y2="23.0554" gradientUnits="userSpaceOnUse">
<stop stop-color="#00E5E5"/>
<stop offset="0.510417" stop-color="#72A5F2"/>
<stop offset="1" stop-color="#E961FF"/>
</linearGradient>
<linearGradient id="paint1_linear_2720_9578" x1="15.788" y1="2.34586" x2="0.811032" y2="16.2201" gradientUnits="userSpaceOnUse">
<stop stop-color="#00E5E5"/>
<stop offset="0.510417" stop-color="#72A5F2"/>
<stop offset="1" stop-color="#E961FF"/>
</linearGradient>
<linearGradient id="paint2_linear_2720_9578" x1="11.1598" y1="4.20117" x2="6.91692" y2="8.62478" gradientUnits="userSpaceOnUse">
<stop stop-color="#00E5E5"/>
<stop offset="0.510417" stop-color="#72A5F2"/>
<stop offset="1" stop-color="#E961FF"/>
</linearGradient>
<linearGradient id="paint3_linear_2720_9578" x1="10.4403" y1="10.1367" x2="7.08654" y2="15.1913" gradientUnits="userSpaceOnUse">
<stop stop-color="#00E5E5"/>
<stop offset="0.510417" stop-color="#72A5F2"/>
<stop offset="1" stop-color="#E961FF"/>
</linearGradient>
<linearGradient id="paint4_linear_2720_9578" x1="9.96835" y1="14.3359" x2="9.71619" y2="15.9134" gradientUnits="userSpaceOnUse">
<stop stop-color="#00E5E5"/>
<stop offset="0.510417" stop-color="#72A5F2"/>
<stop offset="1" stop-color="#E961FF"/>
</linearGradient>
</defs>
</svg>
