<svg width="24" height="24" viewBox="0 0 24 24" fill="none" xmlns="http://www.w3.org/2000/svg">
<path d="M19.6356 23.25L19.7356 22.128C19.8721 20.6254 18.8714 19.2552 17.3986 18.928L13.7476 18.117V12.375C13.7476 11.3395 12.9081 10.5 11.8726 10.5C10.8371 10.5 9.99759 11.3395 9.99759 12.375V21.575L8.52259 20.472C7.9124 20.0163 7.06018 20.0776 6.52154 20.616C5.9829 21.1544 5.92116 22.0066 6.37659 22.617L6.85159 23.25" stroke="url(#paint0_linear_2720_9222)" stroke-linecap="round" stroke-linejoin="round"/>
<path fill-rule="evenodd" clip-rule="evenodd" d="M11.5 6C12.9497 6 14.125 4.82475 14.125 3.375C14.125 1.92525 12.9497 0.75 11.5 0.75C10.0503 0.75 8.875 1.92525 8.875 3.375C8.875 4.82475 10.0503 6 11.5 6Z" stroke="url(#paint1_linear_2720_9222)" stroke-linecap="round" stroke-linejoin="round"/>
<path d="M13.7874 7.41595C12.3999 6.53347 10.6286 6.52763 9.23535 7.40095" stroke="url(#paint2_linear_2720_9222)" stroke-linecap="round" stroke-linejoin="round"/>
<path fill-rule="evenodd" clip-rule="evenodd" d="M4.75 12.75C6.19975 12.75 7.375 11.5747 7.375 10.125C7.375 8.67525 6.19975 7.5 4.75 7.5C3.30025 7.5 2.125 8.67525 2.125 10.125C2.125 11.5747 3.30025 12.75 4.75 12.75Z" stroke="url(#paint3_linear_2720_9222)" stroke-linecap="round" stroke-linejoin="round"/>
<path d="M6.651 13.9497C4.59054 12.9192 2.0842 13.718 1 15.7507" stroke="url(#paint4_linear_2720_9222)" stroke-linecap="round" stroke-linejoin="round"/>
<path d="M6.25 4.5H4.75" stroke="url(#paint5_linear_2720_9222)" stroke-linecap="round" stroke-linejoin="round"/>
<path d="M6.25 1.5L4.75 0.75" stroke="url(#paint6_linear_2720_9222)" stroke-linecap="round" stroke-linejoin="round"/>
<path d="M16.75 4.5H18.25" stroke="url(#paint7_linear_2720_9222)" stroke-linecap="round" stroke-linejoin="round"/>
<path d="M16.75 1.5L18.25 0.75" stroke="url(#paint8_linear_2720_9222)" stroke-linecap="round" stroke-linejoin="round"/>
<path fill-rule="evenodd" clip-rule="evenodd" d="M19 12.75C20.4497 12.75 21.625 11.5747 21.625 10.125C21.625 8.67525 20.4497 7.5 19 7.5C17.5503 7.5 16.375 8.67525 16.375 10.125C16.375 11.5747 17.5503 12.75 19 12.75Z" stroke="url(#paint9_linear_2720_9222)" stroke-linecap="round" stroke-linejoin="round"/>
<path d="M17.0996 13.9499C19.1598 12.9193 21.6661 13.7176 22.7506 15.7499" stroke="url(#paint10_linear_2720_9222)" stroke-linecap="round" stroke-linejoin="round"/>
<defs>
<linearGradient id="paint0_linear_2720_9222" x1="18.5362" y1="11.5957" x2="8.28725" y2="23.0571" gradientUnits="userSpaceOnUse">
<stop stop-color="#00E5E5"/>
<stop offset="0.510417" stop-color="#72A5F2"/>
<stop offset="1" stop-color="#E961FF"/>
</linearGradient>
<linearGradient id="paint1_linear_2720_9222" x1="13.6598" y1="1.20117" x2="9.41692" y2="5.62478" gradientUnits="userSpaceOnUse">
<stop stop-color="#00E5E5"/>
<stop offset="0.510417" stop-color="#72A5F2"/>
<stop offset="1" stop-color="#E961FF"/>
</linearGradient>
<linearGradient id="paint2_linear_2720_9222" x1="13.384" y1="6.83594" x2="13.0576" y2="8.38491" gradientUnits="userSpaceOnUse">
<stop stop-color="#00E5E5"/>
<stop offset="0.510417" stop-color="#72A5F2"/>
<stop offset="1" stop-color="#E961FF"/>
</linearGradient>
<linearGradient id="paint3_linear_2720_9222" x1="6.90981" y1="7.95117" x2="2.66692" y2="12.3748" gradientUnits="userSpaceOnUse">
<stop stop-color="#00E5E5"/>
<stop offset="0.510417" stop-color="#72A5F2"/>
<stop offset="1" stop-color="#E961FF"/>
</linearGradient>
<linearGradient id="paint4_linear_2720_9222" x1="6.15028" y1="13.6934" x2="4.93648" y2="16.8708" gradientUnits="userSpaceOnUse">
<stop stop-color="#00E5E5"/>
<stop offset="0.510417" stop-color="#72A5F2"/>
<stop offset="1" stop-color="#E961FF"/>
</linearGradient>
<linearGradient id="paint5_linear_2720_9222" x1="6.11709" y1="4.58594" x2="5.38286" y2="5.73419" gradientUnits="userSpaceOnUse">
<stop stop-color="#00E5E5"/>
<stop offset="0.510417" stop-color="#72A5F2"/>
<stop offset="1" stop-color="#E961FF"/>
</linearGradient>
<linearGradient id="paint6_linear_2720_9222" x1="6.11709" y1="0.835937" x2="5.38286" y2="1.98419" gradientUnits="userSpaceOnUse">
<stop stop-color="#00E5E5"/>
<stop offset="0.510417" stop-color="#72A5F2"/>
<stop offset="1" stop-color="#E961FF"/>
</linearGradient>
<linearGradient id="paint7_linear_2720_9222" x1="18.1171" y1="4.58594" x2="17.3829" y2="5.73419" gradientUnits="userSpaceOnUse">
<stop stop-color="#00E5E5"/>
<stop offset="0.510417" stop-color="#72A5F2"/>
<stop offset="1" stop-color="#E961FF"/>
</linearGradient>
<linearGradient id="paint8_linear_2720_9222" x1="18.1171" y1="0.835937" x2="17.3829" y2="1.98419" gradientUnits="userSpaceOnUse">
<stop stop-color="#00E5E5"/>
<stop offset="0.510417" stop-color="#72A5F2"/>
<stop offset="1" stop-color="#E961FF"/>
</linearGradient>
<linearGradient id="paint9_linear_2720_9222" x1="21.1598" y1="7.95117" x2="16.9169" y2="12.3748" gradientUnits="userSpaceOnUse">
<stop stop-color="#00E5E5"/>
<stop offset="0.510417" stop-color="#72A5F2"/>
<stop offset="1" stop-color="#E961FF"/>
</linearGradient>
<linearGradient id="paint10_linear_2720_9222" x1="22.2499" y1="13.6934" x2="21.0368" y2="16.8699" gradientUnits="userSpaceOnUse">
<stop stop-color="#00E5E5"/>
<stop offset="0.510417" stop-color="#72A5F2"/>
<stop offset="1" stop-color="#E961FF"/>
</linearGradient>
</defs>
</svg>
