<svg width="24" height="24" viewBox="0 0 24 24" fill="none" xmlns="http://www.w3.org/2000/svg">
<path d="M8.25 22.3203H15.75" stroke="url(#paint0_linear_2720_8757)" stroke-linecap="round" stroke-linejoin="round"/>
<path d="M12 19.4414V22.3214" stroke="url(#paint1_linear_2720_8757)" stroke-linecap="round" stroke-linejoin="round"/>
<path d="M0.75 15.8398H23.25" stroke="url(#paint2_linear_2720_8757)" stroke-linecap="round" stroke-linejoin="round"/>
<path d="M21.75 2.88086C22.5784 2.88086 23.25 3.52557 23.25 4.32086V18.0009C23.25 18.7962 22.5784 19.4409 21.75 19.4409H2.25C1.42157 19.4409 0.75 18.7962 0.75 18.0009V4.32086C0.75 3.52557 1.42157 2.88086 2.25 2.88086" stroke="url(#paint3_linear_2720_8757)" stroke-linecap="round" stroke-linejoin="round"/>
<path d="M5.25 12.9607V2.1607C5.25 1.36541 5.92157 0.720703 6.75 0.720703H17.25C18.0784 0.720703 18.75 1.36541 18.75 2.1607V12.9607" stroke="url(#paint4_linear_2720_8757)" stroke-linecap="round" stroke-linejoin="round"/>
<path fill-rule="evenodd" clip-rule="evenodd" d="M8.25 6.48047H11.25V9.36047H8.25V6.48047Z" stroke="url(#paint5_linear_2720_8757)" stroke-linecap="round" stroke-linejoin="round"/>
<path d="M5.25 3.60156H18.75" stroke="url(#paint6_linear_2720_8757)" stroke-linecap="round" stroke-linejoin="round"/>
<path d="M14.25 6.48047H15.75" stroke="url(#paint7_linear_2720_8757)" stroke-linecap="round" stroke-linejoin="round"/>
<path d="M14.25 8.64062H15.75" stroke="url(#paint8_linear_2720_8757)" stroke-linecap="round" stroke-linejoin="round"/>
<path d="M8.25 12.2402H15.75" stroke="url(#paint9_linear_2720_8757)" stroke-linecap="round" stroke-linejoin="round"/>
<defs>
<linearGradient id="paint0_linear_2720_8757" x1="15.0854" y1="22.4028" x2="14.8976" y2="23.9328" gradientUnits="userSpaceOnUse">
<stop stop-color="#00E5E5"/>
<stop offset="0.510417" stop-color="#72A5F2"/>
<stop offset="1" stop-color="#E961FF"/>
</linearGradient>
<linearGradient id="paint1_linear_2720_8757" x1="12.9114" y1="19.6889" x2="11.4202" y2="20.2287" gradientUnits="userSpaceOnUse">
<stop stop-color="#00E5E5"/>
<stop offset="0.510417" stop-color="#72A5F2"/>
<stop offset="1" stop-color="#E961FF"/>
</linearGradient>
<linearGradient id="paint2_linear_2720_8757" x1="21.2563" y1="15.9223" x2="21.1929" y2="17.4728" gradientUnits="userSpaceOnUse">
<stop stop-color="#00E5E5"/>
<stop offset="0.510417" stop-color="#72A5F2"/>
<stop offset="1" stop-color="#E961FF"/>
</linearGradient>
<linearGradient id="paint3_linear_2720_8757" x1="21.2563" y1="4.30398" x2="8.63448" y2="22.1837" gradientUnits="userSpaceOnUse">
<stop stop-color="#00E5E5"/>
<stop offset="0.510417" stop-color="#72A5F2"/>
<stop offset="1" stop-color="#E961FF"/>
</linearGradient>
<linearGradient id="paint4_linear_2720_8757" x1="17.5538" y1="1.77258" x2="7.74902" y2="13.0473" gradientUnits="userSpaceOnUse">
<stop stop-color="#00E5E5"/>
<stop offset="0.510417" stop-color="#72A5F2"/>
<stop offset="1" stop-color="#E961FF"/>
</linearGradient>
<linearGradient id="paint5_linear_2720_8757" x1="10.9842" y1="6.72797" x2="8.66254" y2="9.24935" gradientUnits="userSpaceOnUse">
<stop stop-color="#00E5E5"/>
<stop offset="0.510417" stop-color="#72A5F2"/>
<stop offset="1" stop-color="#E961FF"/>
</linearGradient>
<linearGradient id="paint6_linear_2720_8757" x1="17.5538" y1="3.68406" x2="17.4484" y2="5.22991" gradientUnits="userSpaceOnUse">
<stop stop-color="#00E5E5"/>
<stop offset="0.510417" stop-color="#72A5F2"/>
<stop offset="1" stop-color="#E961FF"/>
</linearGradient>
<linearGradient id="paint7_linear_2720_8757" x1="15.6171" y1="6.56297" x2="14.9247" y2="7.69096" gradientUnits="userSpaceOnUse">
<stop stop-color="#00E5E5"/>
<stop offset="0.510417" stop-color="#72A5F2"/>
<stop offset="1" stop-color="#E961FF"/>
</linearGradient>
<linearGradient id="paint8_linear_2720_8757" x1="15.6171" y1="8.72312" x2="14.9247" y2="9.85111" gradientUnits="userSpaceOnUse">
<stop stop-color="#00E5E5"/>
<stop offset="0.510417" stop-color="#72A5F2"/>
<stop offset="1" stop-color="#E961FF"/>
</linearGradient>
<linearGradient id="paint9_linear_2720_8757" x1="15.0854" y1="12.3227" x2="14.8976" y2="13.8527" gradientUnits="userSpaceOnUse">
<stop stop-color="#00E5E5"/>
<stop offset="0.510417" stop-color="#72A5F2"/>
<stop offset="1" stop-color="#E961FF"/>
</linearGradient>
</defs>
</svg>
