<svg width="24" height="24" viewBox="0 0 24 24" fill="none" xmlns="http://www.w3.org/2000/svg">
<path fill-rule="evenodd" clip-rule="evenodd" d="M5.25 6.75C6.90685 6.75 8.25 5.40685 8.25 3.75C8.25 2.09315 6.90685 0.75 5.25 0.75C3.59315 0.75 2.25 2.09315 2.25 3.75C2.25 5.40685 3.59315 6.75 5.25 6.75Z" stroke="url(#paint0_linear_2720_9212)" stroke-linecap="round" stroke-linejoin="round"/>
<path d="M5.25 8.25V14.25" stroke="url(#paint1_linear_2720_9212)" stroke-linecap="round" stroke-linejoin="round"/>
<path fill-rule="evenodd" clip-rule="evenodd" d="M7.5 23.25L8.25 15.75H9.75V12.75C9.75 10.2647 7.73528 8.25 5.25 8.25C2.76472 8.25 0.75 10.2647 0.75 12.75V15.75H2.25L3 23.25H7.5Z" stroke="url(#paint2_linear_2720_9212)" stroke-linecap="round" stroke-linejoin="round"/>
<path fill-rule="evenodd" clip-rule="evenodd" d="M22.318 8.55671L14.25 6.53971V2.78971L22.318 0.772707C22.542 0.716265 22.7795 0.766348 22.9617 0.908431C23.1438 1.05051 23.2502 1.2687 23.25 1.49971V7.82871C23.2497 8.05961 23.1433 8.27755 22.9613 8.41969C22.7793 8.56183 22.5421 8.61236 22.318 8.55671V8.55671Z" stroke="url(#paint3_linear_2720_9212)" stroke-linecap="round" stroke-linejoin="round"/>
<path d="M14.25 1.28906V8.03906" stroke="url(#paint4_linear_2720_9212)" stroke-linecap="round" stroke-linejoin="round"/>
<path d="M17.25 7.28906V7.91706C17.25 9.33349 18.1563 10.591 19.5 11.0391V11.0391" stroke="url(#paint5_linear_2720_9212)" stroke-linecap="round" stroke-linejoin="round"/>
<defs>
<linearGradient id="paint0_linear_2720_9212" x1="7.71835" y1="1.26562" x2="2.86934" y2="6.32118" gradientUnits="userSpaceOnUse">
<stop stop-color="#00E5E5"/>
<stop offset="0.510417" stop-color="#72A5F2"/>
<stop offset="1" stop-color="#E961FF"/>
</linearGradient>
<linearGradient id="paint1_linear_2720_9212" x1="6.16139" y1="8.76562" x2="4.52418" y2="9.05012" gradientUnits="userSpaceOnUse">
<stop stop-color="#00E5E5"/>
<stop offset="0.510417" stop-color="#72A5F2"/>
<stop offset="1" stop-color="#E961FF"/>
</linearGradient>
<linearGradient id="paint2_linear_2720_9212" x1="8.95253" y1="9.53906" x2="-1.95786" y2="16.3641" gradientUnits="userSpaceOnUse">
<stop stop-color="#00E5E5"/>
<stop offset="0.510417" stop-color="#72A5F2"/>
<stop offset="1" stop-color="#E961FF"/>
</linearGradient>
<linearGradient id="paint3_linear_2720_9212" x1="22.4525" y1="1.42279" x2="16.2225" y2="8.88991" gradientUnits="userSpaceOnUse">
<stop stop-color="#00E5E5"/>
<stop offset="0.510417" stop-color="#72A5F2"/>
<stop offset="1" stop-color="#E961FF"/>
</linearGradient>
<linearGradient id="paint4_linear_2720_9212" x1="15.1614" y1="1.86914" x2="13.514" y2="2.12359" gradientUnits="userSpaceOnUse">
<stop stop-color="#00E5E5"/>
<stop offset="0.510417" stop-color="#72A5F2"/>
<stop offset="1" stop-color="#E961FF"/>
</linearGradient>
<linearGradient id="paint5_linear_2720_9212" x1="19.3006" y1="7.61133" x2="16.573" y2="9.31759" gradientUnits="userSpaceOnUse">
<stop stop-color="#00E5E5"/>
<stop offset="0.510417" stop-color="#72A5F2"/>
<stop offset="1" stop-color="#E961FF"/>
</linearGradient>
</defs>
</svg>
