<svg width="31" height="30" viewBox="0 0 31 30" fill="none" xmlns="http://www.w3.org/2000/svg">
<path fill-rule="evenodd" clip-rule="evenodd" d="M23.8648 8.38388C24.353 7.89573 24.353 7.10427 23.8648 6.61612C23.3767 6.12796 22.5852 6.12796 22.0971 6.61612L15.481 13.2322L8.86484 6.61612C8.37669 6.12796 7.58523 6.12796 7.09707 6.61612C6.60892 7.10427 6.60892 7.89573 7.09707 8.38388L13.7132 15L7.09707 21.6161C6.60892 22.1043 6.60892 22.8957 7.09707 23.3839C7.58523 23.872 8.37669 23.872 8.86484 23.3839L15.481 16.7678L22.0971 23.3839C22.5852 23.872 23.3767 23.872 23.8648 23.3839C24.353 22.8957 24.353 22.1043 23.8648 21.6161L17.2487 15L23.8648 8.38388Z" fill="url(#paint0_linear_599_5239)"/>
<defs>
<linearGradient id="paint0_linear_599_5239" x1="22.6803" y1="7.75391" x2="8.53736" y2="22.4993" gradientUnits="userSpaceOnUse">
<stop stop-color="#00E5E5"/>
<stop offset="0.510417" stop-color="#72A5F2"/>
<stop offset="1" stop-color="#E961FF"/>
</linearGradient>
</defs>
</svg>
