<svg width="68" height="68" viewBox="0 0 68 68" fill="none" xmlns="http://www.w3.org/2000/svg">
<g id="Group">
<g id="seo-search-reward">
<path id="Shape" fill-rule="evenodd" clip-rule="evenodd" d="M47.4983 29.625C47.0978 30.9066 45.8884 31.761 44.5467 31.7104H19.0783C17.7366 31.761 16.5272 30.9066 16.1267 29.625L12.125 9.9375L22.7242 18.0138L31.8125 9.9375L40.8979 18.0138L51.5 9.9375L47.4983 29.625Z" stroke="#E961FF" stroke-linecap="round" stroke-linejoin="round"/>
<path id="Oval" fill-rule="evenodd" clip-rule="evenodd" d="M12.125 9.9375C14.5412 9.9375 16.5 7.97875 16.5 5.5625C16.5 3.14625 14.5412 1.1875 12.125 1.1875C9.70875 1.1875 7.75 3.14625 7.75 5.5625C7.75 7.97875 9.70875 9.9375 12.125 9.9375Z" stroke="#E961FF" stroke-linecap="round" stroke-linejoin="round"/>
<path id="Oval_2" fill-rule="evenodd" clip-rule="evenodd" d="M31.8125 9.9375C34.2287 9.9375 36.1875 7.97875 36.1875 5.5625C36.1875 3.14625 34.2287 1.1875 31.8125 1.1875C29.3963 1.1875 27.4375 3.14625 27.4375 5.5625C27.4375 7.97875 29.3963 9.9375 31.8125 9.9375Z" stroke="#E961FF" stroke-linecap="round" stroke-linejoin="round"/>
<path id="Oval_3" fill-rule="evenodd" clip-rule="evenodd" d="M51.5 9.9375C53.9162 9.9375 55.875 7.97875 55.875 5.5625C55.875 3.14625 53.9162 1.1875 51.5 1.1875C49.0838 1.1875 47.125 3.14625 47.125 5.5625C47.125 7.97875 49.0838 9.9375 51.5 9.9375Z" stroke="#E961FF" stroke-linecap="round" stroke-linejoin="round"/>
<path id="Shape_2" d="M7.75 53.6875V66.8125" stroke="#00E5E5" stroke-linecap="round" stroke-linejoin="round"/>
<path id="Shape_3" d="M14.3125 60.25H1.1875" stroke="#00E5E5" stroke-linecap="round" stroke-linejoin="round"/>
<path id="Shape_4" d="M62.4375 14.3125V23.0625" stroke="#00E5E5" stroke-linecap="round" stroke-linejoin="round"/>
<path id="Shape_5" d="M66.8125 18.6875H58.0625" stroke="#00E5E5" stroke-linecap="round" stroke-linejoin="round"/>
<path id="Shape_6" d="M16.6546 39.9648C16.5704 40.5585 16.5188 41.1564 16.5 41.7557C16.6186 50.567 23.7952 57.6477 32.6073 57.6477C41.4194 57.6477 48.596 50.567 48.7146 41.7557C48.6973 41.1563 48.6457 40.5583 48.56 39.9648" stroke="#00E5E5" stroke-linecap="round" stroke-linejoin="round"/>
<path id="Shape_7" d="M43.0154 53.9492L55.875 66.8117" stroke="#00E5E5" stroke-linecap="round" stroke-linejoin="round"/>
</g>
</g>
</svg>
