<svg width="70" height="70" viewBox="0 0 70 70" fill="none" xmlns="http://www.w3.org/2000/svg">
<g id="Money-Payments-Finance / Accounting/Billing / accounting-calculator-2">
<g id="Group">
<g id="accounting-calculator-2">
<path id="Shape" d="M44.8438 50.3125C45.4478 50.3125 45.9375 50.8022 45.9375 51.4063C45.9375 52.0103 45.4478 52.5 44.8438 52.5C44.2397 52.5 43.75 52.0103 43.75 51.4063C43.75 50.8022 44.2397 50.3125 44.8438 50.3125" stroke="url(#paint0_linear_2715_8925)" stroke-linecap="round" stroke-linejoin="round"/>
<path id="Shape_2" d="M55.7813 50.3125C56.3853 50.3125 56.875 50.8022 56.875 51.4063C56.875 52.0103 56.3853 52.5 55.7813 52.5C55.1772 52.5 54.6875 52.0103 54.6875 51.4063C54.6875 50.8022 55.1772 50.3125 55.7813 50.3125" stroke="url(#paint1_linear_2715_8925)" stroke-linecap="round" stroke-linejoin="round"/>
<path id="Shape_3" d="M44.8438 59.0625C45.4478 59.0625 45.9375 59.5522 45.9375 60.1563C45.9375 60.7603 45.4478 61.25 44.8438 61.25C44.2397 61.25 43.75 60.7603 43.75 60.1563C43.75 59.5522 44.2397 59.0625 44.8438 59.0625" stroke="url(#paint2_linear_2715_8925)" stroke-linecap="round" stroke-linejoin="round"/>
<path id="Shape_4" d="M55.7813 59.0625C56.3853 59.0625 56.875 59.5522 56.875 60.1563C56.875 60.7603 56.3853 61.25 55.7813 61.25C55.1772 61.25 54.6875 60.7603 54.6875 60.1563C54.6875 59.5522 55.1772 59.0625 55.7813 59.0625" stroke="url(#paint3_linear_2715_8925)" stroke-linecap="round" stroke-linejoin="round"/>
<path id="Shape_5" fill-rule="evenodd" clip-rule="evenodd" d="M59.0625 40.1042C59.0625 41.1338 58.4383 41.5625 57.8113 41.5625H42.8138C42.1867 41.5625 41.5654 41.0842 41.5654 40.0517V34.2708C41.5654 33.2383 42.1896 32.8125 42.8167 32.8125H57.8142C58.4413 32.8125 59.0654 33.2383 59.0654 34.2708L59.0625 40.1042Z" stroke="url(#paint4_linear_2715_8925)" stroke-linecap="round" stroke-linejoin="round"/>
<path id="Rectangle-path" fill-rule="evenodd" clip-rule="evenodd" d="M32.8125 25.2225C32.8125 24.5819 33.3318 24.0625 33.9725 24.0625H66.6525C67.2932 24.0625 67.8125 24.5818 67.8125 25.2225V66.6525C67.8125 67.2932 67.2932 67.8125 66.6525 67.8125H33.9725C33.3319 67.8125 32.8125 67.2932 32.8125 66.6525V25.2225Z" stroke="url(#paint5_linear_2715_8925)" stroke-linecap="round" stroke-linejoin="round"/>
<path id="Shape_6" d="M12.0313 10.9375C12.6353 10.9375 13.125 11.4272 13.125 12.0313C13.125 12.6353 12.6353 13.125 12.0313 13.125C11.4272 13.125 10.9375 12.6353 10.9375 12.0313C10.9375 11.4272 11.4272 10.9375 12.0313 10.9375" stroke="url(#paint6_linear_2715_8925)" stroke-linecap="round" stroke-linejoin="round"/>
<path id="Shape_7" d="M24.0625 37.1875H6.5625C4.14625 37.1875 2.1875 35.2287 2.1875 32.8125V6.5625C2.1875 4.14625 4.14625 2.1875 6.5625 2.1875H54.6875C57.1037 2.1875 59.0625 4.14625 59.0625 6.5625V15.3125" stroke="url(#paint7_linear_2715_8925)" stroke-linecap="round" stroke-linejoin="round"/>
<path id="Shape_8" d="M23.0563 24.0816C21.4677 21.3298 21.4958 17.933 23.1296 15.2078C24.7635 12.4826 27.7462 10.8573 30.922 10.9618C34.0977 11.0662 36.9672 12.8841 38.4184 15.7108" stroke="url(#paint8_linear_2715_8925)" stroke-linecap="round" stroke-linejoin="round"/>
</g>
</g>
</g>
<defs>
<linearGradient id="paint0_linear_2715_8925" x1="46.4082" y1="50.5632" x2="44.0511" y2="53.0207" gradientUnits="userSpaceOnUse">
<stop stop-color="#00E5E5"/>
<stop offset="0.510417" stop-color="#72A5F2"/>
<stop offset="1" stop-color="#E961FF"/>
</linearGradient>
<linearGradient id="paint1_linear_2715_8925" x1="57.3457" y1="50.5632" x2="54.9886" y2="53.0207" gradientUnits="userSpaceOnUse">
<stop stop-color="#00E5E5"/>
<stop offset="0.510417" stop-color="#72A5F2"/>
<stop offset="1" stop-color="#E961FF"/>
</linearGradient>
<linearGradient id="paint2_linear_2715_8925" x1="46.4082" y1="59.3132" x2="44.0511" y2="61.7707" gradientUnits="userSpaceOnUse">
<stop stop-color="#00E5E5"/>
<stop offset="0.510417" stop-color="#72A5F2"/>
<stop offset="1" stop-color="#E961FF"/>
</linearGradient>
<linearGradient id="paint3_linear_2715_8925" x1="57.3457" y1="59.3132" x2="54.9886" y2="61.7707" gradientUnits="userSpaceOnUse">
<stop stop-color="#00E5E5"/>
<stop offset="0.510417" stop-color="#72A5F2"/>
<stop offset="1" stop-color="#E961FF"/>
</linearGradient>
<linearGradient id="paint4_linear_2715_8925" x1="57.5148" y1="33.5645" x2="51.9957" y2="45.0729" gradientUnits="userSpaceOnUse">
<stop stop-color="#00E5E5"/>
<stop offset="0.510417" stop-color="#72A5F2"/>
<stop offset="1" stop-color="#E961FF"/>
</linearGradient>
<linearGradient id="paint5_linear_2715_8925" x1="64.7112" y1="27.8223" x2="29.8976" y2="56.8594" gradientUnits="userSpaceOnUse">
<stop stop-color="#00E5E5"/>
<stop offset="0.510417" stop-color="#72A5F2"/>
<stop offset="1" stop-color="#E961FF"/>
</linearGradient>
<linearGradient id="paint6_linear_2715_8925" x1="13.5957" y1="11.1882" x2="11.2386" y2="13.6457" gradientUnits="userSpaceOnUse">
<stop stop-color="#00E5E5"/>
<stop offset="0.510417" stop-color="#72A5F2"/>
<stop offset="1" stop-color="#E961FF"/>
</linearGradient>
<linearGradient id="paint7_linear_2715_8925" x1="54.0229" y1="5.19531" x2="29.2376" y2="47.187" gradientUnits="userSpaceOnUse">
<stop stop-color="#00E5E5"/>
<stop offset="0.510417" stop-color="#72A5F2"/>
<stop offset="1" stop-color="#E961FF"/>
</linearGradient>
<linearGradient id="paint8_linear_2715_8925" x1="36.9533" y1="12.0849" x2="26.72" y2="25.5258" gradientUnits="userSpaceOnUse">
<stop stop-color="#00E5E5"/>
<stop offset="0.510417" stop-color="#72A5F2"/>
<stop offset="1" stop-color="#E961FF"/>
</linearGradient>
</defs>
</svg>
