<svg width="70" height="70" viewBox="0 0 70 70" fill="none" xmlns="http://www.w3.org/2000/svg">
<g id="Business-Products / Business-Deals / business-contract-handshake-sign">
<g id="Group">
<g id="business-contract-handshake-sign">
<path id="Shape" d="M50.3125 2.1875H10.9375C6.10501 2.1875 2.1875 6.10501 2.1875 10.9375V63.4375C2.1875 65.8537 4.14625 67.8125 6.5625 67.8125H10.7479" stroke="url(#paint0_linear_2667_8547)" stroke-linecap="round" stroke-linejoin="round"/>
<path id="Shape_2" d="M10.9375 13.125H30.625" stroke="url(#paint1_linear_2667_8547)" stroke-linecap="round" stroke-linejoin="round"/>
<path id="Shape_3" d="M10.9375 21.875H30.625" stroke="url(#paint2_linear_2667_8547)" stroke-linecap="round" stroke-linejoin="round"/>
<path id="Shape_4" d="M10.9375 30.625H20.7346" stroke="url(#paint3_linear_2667_8547)" stroke-linecap="round" stroke-linejoin="round"/>
<path id="Shape_5" d="M43.75 28.4375V8.75C43.7612 5.13028 46.6928 2.19871 50.3125 2.1875V2.1875C53.9329 2.19712 56.8654 5.12962 56.875 8.75V13.125H43.75" stroke="url(#paint4_linear_2667_8547)" stroke-linecap="round" stroke-linejoin="round"/>
<path id="Shape_6" d="M63.4374 57.1958L49.4753 59.99" stroke="url(#paint5_linear_2667_8547)" stroke-linecap="round" stroke-linejoin="round"/>
<path id="Shape_7" d="M50.8609 44.1524L44.2693 46.9349C43.2187 47.3702 42.0353 47.3544 40.9968 46.8912C39.9448 46.4192 39.1248 45.5467 38.7189 44.4674C37.9007 42.3653 38.7857 39.9836 40.778 38.9257L47.3668 35.6357C48.8085 34.893 50.4969 34.7934 52.0159 35.3616L65.5464 40.6932" stroke="url(#paint6_linear_2667_8547)" stroke-linecap="round" stroke-linejoin="round"/>
<path id="Shape_8" d="M23.9167 60.1008H28.5834L37.4763 66.885C38.341 67.8621 39.8244 67.9782 40.8305 67.1475L53.2555 56.8867C54.2763 56.0418 54.4427 54.5395 53.6317 53.4917L46.7863 45.8821" stroke="url(#paint7_linear_2667_8547)" stroke-linecap="round" stroke-linejoin="round"/>
<path id="Shape_9" d="M40.0633 39.3926L39.3429 38.8093C37.8894 37.7404 35.987 37.4978 34.3117 38.1676L23.8992 42.5834" stroke="url(#paint8_linear_2667_8547)" stroke-linecap="round" stroke-linejoin="round"/>
<path id="Shape_10" d="M19.6875 62.2883H20.5625C22.3895 62.3862 23.9529 60.9909 24.0625 59.1645V43.537C23.9529 41.7107 22.3895 40.3154 20.5625 40.4133H19.6875" stroke="url(#paint9_linear_2667_8547)" stroke-linecap="round" stroke-linejoin="round"/>
<path id="Shape_11" d="M67.8125 62.2883H66.9375C65.1105 62.3862 63.5471 60.9909 63.4375 59.1645V43.537C63.5471 41.7107 65.1105 40.3154 66.9375 40.4133H67.8125" stroke="url(#paint10_linear_2667_8547)" stroke-linecap="round" stroke-linejoin="round"/>
</g>
</g>
</g>
<defs>
<linearGradient id="paint0_linear_2667_8547" x1="46.0483" y1="7.82715" x2="-5.17718" y2="46.9925" gradientUnits="userSpaceOnUse">
<stop stop-color="#00E5E5"/>
<stop offset="0.510417" stop-color="#72A5F2"/>
<stop offset="1" stop-color="#E961FF"/>
</linearGradient>
<linearGradient id="paint1_linear_2667_8547" x1="28.8805" y1="13.3757" x2="28.2233" y2="18.0007" gradientUnits="userSpaceOnUse">
<stop stop-color="#00E5E5"/>
<stop offset="0.510417" stop-color="#72A5F2"/>
<stop offset="1" stop-color="#E961FF"/>
</linearGradient>
<linearGradient id="paint2_linear_2667_8547" x1="28.8805" y1="22.1257" x2="28.2233" y2="26.7507" gradientUnits="userSpaceOnUse">
<stop stop-color="#00E5E5"/>
<stop offset="0.510417" stop-color="#72A5F2"/>
<stop offset="1" stop-color="#E961FF"/>
</linearGradient>
<linearGradient id="paint3_linear_2667_8547" x1="19.8665" y1="30.8757" x2="18.6207" y2="35.2384" gradientUnits="userSpaceOnUse">
<stop stop-color="#00E5E5"/>
<stop offset="0.510417" stop-color="#72A5F2"/>
<stop offset="1" stop-color="#E961FF"/>
</linearGradient>
<linearGradient id="paint4_linear_2667_8547" x1="55.712" y1="4.44336" x2="38.3051" y2="13.5175" gradientUnits="userSpaceOnUse">
<stop stop-color="#00E5E5"/>
<stop offset="0.510417" stop-color="#72A5F2"/>
<stop offset="1" stop-color="#E961FF"/>
</linearGradient>
<linearGradient id="paint5_linear_2667_8547" x1="62.2003" y1="57.4465" x2="61.2914" y2="61.9828" gradientUnits="userSpaceOnUse">
<stop stop-color="#00E5E5"/>
<stop offset="0.510417" stop-color="#72A5F2"/>
<stop offset="1" stop-color="#E961FF"/>
</linearGradient>
<linearGradient id="paint6_linear_2667_8547" x1="63.1423" y1="36.0501" x2="55.9122" y2="52.7408" gradientUnits="userSpaceOnUse">
<stop stop-color="#00E5E5"/>
<stop offset="0.510417" stop-color="#72A5F2"/>
<stop offset="1" stop-color="#E961FF"/>
</linearGradient>
<linearGradient id="paint7_linear_2667_8547" x1="51.4671" y1="47.7572" x2="34.9473" y2="71.6186" gradientUnits="userSpaceOnUse">
<stop stop-color="#00E5E5"/>
<stop offset="0.510417" stop-color="#72A5F2"/>
<stop offset="1" stop-color="#E961FF"/>
</linearGradient>
<linearGradient id="paint8_linear_2667_8547" x1="38.6311" y1="38.206" x2="36.594" y2="45.3745" gradientUnits="userSpaceOnUse">
<stop stop-color="#00E5E5"/>
<stop offset="0.510417" stop-color="#72A5F2"/>
<stop offset="1" stop-color="#E961FF"/>
</linearGradient>
<linearGradient id="paint9_linear_2667_8547" x1="23.6748" y1="42.2892" x2="16.603" y2="43.7631" gradientUnits="userSpaceOnUse">
<stop stop-color="#00E5E5"/>
<stop offset="0.510417" stop-color="#72A5F2"/>
<stop offset="1" stop-color="#E961FF"/>
</linearGradient>
<linearGradient id="paint10_linear_2667_8547" x1="67.4248" y1="42.2892" x2="60.353" y2="43.7631" gradientUnits="userSpaceOnUse">
<stop stop-color="#00E5E5"/>
<stop offset="0.510417" stop-color="#72A5F2"/>
<stop offset="1" stop-color="#E961FF"/>
</linearGradient>
</defs>
</svg>
