<svg width="70" height="70" viewBox="0 0 70 70" fill="none" xmlns="http://www.w3.org/2000/svg">
<g id="Business-Products / Business-Deals / business-deal-negotiate">
<g id="Group">
<g id="business-deal-negotiate">
<path id="Shape" d="M2.1875 14.5664C15.0208 17.6668 18.1708 31.2118 24.0625 45.9381H17.5V54.061C17.5 55.9678 16.7425 57.7965 15.3942 59.1448C14.0459 60.4931 12.2172 61.2506 10.3104 61.2506H6.5625V67.8131" stroke="url(#paint0_linear_2713_8649)" stroke-linecap="round" stroke-linejoin="round"/>
<path id="Shape_2" d="M67.8125 14.5664C54.9792 17.6668 51.8263 31.2118 45.9375 45.9381H52.5V54.061C52.5 58.0306 55.7171 61.249 59.6867 61.2506H63.4375V67.8131" stroke="url(#paint1_linear_2713_8649)" stroke-linecap="round" stroke-linejoin="round"/>
<path id="Shape_3" fill-rule="evenodd" clip-rule="evenodd" d="M24.0625 21.875H30.625V30.625L41.5625 21.875H48.125C49.3331 21.875 50.3125 20.8956 50.3125 19.6875V4.375C50.3125 3.16688 49.3331 2.1875 48.125 2.1875H24.0625C22.8544 2.1875 21.875 3.16688 21.875 4.375V19.6875C21.875 20.8956 22.8544 21.875 24.0625 21.875Z" stroke="url(#paint2_linear_2713_8649)" stroke-linecap="round" stroke-linejoin="round"/>
</g>
</g>
</g>
<defs>
<linearGradient id="paint0_linear_2713_8649" x1="22.1242" y1="19.1423" x2="-9.05173" y2="32.4956" gradientUnits="userSpaceOnUse">
<stop stop-color="#00E5E5"/>
<stop offset="0.510417" stop-color="#72A5F2"/>
<stop offset="1" stop-color="#E961FF"/>
</linearGradient>
<linearGradient id="paint1_linear_2713_8649" x1="65.8742" y1="19.1423" x2="34.6983" y2="32.4956" gradientUnits="userSpaceOnUse">
<stop stop-color="#00E5E5"/>
<stop offset="0.510417" stop-color="#72A5F2"/>
<stop offset="1" stop-color="#E961FF"/>
</linearGradient>
<linearGradient id="paint2_linear_2713_8649" x1="47.7927" y1="4.63135" x2="24.8104" y2="28.5926" gradientUnits="userSpaceOnUse">
<stop stop-color="#00E5E5"/>
<stop offset="0.510417" stop-color="#72A5F2"/>
<stop offset="1" stop-color="#E961FF"/>
</linearGradient>
</defs>
</svg>
