<svg width="70" height="70" viewBox="0 0 70 70" fill="none" xmlns="http://www.w3.org/2000/svg">
<g id="Business-Products / Strategy / graph-statistics-coffee">
<g id="Group">
<g id="graph-statistics-coffee">
<path id="Shape" fill-rule="evenodd" clip-rule="evenodd" d="M45.9375 67.75C38.8383 67.75 32.8125 63.9117 32.8125 56.8125V45.875H59.0625V56.8125C59.0625 59.1108 57.2921 67.75 45.9375 67.75Z" stroke="url(#paint0_linear_2715_8822)" stroke-linecap="round" stroke-linejoin="round"/>
<path id="Shape_2" d="M24.0625 37.125L19.6875 45.875" stroke="url(#paint1_linear_2715_8822)" stroke-linecap="round" stroke-linejoin="round"/>
<path id="Shape_3" d="M32.8125 37.125H6.5625C4.14625 37.125 2.1875 35.1662 2.1875 32.75V6.5C2.1875 4.08375 4.14625 2.125 6.5625 2.125H52.5C54.9162 2.125 56.875 4.08375 56.875 6.5V19.625" stroke="url(#paint2_linear_2715_8822)" stroke-linecap="round" stroke-linejoin="round"/>
<path id="Shape_4" d="M15.3125 45.875H24.0625" stroke="url(#paint3_linear_2715_8822)" stroke-linecap="round" stroke-linejoin="round"/>
<path id="Shape_5" d="M10.9375 28.375H32.8125" stroke="url(#paint4_linear_2715_8822)" stroke-linecap="round" stroke-linejoin="round"/>
<path id="Shape_6" d="M15.3125 28.375V21.8125" stroke="url(#paint5_linear_2715_8822)" stroke-linecap="round" stroke-linejoin="round"/>
<path id="Shape_7" d="M24.0625 28.375V17.4375" stroke="url(#paint6_linear_2715_8822)" stroke-linecap="round" stroke-linejoin="round"/>
<path id="Shape_8" d="M32.8125 28.375V10.875" stroke="url(#paint7_linear_2715_8822)" stroke-linecap="round" stroke-linejoin="round"/>
<path id="Shape_9" d="M41.6413 29.7031C38.433 32.9115 44.8176 33.9935 41.6851 37.126" stroke="url(#paint8_linear_2715_8822)" stroke-linecap="round" stroke-linejoin="round"/>
<path id="Shape_10" d="M50.8697 24.1172C45.293 29.6909 56.4113 31.5868 50.9455 37.0439" stroke="url(#paint9_linear_2715_8822)" stroke-linecap="round" stroke-linejoin="round"/>
<path id="Shape_11" d="M59.0624 48.0625H61.2499C64.8743 48.0625 67.8124 51.0006 67.8124 54.625C67.8124 58.2494 64.8743 61.1875 61.2499 61.1875H57.9453" stroke="url(#paint10_linear_2715_8822)" stroke-linecap="round" stroke-linejoin="round"/>
</g>
</g>
</g>
<defs>
<linearGradient id="paint0_linear_2715_8822" x1="56.7366" y1="47.7549" x2="39.4774" y2="69.348" gradientUnits="userSpaceOnUse">
<stop stop-color="#00E5E5"/>
<stop offset="0.510417" stop-color="#72A5F2"/>
<stop offset="1" stop-color="#E961FF"/>
</linearGradient>
<linearGradient id="paint1_linear_2715_8822" x1="23.6748" y1="37.877" x2="17.8725" y2="40.9017" gradientUnits="userSpaceOnUse">
<stop stop-color="#00E5E5"/>
<stop offset="0.510417" stop-color="#72A5F2"/>
<stop offset="1" stop-color="#E961FF"/>
</linearGradient>
<linearGradient id="paint2_linear_2715_8822" x1="52.0293" y1="5.13281" x2="26.7848" y2="46.2574" gradientUnits="userSpaceOnUse">
<stop stop-color="#00E5E5"/>
<stop offset="0.510417" stop-color="#72A5F2"/>
<stop offset="1" stop-color="#E961FF"/>
</linearGradient>
<linearGradient id="paint3_linear_2715_8822" x1="23.2872" y1="46.1257" x2="21.9185" y2="50.4065" gradientUnits="userSpaceOnUse">
<stop stop-color="#00E5E5"/>
<stop offset="0.510417" stop-color="#72A5F2"/>
<stop offset="1" stop-color="#E961FF"/>
</linearGradient>
<linearGradient id="paint4_linear_2715_8822" x1="30.8742" y1="28.6257" x2="30.2805" y2="33.2681" gradientUnits="userSpaceOnUse">
<stop stop-color="#00E5E5"/>
<stop offset="0.510417" stop-color="#72A5F2"/>
<stop offset="1" stop-color="#E961FF"/>
</linearGradient>
<linearGradient id="paint5_linear_2715_8822" x1="17.9707" y1="22.3765" x2="13.9209" y2="24.2531" gradientUnits="userSpaceOnUse">
<stop stop-color="#00E5E5"/>
<stop offset="0.510417" stop-color="#72A5F2"/>
<stop offset="1" stop-color="#E961FF"/>
</linearGradient>
<linearGradient id="paint6_linear_2715_8822" x1="26.7207" y1="18.3774" x2="22.1543" y2="19.647" gradientUnits="userSpaceOnUse">
<stop stop-color="#00E5E5"/>
<stop offset="0.510417" stop-color="#72A5F2"/>
<stop offset="1" stop-color="#E961FF"/>
</linearGradient>
<linearGradient id="paint7_linear_2715_8822" x1="35.4707" y1="12.3789" x2="30.6955" y2="13.2087" gradientUnits="userSpaceOnUse">
<stop stop-color="#00E5E5"/>
<stop offset="0.510417" stop-color="#72A5F2"/>
<stop offset="1" stop-color="#E961FF"/>
</linearGradient>
<linearGradient id="paint8_linear_2715_8822" x1="43.3704" y1="30.341" x2="39.1579" y2="32.0667" gradientUnits="userSpaceOnUse">
<stop stop-color="#00E5E5"/>
<stop offset="0.510417" stop-color="#72A5F2"/>
<stop offset="1" stop-color="#E961FF"/>
</linearGradient>
<linearGradient id="paint9_linear_2715_8822" x1="52.2155" y1="25.2281" x2="47.0914" y2="26.5697" gradientUnits="userSpaceOnUse">
<stop stop-color="#00E5E5"/>
<stop offset="0.510417" stop-color="#72A5F2"/>
<stop offset="1" stop-color="#E961FF"/>
</linearGradient>
<linearGradient id="paint10_linear_2715_8822" x1="66.9381" y1="49.1904" x2="56.629" y2="57.2707" gradientUnits="userSpaceOnUse">
<stop stop-color="#00E5E5"/>
<stop offset="0.510417" stop-color="#72A5F2"/>
<stop offset="1" stop-color="#E961FF"/>
</linearGradient>
</defs>
</svg>
