<svg width="70" height="70" viewBox="0 0 70 70" fill="none" xmlns="http://www.w3.org/2000/svg">
<g id="Work-Office-Companies / Job-Search/Recruiting / job-choose-cadidate-1">
<g id="Group">
<g id="job-choose-cadidate-1">
<path id="Shape" d="M57.2718 67.8125L57.5635 64.54C57.9616 60.1575 55.0431 56.1611 50.7473 55.2067L40.0985 52.8413V36.0938C40.0985 33.0734 37.6501 30.625 34.6298 30.625C31.6095 30.625 29.161 33.0734 29.161 36.0938V62.9271L24.8589 59.71C23.0792 58.3809 20.5936 58.5597 19.0225 60.1301C17.4515 61.7004 17.2714 64.1859 18.5998 65.9662L19.9852 67.8125" stroke="url(#paint0_linear_2715_8984)" stroke-linecap="round" stroke-linejoin="round"/>
<path id="Oval" fill-rule="evenodd" clip-rule="evenodd" d="M33.5417 17.5C37.7702 17.5 41.198 14.0722 41.198 9.84375C41.198 5.61532 37.7702 2.1875 33.5417 2.1875C29.3133 2.1875 25.8855 5.61532 25.8855 9.84375C25.8855 14.0722 29.3133 17.5 33.5417 17.5Z" stroke="url(#paint1_linear_2715_8984)" stroke-linecap="round" stroke-linejoin="round"/>
<path id="Shape_2" d="M40.2122 21.6259C36.1655 19.052 30.9992 19.035 26.9355 21.5822" stroke="url(#paint2_linear_2715_8984)" stroke-linecap="round" stroke-linejoin="round"/>
<path id="Oval_2" fill-rule="evenodd" clip-rule="evenodd" d="M13.8542 37.1875C18.0827 37.1875 21.5105 33.7597 21.5105 29.5313C21.5105 25.3028 18.0827 21.875 13.8542 21.875C9.62582 21.875 6.198 25.3028 6.198 29.5313C6.198 33.7597 9.62582 37.1875 13.8542 37.1875Z" stroke="url(#paint3_linear_2715_8984)" stroke-linecap="round" stroke-linejoin="round"/>
<path id="Shape_3" d="M19.3988 40.6827C13.3892 37.6771 6.07899 40.0069 2.91675 45.9356" stroke="url(#paint4_linear_2715_8984)" stroke-linecap="round" stroke-linejoin="round"/>
<path id="Shape_4" d="M18.2292 13.125H13.8542" stroke="url(#paint5_linear_2715_8984)" stroke-linecap="round" stroke-linejoin="round"/>
<path id="Shape_5" d="M18.2292 4.375L13.8542 2.1875" stroke="url(#paint6_linear_2715_8984)" stroke-linecap="round" stroke-linejoin="round"/>
<path id="Shape_6" d="M48.8542 13.125H53.2292" stroke="url(#paint7_linear_2715_8984)" stroke-linecap="round" stroke-linejoin="round"/>
<path id="Shape_7" d="M48.8542 4.375L53.2292 2.1875" stroke="url(#paint8_linear_2715_8984)" stroke-linecap="round" stroke-linejoin="round"/>
<path id="Oval_3" fill-rule="evenodd" clip-rule="evenodd" d="M55.4167 37.1875C59.6452 37.1875 63.073 33.7597 63.073 29.5313C63.073 25.3028 59.6452 21.875 55.4167 21.875C51.1883 21.875 47.7605 25.3028 47.7605 29.5313C47.7605 33.7597 51.1883 37.1875 55.4167 37.1875Z" stroke="url(#paint9_linear_2715_8984)" stroke-linecap="round" stroke-linejoin="round"/>
<path id="Shape_8" d="M49.875 40.6833C55.8839 37.6773 63.1938 40.0057 66.3571 45.9333" stroke="url(#paint10_linear_2715_8984)" stroke-linecap="round" stroke-linejoin="round"/>
</g>
</g>
</g>
<defs>
<linearGradient id="paint0_linear_2715_8984" x1="54.0654" y1="33.8208" x2="24.1725" y2="67.2499" gradientUnits="userSpaceOnUse">
<stop stop-color="#00E5E5"/>
<stop offset="0.510417" stop-color="#72A5F2"/>
<stop offset="1" stop-color="#E961FF"/>
</linearGradient>
<linearGradient id="paint1_linear_2715_8984" x1="39.8412" y1="3.50342" x2="27.4661" y2="16.4056" gradientUnits="userSpaceOnUse">
<stop stop-color="#00E5E5"/>
<stop offset="0.510417" stop-color="#72A5F2"/>
<stop offset="1" stop-color="#E961FF"/>
</linearGradient>
<linearGradient id="paint2_linear_2715_8984" x1="39.0358" y1="19.9342" x2="38.0839" y2="24.4521" gradientUnits="userSpaceOnUse">
<stop stop-color="#00E5E5"/>
<stop offset="0.510417" stop-color="#72A5F2"/>
<stop offset="1" stop-color="#E961FF"/>
</linearGradient>
<linearGradient id="paint3_linear_2715_8984" x1="20.1537" y1="23.1909" x2="7.7786" y2="36.0931" gradientUnits="userSpaceOnUse">
<stop stop-color="#00E5E5"/>
<stop offset="0.510417" stop-color="#72A5F2"/>
<stop offset="1" stop-color="#E961FF"/>
</linearGradient>
<linearGradient id="paint4_linear_2715_8984" x1="17.9384" y1="39.9352" x2="14.3982" y2="49.2026" gradientUnits="userSpaceOnUse">
<stop stop-color="#00E5E5"/>
<stop offset="0.510417" stop-color="#72A5F2"/>
<stop offset="1" stop-color="#E961FF"/>
</linearGradient>
<linearGradient id="paint5_linear_2715_8984" x1="17.8416" y1="13.3757" x2="15.7001" y2="16.7247" gradientUnits="userSpaceOnUse">
<stop stop-color="#00E5E5"/>
<stop offset="0.510417" stop-color="#72A5F2"/>
<stop offset="1" stop-color="#E961FF"/>
</linearGradient>
<linearGradient id="paint6_linear_2715_8984" x1="17.8416" y1="2.43815" x2="15.7001" y2="5.78723" gradientUnits="userSpaceOnUse">
<stop stop-color="#00E5E5"/>
<stop offset="0.510417" stop-color="#72A5F2"/>
<stop offset="1" stop-color="#E961FF"/>
</linearGradient>
<linearGradient id="paint7_linear_2715_8984" x1="52.8416" y1="13.3757" x2="50.7001" y2="16.7247" gradientUnits="userSpaceOnUse">
<stop stop-color="#00E5E5"/>
<stop offset="0.510417" stop-color="#72A5F2"/>
<stop offset="1" stop-color="#E961FF"/>
</linearGradient>
<linearGradient id="paint8_linear_2715_8984" x1="52.8416" y1="2.43815" x2="50.7001" y2="5.78723" gradientUnits="userSpaceOnUse">
<stop stop-color="#00E5E5"/>
<stop offset="0.510417" stop-color="#72A5F2"/>
<stop offset="1" stop-color="#E961FF"/>
</linearGradient>
<linearGradient id="paint9_linear_2715_8984" x1="61.7162" y1="23.1909" x2="49.3411" y2="36.0931" gradientUnits="userSpaceOnUse">
<stop stop-color="#00E5E5"/>
<stop offset="0.510417" stop-color="#72A5F2"/>
<stop offset="1" stop-color="#E961FF"/>
</linearGradient>
<linearGradient id="paint10_linear_2715_8984" x1="64.8966" y1="39.935" x2="61.3586" y2="49.2" gradientUnits="userSpaceOnUse">
<stop stop-color="#00E5E5"/>
<stop offset="0.510417" stop-color="#72A5F2"/>
<stop offset="1" stop-color="#E961FF"/>
</linearGradient>
</defs>
</svg>
