<svg width="70" height="70" viewBox="0 0 70 70" fill="none" xmlns="http://www.w3.org/2000/svg">
<g id="Work-Office-Companies / Job-Search/Recruiting / job-seach-profile">
<g id="Group">
<g id="job-seach-profile">
<path id="Shape" d="M67.4801 67.8125L67.7718 64.54C68.1699 60.1575 65.2513 56.1612 60.9555 55.2067L50.3068 52.8413V36.0938C50.3062 34.6062 49.7004 33.1829 48.6287 32.1514C47.5569 31.1198 46.1116 30.5687 44.6251 30.625C43.1916 30.6179 41.818 31.1995 40.8256 32.2339C39.8331 33.2683 39.3087 34.6647 39.3751 36.0967V62.93L35.0672 59.6984C33.2875 58.3692 30.8018 58.5481 29.2308 60.1184C27.6598 61.6887 27.4797 64.1743 28.808 65.9546L30.1934 67.8009" stroke="url(#paint0_linear_2713_8668)" stroke-linecap="round" stroke-linejoin="round"/>
<path id="Shape_2" d="M19.6875 56.35H6.5625C4.14625 56.35 2.1875 54.3912 2.1875 51.975V6.5625C2.1875 4.14625 4.14625 2.1875 6.5625 2.1875H45.9375C48.3537 2.1875 50.3125 4.14625 50.3125 6.5625V21.875" stroke="url(#paint1_linear_2713_8668)" stroke-linecap="round" stroke-linejoin="round"/>
<path id="Oval" fill-rule="evenodd" clip-rule="evenodd" d="M26.25 26.25C30.4784 26.25 33.9063 22.8222 33.9063 18.5938C33.9063 14.3653 30.4784 10.9375 26.25 10.9375C22.0216 10.9375 18.5938 14.3653 18.5938 18.5938C18.5938 22.8222 22.0216 26.25 26.25 26.25Z" stroke="url(#paint2_linear_2713_8668)" stroke-linecap="round" stroke-linejoin="round"/>
<path id="Shape_3" d="M32.1328 29.8025C30.303 28.901 28.2898 28.4339 26.2499 28.4375C20.7035 28.4474 15.7663 31.954 13.9299 37.1875C13.4284 38.592 13.168 40.0712 13.1599 41.5625" stroke="url(#paint3_linear_2713_8668)" stroke-linecap="round" stroke-linejoin="round"/>
<path id="Shape_4" d="M13.125 41.5625H30.625" stroke="url(#paint4_linear_2713_8668)" stroke-linecap="round" stroke-linejoin="round"/>
</g>
</g>
</g>
<defs>
<linearGradient id="paint0_linear_2713_8668" x1="64.2737" y1="33.8172" x2="34.3773" y2="67.2467" gradientUnits="userSpaceOnUse">
<stop stop-color="#00E5E5"/>
<stop offset="0.510417" stop-color="#72A5F2"/>
<stop offset="1" stop-color="#E961FF"/>
</linearGradient>
<linearGradient id="paint1_linear_2713_8668" x1="46.0483" y1="6.84209" x2="2.36551" y2="47.3087" gradientUnits="userSpaceOnUse">
<stop stop-color="#00E5E5"/>
<stop offset="0.510417" stop-color="#72A5F2"/>
<stop offset="1" stop-color="#E961FF"/>
</linearGradient>
<linearGradient id="paint2_linear_2713_8668" x1="32.5494" y1="12.2534" x2="20.1744" y2="25.1556" gradientUnits="userSpaceOnUse">
<stop stop-color="#00E5E5"/>
<stop offset="0.510417" stop-color="#72A5F2"/>
<stop offset="1" stop-color="#E961FF"/>
</linearGradient>
<linearGradient id="paint3_linear_2713_8668" x1="30.4517" y1="29.5654" x2="20.6698" y2="44.3079" gradientUnits="userSpaceOnUse">
<stop stop-color="#00E5E5"/>
<stop offset="0.510417" stop-color="#72A5F2"/>
<stop offset="1" stop-color="#E961FF"/>
</linearGradient>
<linearGradient id="paint4_linear_2713_8668" x1="29.0744" y1="41.8132" x2="28.3389" y2="46.414" gradientUnits="userSpaceOnUse">
<stop stop-color="#00E5E5"/>
<stop offset="0.510417" stop-color="#72A5F2"/>
<stop offset="1" stop-color="#E961FF"/>
</linearGradient>
</defs>
</svg>
