<svg width="70" height="70" viewBox="0 0 70 70" fill="none" xmlns="http://www.w3.org/2000/svg">
<g id="Business-Products / Optimization / optimization-graph-line">
<g id="Group">
<g id="optimization-graph-line">
<path id="Shape" fill-rule="evenodd" clip-rule="evenodd" d="M30.7591 7.10858C31.8415 8.31009 33.3828 8.99607 34.9999 8.99607C36.6171 8.99607 38.1584 8.31009 39.2408 7.10858L41.9824 4.07233C43.6024 2.27659 46.1774 1.69522 48.4117 2.62079C50.6461 3.54635 52.0557 5.77834 51.9312 8.19358L51.7212 12.2769C51.6391 13.8919 52.2448 15.4661 53.3882 16.6095C54.5316 17.7529 56.1058 18.3586 57.7208 18.2765L61.8041 18.0694C64.2163 17.9505 66.4428 19.3611 67.3656 21.5929C68.2885 23.8248 67.7084 26.3959 65.9166 28.0152L62.8774 30.7598C61.6776 31.8432 60.9928 33.3841 60.9928 35.0007C60.9928 36.6172 61.6776 38.1581 62.8774 39.2415L65.9166 41.9832C67.7124 43.6031 68.2937 46.1781 67.3682 48.4124C66.4426 50.6468 64.2106 52.0564 61.7954 51.9319L57.712 51.7219C56.0976 51.6399 54.5239 52.2452 53.3806 53.3879C52.2373 54.5307 51.6312 56.1041 51.7124 57.7186L51.9224 61.8019C52.0397 64.2119 50.6304 66.4357 48.4012 67.3587C46.1719 68.2817 43.6031 67.7048 41.9824 65.9173L39.2408 62.8811C38.1574 61.6812 36.6165 60.9965 34.9999 60.9965C33.3834 60.9965 31.8425 61.6812 30.7591 62.8811L28.0174 65.9173C26.3966 67.6991 23.8325 68.273 21.6067 67.3522C19.381 66.4315 17.9717 64.2138 18.0833 61.8077L18.2933 57.7244C18.3785 56.1058 17.7718 54.5272 16.6246 53.3822C15.4773 52.2372 13.8976 51.6336 12.2791 51.7219L8.19578 51.9319C5.78218 52.0524 3.55381 50.6413 2.63062 48.408C1.70744 46.1747 2.2891 43.6021 4.08328 41.9832L7.12245 39.2415C8.32229 38.1581 9.00707 36.6172 9.00707 35.0007C9.00707 33.3841 8.32229 31.8432 7.12245 30.7598L4.08328 28.0152C2.30392 26.394 1.73155 23.8314 2.65197 21.6071C3.57239 19.3828 5.78817 17.9739 8.19287 18.084L12.2762 18.2911C13.8943 18.3762 15.4724 17.7699 16.6173 16.6234C17.7622 15.4768 18.3662 13.8978 18.2787 12.2798L18.0833 8.19358C17.9717 5.78749 19.381 3.56983 21.6067 2.64908C23.8325 1.72833 26.3966 2.30226 28.0174 4.084L30.7591 7.10858Z" stroke="url(#paint0_linear_2713_8644)" stroke-linecap="round" stroke-linejoin="round"/>
<path id="Shape_2" d="M17.5 43.3125L21.9217 35.4375L31.0713 42.0933L38.5408 30.6892L45.4942 37.1875L52.5 26.25" stroke="url(#paint1_linear_2713_8644)" stroke-linecap="round" stroke-linejoin="round"/>
</g>
</g>
</g>
<defs>
<linearGradient id="paint0_linear_2713_8644" x1="61.9902" y1="7.82373" x2="8.96777" y2="63.1032" gradientUnits="userSpaceOnUse">
<stop stop-color="#00E5E5"/>
<stop offset="0.510417" stop-color="#72A5F2"/>
<stop offset="1" stop-color="#E961FF"/>
</linearGradient>
<linearGradient id="paint1_linear_2713_8644" x1="49.3987" y1="27.7163" x2="38.8077" y2="50.3669" gradientUnits="userSpaceOnUse">
<stop stop-color="#00E5E5"/>
<stop offset="0.510417" stop-color="#72A5F2"/>
<stop offset="1" stop-color="#E961FF"/>
</linearGradient>
</defs>
</svg>
