<svg width="70" height="70" viewBox="0 0 70 70" fill="none" xmlns="http://www.w3.org/2000/svg">
<g id="Entertainment-Event-Hobbies / Party / party-balloons">
<g id="Group">
<g id="Regular">
<path id="Shape" d="M64.5547 54.0312C65.1587 54.0312 65.6484 54.5209 65.6484 55.125" stroke="url(#paint0_linear_2715_8900)" stroke-linecap="round" stroke-linejoin="round"/>
<path id="Shape_2" d="M63.4609 55.125C63.4609 54.5209 63.9506 54.0312 64.5547 54.0312" stroke="url(#paint1_linear_2715_8900)" stroke-linecap="round" stroke-linejoin="round"/>
<path id="Shape_3" d="M64.5547 56.2188C63.9506 56.2188 63.4609 55.7291 63.4609 55.125" stroke="url(#paint2_linear_2715_8900)" stroke-linecap="round" stroke-linejoin="round"/>
<path id="Shape_4" d="M65.6484 55.125C65.6484 55.7291 65.1587 56.2188 64.5547 56.2188" stroke="url(#paint3_linear_2715_8900)" stroke-linecap="round" stroke-linejoin="round"/>
<path id="Shape_5" d="M31.7188 62.7109C32.3228 62.7109 32.8125 63.2006 32.8125 63.8047" stroke="url(#paint4_linear_2715_8900)" stroke-linecap="round" stroke-linejoin="round"/>
<path id="Shape_6" d="M30.625 63.8047C30.625 63.2006 31.1147 62.7109 31.7188 62.7109" stroke="url(#paint5_linear_2715_8900)" stroke-linecap="round" stroke-linejoin="round"/>
<path id="Shape_7" d="M31.7188 64.8984C31.1147 64.8984 30.625 64.4087 30.625 63.8047" stroke="url(#paint6_linear_2715_8900)" stroke-linecap="round" stroke-linejoin="round"/>
<path id="Shape_8" d="M32.8125 63.8047C32.8125 64.4087 32.3228 64.8984 31.7188 64.8984" stroke="url(#paint7_linear_2715_8900)" stroke-linecap="round" stroke-linejoin="round"/>
<path id="Shape_9" d="M66.7188 21.1484C67.3228 21.1484 67.8125 21.6381 67.8125 22.2422" stroke="url(#paint8_linear_2715_8900)" stroke-linecap="round" stroke-linejoin="round"/>
<path id="Shape_10" d="M65.625 22.2422C65.625 21.6381 66.1147 21.1484 66.7188 21.1484" stroke="url(#paint9_linear_2715_8900)" stroke-linecap="round" stroke-linejoin="round"/>
<path id="Shape_11" d="M66.7188 23.3359C66.1147 23.3359 65.625 22.8462 65.625 22.2422" stroke="url(#paint10_linear_2715_8900)" stroke-linecap="round" stroke-linejoin="round"/>
<path id="Shape_12" d="M67.8125 22.2422C67.8125 22.8462 67.3228 23.3359 66.7188 23.3359" stroke="url(#paint11_linear_2715_8900)" stroke-linecap="round" stroke-linejoin="round"/>
<path id="Shape_13" d="M3.28125 49.5859C3.88531 49.5859 4.375 50.0756 4.375 50.6797" stroke="url(#paint12_linear_2715_8900)" stroke-linecap="round" stroke-linejoin="round"/>
<path id="Shape_14" d="M2.1875 50.6797C2.1875 50.0756 2.67719 49.5859 3.28125 49.5859" stroke="url(#paint13_linear_2715_8900)" stroke-linecap="round" stroke-linejoin="round"/>
<path id="Shape_15" d="M3.28125 51.7734C2.67719 51.7734 2.1875 51.2837 2.1875 50.6797" stroke="url(#paint14_linear_2715_8900)" stroke-linecap="round" stroke-linejoin="round"/>
<path id="Shape_16" d="M4.375 50.6797C4.375 51.2837 3.88531 51.7734 3.28125 51.7734" stroke="url(#paint15_linear_2715_8900)" stroke-linecap="round" stroke-linejoin="round"/>
<path id="Oval" fill-rule="evenodd" clip-rule="evenodd" d="M43.75 36.4609C50.9987 36.4609 56.875 29.6053 56.875 21.1484C56.875 12.6916 50.9987 5.83594 43.75 5.83594C36.5013 5.83594 30.625 12.6916 30.625 21.1484C30.625 29.6053 36.5013 36.4609 43.75 36.4609Z" stroke="url(#paint16_linear_2715_8900)" stroke-linecap="round" stroke-linejoin="round"/>
<path id="Shape_17" fill-rule="evenodd" clip-rule="evenodd" d="M43.75 36.4609L39.8125 41.7109C39.3154 42.3738 39.2354 43.2606 39.606 44.0017C39.9765 44.7428 40.7339 45.2109 41.5625 45.2109H45.9375C46.7661 45.2109 47.5235 44.7428 47.8941 44.0017C48.2646 43.2606 48.1847 42.3738 47.6875 41.7109L43.75 36.4609Z" stroke="url(#paint17_linear_2715_8900)" stroke-linecap="round" stroke-linejoin="round"/>
<path id="Shape_18" d="M44.208 45.2109C42.0246 48.2745 42.3736 52.4671 45.0334 55.1276C46.4777 56.5712 47.2891 58.5295 47.2891 60.5716C47.2891 62.6136 46.4777 64.5719 45.0334 66.0155" stroke="url(#paint18_linear_2715_8900)" stroke-linecap="round" stroke-linejoin="round"/>
<path id="Shape_19" d="M26.25 5.69792C24.3149 4.37389 22.0263 3.66252 19.6816 3.65625C12.4337 3.65625 6.55664 10.5133 6.55664 18.9688C6.55664 27.4242 12.4337 34.2813 19.6816 34.2813C22.0245 34.2751 24.3113 33.5636 26.2441 32.2396" stroke="url(#paint19_linear_2715_8900)" stroke-linecap="round" stroke-linejoin="round"/>
<path id="Shape_20" fill-rule="evenodd" clip-rule="evenodd" d="M19.6875 34.2734L23.625 39.5234C24.1222 40.1863 24.2021 41.0731 23.8316 41.8142C23.461 42.5553 22.7036 43.0234 21.875 43.0234H17.5C16.6714 43.0234 15.914 42.5553 15.5435 41.8142C15.1729 41.0731 15.2529 40.1863 15.75 39.5234L19.6875 34.2734Z" stroke="url(#paint20_linear_2715_8900)" stroke-linecap="round" stroke-linejoin="round"/>
<path id="Shape_21" d="M19.2296 43.0234C21.413 46.087 21.064 50.2796 18.4042 52.9401C16.9599 54.3837 16.1484 56.342 16.1484 58.3841C16.1484 60.4261 16.9599 62.3844 18.4042 63.828" stroke="url(#paint21_linear_2715_8900)" stroke-linecap="round" stroke-linejoin="round"/>
</g>
</g>
</g>
<defs>
<linearGradient id="paint0_linear_2715_8900" x1="67.2129" y1="54.2819" x2="64.8558" y2="56.7395" gradientUnits="userSpaceOnUse">
<stop stop-color="#00E5E5"/>
<stop offset="0.510417" stop-color="#72A5F2"/>
<stop offset="1" stop-color="#E961FF"/>
</linearGradient>
<linearGradient id="paint1_linear_2715_8900" x1="66.1192" y1="54.2819" x2="63.762" y2="56.7395" gradientUnits="userSpaceOnUse">
<stop stop-color="#00E5E5"/>
<stop offset="0.510417" stop-color="#72A5F2"/>
<stop offset="1" stop-color="#E961FF"/>
</linearGradient>
<linearGradient id="paint2_linear_2715_8900" x1="66.1192" y1="55.3757" x2="63.762" y2="57.8332" gradientUnits="userSpaceOnUse">
<stop stop-color="#00E5E5"/>
<stop offset="0.510417" stop-color="#72A5F2"/>
<stop offset="1" stop-color="#E961FF"/>
</linearGradient>
<linearGradient id="paint3_linear_2715_8900" x1="67.2129" y1="55.3757" x2="64.8558" y2="57.8332" gradientUnits="userSpaceOnUse">
<stop stop-color="#00E5E5"/>
<stop offset="0.510417" stop-color="#72A5F2"/>
<stop offset="1" stop-color="#E961FF"/>
</linearGradient>
<linearGradient id="paint4_linear_2715_8900" x1="34.377" y1="62.9616" x2="32.0198" y2="65.4191" gradientUnits="userSpaceOnUse">
<stop stop-color="#00E5E5"/>
<stop offset="0.510417" stop-color="#72A5F2"/>
<stop offset="1" stop-color="#E961FF"/>
</linearGradient>
<linearGradient id="paint5_linear_2715_8900" x1="33.2832" y1="62.9616" x2="30.9261" y2="65.4191" gradientUnits="userSpaceOnUse">
<stop stop-color="#00E5E5"/>
<stop offset="0.510417" stop-color="#72A5F2"/>
<stop offset="1" stop-color="#E961FF"/>
</linearGradient>
<linearGradient id="paint6_linear_2715_8900" x1="33.2832" y1="64.0553" x2="30.9261" y2="66.5129" gradientUnits="userSpaceOnUse">
<stop stop-color="#00E5E5"/>
<stop offset="0.510417" stop-color="#72A5F2"/>
<stop offset="1" stop-color="#E961FF"/>
</linearGradient>
<linearGradient id="paint7_linear_2715_8900" x1="34.377" y1="64.0553" x2="32.0198" y2="66.5129" gradientUnits="userSpaceOnUse">
<stop stop-color="#00E5E5"/>
<stop offset="0.510417" stop-color="#72A5F2"/>
<stop offset="1" stop-color="#E961FF"/>
</linearGradient>
<linearGradient id="paint8_linear_2715_8900" x1="69.377" y1="21.3991" x2="67.0198" y2="23.8566" gradientUnits="userSpaceOnUse">
<stop stop-color="#00E5E5"/>
<stop offset="0.510417" stop-color="#72A5F2"/>
<stop offset="1" stop-color="#E961FF"/>
</linearGradient>
<linearGradient id="paint9_linear_2715_8900" x1="68.2832" y1="21.3991" x2="65.9261" y2="23.8566" gradientUnits="userSpaceOnUse">
<stop stop-color="#00E5E5"/>
<stop offset="0.510417" stop-color="#72A5F2"/>
<stop offset="1" stop-color="#E961FF"/>
</linearGradient>
<linearGradient id="paint10_linear_2715_8900" x1="68.2832" y1="22.4928" x2="65.9261" y2="24.9504" gradientUnits="userSpaceOnUse">
<stop stop-color="#00E5E5"/>
<stop offset="0.510417" stop-color="#72A5F2"/>
<stop offset="1" stop-color="#E961FF"/>
</linearGradient>
<linearGradient id="paint11_linear_2715_8900" x1="69.377" y1="22.4928" x2="67.0198" y2="24.9504" gradientUnits="userSpaceOnUse">
<stop stop-color="#00E5E5"/>
<stop offset="0.510417" stop-color="#72A5F2"/>
<stop offset="1" stop-color="#E961FF"/>
</linearGradient>
<linearGradient id="paint12_linear_2715_8900" x1="5.93948" y1="49.8366" x2="3.58232" y2="52.2941" gradientUnits="userSpaceOnUse">
<stop stop-color="#00E5E5"/>
<stop offset="0.510417" stop-color="#72A5F2"/>
<stop offset="1" stop-color="#E961FF"/>
</linearGradient>
<linearGradient id="paint13_linear_2715_8900" x1="4.84573" y1="49.8366" x2="2.48857" y2="52.2941" gradientUnits="userSpaceOnUse">
<stop stop-color="#00E5E5"/>
<stop offset="0.510417" stop-color="#72A5F2"/>
<stop offset="1" stop-color="#E961FF"/>
</linearGradient>
<linearGradient id="paint14_linear_2715_8900" x1="4.84573" y1="50.9303" x2="2.48857" y2="53.3879" gradientUnits="userSpaceOnUse">
<stop stop-color="#00E5E5"/>
<stop offset="0.510417" stop-color="#72A5F2"/>
<stop offset="1" stop-color="#E961FF"/>
</linearGradient>
<linearGradient id="paint15_linear_2715_8900" x1="5.93948" y1="50.9303" x2="3.58232" y2="53.3879" gradientUnits="userSpaceOnUse">
<stop stop-color="#00E5E5"/>
<stop offset="0.510417" stop-color="#72A5F2"/>
<stop offset="1" stop-color="#E961FF"/>
</linearGradient>
<linearGradient id="paint16_linear_2715_8900" x1="54.5491" y1="8.46777" x2="29.9331" y2="30.4659" gradientUnits="userSpaceOnUse">
<stop stop-color="#00E5E5"/>
<stop offset="0.510417" stop-color="#72A5F2"/>
<stop offset="1" stop-color="#E961FF"/>
</linearGradient>
<linearGradient id="paint17_linear_2715_8900" x1="47.3497" y1="37.2129" x2="40.2782" y2="44.5856" gradientUnits="userSpaceOnUse">
<stop stop-color="#00E5E5"/>
<stop offset="0.510417" stop-color="#72A5F2"/>
<stop offset="1" stop-color="#E961FF"/>
</linearGradient>
<linearGradient id="paint18_linear_2715_8900" x1="46.8894" y1="46.9988" x2="39.6504" y2="48.6354" gradientUnits="userSpaceOnUse">
<stop stop-color="#00E5E5"/>
<stop offset="0.510417" stop-color="#72A5F2"/>
<stop offset="1" stop-color="#E961FF"/>
</linearGradient>
<linearGradient id="paint19_linear_2715_8900" x1="24.505" y1="6.28809" x2="1.58945" y2="21.6515" gradientUnits="userSpaceOnUse">
<stop stop-color="#00E5E5"/>
<stop offset="0.510417" stop-color="#72A5F2"/>
<stop offset="1" stop-color="#E961FF"/>
</linearGradient>
<linearGradient id="paint20_linear_2715_8900" x1="23.2872" y1="35.0254" x2="16.2157" y2="42.3981" gradientUnits="userSpaceOnUse">
<stop stop-color="#00E5E5"/>
<stop offset="0.510417" stop-color="#72A5F2"/>
<stop offset="1" stop-color="#E961FF"/>
</linearGradient>
<linearGradient id="paint21_linear_2715_8900" x1="20.26" y1="44.8113" x2="13.021" y2="46.4479" gradientUnits="userSpaceOnUse">
<stop stop-color="#00E5E5"/>
<stop offset="0.510417" stop-color="#72A5F2"/>
<stop offset="1" stop-color="#E961FF"/>
</linearGradient>
</defs>
</svg>
