<svg width="70" height="70" viewBox="0 0 70 70" fill="none" xmlns="http://www.w3.org/2000/svg">
<g id="Work-Office-Companies / Presentations / presentation-projector-screen-bars">
<g id="Group">
<g id="presentation-projector-screen-bars">
<path id="Rectangle-path" fill-rule="evenodd" clip-rule="evenodd" d="M4.375 5.125C4.375 4.71079 4.71079 4.375 5.125 4.375H64.875C65.2892 4.375 65.625 4.71079 65.625 5.125V12.375C65.625 12.7892 65.2892 13.125 64.875 13.125H5.125C4.71079 13.125 4.375 12.7892 4.375 12.375V5.125Z" stroke="url(#paint0_linear_2667_8267)" stroke-linecap="round" stroke-linejoin="round"/>
<path id="Rectangle-path_2" fill-rule="evenodd" clip-rule="evenodd" d="M8.75 13.125H61.25V52.5H8.75V13.125Z" stroke="url(#paint1_linear_2667_8267)" stroke-linecap="round" stroke-linejoin="round"/>
<path id="Shape" d="M35 62.7083V52.5" stroke="url(#paint2_linear_2667_8267)" stroke-linecap="round" stroke-linejoin="round"/>
<path id="Shape_2" d="M4.375 52.5H65.625" stroke="url(#paint3_linear_2667_8267)" stroke-linecap="round" stroke-linejoin="round"/>
<path id="Shape_3" d="M39.375 65.6249C39.375 64.012 37.415 62.7083 35 62.7083C32.585 62.7083 30.625 64.012 30.625 65.6249" stroke="url(#paint4_linear_2667_8267)" stroke-linecap="round" stroke-linejoin="round"/>
<path id="Shape_4" d="M21.875 43.75H48.125" stroke="url(#paint5_linear_2667_8267)" stroke-linecap="round" stroke-linejoin="round"/>
<path id="Shape_5" d="M26.25 35V43.75" stroke="url(#paint6_linear_2667_8267)" stroke-linecap="round" stroke-linejoin="round"/>
<path id="Shape_6" d="M35 28.4375V43.75" stroke="url(#paint7_linear_2667_8267)" stroke-linecap="round" stroke-linejoin="round"/>
<path id="Shape_7" d="M43.75 21.875V43.75" stroke="url(#paint8_linear_2667_8267)" stroke-linecap="round" stroke-linejoin="round"/>
</g>
</g>
</g>
<defs>
<linearGradient id="paint0_linear_2667_8267" x1="60.1978" y1="5.12695" x2="58.294" y2="19.0214" gradientUnits="userSpaceOnUse">
<stop stop-color="#00E5E5"/>
<stop offset="0.510417" stop-color="#72A5F2"/>
<stop offset="1" stop-color="#E961FF"/>
</linearGradient>
<linearGradient id="paint1_linear_2667_8267" x1="56.5981" y1="16.5088" x2="26.4018" y2="58.4855" gradientUnits="userSpaceOnUse">
<stop stop-color="#00E5E5"/>
<stop offset="0.510417" stop-color="#72A5F2"/>
<stop offset="1" stop-color="#E961FF"/>
</linearGradient>
<linearGradient id="paint2_linear_2667_8267" x1="37.6582" y1="53.3773" x2="33.1398" y2="54.7233" gradientUnits="userSpaceOnUse">
<stop stop-color="#00E5E5"/>
<stop offset="0.510417" stop-color="#72A5F2"/>
<stop offset="1" stop-color="#E961FF"/>
</linearGradient>
<linearGradient id="paint3_linear_2667_8267" x1="60.1978" y1="52.7507" x2="59.9827" y2="57.4593" gradientUnits="userSpaceOnUse">
<stop stop-color="#00E5E5"/>
<stop offset="0.510417" stop-color="#72A5F2"/>
<stop offset="1" stop-color="#E961FF"/>
</linearGradient>
<linearGradient id="paint4_linear_2667_8267" x1="38.5997" y1="62.9589" x2="37.231" y2="67.2397" gradientUnits="userSpaceOnUse">
<stop stop-color="#00E5E5"/>
<stop offset="0.510417" stop-color="#72A5F2"/>
<stop offset="1" stop-color="#E961FF"/>
</linearGradient>
<linearGradient id="paint5_linear_2667_8267" x1="45.7991" y1="44.0007" x2="45.3018" y2="48.6661" gradientUnits="userSpaceOnUse">
<stop stop-color="#00E5E5"/>
<stop offset="0.510417" stop-color="#72A5F2"/>
<stop offset="1" stop-color="#E961FF"/>
</linearGradient>
<linearGradient id="paint6_linear_2667_8267" x1="28.9082" y1="35.752" x2="24.519" y2="37.2774" gradientUnits="userSpaceOnUse">
<stop stop-color="#00E5E5"/>
<stop offset="0.510417" stop-color="#72A5F2"/>
<stop offset="1" stop-color="#E961FF"/>
</linearGradient>
<linearGradient id="paint7_linear_2667_8267" x1="37.6582" y1="29.7534" x2="32.9255" y2="30.6933" gradientUnits="userSpaceOnUse">
<stop stop-color="#00E5E5"/>
<stop offset="0.510417" stop-color="#72A5F2"/>
<stop offset="1" stop-color="#E961FF"/>
</linearGradient>
<linearGradient id="paint8_linear_2667_8267" x1="46.4082" y1="23.7549" x2="41.5821" y2="24.4258" gradientUnits="userSpaceOnUse">
<stop stop-color="#00E5E5"/>
<stop offset="0.510417" stop-color="#72A5F2"/>
<stop offset="1" stop-color="#E961FF"/>
</linearGradient>
</defs>
</svg>
