<svg width="70" height="70" viewBox="0 0 70 70" fill="none" xmlns="http://www.w3.org/2000/svg">
<g id="Programming-Apps-Websites / Programming / programming-team-chat-3">
<g id="Group">
<g id="programming-team-chat-3">
<path id="Oval" fill-rule="evenodd" clip-rule="evenodd" d="M9.84375 56.875C14.0722 56.875 17.5 53.4472 17.5 49.2188C17.5 44.9903 14.0722 41.5625 9.84375 41.5625C5.61532 41.5625 2.1875 44.9903 2.1875 49.2188C2.1875 53.4472 5.61532 56.875 9.84375 56.875Z" stroke="url(#paint0_linear_2715_9012)" stroke-linecap="round" stroke-linejoin="round"/>
<path id="Shape" d="M21.9158 67.0333C20.3497 63.3723 17.2062 60.6201 13.3703 59.5517C9.53432 58.4833 5.42074 59.214 2.1875 61.5383" stroke="url(#paint1_linear_2715_9012)" stroke-linecap="round" stroke-linejoin="round"/>
<path id="Oval_2" fill-rule="evenodd" clip-rule="evenodd" d="M60.1563 56.875C64.3847 56.875 67.8125 53.4472 67.8125 49.2188C67.8125 44.9903 64.3847 41.5625 60.1563 41.5625C55.9278 41.5625 52.5 44.9903 52.5 49.2188C52.5 53.4472 55.9278 56.875 60.1563 56.875Z" stroke="url(#paint2_linear_2715_9012)" stroke-linecap="round" stroke-linejoin="round"/>
<path id="Shape_2" d="M48.0842 67.0333C49.6503 63.3723 52.7938 60.6201 56.6298 59.5517C60.4657 58.4833 64.5793 59.214 67.8126 61.5383" stroke="url(#paint3_linear_2715_9012)" stroke-linecap="round" stroke-linejoin="round"/>
<path id="Oval_3" fill-rule="evenodd" clip-rule="evenodd" d="M35 56.875C40.4366 56.875 44.8438 52.4678 44.8438 47.0313C44.8438 41.5947 40.4366 37.1875 35 37.1875C29.5634 37.1875 25.1562 41.5947 25.1562 47.0313C25.1562 52.4678 29.5634 56.875 35 56.875Z" stroke="url(#paint4_linear_2715_9012)" stroke-linecap="round" stroke-linejoin="round"/>
<path id="Shape_3" d="M48.752 67.8094C45.3928 63.6604 40.3398 61.25 35.0014 61.25C29.6629 61.25 24.6099 63.6604 21.2507 67.8094" stroke="url(#paint5_linear_2715_9012)" stroke-linecap="round" stroke-linejoin="round"/>
<path id="Shape_4" fill-rule="evenodd" clip-rule="evenodd" d="M45.9375 28.4375H24.0625V35L13.125 28.4375H4.375V2.1875H45.9375V28.4375V28.4375Z" stroke="url(#paint6_linear_2715_9012)" stroke-linecap="round" stroke-linejoin="round"/>
<path id="Shape_5" d="M17.5 10.9375L13.125 15.3125L17.5 19.6875" stroke="url(#paint7_linear_2715_9012)" stroke-linecap="round" stroke-linejoin="round"/>
<path id="Shape_6" d="M32.8125 10.9375L37.1875 15.3125L32.8125 19.6875" stroke="url(#paint8_linear_2715_9012)" stroke-linecap="round" stroke-linejoin="round"/>
<path id="Shape_7" d="M26.25 10.9375L24.0625 19.6875" stroke="url(#paint9_linear_2715_9012)" stroke-linecap="round" stroke-linejoin="round"/>
</g>
</g>
</g>
<defs>
<linearGradient id="paint0_linear_2715_9012" x1="16.1432" y1="42.8784" x2="3.7681" y2="55.7806" gradientUnits="userSpaceOnUse">
<stop stop-color="#00E5E5"/>
<stop offset="0.510417" stop-color="#72A5F2"/>
<stop offset="1" stop-color="#E961FF"/>
</linearGradient>
<linearGradient id="paint1_linear_2715_9012" x1="20.1678" y1="59.7546" x2="15.8306" y2="70.9576" gradientUnits="userSpaceOnUse">
<stop stop-color="#00E5E5"/>
<stop offset="0.510417" stop-color="#72A5F2"/>
<stop offset="1" stop-color="#E961FF"/>
</linearGradient>
<linearGradient id="paint2_linear_2715_9012" x1="66.4557" y1="42.8784" x2="54.0806" y2="55.7806" gradientUnits="userSpaceOnUse">
<stop stop-color="#00E5E5"/>
<stop offset="0.510417" stop-color="#72A5F2"/>
<stop offset="1" stop-color="#E961FF"/>
</linearGradient>
<linearGradient id="paint3_linear_2715_9012" x1="66.0645" y1="59.7546" x2="61.7273" y2="70.9576" gradientUnits="userSpaceOnUse">
<stop stop-color="#00E5E5"/>
<stop offset="0.510417" stop-color="#72A5F2"/>
<stop offset="1" stop-color="#E961FF"/>
</linearGradient>
<linearGradient id="paint4_linear_2715_9012" x1="43.0993" y1="38.8794" x2="27.1885" y2="55.4679" gradientUnits="userSpaceOnUse">
<stop stop-color="#00E5E5"/>
<stop offset="0.510417" stop-color="#72A5F2"/>
<stop offset="1" stop-color="#E961FF"/>
</linearGradient>
<linearGradient id="paint5_linear_2715_9012" x1="46.3152" y1="61.8137" x2="44.0083" y2="71.8975" gradientUnits="userSpaceOnUse">
<stop stop-color="#00E5E5"/>
<stop offset="0.510417" stop-color="#72A5F2"/>
<stop offset="1" stop-color="#E961FF"/>
</linearGradient>
<linearGradient id="paint6_linear_2715_9012" x1="42.2547" y1="5.00732" x2="16.7079" y2="38.745" gradientUnits="userSpaceOnUse">
<stop stop-color="#00E5E5"/>
<stop offset="0.510417" stop-color="#72A5F2"/>
<stop offset="1" stop-color="#E961FF"/>
</linearGradient>
<linearGradient id="paint7_linear_2715_9012" x1="17.1123" y1="11.6895" x2="11.31" y2="14.7142" gradientUnits="userSpaceOnUse">
<stop stop-color="#00E5E5"/>
<stop offset="0.510417" stop-color="#72A5F2"/>
<stop offset="1" stop-color="#E961FF"/>
</linearGradient>
<linearGradient id="paint8_linear_2715_9012" x1="36.7998" y1="11.6895" x2="30.9975" y2="14.7142" gradientUnits="userSpaceOnUse">
<stop stop-color="#00E5E5"/>
<stop offset="0.510417" stop-color="#72A5F2"/>
<stop offset="1" stop-color="#E961FF"/>
</linearGradient>
<linearGradient id="paint9_linear_2715_9012" x1="26.7207" y1="11.6895" x2="22.3315" y2="13.2149" gradientUnits="userSpaceOnUse">
<stop stop-color="#00E5E5"/>
<stop offset="0.510417" stop-color="#72A5F2"/>
<stop offset="1" stop-color="#E961FF"/>
</linearGradient>
</defs>
</svg>
