<svg width="70" height="70" viewBox="0 0 70 70" fill="none" xmlns="http://www.w3.org/2000/svg">
<g id="tabler-icon-photo-ai">
<path id="Vector" d="M45.4054 23.3333H43.7792M29.1667 61.25H17.5C15.1794 61.25 12.9538 60.3281 11.3128 58.6872C9.67187 57.0462 8.75 54.8206 8.75 52.5V17.5C8.75 15.1794 9.67187 12.9538 11.3128 11.3128C12.9538 9.67187 15.1794 8.75 17.5 8.75H52.5C54.8206 8.75 57.0462 9.67187 58.6872 11.3128C60.3281 12.9538 61.25 15.1794 61.25 17.5V32.0833M8.75 46.6662L23.3333 32.0828C26.04 29.4782 29.3767 29.4782 32.0833 32.0828L35 34.9995M40.8333 61.25V49.5833C40.8333 48.0362 41.4479 46.5525 42.5419 45.4585C43.6358 44.3646 45.1196 43.75 46.6667 43.75C48.2138 43.75 49.6975 44.3646 50.7915 45.4585C51.8854 46.5525 52.5 48.0362 52.5 49.5833V61.25M40.8333 55.4167H52.5M61.25 43.75V61.25" stroke="url(#paint0_linear_2663_7779)" stroke-linecap="round" stroke-linejoin="round"/>
</g>
<defs>
<linearGradient id="paint0_linear_2663_7779" x1="56.5981" y1="13.2617" x2="14.1692" y2="57.4978" gradientUnits="userSpaceOnUse">
<stop stop-color="#00E5E5"/>
<stop offset="0.510417" stop-color="#72A5F2"/>
<stop offset="1" stop-color="#E961FF"/>
</linearGradient>
</defs>
</svg>
