<svg width="68" height="68" viewBox="0 0 68 68" fill="none" xmlns="http://www.w3.org/2000/svg">
<g id="Group">
<g id="file-code-search-1">
<path id="Shape" d="M23.0684 58.0703H5.56836C3.15211 58.0703 1.19336 56.1116 1.19336 53.6953V5.57031C1.19336 3.15407 3.15211 1.19531 5.56836 1.19531H36.5696C37.7295 1.19633 38.8416 1.65794 39.6613 2.47865L48.0379 10.8524C48.8583 11.6733 49.3189 12.7865 49.3184 13.947V18.6953" stroke="#00E5E5" stroke-linecap="round" stroke-linejoin="round"/>
<path id="Shape_2" d="M25.2559 16.5078L31.8184 23.0703L25.2559 29.6328" stroke="#E961FF" stroke-linecap="round" stroke-linejoin="round"/>
<path id="Shape_3" d="M16.5059 16.5078L9.94336 23.0703L16.5059 29.6328" stroke="#E961FF" stroke-linecap="round" stroke-linejoin="round"/>
<path id="Oval" fill-rule="evenodd" clip-rule="evenodd" d="M44.9434 60.2578C53.4002 60.2578 60.2559 53.4022 60.2559 44.9453C60.2559 36.4885 53.4002 29.6328 44.9434 29.6328C36.4865 29.6328 29.6309 36.4885 29.6309 44.9453C29.6309 53.4022 36.4865 60.2578 44.9434 60.2578Z" stroke="#E961FF" stroke-linecap="round" stroke-linejoin="round"/>
<path id="Shape_4" d="M66.8188 66.8189L55.7705 55.7734" stroke="#E961FF" stroke-linecap="round" stroke-linejoin="round"/>
</g>
</g>
</svg>
