<svg width="32" height="31" viewBox="0 0 32 31" fill="none" xmlns="http://www.w3.org/2000/svg">
<path d="M30 4.0128C30 4.0128 27.4318 5.53003 26.0036 5.96008C25.2371 5.07872 24.2184 4.45404 23.0853 4.17052C21.9522 3.88701 20.7594 3.95832 19.6681 4.37483C18.5769 4.79134 17.6398 5.53295 16.9838 6.49934C16.3277 7.46575 15.9843 8.61031 16 9.77826V11.051C13.7633 11.109 11.5471 10.6129 9.54856 9.607C7.55003 8.60107 5.83132 7.11651 4.54545 5.28553C4.54545 5.28553 -0.545455 16.7401 10.9091 21.831C8.28795 23.6102 5.16548 24.5024 2 24.3765C13.4545 30.7401 27.4545 24.3765 27.4545 9.74007C27.4534 9.38556 27.4193 9.03192 27.3527 8.68371C28.6517 7.4027 30 4.0128 30 4.0128Z" stroke="url(#paint0_linear_874_4687)" stroke-width="2" stroke-linecap="round" stroke-linejoin="round"/>
<defs>
<linearGradient id="paint0_linear_874_4687" x1="27.519" y1="5.96259" x2="9.58948" y2="28.8815" gradientUnits="userSpaceOnUse">
<stop stop-color="#00E5E5"/>
<stop offset="0.510417" stop-color="#72A5F2"/>
<stop offset="1" stop-color="#E961FF"/>
</linearGradient>
</defs>
</svg>
