<svg width="54" height="68" viewBox="0 0 54 68" fill="none" xmlns="http://www.w3.org/2000/svg">
<g id="Group">
<g id="accounting-calculator-1">
<path id="Shape" fill-rule="evenodd" clip-rule="evenodd" d="M49.3183 66.8125H4.68168C3.63768 66.8133 2.63631 66.3985 1.89865 65.6597C1.16098 64.921 0.747684 63.919 0.75001 62.875V14.3125H53.25V62.875C53.2523 63.919 52.839 64.921 52.1014 65.6597C51.3637 66.3985 50.3623 66.8133 49.3183 66.8125Z" stroke="#00E5E5" stroke-linecap="round" stroke-linejoin="round"/>
<path id="Shape_2" d="M27 14.3125V66.8125" stroke="#00E5E5" stroke-linecap="round" stroke-linejoin="round"/>
<path id="Shape_3" d="M0.75 40.5625H53.25" stroke="#00E5E5" stroke-linecap="round" stroke-linejoin="round"/>
<path id="Shape_4" d="M13.875 23.0625V31.8125" stroke="#E961FF" stroke-linecap="round" stroke-linejoin="round"/>
<path id="Shape_5" d="M9.5 27.4375H18.25" stroke="#E961FF" stroke-linecap="round" stroke-linejoin="round"/>
<path id="Shape_6" d="M18.25 49.3125L9.5 58.0625" stroke="#E961FF" stroke-linecap="round" stroke-linejoin="round"/>
<path id="Shape_7" d="M9.5 49.3125L18.25 58.0625" stroke="#E961FF" stroke-linecap="round" stroke-linejoin="round"/>
<path id="Shape_8" d="M35.75 27.4375H44.5" stroke="#E961FF" stroke-linecap="round" stroke-linejoin="round"/>
<path id="Shape_9" d="M35.75 49.3125H44.5" stroke="#E961FF" stroke-linecap="round" stroke-linejoin="round"/>
<path id="Shape_10" d="M35.75 58.0625H44.5" stroke="#E961FF" stroke-linecap="round" stroke-linejoin="round"/>
<path id="Shape_11" fill-rule="evenodd" clip-rule="evenodd" d="M53.25 14.3125H0.75V5.5625C0.75 3.14625 2.70875 1.1875 5.125 1.1875H48.875C51.2912 1.1875 53.25 3.14625 53.25 5.5625V14.3125Z" stroke="#00E5E5" stroke-linecap="round" stroke-linejoin="round"/>
</g>
</g>
</svg>
