<svg width="68" height="68" viewBox="0 0 68 68" fill="none" xmlns="http://www.w3.org/2000/svg">
<g id="Group">
<g id="Regular">
<path id="Oval" fill-rule="evenodd" clip-rule="evenodd" d="M27.4375 66.8125C41.935 66.8125 53.6875 55.06 53.6875 40.5625C53.6875 26.065 41.935 14.3125 27.4375 14.3125C12.94 14.3125 1.1875 26.065 1.1875 40.5625C1.1875 55.06 12.94 66.8125 27.4375 66.8125Z" stroke="#00E5E5" stroke-linecap="round" stroke-linejoin="round"/>
<path id="Shape" d="M28.5253 66.7747C35.5982 62.4609 40.5624 52.3489 40.5624 40.5626C40.5624 28.7764 35.5865 18.638 28.499 14.3359" stroke="#00E5E5" stroke-linecap="round" stroke-linejoin="round"/>
<path id="Shape_2" d="M27.4375 14.3125V1.1875" stroke="#00E5E5" stroke-linecap="round" stroke-linejoin="round"/>
<path id="Shape_3" d="M26.3496 66.7737C19.2767 62.4599 14.3125 52.3479 14.3125 40.5616C14.3125 28.7754 19.2913 18.6312 26.3817 14.332" stroke="#00E5E5" stroke-linecap="round" stroke-linejoin="round"/>
<path id="Shape_4" d="M49.3125 1.1875V9.9375" stroke="#E961FF" stroke-linecap="round" stroke-linejoin="round"/>
<path id="Shape_5" d="M44.9375 5.5625H53.6875" stroke="#E961FF" stroke-linecap="round" stroke-linejoin="round"/>
<path id="Shape_6" d="M62.4375 14.3125V23.0625" stroke="#E961FF" stroke-linecap="round" stroke-linejoin="round"/>
<path id="Shape_7" d="M58.0625 18.6875H66.8125" stroke="#E961FF" stroke-linecap="round" stroke-linejoin="round"/>
<path id="Oval_2" fill-rule="evenodd" clip-rule="evenodd" d="M27.4375 49.3125C41.935 49.3125 53.6875 45.395 53.6875 40.5625C53.6875 35.73 41.935 31.8125 27.4375 31.8125C12.94 31.8125 1.1875 35.73 1.1875 40.5625C1.1875 45.395 12.94 49.3125 27.4375 49.3125Z" stroke="#00E5E5" stroke-linecap="round" stroke-linejoin="round"/>
</g>
</g>
</svg>
