<svg width="67" height="68" viewBox="0 0 67 68" fill="none" xmlns="http://www.w3.org/2000/svg">
<g id="Group">
<g id="Regular">
<path id="Shape" d="M64.0996 1.1875V66.8125" stroke="#00E5E5" stroke-linecap="round" stroke-linejoin="round"/>
<path id="Oval" fill-rule="evenodd" clip-rule="evenodd" d="M28.2081 18.5569C29.162 16.1271 27.2003 13.0837 23.8266 11.7592C20.4529 10.4348 16.9447 11.3309 15.9908 13.7606C15.0369 16.1904 16.9986 19.2338 20.3723 20.5583C23.746 21.8827 27.2542 20.9867 28.2081 18.5569Z" stroke="#E961FF" stroke-linecap="round" stroke-linejoin="round"/>
<path id="Oval_2" fill-rule="evenodd" clip-rule="evenodd" d="M44.8952 20.7424C48.1339 19.4709 49.954 16.3884 48.9603 13.8573C47.9667 11.3263 44.5357 10.3052 41.2969 11.5767C38.0581 12.8482 36.2381 15.9307 37.2317 18.4617C38.2254 20.9928 41.6564 22.0138 44.8952 20.7424Z" stroke="#E961FF" stroke-linecap="round" stroke-linejoin="round"/>
<path id="Shape_2" fill-rule="evenodd" clip-rule="evenodd" d="M54.2074 4.67292C51.7993 5.74825 49.023 5.40122 46.9274 3.76292C42.9545 0.706409 37.4809 0.915743 33.7338 4.2675L32.5998 5.2825L31.4602 4.2675C27.7132 0.915743 22.2396 0.706409 18.2666 3.76292C16.1708 5.40064 13.3949 5.74763 10.9866 4.67292L1.09984 1.1875C1.03778 4.92352 1.208 8.65981 1.60944 12.3729C2.55126 19.5112 6.87046 25.6802 13.1077 28.7955C19.3449 31.9108 26.6669 31.5562 32.5998 27.8517C38.5323 31.5565 45.8542 31.9111 52.091 28.7957C58.3279 25.6802 62.6465 19.5111 63.5874 12.3729C63.9913 8.66 64.1625 4.92361 64.0998 1.1875L54.2074 4.67292Z" stroke="#00E5E5" stroke-linecap="round" stroke-linejoin="round"/>
</g>
</g>
</svg>
