<svg width="68" height="58" viewBox="0 0 68 58" fill="none" xmlns="http://www.w3.org/2000/svg">
<g id="Group">
<g id="accounting-bill-stack-1">
<path id="Shape" d="M38.3751 26.8125H32.4455C30.5712 26.8138 28.9609 28.1436 28.6052 29.9839C28.2495 31.8242 29.2483 33.6583 30.9872 34.3579L37.0072 36.7671C38.746 37.4667 39.7448 39.3008 39.3892 41.1411C39.0335 42.9814 37.4232 44.3112 35.5488 44.3125H29.6251" stroke="#E961FF" stroke-linecap="round" stroke-linejoin="round"/>
<path id="Shape_2" d="M34 26.8125V22.4375" stroke="#E961FF" stroke-linecap="round" stroke-linejoin="round"/>
<path id="Shape_3" d="M34 48.6875V44.3125" stroke="#E961FF" stroke-linecap="round" stroke-linejoin="round"/>
<path id="Shape_4" fill-rule="evenodd" clip-rule="evenodd" d="M18.6875 57.4375V13.6875L25.25 0.5625H42.75L49.3125 13.6875V57.4375H18.6875V57.4375Z" stroke="#00E5E5" stroke-linecap="round" stroke-linejoin="round"/>
<path id="Shape_5" d="M42.75 0.5625H58.0625L66.8125 13.6875H49.3125" stroke="#00E5E5" stroke-linecap="round" stroke-linejoin="round"/>
<path id="Shape_6" d="M18.6875 13.6875H1.1875L9.9375 0.5625H25.25" stroke="#00E5E5" stroke-linecap="round" stroke-linejoin="round"/>
<path id="Shape_7" d="M1.1875 24.625H18.6875" stroke="#00E5E5" stroke-linecap="round" stroke-linejoin="round"/>
<path id="Shape_8" d="M49.3125 24.625H66.8125" stroke="#00E5E5" stroke-linecap="round" stroke-linejoin="round"/>
<path id="Shape_9" d="M1.1875 35.5625H18.6875" stroke="#00E5E5" stroke-linecap="round" stroke-linejoin="round"/>
<path id="Shape_10" d="M49.3125 35.5625H66.8125" stroke="#00E5E5" stroke-linecap="round" stroke-linejoin="round"/>
<path id="Shape_11" d="M1.1875 46.5H18.6875" stroke="#00E5E5" stroke-linecap="round" stroke-linejoin="round"/>
<path id="Shape_12" d="M49.3125 46.5H66.8125" stroke="#00E5E5" stroke-linecap="round" stroke-linejoin="round"/>
<path id="Shape_13" d="M18.6875 57.4375H1.1875V13.6875" stroke="#00E5E5" stroke-linecap="round" stroke-linejoin="round"/>
<path id="Shape_14" d="M49.3125 57.4375H66.8125V13.6875" stroke="#00E5E5" stroke-linecap="round" stroke-linejoin="round"/>
<path id="Shape_15" d="M49.3125 13.6875H18.6875" stroke="#00E5E5" stroke-linecap="round" stroke-linejoin="round"/>
</g>
</g>
</svg>
