<svg width="68" height="68" viewBox="0 0 68 68" fill="none" xmlns="http://www.w3.org/2000/svg">
<g id="Group">
<g id="office-stamp-document">
<path id="Shape" d="M18.6875 16.5V4.03706C18.6844 3.28285 18.9811 2.55829 19.5122 2.0228C20.0433 1.4873 20.7654 1.18473 21.5196 1.18164H49.8113L66.7979 18.3025V63.9541C66.8028 65.5236 65.5353 66.8002 63.9659 66.8066H44.9375" stroke="#00E5E5" stroke-linecap="round" stroke-linejoin="round"/>
<path id="Shape_2" d="M49.3125 1.18164V15.765C49.3125 17.3758 50.6183 18.6816 52.2292 18.6816H66.8125" stroke="#00E5E5" stroke-linecap="round" stroke-linejoin="round"/>
<path id="Shape_3" d="M59.6783 29.6191H36.1875" stroke="#00E5E5" stroke-linecap="round" stroke-linejoin="round"/>
<path id="Shape_4" d="M59.6783 55.8691H51.5" stroke="#00E5E5" stroke-linecap="round" stroke-linejoin="round"/>
<path id="Shape_5" d="M59.6783 42.7441H40.5625" stroke="#00E5E5" stroke-linecap="round" stroke-linejoin="round"/>
<path id="Shape_6" d="M1.1875 58.0566L3.375 66.8066H34L36.1875 58.0566" stroke="#E961FF" stroke-linecap="round" stroke-linejoin="round"/>
<path id="Shape_7" fill-rule="evenodd" clip-rule="evenodd" d="M27.4375 49.3067H23.0625V41.5308C26.4922 39.5507 28.1644 35.5138 27.1394 31.6885C26.1144 27.8631 22.6478 25.2031 18.6875 25.2031C14.7272 25.2031 11.2607 27.8631 10.2356 31.6885C9.21065 35.5138 10.8828 39.5507 14.3125 41.5308V49.3067H9.9375C5.10501 49.3067 1.1875 53.2242 1.1875 58.0567H36.1875C36.1875 53.2242 32.27 49.3067 27.4375 49.3067Z" stroke="#E961FF" stroke-linecap="round" stroke-linejoin="round"/>
</g>
</g>
</svg>
