<svg width="68" height="61" viewBox="0 0 68 61" fill="none" xmlns="http://www.w3.org/2000/svg">
<g id="Group">
<g id="saving-bag-increase">
<path id="Shape" fill-rule="evenodd" clip-rule="evenodd" d="M52.5938 50.3399C53.1858 50.3495 53.6588 50.8355 53.6524 51.4276C53.646 52.0197 53.1626 52.4954 52.5705 52.4922C51.9784 52.4891 51.5001 52.0082 51.5 51.4161C51.5023 51.1284 51.6188 50.8533 51.824 50.6515C52.0291 50.4496 52.306 50.3375 52.5938 50.3399Z" stroke="#E961FF" stroke-linecap="round" stroke-linejoin="round"/>
<path id="Shape_2" d="M38.375 50.9892C34.4045 56.7387 27.8623 60.1701 20.875 60.168C10.9904 60.168 1.1875 52.8238 1.1875 43.7617C1.1875 34.8134 8.94292 24.9259 14.9104 20.793C13.1896 17.0013 11.8042 14.0117 10.725 11.7076C10.0918 10.3525 10.1948 8.76793 10.9979 7.50619C11.801 6.24445 13.1931 5.48043 14.6888 5.48047H29.625" stroke="#00E5E5" stroke-linecap="round" stroke-linejoin="round"/>
<path id="Shape_3" d="M33.4165 27.0508C37.2828 31.4355 39.757 36.8714 40.5244 42.6666" stroke="#00E5E5" stroke-linecap="round" stroke-linejoin="round"/>
<path id="Shape_4" fill-rule="evenodd" clip-rule="evenodd" d="M40.3 42.6696C39.2797 42.6334 38.4208 43.426 38.375 44.4459V58.4196C38.4192 59.4246 39.2656 60.2059 40.2708 60.1696H64.8875C65.9078 60.2059 66.7667 59.4133 66.8125 58.3934V44.8571C66.7588 43.5996 65.699 42.6219 64.4413 42.6696H40.3Z" stroke="#E961FF" stroke-linecap="round" stroke-linejoin="round"/>
<path id="Shape_5" d="M16.0013 48.0445C17.2832 49.7283 19.3059 50.6808 21.4204 50.5966C24.7425 50.5966 27.4375 48.5754 27.4375 46.0845C27.4375 43.5937 24.7425 41.5754 21.4204 41.5754C18.0983 41.5754 15.4062 39.5541 15.4062 37.0604C15.4062 34.5666 18.1013 32.5483 21.4204 32.5483C23.5353 32.4626 25.5586 33.4154 26.8396 35.1004" stroke="#E961FF" stroke-linecap="round" stroke-linejoin="round"/>
<path id="Shape_6" d="M21.4204 50.5977V53.6047" stroke="#E961FF" stroke-linecap="round" stroke-linejoin="round"/>
<path id="Shape_7" d="M21.4204 29.543V32.5501" stroke="#E961FF" stroke-linecap="round" stroke-linejoin="round"/>
<path id="Shape_8" d="M66.8124 11.4188V1.10547H56.499" stroke="#00E5E5" stroke-linecap="round" stroke-linejoin="round"/>
<path id="Shape_9" d="M66.8124 1.11328L57.3333 10.5837C56.2371 11.6825 54.6254 12.0893 53.1391 11.6424L42.432 8.7812C40.9733 8.38997 39.4166 8.80693 38.3487 9.87495L27.4229 20.8124" stroke="#00E5E5" stroke-linecap="round" stroke-linejoin="round"/>
</g>
</g>
</svg>
