<svg width="68" height="68" viewBox="0 0 68 68" fill="none" xmlns="http://www.w3.org/2000/svg">
<g id="Group">
<g id="Regular">
<path id="Shape" d="M66.8125 1.1875L25.25 31.8125" stroke="#E961FF" stroke-linecap="round" stroke-linejoin="round"/>
<path id="Shape_2" d="M18.6875 5.5625H27.4375" stroke="#E961FF" stroke-linecap="round" stroke-linejoin="round"/>
<path id="Shape_3" d="M23.0625 1.1875V9.9375" stroke="#E961FF" stroke-linecap="round" stroke-linejoin="round"/>
<path id="Shape_4" d="M3.375 23.0625H16.5" stroke="#E961FF" stroke-linecap="round" stroke-linejoin="round"/>
<path id="Shape_5" d="M9.9375 16.5V29.625" stroke="#E961FF" stroke-linecap="round" stroke-linejoin="round"/>
<path id="Shape_6" d="M53.4019 66.8109C52.6931 61.943 52.0923 56.1505 51.7656 49.3984" stroke="#00E5E5" stroke-linecap="round" stroke-linejoin="round"/>
<path id="Shape_7" d="M16.2344 49.3984C15.9077 56.1505 15.3069 61.9401 14.5981 66.8109" stroke="#00E5E5" stroke-linecap="round" stroke-linejoin="round"/>
<path id="Shape_8" d="M49.3125 26.7656C59.7192 28.9677 66.8125 33.3398 66.8125 38.3769C66.8125 45.6248 52.1213 51.5019 34 51.5019C15.8788 51.5019 1.1875 45.6248 1.1875 38.3769C1.19013 37.6245 1.3449 36.8804 1.6425 36.1894" stroke="#00E5E5" stroke-linecap="round" stroke-linejoin="round"/>
<path id="Shape_9" d="M36.1875 34.0273C46.0313 34.2694 53.6875 36.1244 53.6875 38.3761C53.6875 40.7911 44.8733 42.7511 34 42.7511C23.1267 42.7511 14.3125 40.7911 14.3125 38.3761" stroke="#00E5E5" stroke-linecap="round" stroke-linejoin="round"/>
</g>
</g>
</svg>
