<svg width="64" height="66" viewBox="0 0 64 66" fill="none" xmlns="http://www.w3.org/2000/svg">
<g id="Group">
<g id="programming-hold-code">
<path id="Shape" d="M36.4713 45.6904L58.4775 44.0133C60.1053 43.8885 61.6744 44.6486 62.5854 46.0033C63.4963 47.358 63.6084 49.0979 62.8788 50.5583V50.5583C62.3654 51.581 61.4854 52.3725 60.4142 52.775L29.9817 64.185C28.1073 64.8894 26.0476 64.9275 24.1484 64.2929L0.83252 56.5229" stroke="#00E5E5" stroke-linecap="round" stroke-linejoin="round"/>
<path id="Shape_2" d="M16.145 47.7708H33.0267C34.7015 47.7705 36.1885 46.6993 36.7192 45.1108V45.1108C37.0566 44.096 36.9618 42.9872 36.457 42.0444C35.9523 41.1016 35.082 40.408 34.0504 40.1262L16.7313 35.4041C14.9035 34.904 12.9893 34.8045 11.1196 35.1124L0.83252 36.8274" stroke="#00E5E5" stroke-linecap="round" stroke-linejoin="round"/>
<path id="Shape_3" d="M22.4625 6.65625L11.77 14.6771L22.4625 22.6979" stroke="#E961FF" stroke-linecap="round" stroke-linejoin="round"/>
<path id="Shape_4" d="M49.1997 6.65625L59.8951 14.6771L49.1997 22.6979" stroke="#E961FF" stroke-linecap="round" stroke-linejoin="round"/>
<path id="Shape_5" d="M38.504 1.30469L33.1577 28.0418" stroke="#E961FF" stroke-linecap="round" stroke-linejoin="round"/>
</g>
</g>
</svg>
