<svg width="68" height="68" viewBox="0 0 68 68" fill="none" xmlns="http://www.w3.org/2000/svg">
<g id="Group">
<g id="responsive-design-hand">
<path id="Shape" d="M47.446 66.8125L36.3947 57.7883C34.9367 56.6226 34.2918 54.7141 34.7439 52.9029V52.9029C35.0944 51.4968 36.0644 50.326 37.3809 49.7203C38.6973 49.1145 40.2176 49.1394 41.5135 49.7879L44.9376 51.5V36.1875C44.9376 33.7713 46.8964 31.8125 49.3126 31.8125V31.8125C51.7289 31.8125 53.6876 33.7713 53.6876 36.1875V44.9375L59.5005 45.9058C63.7197 46.6087 66.8123 50.2589 66.8126 54.5363V66.8125" stroke="#E961FF" stroke-linecap="round" stroke-linejoin="round"/>
<path id="Shape_2" d="M9.9375 49.3125H5.5625C3.14625 49.3125 1.1875 47.3537 1.1875 44.9375V5.5625C1.1875 3.14625 3.14625 1.1875 5.5625 1.1875H27.4375C29.8537 1.1875 31.8125 3.14625 31.8125 5.5625V9.9375" stroke="#00E5E5" stroke-linecap="round" stroke-linejoin="round"/>
<path id="Shape_3" d="M1.1875 40.5625H9.9375" stroke="#00E5E5" stroke-linecap="round" stroke-linejoin="round"/>
<path id="Shape_4" d="M1.1875 9.9375H31.8125" stroke="#00E5E5" stroke-linecap="round" stroke-linejoin="round"/>
<path id="Shape_5" d="M23.0625 49.3125C20.6463 49.3125 18.6875 47.3537 18.6875 44.9375V23.0625C18.6875 20.6463 20.6463 18.6875 23.0625 18.6875H62.4375C64.8537 18.6875 66.8125 20.6463 66.8125 23.0625V36.1875" stroke="#00E5E5" stroke-linecap="round" stroke-linejoin="round"/>
<path id="Shape_6" d="M27.4375 18.6875V44.9375" stroke="#00E5E5" stroke-linecap="round" stroke-linejoin="round"/>
<path id="Shape_7" d="M58.0625 18.6875V27.4375" stroke="#00E5E5" stroke-linecap="round" stroke-linejoin="round"/>
</g>
</g>
</svg>
