<svg width="40" height="68" viewBox="0 0 40 68" fill="none" xmlns="http://www.w3.org/2000/svg">
<g id="Group">
<g id="vectors-pen">
<path id="Shape" fill-rule="evenodd" clip-rule="evenodd" d="M20.1079 66.8125C22.2954 64.625 38.2292 32.4863 38.2292 32.4863C39.1595 30.1664 39.0534 27.5594 37.9375 25.3229L30.9375 14.3125H9.0625L2.0625 25.3229C0.946635 27.5594 0.840488 30.1664 1.77083 32.4863C1.77083 32.4863 17.9204 64.625 20.1079 66.8125Z" stroke="#00E5E5" stroke-linecap="round" stroke-linejoin="round"/>
<path id="Shape_2" d="M20 47.1234V35.3984" stroke="#E961FF" stroke-linecap="round" stroke-linejoin="round"/>
<path id="Oval" fill-rule="evenodd" clip-rule="evenodd" d="M20 35.3984C22.4162 35.3984 24.375 33.4397 24.375 31.0234C24.375 28.6072 22.4162 26.6484 20 26.6484C17.5838 26.6484 15.625 28.6072 15.625 31.0234C15.625 33.4397 17.5838 35.3984 20 35.3984Z" stroke="#E961FF" stroke-linecap="round" stroke-linejoin="round"/>
<path id="Shape_3" fill-rule="evenodd" clip-rule="evenodd" d="M30.9377 14.3125H9.06268L5.30309 4.775C4.76002 4.123 4.64301 3.21575 5.00287 2.44729C5.36274 1.67884 6.13455 1.18782 6.98309 1.1875H33.2331C34.0816 1.18782 34.8535 1.67884 35.2133 2.44729C35.5732 3.21575 35.4562 4.123 34.9131 4.775L30.9377 14.3125Z" stroke="#00E5E5" stroke-linecap="round" stroke-linejoin="round"/>
</g>
</g>
</svg>
