<svg width="71" height="70" viewBox="0 0 71 70" fill="none" xmlns="http://www.w3.org/2000/svg">
<path d="M42.9727 67.7371L51.5827 18.9062" stroke="#00E5E5" stroke-linecap="round" stroke-linejoin="round"/>
<path d="M25.7335 14.3477L15.2656 67.7372" stroke="#00E5E5" stroke-linecap="round" stroke-linejoin="round"/>
<path d="M45.8359 17.8912L47.3584 9.27539" stroke="#00E5E5" stroke-linecap="round" stroke-linejoin="round"/>
<path d="M32.9961 6.74316L31.4766 15.359" stroke="#00E5E5" stroke-linecap="round" stroke-linejoin="round"/>
<path d="M20.832 25.3311L52.4283 30.9019" stroke="#00E5E5" stroke-linecap="round" stroke-linejoin="round"/>
<path d="M22.8633 13.8398L54.4595 19.4136" stroke="#00E5E5" stroke-linecap="round" stroke-linejoin="round"/>
<path d="M16.7852 48.3086L48.3814 53.8794" stroke="#00E5E5" stroke-linecap="round" stroke-linejoin="round"/>
<path d="M18.8086 36.8164L50.4048 42.3902" stroke="#00E5E5" stroke-linecap="round" stroke-linejoin="round"/>
<path d="M30.125 6.23828L50.2296 9.78203" stroke="#00E5E5" stroke-linecap="round" stroke-linejoin="round"/>
<path d="M40.1797 8.00951L41.1918 2.26367" stroke="#00E5E5" stroke-linecap="round" stroke-linejoin="round"/>
<path d="M32.7623 67.7372L33.6607 62.3559C33.7463 61.9154 33.7443 61.4624 33.6548 61.0227C33.5653 60.583 33.3901 60.1652 33.1392 59.7932C32.8883 59.4212 32.5665 59.1023 32.1923 58.8546C31.8182 58.607 31.3989 58.4355 30.9584 58.3499C30.5179 58.2643 30.0649 58.2663 29.6252 58.3557C29.1855 58.4452 28.7677 58.6204 28.3957 58.8713C28.0237 59.1223 27.7048 59.444 27.4571 59.8182C27.2095 60.1924 27.0379 60.6117 26.9523 61.0522L25.4648 67.7372" stroke="#E961FF" stroke-linecap="round" stroke-linejoin="round"/>
<path d="M1.95703 67.7363H69.0404" stroke="#00E5E5" stroke-linecap="round" stroke-linejoin="round"/>
</svg>
