<svg width="71" height="70" viewBox="0 0 71 70" fill="none" xmlns="http://www.w3.org/2000/svg">
<path d="M25.2913 68.5416H4.87467C4.10113 68.5416 3.35926 68.2343 2.81228 67.6873C2.2653 67.1403 1.95801 66.3985 1.95801 65.6249V4.37492C1.95801 3.60137 2.2653 2.85951 2.81228 2.31252C3.35926 1.76554 4.10113 1.45825 4.87467 1.45825H43.6459C44.4194 1.45842 45.1612 1.76582 45.708 2.31284L56.5201 13.1249C57.0671 13.6718 57.3745 14.4135 57.3747 15.187V24.7916" stroke="#00E5E5" stroke-linecap="round" stroke-linejoin="round"/>
<path d="M10.708 25.5821L13.8668 28.7379C14.0163 28.8876 14.1967 29.003 14.3953 29.076C14.5939 29.149 14.806 29.1779 15.017 29.1607C15.2279 29.1435 15.4325 29.0806 15.6167 28.9763C15.8008 28.8721 15.9601 28.7291 16.0834 28.5571L22.3747 19.7488" stroke="#00E5E5" stroke-linecap="round" stroke-linejoin="round"/>
<path d="M31.125 24.7916H42.7917" stroke="#E961FF" stroke-linecap="round" stroke-linejoin="round"/>
<path d="M10.708 40.1654L13.8668 43.3212C14.0163 43.4709 14.1967 43.5862 14.3953 43.6592C14.5939 43.7322 14.806 43.7611 15.017 43.7439C15.2279 43.7267 15.4325 43.6638 15.6167 43.5596C15.8008 43.4554 15.9601 43.3123 16.0834 43.1404L22.3747 34.332" stroke="#E961FF" stroke-linecap="round" stroke-linejoin="round"/>
<path d="M31.125 39.375H42.7917" stroke="#00E5E5" stroke-linecap="round" stroke-linejoin="round"/>
<path d="M67.2337 44.0971L44.9795 66.3542L34.042 68.5417L36.2295 57.6042L58.4837 35.3471C59.641 34.1901 61.2105 33.5402 62.847 33.5402C64.4835 33.5402 66.053 34.1901 67.2103 35.3471L67.2337 35.3734C67.8071 35.9458 68.2621 36.6257 68.5726 37.3742C68.883 38.1226 69.0428 38.9249 69.0428 39.7352C69.0428 40.5455 68.883 41.3479 68.5726 42.0963C68.2621 42.8448 67.8071 43.5247 67.2337 44.0971Z" stroke="#00E5E5" stroke-linecap="round" stroke-linejoin="round"/>
</svg>
