<svg width="71" height="70" viewBox="0 0 71 70" fill="none" xmlns="http://www.w3.org/2000/svg">
<path d="M69.0417 35C69.0398 43.1681 66.0556 51.0544 60.6497 57.1777C55.2438 63.3009 47.7882 67.2396 39.6833 68.254C31.5785 69.2683 23.3822 67.2885 16.6339 62.6865C9.8857 58.0845 5.04996 51.1769 3.03507 43.2612C1.02018 35.3455 1.96478 26.9666 5.69145 19.6982C9.41812 12.4298 15.6704 6.7722 23.2739 3.7881C30.8773 0.803997 39.3087 0.698751 46.9843 3.49213C54.6598 6.28551 61.0514 11.7853 64.9583 18.9584C67.6435 23.8784 69.0477 29.395 69.0417 35V35Z" stroke="#00E5E5" stroke-linecap="round" stroke-linejoin="round"/>
<path d="M50.133 18.9583C47.4087 11.6182 42.2419 5.43904 35.5001 1.45825C28.7583 5.43904 23.5915 11.6182 20.8672 18.9583" stroke="#00E5E5" stroke-linecap="round" stroke-linejoin="round"/>
<path d="M20.8642 51.0417C23.5907 58.3814 28.7582 64.5602 35.5 68.5418C42.5605 64.8836 47.9021 58.5993 50.375 51.0417" stroke="#00E5E5" stroke-linecap="round" stroke-linejoin="round"/>
<path d="M10.0723 13.125H60.9273" stroke="#00E5E5" stroke-linecap="round" stroke-linejoin="round"/>
<path d="M10.0723 56.875H60.9273" stroke="#00E5E5" stroke-linecap="round" stroke-linejoin="round"/>
<path d="M28.208 29.1667V33.0897C28.2087 35.3156 28.6334 37.521 29.4593 39.588L31.1247 43.7501L34.0413 33.5417L36.958 43.7501L38.6234 39.588C39.4493 37.521 39.874 35.3156 39.8747 33.0897V29.1667" stroke="#E961FF" stroke-linecap="round" stroke-linejoin="round"/>
<path d="M45.708 29.1667V33.0897C45.7087 35.3156 46.1334 37.521 46.9593 39.588L48.6247 43.7501L51.5413 33.5417L54.458 43.7501L56.1234 39.588C56.9493 37.521 57.374 35.3156 57.3747 33.0897V29.1667" stroke="#00E5E5" stroke-linecap="round" stroke-linejoin="round"/>
<path d="M10.708 29.1667V33.0897C10.7087 35.3156 11.1334 37.521 11.9593 39.588L13.6247 43.7501L16.5413 33.5417L19.458 43.7501L21.1234 39.588C21.9493 37.521 22.374 35.3156 22.3747 33.0897V29.1667" stroke="#00E5E5" stroke-linecap="round" stroke-linejoin="round"/>
</svg>
