<svg width="68" height="68" viewBox="0 0 68 68" fill="none" xmlns="http://www.w3.org/2000/svg">
<g id="Group">
<g id="seo-label">
<path id="Shape" d="M40.5625 66.8125L2.0625 29.4996C1.51548 28.9527 1.20808 28.211 1.20792 27.4375L1.1875 4.10417C1.1875 2.49334 2.49334 1.1875 4.10417 1.1875H27.4375C28.2134 1.18689 28.9576 1.49548 29.5054 2.045L66.8125 38.375" stroke="#00E5E5" stroke-linecap="round" stroke-linejoin="round"/>
<path id="Shape_2" d="M13.2188 12.125C13.8228 12.125 14.3125 12.6147 14.3125 13.2188C14.3125 13.8228 13.8228 14.3125 13.2188 14.3125C12.6147 14.3125 12.125 13.8228 12.125 13.2188C12.125 12.6147 12.6147 12.125 13.2188 12.125" stroke="#00E5E5" stroke-linecap="round" stroke-linejoin="round"/>
<path id="Shape_3" fill-rule="evenodd" clip-rule="evenodd" d="M57.0417 41.0612C55.3333 39.3533 52.5639 39.3533 50.8555 41.0612L41.563 50.3333C39.905 52.05 39.9287 54.7787 41.6162 56.4663C43.3038 58.1538 46.0325 58.1776 47.7492 56.5195L57.0417 47.2475C58.7496 45.539 58.7496 42.7697 57.0417 41.0612Z" stroke="#E961FF" stroke-linecap="round" stroke-linejoin="round"/>
<path id="Shape_4" d="M35.3738 19.417L32.2821 16.3224C31.4616 15.5014 30.3483 15.04 29.1875 15.04C28.0267 15.04 26.9135 15.5014 26.093 16.3224C21.4525 20.9629 27.6417 27.1491 23.0013 31.7808C22.1807 32.6019 21.0675 33.0632 19.9067 33.0632C18.7459 33.0632 17.6327 32.6019 16.8121 31.7808L13.7205 28.6891" stroke="#E961FF" stroke-linecap="round" stroke-linejoin="round"/>
<path id="Shape_5" d="M32.2821 47.2479L29.1876 44.1562C28.3665 43.3357 27.9052 42.2225 27.9052 41.0616C27.9052 39.9008 28.3665 38.7876 29.1876 37.9671L38.4684 28.6891C40.1768 26.9812 42.9462 26.9812 44.6546 28.6891L47.7492 31.7808" stroke="#E961FF" stroke-linecap="round" stroke-linejoin="round"/>
<path id="Shape_6" d="M32.2821 34.875L38.4684 41.0613" stroke="#E961FF" stroke-linecap="round" stroke-linejoin="round"/>
</g>
</g>
</svg>
