<svg width="68" height="68" viewBox="0 0 68 68" fill="none" xmlns="http://www.w3.org/2000/svg">
<g id="Group">
<g id="seo-eye">
<path id="Oval" fill-rule="evenodd" clip-rule="evenodd" d="M34 55.875C46.0812 55.875 55.875 46.0812 55.875 34C55.875 21.9188 46.0812 12.125 34 12.125C21.9188 12.125 12.125 21.9188 12.125 34C12.125 46.0812 21.9188 55.875 34 55.875Z" stroke="#00E5E5" stroke-linecap="round" stroke-linejoin="round"/>
<path id="Oval_2" fill-rule="evenodd" clip-rule="evenodd" d="M34 40.5625C37.6244 40.5625 40.5625 37.6244 40.5625 34C40.5625 30.3756 37.6244 27.4375 34 27.4375C30.3756 27.4375 27.4375 30.3756 27.4375 34C27.4375 37.6244 30.3756 40.5625 34 40.5625Z" stroke="#E961FF" stroke-linecap="round" stroke-linejoin="round"/>
<path id="Shape" d="M12.125 34.496C16.735 42.1826 24.9774 46.9545 33.9388 47.1252C42.8992 46.9541 51.1405 42.1821 55.7496 34.496L55.875 34.2656" stroke="#E961FF" stroke-linecap="round" stroke-linejoin="round"/>
<path id="Shape_2" d="M12.125 33.5013C16.7357 25.8158 24.9779 21.045 33.9388 20.875C42.8987 21.0455 51.1398 25.8163 55.7496 33.5013L55.875 33.7288" stroke="#E961FF" stroke-linecap="round" stroke-linejoin="round"/>
<path id="Shape_3" d="M34 1.1875V12.125" stroke="#00E5E5" stroke-linecap="round" stroke-linejoin="round"/>
<path id="Shape_4" d="M1.1875 34H12.125" stroke="#00E5E5" stroke-linecap="round" stroke-linejoin="round"/>
<path id="Shape_5" d="M34 66.8125V55.875" stroke="#00E5E5" stroke-linecap="round" stroke-linejoin="round"/>
<path id="Shape_6" d="M66.8125 34H55.875" stroke="black" stroke-linecap="round" stroke-linejoin="round"/>
<path id="Shape_7" d="M66.6142 34H55.875" stroke="#00E5E5" stroke-linecap="round" stroke-linejoin="round"/>
<path id="Shape_8" d="M66.8125 1.1875L58.0625 9.9375" stroke="#00E5E5" stroke-linecap="round" stroke-linejoin="round"/>
<path id="Shape_9" d="M1.1875 1.1875L9.9375 9.9375" stroke="#00E5E5" stroke-linecap="round" stroke-linejoin="round"/>
<path id="Shape_10" d="M66.8125 66.8125L58.0625 58.0625" stroke="#00E5E5" stroke-linecap="round" stroke-linejoin="round"/>
<path id="Shape_11" d="M1.1875 66.8125L9.9375 58.0625" stroke="#00E5E5" stroke-linecap="round" stroke-linejoin="round"/>
</g>
</g>
</svg>
