<svg width="68" height="67" viewBox="0 0 68 67" fill="none" xmlns="http://www.w3.org/2000/svg">
<g id="Group">
<g id="optimization-rocket-growth">
<path id="Shape" d="M51.2288 24.0508C55.2184 27.2984 57.5963 32.0108 57.7779 37.0293C57.9594 42.0479 55.9279 46.9072 52.1826 50.4128C44.6523 57.4597 32.6432 57.4597 25.113 50.4128C22.9462 48.3783 21.3275 45.8682 20.3967 43.0992" stroke="#00E5E5" stroke-linecap="round" stroke-linejoin="round"/>
<path id="Shape_2" fill-rule="evenodd" clip-rule="evenodd" d="M45.1912 29.7438C44.1159 30.7518 42.3991 30.7518 41.3237 29.7438L37.4562 26.1038C36.946 25.6249 36.6583 24.9688 36.6583 24.2838C36.6583 23.5988 36.946 22.9427 37.4562 22.4638L49.0558 11.5158C50.1312 10.5078 51.8479 10.5078 52.9233 11.5158L56.7908 15.1558C57.301 15.6347 57.5887 16.2908 57.5887 16.9758C57.5887 17.6608 57.301 18.3169 56.7908 18.7958L45.1912 29.7438Z" stroke="#00E5E5" stroke-linecap="round" stroke-linejoin="round"/>
<path id="Shape_3" d="M54.3234 12.8316L62.1634 5.29961L57.7884 1.09961" stroke="#00E5E5" stroke-linecap="round" stroke-linejoin="round"/>
<path id="Shape_4" d="M66.5383 9.49883L62.1633 5.29883" stroke="#00E5E5" stroke-linecap="round" stroke-linejoin="round"/>
<path id="Shape_5" d="M13.8429 43.0996H29.1554" stroke="#00E5E5" stroke-linecap="round" stroke-linejoin="round"/>
<path id="Shape_6" d="M16.2258 64.0996H57.7883" stroke="#00E5E5" stroke-linecap="round" stroke-linejoin="round"/>
<path id="Shape_7" d="M38.1008 55.6992V64.0992" stroke="#00E5E5" stroke-linecap="round" stroke-linejoin="round"/>
<path id="Shape_8" d="M29.3508 1.09961H38.1008V9.49961" stroke="#E961FF" stroke-linecap="round" stroke-linejoin="round"/>
<path id="Shape_9" d="M38.1008 1.09961L20.21 17.9668C19.1334 18.9719 17.4191 18.9719 16.3425 17.9668L12.6908 14.5228C11.6155 13.5148 9.89869 13.5148 8.82333 14.5228L1.1875 21.7216" stroke="#E961FF" stroke-linecap="round" stroke-linejoin="round"/>
</g>
</g>
</svg>
