<svg width="512" height="512" viewBox="0 0 512 512" fill="none" xmlns="http://www.w3.org/2000/svg">
<path d="M394 142.929V373.771C394 410.432 379.461 445.591 353.581 471.514C327.701 497.437 292.6 512 256 512C219.4 512 184.299 497.437 158.419 471.514C132.539 445.591 118 410.432 118 373.771H209.08V374.822C209.08 387.286 214.023 399.24 222.823 408.054C231.622 416.868 243.556 421.819 256 421.819C268.444 421.819 280.378 416.868 289.178 408.054C297.977 399.24 302.92 387.286 302.92 374.822V234.16H168.342V143.62L394 142.929ZM281.337 107.266C291.926 107.26 302.275 104.11 311.077 98.2135C319.878 92.3169 326.737 83.9386 330.785 74.138C334.834 64.3374 335.89 53.5545 333.821 43.1526C331.752 32.7507 326.65 23.1969 319.161 15.699C311.671 8.20109 302.131 3.09574 291.745 1.02855C281.359 -1.03865 270.595 0.0250567 260.812 4.08521C251.03 8.14536 242.669 15.0196 236.787 23.8389C230.905 32.6581 227.765 43.0264 227.765 53.6328C227.773 67.8597 233.42 81.5014 243.466 91.5587C253.512 101.616 267.134 107.266 281.337 107.266Z" fill="url(#paint0_linear_80_3)"/>
<defs>
<linearGradient id="paint0_linear_80_3" x1="528.219" y1="5.61214" x2="34.438" y2="515.578" gradientUnits="userSpaceOnUse">
<stop stop-color="#00E5E5"/>
<stop offset="0.42" stop-color="#72A5F2"/>
<stop offset="1" stop-color="#E961FF"/>
</linearGradient>
</defs>
</svg>
