<svg width="71" height="70" viewBox="0 0 71 70" fill="none" xmlns="http://www.w3.org/2000/svg">
<path d="M17.3672 29.8345L22.5968 25.9116" stroke="#E961FF" stroke-linecap="round" stroke-linejoin="round"/>
<path d="M25.2917 27.7083C26.9025 27.7083 28.2083 26.4025 28.2083 24.7917C28.2083 23.1808 26.9025 21.875 25.2917 21.875C23.6808 21.875 22.375 23.1808 22.375 24.7917C22.375 26.4025 23.6808 27.7083 25.2917 27.7083Z" stroke="#E961FF" stroke-linecap="round" stroke-linejoin="round"/>
<path d="M17.854 59.3862C19.3753 59.133 20.8074 58.4979 22.0163 57.5405C23.2253 56.583 24.1715 55.3344 24.7665 53.9116" stroke="#00E5E5" stroke-linecap="round" stroke-linejoin="round"/>
<path d="M7.56104 24.9258C10.5039 25.4418 13.2862 26.6358 15.6878 28.4132C18.0894 30.1906 20.0442 32.5026 21.3977 35.1662" stroke="#00E5E5" stroke-linecap="round" stroke-linejoin="round"/>
<path d="M29.6668 1.96289C29.6108 4.88675 29.0829 7.78236 28.1035 10.5379" stroke="#00E5E5" stroke-linecap="round" stroke-linejoin="round"/>
<path d="M26.7502 16.0416C28.361 16.0416 29.6668 14.7358 29.6668 13.1249C29.6668 11.5141 28.361 10.2083 26.7502 10.2083C25.1393 10.2083 23.8335 11.5141 23.8335 13.1249C23.8335 14.7358 25.1393 16.0416 26.7502 16.0416Z" stroke="#00E5E5" stroke-linecap="round" stroke-linejoin="round"/>
<path d="M44.2502 21.8751C45.861 21.8751 47.1668 20.5692 47.1668 18.9584C47.1668 17.3476 45.861 16.0417 44.2502 16.0417C42.6393 16.0417 41.3335 17.3476 41.3335 18.9584C41.3335 20.5692 42.6393 21.8751 44.2502 21.8751Z" stroke="#00E5E5" stroke-linecap="round" stroke-linejoin="round"/>
<path d="M54.4582 33.5416C56.069 33.5416 57.3748 32.2357 57.3748 30.6249C57.3748 29.0141 56.069 27.7083 54.4582 27.7083C52.8473 27.7083 51.5415 29.0141 51.5415 30.6249C51.5415 32.2357 52.8473 33.5416 54.4582 33.5416Z" stroke="#E961FF" stroke-linecap="round" stroke-linejoin="round"/>
<path d="M44.2502 43.7501C45.861 43.7501 47.1668 42.4442 47.1668 40.8334C47.1668 39.2226 45.861 37.9167 44.2502 37.9167C42.6393 37.9167 41.3335 39.2226 41.3335 40.8334C41.3335 42.4442 42.6393 43.7501 44.2502 43.7501Z" stroke="#E961FF" stroke-linecap="round" stroke-linejoin="round"/>
<path d="M22.3752 40.8333C23.986 40.8333 25.2918 39.5275 25.2918 37.9167C25.2918 36.3058 23.986 35 22.3752 35C20.7643 35 19.4585 36.3058 19.4585 37.9167C19.4585 39.5275 20.7643 40.8333 22.3752 40.8333Z" stroke="#00E5E5" stroke-linecap="round" stroke-linejoin="round"/>
<path d="M69.0414 34.9999C69.0472 32.9817 68.5351 30.9957 67.5541 29.2319C66.5732 27.4682 65.1561 25.9855 63.4385 24.9257C63.6362 24.0646 63.7389 23.1843 63.7448 22.3008C63.7729 19.3764 62.6974 16.5489 60.7327 14.3826C58.7681 12.2163 56.0588 10.8705 53.1456 10.6137C53.1754 9.43136 52.9701 8.25491 52.5416 7.15259C52.1131 6.05027 51.4699 5.04403 50.6494 4.1923C49.8288 3.34056 48.8473 2.66028 47.7617 2.19094C46.6762 1.7216 45.5082 1.47255 44.3256 1.45825C42.4704 1.56447 40.6764 2.16019 39.1261 3.18482C37.5758 4.20945 36.3246 5.62642 35.4998 7.29158C34.6749 5.62642 33.4237 4.20945 31.8734 3.18482C30.3232 2.16019 28.5292 1.56447 26.6739 1.45825C25.4913 1.47255 24.3234 1.7216 23.2378 2.19094C22.1522 2.66028 21.1707 3.34056 20.3501 4.1923C19.5296 5.04403 18.8864 6.05027 18.4579 7.15259C18.0294 8.25491 17.8241 9.43136 17.8539 10.6137C14.9397 10.8705 12.2296 12.2172 10.2648 14.3847C8.3 16.5523 7.2251 19.3812 7.25476 22.3066C7.25587 23.1896 7.35368 24.0699 7.54643 24.9316C5.833 25.9958 4.41932 27.4794 3.43906 29.2422C2.45879 31.005 1.94434 32.9887 1.94434 35.0057C1.94434 37.0228 2.45879 39.0065 3.43906 40.7693C4.41932 42.5321 5.833 44.0157 7.54643 45.0799C7.35368 45.9416 7.25587 46.8219 7.25476 47.7049C7.22806 50.6283 8.30428 53.4543 10.2688 55.6194C12.2333 57.7844 14.9417 59.1295 17.8539 59.3862C17.8241 60.5685 18.0294 61.7449 18.4579 62.8472C18.8864 63.9496 19.5296 64.9558 20.3501 65.8075C21.1707 66.6593 22.1522 67.3396 23.2378 67.8089C24.3234 68.2782 25.4913 68.5273 26.6739 68.5416C28.3896 68.5832 30.0897 68.2066 31.6273 67.4444C33.165 66.6822 34.494 65.5572 35.4998 64.1666C36.5055 65.5572 37.8346 66.6822 39.3722 67.4444C40.9099 68.2066 42.6099 68.5832 44.3256 68.5416C45.5082 68.5273 46.6762 68.2782 47.7617 67.8089C48.8473 67.3396 49.8288 66.6593 50.6494 65.8075C51.4699 64.9558 52.1131 63.9496 52.5416 62.8472C52.9701 61.7449 53.1754 60.5685 53.1456 59.3862C56.0598 59.1293 58.7699 57.7826 60.7347 55.6151C62.6995 53.4475 63.7744 50.6186 63.7448 47.6932C63.7389 46.8097 63.6362 45.9294 63.4385 45.0682C65.1553 44.009 66.5718 42.5273 67.5527 40.7646C68.5336 39.0019 69.0462 37.0172 69.0414 34.9999V34.9999Z" stroke="#00E5E5" stroke-linecap="round" stroke-linejoin="round"/>
<path d="M35.5 7.29175V40.8334" stroke="#00E5E5" stroke-linecap="round" stroke-linejoin="round"/>
<path d="M35.5 52.3774V64.1666" stroke="#00E5E5" stroke-linecap="round" stroke-linejoin="round"/>
<path d="M62.2546 16.5171L54.1667 20.5654C53.0006 21.1492 51.7169 21.4595 50.4129 21.4726C49.109 21.4857 47.8192 21.2014 46.6417 20.6413" stroke="#00E5E5" stroke-linecap="round" stroke-linejoin="round"/>
<path d="M44.25 37.9167C44.6741 36.1467 45.5798 34.5287 46.8668 33.2418C48.1537 31.9548 49.7717 31.0491 51.5417 30.625" stroke="#E961FF" stroke-linecap="round" stroke-linejoin="round"/>
<path d="M53.1458 59.3862C52.3408 56.5833 50.9671 54.4278 48.625 53.9583" stroke="#00E5E5" stroke-linecap="round" stroke-linejoin="round"/>
<path d="M25.2917 53.9583C26.9025 53.9583 28.2083 52.6525 28.2083 51.0417C28.2083 49.4308 26.9025 48.125 25.2917 48.125C23.6808 48.125 22.375 49.4308 22.375 51.0417C22.375 52.6525 23.6808 53.9583 25.2917 53.9583Z" stroke="#00E5E5" stroke-linecap="round" stroke-linejoin="round"/>
<path d="M45.7082 56.8751C47.319 56.8751 48.6248 55.5692 48.6248 53.9584C48.6248 52.3476 47.319 51.0417 45.7082 51.0417C44.0973 51.0417 42.7915 52.3476 42.7915 53.9584C42.7915 55.5692 44.0973 56.8751 45.7082 56.8751Z" stroke="#00E5E5" stroke-linecap="round" stroke-linejoin="round"/>
</svg>
