<svg width="71" height="70" viewBox="0 0 71 70" fill="none" xmlns="http://www.w3.org/2000/svg">
<path d="M35.5 45.2083C37.9162 45.2083 39.875 43.2495 39.875 40.8333C39.875 38.417 37.9162 36.4583 35.5 36.4583C33.0838 36.4583 31.125 38.417 31.125 40.8333C31.125 43.2495 33.0838 45.2083 35.5 45.2083Z" stroke="#00E5E5" stroke-linecap="round" stroke-linejoin="round"/>
<path d="M38.5918 37.7388L53.0322 23.3042" stroke="#00E5E5" stroke-linecap="round" stroke-linejoin="round"/>
<path d="M7.7915 42.2917H13.6248" stroke="#00E5E5" stroke-linecap="round" stroke-linejoin="round"/>
<path d="M63.2083 42.2917H57.375" stroke="#00E5E5" stroke-linecap="round" stroke-linejoin="round"/>
<path d="M61.0966 30.2312L55.7095 32.4625" stroke="#E961FF" stroke-linecap="round" stroke-linejoin="round"/>
<path d="M46.1019 15.2336L43.8706 20.6236" stroke="#E961FF" stroke-linecap="round" stroke-linejoin="round"/>
<path d="M35.5 13.125V18.9583" stroke="#00E5E5" stroke-linecap="round" stroke-linejoin="round"/>
<path d="M24.8979 15.2336L27.1292 20.6236" stroke="#E961FF" stroke-linecap="round" stroke-linejoin="round"/>
<path d="M15.9088 21.2393L20.0271 25.3663" stroke="#00E5E5" stroke-linecap="round" stroke-linejoin="round"/>
<path d="M9.90334 30.2312L15.2875 32.4625" stroke="#E961FF" stroke-linecap="round" stroke-linejoin="round"/>
<path d="M35.5002 7.29175C26.6044 7.29175 18.0729 10.8256 11.7826 17.1159C5.49234 23.4062 1.9585 31.9376 1.9585 40.8334V51.0417C1.9585 51.8153 2.26579 52.5572 2.81277 53.1041C3.35975 53.6511 4.10161 53.9584 4.87516 53.9584H66.1252C66.8987 53.9584 67.6406 53.6511 68.1876 53.1041C68.7345 52.5572 69.0418 51.8153 69.0418 51.0417V40.8334C69.0418 31.9376 65.508 23.4062 59.2177 17.1159C52.9274 10.8256 44.396 7.29175 35.5002 7.29175V7.29175Z" stroke="#00E5E5" stroke-linecap="round" stroke-linejoin="round"/>
</svg>
