<svg width="68" height="66" viewBox="0 0 68 66" fill="none" xmlns="http://www.w3.org/2000/svg">
<g id="Group">
<g id="modern-tv-news">
<path id="Shape" fill-rule="evenodd" clip-rule="evenodd" d="M44.9375 62.625H23.0625L25.25 49.5H42.75L44.9375 62.625V62.625Z" stroke="#00E5E5" stroke-linecap="round" stroke-linejoin="round"/>
<path id="Shape_2" d="M16.5 62.625H51.5" stroke="#00E5E5" stroke-linecap="round" stroke-linejoin="round"/>
<path id="Shape_3" d="M1.1875 40.75H66.8125" stroke="#00E5E5" stroke-linecap="round" stroke-linejoin="round"/>
<path id="Rectangle-path" fill-rule="evenodd" clip-rule="evenodd" d="M1.1875 3.375C1.1875 2.27043 2.08293 1.375 3.1875 1.375H64.8125C65.9171 1.375 66.8125 2.27043 66.8125 3.375V47.5C66.8125 48.6046 65.9171 49.5 64.8125 49.5H3.1875C2.08293 49.5 1.1875 48.6046 1.1875 47.5V3.375Z" stroke="#00E5E5" stroke-linecap="round" stroke-linejoin="round"/>
<path id="Oval" fill-rule="evenodd" clip-rule="evenodd" d="M23.0625 27.625C27.895 27.625 31.8125 23.7075 31.8125 18.875C31.8125 14.0425 27.895 10.125 23.0625 10.125C18.23 10.125 14.3125 14.0425 14.3125 18.875C14.3125 23.7075 18.23 27.625 23.0625 27.625Z" stroke="#E961FF" stroke-linecap="round" stroke-linejoin="round"/>
<path id="Shape_4" d="M33.7813 40.7493C32.7403 35.657 28.2601 32 23.0625 32C17.8649 32 13.3847 35.657 12.3438 40.7493" stroke="#E961FF" stroke-linecap="round" stroke-linejoin="round"/>
<path id="Rectangle-path_2" fill-rule="evenodd" clip-rule="evenodd" d="M40.5625 10.625C40.5625 10.3489 40.7864 10.125 41.0625 10.125H57.5625C57.8386 10.125 58.0625 10.3489 58.0625 10.625V20.5625C58.0625 20.8386 57.8386 21.0625 57.5625 21.0625H41.0625C40.7864 21.0625 40.5625 20.8386 40.5625 20.5625V10.625Z" stroke="#E961FF" stroke-linecap="round" stroke-linejoin="round"/>
</g>
</g>
</svg>
