<svg width="68" height="68" viewBox="0 0 68 68" fill="none" xmlns="http://www.w3.org/2000/svg">
<g id="Group">
<g id="iris-scan-approved-1">
<path id="Shape" d="M62.4376 27.2922C63.5518 26.2393 64.5989 25.1718 65.5672 24.1043C67.2305 22.2597 67.2305 19.4563 65.5672 17.6118C57.9168 9.20884 45.7572 0.995502 34.0001 1.19092C22.243 0.995502 10.0834 9.20884 2.43886 17.6234C0.776891 19.4685 0.776891 22.2708 2.43886 24.1159C8.11177 30.4682 15.1829 35.4156 23.0947 38.568" stroke="#00E5E5" stroke-linecap="round" stroke-linejoin="round"/>
<path id="Shape_2" d="M29.6252 30.9001C24.0928 28.4822 21.5672 22.0378 23.9835 16.5047C26.3997 10.9716 32.8433 8.44402 38.3772 10.8586C43.911 13.2732 46.4406 19.716 44.0277 25.2506" stroke="#00E5E5" stroke-linecap="round" stroke-linejoin="round"/>
<path id="Oval" fill-rule="evenodd" clip-rule="evenodd" d="M49.3125 66.8125C58.9775 66.8125 66.8125 58.9775 66.8125 49.3125C66.8125 39.6475 58.9775 31.8125 49.3125 31.8125C39.6475 31.8125 31.8125 39.6475 31.8125 49.3125C31.8125 58.9775 39.6475 66.8125 49.3125 66.8125Z" stroke="#E961FF" stroke-linecap="round" stroke-linejoin="round"/>
<path id="Shape_3" d="M57.1118 44.2227L48.6388 55.5218C48.2576 56.0288 47.6754 56.3457 47.0426 56.3904C46.4099 56.4352 45.7889 56.2034 45.3401 55.7552L40.9651 51.3802" stroke="#E961FF" stroke-linecap="round" stroke-linejoin="round"/>
</g>
</g>
</svg>
