<svg width="56" height="68" viewBox="0 0 56 68" fill="none" xmlns="http://www.w3.org/2000/svg">
<g id="Group">
<g id="newspaper-read-man">
<path id="Shape" d="M47.778 17.9593C34.863 20.0914 31.9784 17.2097 29.0938 14.3105C26.2092 17.201 23.3334 20.0826 10.4067 17.9593" stroke="#00E5E5" stroke-linecap="round" stroke-linejoin="round"/>
<path id="Shape_2" d="M45.6662 27.2306L47.7604 17.8243C49.342 10.9399 45.1914 4.03839 38.3687 2.20849C35.3314 1.48468 32.2157 1.14177 29.0937 1.18766C25.9765 1.14298 22.8659 1.48588 19.8333 2.20849C13.0078 4.03841 8.85635 10.9438 10.4416 17.8302L12.5358 27.2364" stroke="#00E5E5" stroke-linecap="round" stroke-linejoin="round"/>
<path id="Shape_3" d="M7.21876 55.1198V58.0685C7.16647 59.2124 7.8617 60.2582 8.93667 60.6527L29.0938 66.8127V41.0498L10.2083 34.1256C9.44952 33.9206 8.6384 34.1025 8.03979 34.6119C7.44118 35.1213 7.1319 35.8929 7.21292 36.6748V42.0298" stroke="#E961FF" stroke-linecap="round" stroke-linejoin="round"/>
<path id="Shape_4" d="M51.0067 54.691V58.0685C51.0594 59.2116 50.3655 60.2572 49.2917 60.6527L29.0938 66.8127V41.0498L48.0113 34.1256C48.7701 33.9206 49.5812 34.1025 50.1798 34.6119C50.7784 35.1213 51.0877 35.8929 51.0067 36.6748V42.4789" stroke="#E961FF" stroke-linecap="round" stroke-linejoin="round"/>
<path id="Shape_5" fill-rule="evenodd" clip-rule="evenodd" d="M11.5559 52.5391C11.5559 53.9974 9.9138 55.1641 7.90713 55.1466C3.88797 55.1291 0.641716 52.7637 0.656299 49.8674V47.2424C0.656299 44.3433 3.93755 42.0099 7.94796 42.0274C9.95755 42.0274 11.5792 43.2204 11.5734 44.6699L11.5559 52.5391Z" stroke="#00E5E5" stroke-linecap="round" stroke-linejoin="round"/>
<path id="Shape_6" fill-rule="evenodd" clip-rule="evenodd" d="M44.4267 52.5391C44.4267 53.9974 46.0688 55.1641 48.0813 55.1466C52.1063 55.1291 55.3584 52.7637 55.3438 49.8674V47.2424C55.3438 44.3433 52.0567 42.0099 48.0317 42.0274C46.0221 42.0274 44.3946 43.2204 44.4034 44.6699L44.4267 52.5391Z" stroke="#00E5E5" stroke-linecap="round" stroke-linejoin="round"/>
<path id="Shape_7" d="M22.5312 27.4375V29.625" stroke="#00E5E5" stroke-linecap="round" stroke-linejoin="round"/>
<path id="Shape_8" d="M35.6562 27.4375V29.625" stroke="#00E5E5" stroke-linecap="round" stroke-linejoin="round"/>
</g>
</g>
</svg>
