<svg width="70" height="70" viewBox="0 0 70 70" fill="none" xmlns="http://www.w3.org/2000/svg">
<g id="Money-Payments-Finance / Accounting/Billing / accounting-invoice-mail">
<g id="Group">
<g id="accounting-invoice-mail">
<path id="Shape" d="M56.875 37.5667V6.5625C56.875 4.14625 54.9162 2.1875 52.5 2.1875H17.5C15.0838 2.1875 13.125 4.14625 13.125 6.5625V37.5667" stroke="url(#paint0_linear_2667_8269)" stroke-linecap="round" stroke-linejoin="round"/>
<path id="Shape_2" fill-rule="evenodd" clip-rule="evenodd" d="M62.0783 33.4396C62.7356 32.9184 63.633 32.8189 64.3885 33.1836C65.1439 33.5483 65.6243 34.3128 65.625 35.1517V63.4433C65.625 65.8596 63.6662 67.8183 61.25 67.8183H8.75C6.33375 67.8183 4.375 65.8596 4.375 63.4433V35.1517C4.37574 34.3128 4.8561 33.5483 5.61153 33.1836C6.36696 32.8189 7.26439 32.9184 7.92167 33.4396L29.5954 50.6304C32.7677 53.1219 37.2323 53.1219 40.4046 50.6304L62.0783 33.4396Z" stroke="url(#paint1_linear_2667_8269)" stroke-linecap="round" stroke-linejoin="round"/>
<path id="Shape_3" d="M46.1067 46.1067L54.6875 54.6875" stroke="url(#paint2_linear_2667_8269)" stroke-linecap="round" stroke-linejoin="round"/>
<path id="Shape_4" d="M23.8933 46.1067L15.3125 54.6875" stroke="url(#paint3_linear_2667_8269)" stroke-linecap="round" stroke-linejoin="round"/>
<path id="Shape_5" d="M35.5833 29.4408C36.8653 31.1245 38.888 32.0771 41.0025 31.9929C44.3246 31.9929 47.0196 29.9716 47.0196 27.4808C47.0196 24.99 44.3333 22.9716 41.0142 22.9716C37.695 22.9716 35 20.9504 35 18.4566C35 15.9629 37.695 13.9445 41.0142 13.9445C43.129 13.8588 45.1524 14.8117 46.4333 16.4966" stroke="url(#paint4_linear_2667_8269)" stroke-linecap="round" stroke-linejoin="round"/>
<path id="Shape_6" d="M41.0142 31.9929V35" stroke="url(#paint5_linear_2667_8269)" stroke-linecap="round" stroke-linejoin="round"/>
<path id="Shape_7" d="M41.0142 10.9375V13.9446" stroke="url(#paint6_linear_2667_8269)" stroke-linecap="round" stroke-linejoin="round"/>
<path id="Shape_8" d="M21.875 13.125H26.25" stroke="url(#paint7_linear_2667_8269)" stroke-linecap="round" stroke-linejoin="round"/>
<path id="Shape_9" d="M21.875 21.875H26.25" stroke="url(#paint8_linear_2667_8269)" stroke-linecap="round" stroke-linejoin="round"/>
<path id="Shape_10" d="M21.875 30.625H26.25" stroke="url(#paint9_linear_2667_8269)" stroke-linecap="round" stroke-linejoin="round"/>
</g>
</g>
</g>
<defs>
<linearGradient id="paint0_linear_2667_8269" x1="52.9984" y1="5.2279" x2="25.2807" y2="40.9637" gradientUnits="userSpaceOnUse">
<stop stop-color="#00E5E5"/>
<stop offset="0.510417" stop-color="#72A5F2"/>
<stop offset="1" stop-color="#E961FF"/>
</linearGradient>
<linearGradient id="paint1_linear_2667_8269" x1="60.1978" y1="35.9612" x2="36.4883" y2="79.4033" gradientUnits="userSpaceOnUse">
<stop stop-color="#00E5E5"/>
<stop offset="0.510417" stop-color="#72A5F2"/>
<stop offset="1" stop-color="#E961FF"/>
</linearGradient>
<linearGradient id="paint2_linear_2667_8269" x1="53.9272" y1="46.8441" x2="46.9924" y2="54.0742" gradientUnits="userSpaceOnUse">
<stop stop-color="#00E5E5"/>
<stop offset="0.510417" stop-color="#72A5F2"/>
<stop offset="1" stop-color="#E961FF"/>
</linearGradient>
<linearGradient id="paint3_linear_2667_8269" x1="23.133" y1="46.8441" x2="16.1982" y2="54.0742" gradientUnits="userSpaceOnUse">
<stop stop-color="#00E5E5"/>
<stop offset="0.510417" stop-color="#72A5F2"/>
<stop offset="1" stop-color="#E961FF"/>
</linearGradient>
<linearGradient id="paint4_linear_2667_8269" x1="45.9546" y1="15.4911" x2="32.2709" y2="24.9866" gradientUnits="userSpaceOnUse">
<stop stop-color="#00E5E5"/>
<stop offset="0.510417" stop-color="#72A5F2"/>
<stop offset="1" stop-color="#E961FF"/>
</linearGradient>
<linearGradient id="paint5_linear_2667_8269" x1="43.6724" y1="32.2513" x2="41.2402" y2="34.7109" gradientUnits="userSpaceOnUse">
<stop stop-color="#00E5E5"/>
<stop offset="0.510417" stop-color="#72A5F2"/>
<stop offset="1" stop-color="#E961FF"/>
</linearGradient>
<linearGradient id="paint6_linear_2667_8269" x1="43.6724" y1="11.1959" x2="41.2402" y2="13.6555" gradientUnits="userSpaceOnUse">
<stop stop-color="#00E5E5"/>
<stop offset="0.510417" stop-color="#72A5F2"/>
<stop offset="1" stop-color="#E961FF"/>
</linearGradient>
<linearGradient id="paint7_linear_2667_8269" x1="25.8623" y1="13.3757" x2="23.7208" y2="16.7247" gradientUnits="userSpaceOnUse">
<stop stop-color="#00E5E5"/>
<stop offset="0.510417" stop-color="#72A5F2"/>
<stop offset="1" stop-color="#E961FF"/>
</linearGradient>
<linearGradient id="paint8_linear_2667_8269" x1="25.8623" y1="22.1257" x2="23.7208" y2="25.4747" gradientUnits="userSpaceOnUse">
<stop stop-color="#00E5E5"/>
<stop offset="0.510417" stop-color="#72A5F2"/>
<stop offset="1" stop-color="#E961FF"/>
</linearGradient>
<linearGradient id="paint9_linear_2667_8269" x1="25.8623" y1="30.8757" x2="23.7208" y2="34.2247" gradientUnits="userSpaceOnUse">
<stop stop-color="#00E5E5"/>
<stop offset="0.510417" stop-color="#72A5F2"/>
<stop offset="1" stop-color="#E961FF"/>
</linearGradient>
</defs>
</svg>
