<svg width="70" height="70" viewBox="0 0 70 70" fill="none" xmlns="http://www.w3.org/2000/svg">
<g id="Work-Office-Companies / Video-Meetings / meeting-remote">
<g id="Group">
<g id="meeting-remote">
<path id="Shape" fill-rule="evenodd" clip-rule="evenodd" d="M43.75 32.8438H26.25C26.25 28.0113 30.1675 24.0938 35 24.0938V24.0938C39.8325 24.0938 43.75 28.0113 43.75 32.8438Z" stroke="url(#paint0_linear_2713_8550)" stroke-linecap="round" stroke-linejoin="round"/>
<path id="Oval" fill-rule="evenodd" clip-rule="evenodd" d="M35 24.0938C38.6244 24.0938 41.5625 21.1556 41.5625 17.5313C41.5625 13.9069 38.6244 10.9688 35 10.9688C31.3756 10.9688 28.4375 13.9069 28.4375 17.5313C28.4375 21.1556 31.3756 24.0938 35 24.0938Z" stroke="url(#paint1_linear_2713_8550)" stroke-linecap="round" stroke-linejoin="round"/>
<path id="Rectangle-path" fill-rule="evenodd" clip-rule="evenodd" d="M10.9375 5.21875C10.9375 3.5619 12.2806 2.21875 13.9375 2.21875H56.0625C57.7194 2.21875 59.0625 3.5619 59.0625 5.21875V29.8438C59.0625 31.5006 57.7194 32.8438 56.0625 32.8438H13.9375C12.2806 32.8438 10.9375 31.5006 10.9375 29.8438V5.21875Z" stroke="url(#paint2_linear_2713_8550)" stroke-linecap="round" stroke-linejoin="round"/>
<path id="Oval_2" fill-rule="evenodd" clip-rule="evenodd" d="M13.125 59.0938C16.7494 59.0938 19.6875 56.1556 19.6875 52.5313C19.6875 48.9069 16.7494 45.9688 13.125 45.9688C9.50063 45.9688 6.5625 48.9069 6.5625 52.5313C6.5625 56.1556 9.50063 59.0938 13.125 59.0938Z" stroke="url(#paint3_linear_2713_8550)" stroke-linecap="round" stroke-linejoin="round"/>
<path id="Shape_2" d="M24.0625 67.8438C21.9082 63.8044 17.7029 61.2812 13.125 61.2812C8.54707 61.2812 4.34182 63.8044 2.1875 67.8438" stroke="url(#paint4_linear_2713_8550)" stroke-linecap="round" stroke-linejoin="round"/>
<path id="Oval_3" fill-rule="evenodd" clip-rule="evenodd" d="M56.875 59.0938C60.4994 59.0938 63.4375 56.1556 63.4375 52.5313C63.4375 48.9069 60.4994 45.9688 56.875 45.9688C53.2506 45.9688 50.3125 48.9069 50.3125 52.5313C50.3125 56.1556 53.2506 59.0938 56.875 59.0938Z" stroke="url(#paint5_linear_2713_8550)" stroke-linecap="round" stroke-linejoin="round"/>
<path id="Shape_3" d="M67.8125 67.8438C65.6582 63.8044 61.4529 61.2812 56.875 61.2812C52.2971 61.2812 48.0918 63.8044 45.9375 67.8438" stroke="url(#paint6_linear_2713_8550)" stroke-linecap="round" stroke-linejoin="round"/>
<path id="Oval_4" fill-rule="evenodd" clip-rule="evenodd" d="M35 59.0938C38.6244 59.0938 41.5625 56.1556 41.5625 52.5313C41.5625 48.9069 38.6244 45.9688 35 45.9688C31.3756 45.9688 28.4375 48.9069 28.4375 52.5313C28.4375 56.1556 31.3756 59.0938 35 59.0938Z" stroke="url(#paint7_linear_2713_8550)" stroke-linecap="round" stroke-linejoin="round"/>
<path id="Shape_4" d="M45.9375 67.8438C43.7832 63.8044 39.5779 61.2812 35 61.2812C30.4221 61.2812 26.2168 63.8044 24.0625 67.8438" stroke="url(#paint8_linear_2713_8550)" stroke-linecap="round" stroke-linejoin="round"/>
</g>
</g>
</g>
<defs>
<linearGradient id="paint0_linear_2713_8550" x1="42.1994" y1="24.8457" x2="36.6802" y2="36.3541" gradientUnits="userSpaceOnUse">
<stop stop-color="#00E5E5"/>
<stop offset="0.510417" stop-color="#72A5F2"/>
<stop offset="1" stop-color="#E961FF"/>
</linearGradient>
<linearGradient id="paint1_linear_2713_8550" x1="40.3995" y1="12.0967" x2="29.7923" y2="23.1557" gradientUnits="userSpaceOnUse">
<stop stop-color="#00E5E5"/>
<stop offset="0.510417" stop-color="#72A5F2"/>
<stop offset="1" stop-color="#E961FF"/>
</linearGradient>
<linearGradient id="paint2_linear_2713_8550" x1="54.7983" y1="4.85059" x2="32.7665" y2="40.9466" gradientUnits="userSpaceOnUse">
<stop stop-color="#00E5E5"/>
<stop offset="0.510417" stop-color="#72A5F2"/>
<stop offset="1" stop-color="#E961FF"/>
</linearGradient>
<linearGradient id="paint3_linear_2713_8550" x1="18.5245" y1="47.0967" x2="7.9173" y2="58.1557" gradientUnits="userSpaceOnUse">
<stop stop-color="#00E5E5"/>
<stop offset="0.510417" stop-color="#72A5F2"/>
<stop offset="1" stop-color="#E961FF"/>
</linearGradient>
<linearGradient id="paint4_linear_2713_8550" x1="22.1242" y1="61.8452" x2="19.303" y2="71.6499" gradientUnits="userSpaceOnUse">
<stop stop-color="#00E5E5"/>
<stop offset="0.510417" stop-color="#72A5F2"/>
<stop offset="1" stop-color="#E961FF"/>
</linearGradient>
<linearGradient id="paint5_linear_2713_8550" x1="62.2745" y1="47.0967" x2="51.6673" y2="58.1557" gradientUnits="userSpaceOnUse">
<stop stop-color="#00E5E5"/>
<stop offset="0.510417" stop-color="#72A5F2"/>
<stop offset="1" stop-color="#E961FF"/>
</linearGradient>
<linearGradient id="paint6_linear_2713_8550" x1="65.8742" y1="61.8452" x2="63.053" y2="71.6499" gradientUnits="userSpaceOnUse">
<stop stop-color="#00E5E5"/>
<stop offset="0.510417" stop-color="#72A5F2"/>
<stop offset="1" stop-color="#E961FF"/>
</linearGradient>
<linearGradient id="paint7_linear_2713_8550" x1="40.3995" y1="47.0967" x2="29.7923" y2="58.1557" gradientUnits="userSpaceOnUse">
<stop stop-color="#00E5E5"/>
<stop offset="0.510417" stop-color="#72A5F2"/>
<stop offset="1" stop-color="#E961FF"/>
</linearGradient>
<linearGradient id="paint8_linear_2713_8550" x1="43.9992" y1="61.8452" x2="41.178" y2="71.6499" gradientUnits="userSpaceOnUse">
<stop stop-color="#00E5E5"/>
<stop offset="0.510417" stop-color="#72A5F2"/>
<stop offset="1" stop-color="#E961FF"/>
</linearGradient>
</defs>
</svg>
