<svg width="70" height="70" viewBox="0 0 70 70" fill="none" xmlns="http://www.w3.org/2000/svg">
<g id="tabler-icon-file-text-ai">
<path id="Vector" d="M40.8333 8.75V20.4167C40.8333 21.1902 41.1405 21.9321 41.6875 22.4791C42.2345 23.026 42.9764 23.3333 43.7499 23.3333H55.4166M40.8333 8.75H20.4166C18.8695 8.75 17.3858 9.36458 16.2918 10.4585C15.1978 11.5525 14.5833 13.0362 14.5833 14.5833V55.4167C14.5833 56.9638 15.1978 58.4475 16.2918 59.5415C17.3858 60.6354 18.8695 61.25 20.4166 61.25H29.1666M40.8333 8.75L55.4166 23.3333M55.4166 23.3333V33.5417M26.2499 26.25H29.1666M26.2499 37.9167H33.5416M26.2499 49.5833H29.1666M40.8333 61.25V49.5833C40.8333 48.0362 41.4478 46.5525 42.5418 45.4585C43.6358 44.3646 45.1195 43.75 46.6666 43.75C48.2137 43.75 49.6974 44.3646 50.7914 45.4585C51.8853 46.5525 52.4999 48.0362 52.4999 49.5833V61.25M40.8333 55.4167H52.4999M61.2499 43.75V61.25" stroke="url(#paint0_linear_2663_7768)" stroke-linecap="round" stroke-linejoin="round"/>
</g>
<defs>
<linearGradient id="paint0_linear_2663_7768" x1="57.1149" y1="13.2617" x2="14.7717" y2="52.5033" gradientUnits="userSpaceOnUse">
<stop stop-color="#00E5E5"/>
<stop offset="0.510417" stop-color="#72A5F2"/>
<stop offset="1" stop-color="#E961FF"/>
</linearGradient>
</defs>
</svg>
