<svg width="70" height="70" viewBox="0 0 70 70" fill="none" xmlns="http://www.w3.org/2000/svg">
<g id="Work-Office-Companies / Meetings/Collaboration / team-chat">
<g id="Group">
<g id="team-chat">
<path id="Shape" fill-rule="evenodd" clip-rule="evenodd" d="M37.1846 61.25H41.5596V67.8125L50.3096 61.25H63.4346C65.8508 61.25 67.8096 59.2912 67.8096 56.875V43.75C67.8096 41.3338 65.8508 39.375 63.4346 39.375H37.1846C34.7683 39.375 32.8096 41.3338 32.8096 43.75V56.875C32.8096 59.2912 34.7683 61.25 37.1846 61.25Z" stroke="url(#paint0_linear_2713_8655)" stroke-linecap="round" stroke-linejoin="round"/>
<path id="Oval" fill-rule="evenodd" clip-rule="evenodd" d="M14.5046 56.875C18.7331 56.875 22.1609 53.4472 22.1609 49.2188C22.1609 44.9903 18.7331 41.5625 14.5046 41.5625C10.2762 41.5625 6.84839 44.9903 6.84839 49.2188C6.84839 53.4472 10.2762 56.875 14.5046 56.875Z" stroke="url(#paint1_linear_2713_8655)" stroke-linecap="round" stroke-linejoin="round"/>
<path id="Shape_2" d="M26.8333 67.8129C25.0057 62.5719 20.0625 59.0605 14.5119 59.0605C8.96128 59.0605 4.01812 62.5719 2.19043 67.8129" stroke="url(#paint2_linear_2713_8655)" stroke-linecap="round" stroke-linejoin="round"/>
<path id="Oval_2" fill-rule="evenodd" clip-rule="evenodd" d="M55.4866 19.6875C59.715 19.6875 63.1428 16.2597 63.1428 12.0313C63.1428 7.80282 59.715 4.375 55.4866 4.375C51.2581 4.375 47.8303 7.80282 47.8303 12.0313C47.8303 16.2597 51.2581 19.6875 55.4866 19.6875Z" stroke="url(#paint3_linear_2713_8655)" stroke-linecap="round" stroke-linejoin="round"/>
<path id="Shape_3" d="M67.8097 30.6254C65.982 25.3844 61.0388 21.873 55.4882 21.873C49.9376 21.873 44.9944 25.3844 43.1667 30.6254" stroke="url(#paint4_linear_2713_8655)" stroke-linecap="round" stroke-linejoin="round"/>
<path id="Shape_4" d="M48.1221 45.9375H59.0596" stroke="url(#paint5_linear_2713_8655)" stroke-linecap="round" stroke-linejoin="round"/>
<path id="Shape_5" d="M41.5596 52.5H59.0596" stroke="url(#paint6_linear_2713_8655)" stroke-linecap="round" stroke-linejoin="round"/>
<path id="Shape_6" fill-rule="evenodd" clip-rule="evenodd" d="M32.8096 24.0625H28.4346V30.625L19.6846 24.0625H6.55957C4.14332 24.0625 2.18457 22.1037 2.18457 19.6875V6.5625C2.18457 4.14625 4.14332 2.1875 6.55957 2.1875H32.8096C35.2258 2.1875 37.1846 4.14625 37.1846 6.5625V19.6875C37.1846 22.1037 35.2258 24.0625 32.8096 24.0625Z" stroke="url(#paint7_linear_2713_8655)" stroke-linecap="round" stroke-linejoin="round"/>
<path id="Shape_7" d="M21.8721 8.75H10.9346" stroke="url(#paint8_linear_2713_8655)" stroke-linecap="round" stroke-linejoin="round"/>
<path id="Shape_8" d="M28.4346 15.3125H10.9346" stroke="url(#paint9_linear_2713_8655)" stroke-linecap="round" stroke-linejoin="round"/>
</g>
</g>
</g>
<defs>
<linearGradient id="paint0_linear_2713_8655" x1="64.7083" y1="41.8188" x2="42.403" y2="70.4408" gradientUnits="userSpaceOnUse">
<stop stop-color="#00E5E5"/>
<stop offset="0.510417" stop-color="#72A5F2"/>
<stop offset="1" stop-color="#E961FF"/>
</linearGradient>
<linearGradient id="paint1_linear_2713_8655" x1="20.8041" y1="42.8784" x2="8.42899" y2="55.7806" gradientUnits="userSpaceOnUse">
<stop stop-color="#00E5E5"/>
<stop offset="0.510417" stop-color="#72A5F2"/>
<stop offset="1" stop-color="#E961FF"/>
</linearGradient>
<linearGradient id="paint2_linear_2713_8655" x1="24.6498" y1="59.8127" x2="20.3279" y2="72.4995" gradientUnits="userSpaceOnUse">
<stop stop-color="#00E5E5"/>
<stop offset="0.510417" stop-color="#72A5F2"/>
<stop offset="1" stop-color="#E961FF"/>
</linearGradient>
<linearGradient id="paint3_linear_2713_8655" x1="61.786" y1="5.69092" x2="49.4109" y2="18.5931" gradientUnits="userSpaceOnUse">
<stop stop-color="#00E5E5"/>
<stop offset="0.510417" stop-color="#72A5F2"/>
<stop offset="1" stop-color="#E961FF"/>
</linearGradient>
<linearGradient id="paint4_linear_2713_8655" x1="65.6261" y1="22.6252" x2="61.3042" y2="35.312" gradientUnits="userSpaceOnUse">
<stop stop-color="#00E5E5"/>
<stop offset="0.510417" stop-color="#72A5F2"/>
<stop offset="1" stop-color="#E961FF"/>
</linearGradient>
<linearGradient id="paint5_linear_2713_8655" x1="58.0904" y1="46.1882" x2="56.9577" y2="50.6169" gradientUnits="userSpaceOnUse">
<stop stop-color="#00E5E5"/>
<stop offset="0.510417" stop-color="#72A5F2"/>
<stop offset="1" stop-color="#E961FF"/>
</linearGradient>
<linearGradient id="paint6_linear_2713_8655" x1="57.5089" y1="52.7507" x2="56.7735" y2="57.3515" gradientUnits="userSpaceOnUse">
<stop stop-color="#00E5E5"/>
<stop offset="0.510417" stop-color="#72A5F2"/>
<stop offset="1" stop-color="#E961FF"/>
</linearGradient>
<linearGradient id="paint7_linear_2713_8655" x1="34.0833" y1="4.63135" x2="11.778" y2="33.2533" gradientUnits="userSpaceOnUse">
<stop stop-color="#00E5E5"/>
<stop offset="0.510417" stop-color="#72A5F2"/>
<stop offset="1" stop-color="#E961FF"/>
</linearGradient>
<linearGradient id="paint8_linear_2713_8655" x1="20.9029" y1="9.00065" x2="19.7702" y2="13.4294" gradientUnits="userSpaceOnUse">
<stop stop-color="#00E5E5"/>
<stop offset="0.510417" stop-color="#72A5F2"/>
<stop offset="1" stop-color="#E961FF"/>
</linearGradient>
<linearGradient id="paint9_linear_2713_8655" x1="26.8839" y1="15.5632" x2="26.1485" y2="20.164" gradientUnits="userSpaceOnUse">
<stop stop-color="#00E5E5"/>
<stop offset="0.510417" stop-color="#72A5F2"/>
<stop offset="1" stop-color="#E961FF"/>
</linearGradient>
</defs>
</svg>
