<svg width="70" height="70" viewBox="0 0 70 70" fill="none" xmlns="http://www.w3.org/2000/svg">
<g id="Travel / Travel-Metaphor / travel-user-pin">
<g id="Group">
<g id="travel-user-pin">
<path id="Oval" fill-rule="evenodd" clip-rule="evenodd" d="M17.4883 19.6836C22.3208 19.6836 26.2383 15.7661 26.2383 10.9336C26.2383 6.1011 22.3208 2.18359 17.4883 2.18359C12.6558 2.18359 8.73828 6.1011 8.73828 10.9336C8.73828 15.7661 12.6558 19.6836 17.4883 19.6836Z" stroke="url(#paint0_linear_2715_8742)" stroke-linecap="round" stroke-linejoin="round"/>
<path id="Shape" fill-rule="evenodd" clip-rule="evenodd" d="M32.8008 39.375C32.8008 30.9181 25.9451 24.0625 17.4883 24.0625C9.03142 24.0625 2.17578 30.9181 2.17578 39.375V45.9375H8.74995L10.9374 67.8125H24.0624L26.2499 45.9375H32.8124L32.8008 39.375Z" stroke="url(#paint1_linear_2715_8742)" stroke-linecap="round" stroke-linejoin="round"/>
<path id="Shape_2" d="M54.6758 44.8398C55.2798 44.8398 55.7695 45.3295 55.7695 45.9336C55.7695 46.5377 55.2798 47.0273 54.6758 47.0273C54.0717 47.0273 53.582 46.5377 53.582 45.9336C53.582 45.3295 54.0717 44.8398 54.6758 44.8398" stroke="url(#paint2_linear_2715_8742)" stroke-linecap="round" stroke-linejoin="round"/>
<path id="Shape_3" fill-rule="evenodd" clip-rule="evenodd" d="M54.6758 32.8086C61.9245 32.8086 67.8008 38.6849 67.8008 45.9336C67.8008 51.5365 59.9608 62.1998 56.3995 66.7557C55.985 67.2863 55.3491 67.5964 54.6758 67.5964C54.0024 67.5964 53.3666 67.2863 52.952 66.7557C49.3908 62.2028 41.5508 51.5394 41.5508 45.9365C41.55 42.455 42.9325 39.1159 45.394 36.6538C47.8555 34.1918 51.1943 32.8086 54.6758 32.8086Z" stroke="url(#paint3_linear_2715_8742)" stroke-linecap="round" stroke-linejoin="round"/>
<path id="Shape_4" d="M35 2.18359H45.9375C50.77 2.18359 54.6875 6.1011 54.6875 10.9336V24.0586" stroke="url(#paint4_linear_2715_8742)" stroke-linecap="round" stroke-linejoin="round"/>
<path id="Shape_5" d="M45.9258 15.3086L54.6758 24.0586L63.4258 15.3086" stroke="url(#paint5_linear_2715_8742)" stroke-linecap="round" stroke-linejoin="round"/>
</g>
</g>
</g>
<defs>
<linearGradient id="paint0_linear_2715_8742" x1="24.6876" y1="3.6875" x2="10.5447" y2="18.4329" gradientUnits="userSpaceOnUse">
<stop stop-color="#00E5E5"/>
<stop offset="0.510417" stop-color="#72A5F2"/>
<stop offset="1" stop-color="#E961FF"/>
</linearGradient>
<linearGradient id="paint1_linear_2715_8742" x1="30.0978" y1="27.8223" x2="-3.60873" y2="52.4312" gradientUnits="userSpaceOnUse">
<stop stop-color="#00E5E5"/>
<stop offset="0.510417" stop-color="#72A5F2"/>
<stop offset="1" stop-color="#E961FF"/>
</linearGradient>
<linearGradient id="paint2_linear_2715_8742" x1="56.2403" y1="45.0905" x2="53.8831" y2="47.5481" gradientUnits="userSpaceOnUse">
<stop stop-color="#00E5E5"/>
<stop offset="0.510417" stop-color="#72A5F2"/>
<stop offset="1" stop-color="#E961FF"/>
</linearGradient>
<linearGradient id="paint3_linear_2715_8742" x1="65.4748" y1="35.7982" x2="38.1266" y2="57.3134" gradientUnits="userSpaceOnUse">
<stop stop-color="#00E5E5"/>
<stop offset="0.510417" stop-color="#72A5F2"/>
<stop offset="1" stop-color="#E961FF"/>
</linearGradient>
<linearGradient id="paint4_linear_2715_8742" x1="52.943" y1="4.06348" x2="35.2847" y2="20.6329" gradientUnits="userSpaceOnUse">
<stop stop-color="#00E5E5"/>
<stop offset="0.510417" stop-color="#72A5F2"/>
<stop offset="1" stop-color="#E961FF"/>
</linearGradient>
<linearGradient id="paint5_linear_2715_8742" x1="61.8751" y1="16.0605" x2="56.356" y2="27.569" gradientUnits="userSpaceOnUse">
<stop stop-color="#00E5E5"/>
<stop offset="0.510417" stop-color="#72A5F2"/>
<stop offset="1" stop-color="#E961FF"/>
</linearGradient>
</defs>
</svg>
