<svg width="68" height="68" viewBox="0 0 68 68" fill="none" xmlns="http://www.w3.org/2000/svg">
<g id="Group">
<g id="Regular">
<path id="Shape" fill-rule="evenodd" clip-rule="evenodd" d="M24.8037 24.7422C24.0267 24.2848 23.0487 24.3503 22.3395 24.9073C21.6304 25.4643 21.3351 26.3989 21.5954 27.2622C22.76 31.3345 22.2475 35.7034 20.1721 39.3956C17.2929 39.6309 14.716 37.615 14.2512 34.7639C9.99661 37.0132 7.45324 41.5454 7.74998 46.3489C7.83649 54.1099 14.1961 60.3323 21.9571 60.2497C29.6753 60.2268 35.9731 54.0648 36.1641 46.3489C36.9723 37.536 32.522 29.0721 24.8037 24.7422V24.7422Z" stroke="#E961FF" stroke-linecap="round" stroke-linejoin="round"/>
<path id="Shape_2" d="M26.5127 59.5059L42.7498 66.8121" stroke="#E961FF" stroke-linecap="round" stroke-linejoin="round"/>
<path id="Shape_3" d="M17.4246 59.5059L1.1875 66.8121" stroke="#E961FF" stroke-linecap="round" stroke-linejoin="round"/>
<path id="Shape_4" d="M58.2607 40.5938L66.8124 58.3271" stroke="#00E5E5" stroke-linecap="round" stroke-linejoin="round"/>
<path id="Shape_5" d="M47.8105 18.9199L52.5618 28.7724" stroke="#00E5E5" stroke-linecap="round" stroke-linejoin="round"/>
<path id="Rectangle-path" fill-rule="evenodd" clip-rule="evenodd" d="M46.8685 32.0773C46.7486 31.8286 46.853 31.5297 47.1017 31.4098L58.0234 26.1437C58.2722 26.0237 58.5711 26.1282 58.691 26.3769L63.9571 37.2986C64.077 37.5473 63.9726 37.8462 63.7239 37.9661L52.8022 43.2323C52.5535 43.3522 52.2546 43.2478 52.1347 42.999L46.8685 32.0773Z" stroke="#00E5E5" stroke-linecap="round" stroke-linejoin="round"/>
<path id="Rectangle-path_2" fill-rule="evenodd" clip-rule="evenodd" d="M36.4174 10.3996C36.2974 10.1509 36.4018 9.85199 36.6506 9.73206L47.5723 4.46593C47.821 4.346 48.1199 4.45042 48.2398 4.69915L53.5059 15.6209C53.6259 15.8696 53.5215 16.1685 53.2727 16.2884L42.351 21.5545C42.1023 21.6745 41.8034 21.57 41.6835 21.3213L36.4174 10.3996Z" stroke="#00E5E5" stroke-linecap="round" stroke-linejoin="round"/>
<path id="Shape_6" d="M42.1113 7.09958L39.2588 1.1875" stroke="#00E5E5" stroke-linecap="round" stroke-linejoin="round"/>
</g>
</g>
</svg>
