<svg width="68" height="68" viewBox="0 0 68 68" fill="none" xmlns="http://www.w3.org/2000/svg">
<g id="Group">
<g id="Regular">
<path id="Shape" d="M18.6875 49.3125V62.4375" stroke="black" stroke-linecap="round" stroke-linejoin="round"/>
<path id="Oval" fill-rule="evenodd" clip-rule="evenodd" d="M18.6875 17.5938C22.9159 17.5938 26.3438 14.1659 26.3438 9.9375C26.3438 5.70907 22.9159 2.28125 18.6875 2.28125C14.4591 2.28125 11.0312 5.70907 11.0312 9.9375C11.0312 14.1659 14.4591 17.5938 18.6875 17.5938Z" stroke="#00E5E5" stroke-linecap="round" stroke-linejoin="round"/>
<path id="Shape_2" d="M9.9375 49.3125H5.5625C3.14625 49.3125 1.1875 47.3537 1.1875 44.9375V31.8125C1.1875 26.98 5.10501 23.0625 9.9375 23.0625H38.375C40.7912 23.0625 42.75 25.0213 42.75 27.4375C42.75 29.8537 40.7912 31.8125 38.375 31.8125H27.4375V62.4375C27.4375 64.8537 25.4787 66.8125 23.0625 66.8125C20.6463 66.8125 18.6875 64.8537 18.6875 62.4375C18.6875 64.8537 16.7287 66.8125 14.3125 66.8125C11.8963 66.8125 9.9375 64.8537 9.9375 62.4375L9.91708 34" stroke="#00E5E5" stroke-linecap="round" stroke-linejoin="round"/>
<path id="Shape_3" d="M36.1875 7.75V5.5625C36.1875 3.14625 38.1463 1.1875 40.5625 1.1875H62.4375C64.8537 1.1875 66.8125 3.14625 66.8125 5.5625V31.8125C66.8125 34.2287 64.8537 36.1875 62.4375 36.1875H49.3125" stroke="#E961FF" stroke-linecap="round" stroke-linejoin="round"/>
<path id="Shape_4" d="M58.0625 8.84375C58.6666 8.84375 59.1563 9.33344 59.1563 9.9375" stroke="#E961FF" stroke-linecap="round" stroke-linejoin="round"/>
<path id="Shape_5" d="M56.9688 9.9375C56.9688 9.33344 57.4584 8.84375 58.0625 8.84375" stroke="#E961FF" stroke-linecap="round" stroke-linejoin="round"/>
<path id="Shape_6" d="M58.0625 11.0313C57.4584 11.0313 56.9688 10.5416 56.9688 9.9375" stroke="#E961FF" stroke-linecap="round" stroke-linejoin="round"/>
<path id="Shape_7" d="M59.1563 9.9375C59.1563 10.5416 58.6666 11.0313 58.0625 11.0313" stroke="#E961FF" stroke-linecap="round" stroke-linejoin="round"/>
<path id="Shape_8" d="M55.875 18.6875C55.875 22.3119 52.9369 25.25 49.3125 25.25" stroke="#E961FF" stroke-linecap="round" stroke-linejoin="round"/>
<path id="Shape_9" d="M62.4375 36.1875V53.6875" stroke="#E961FF" stroke-linecap="round" stroke-linejoin="round"/>
</g>
</g>
</svg>
