<svg width="68" height="68" viewBox="0 0 68 68" fill="none" xmlns="http://www.w3.org/2000/svg">
<g id="Group">
<g id="diamond-hold">
<path id="Shape" d="M46.4801 26.2041C50.3754 28.5799 52.8416 32.7303 53.0659 37.2874C53.1527 39.3945 52.4211 41.4534 51.0242 43.0333L48.1251 46.3466C47.1234 47.4909 45.6922 48.1689 44.1722 48.2192C42.6523 48.2695 41.1794 47.6876 40.1042 46.612L34.4605 40.9683C33.4185 39.9262 31.8997 39.5193 30.4763 39.9007C29.0528 40.2821 27.941 41.3939 27.5596 42.8174C27.1782 44.2408 27.5851 45.7596 28.6272 46.8016L38.8647 58.4129C40.9214 60.4743 42.0754 63.268 42.073 66.1799V66.7866" stroke="#00E5E5" stroke-linecap="round" stroke-linejoin="round"/>
<path id="Shape_2" d="M66.8125 66.7895V40.0174C66.7216 37.4928 66.316 34.9895 65.605 32.5653C63.6939 26.0191 58.9077 20.6984 52.5996 18.1074" stroke="#00E5E5" stroke-linecap="round" stroke-linejoin="round"/>
<path id="Shape_3" d="M1.56348 15.0186H44.561" stroke="#E961FF" stroke-linecap="round" stroke-linejoin="round"/>
<path id="Shape_4" fill-rule="evenodd" clip-rule="evenodd" d="M9.12063 1.18752C8.10405 1.18388 7.16983 1.74598 6.69688 2.64585L1.4498 12.7229C0.99106 13.5867 1.14316 14.6478 1.82605 15.3479L21.216 35.7296C21.7021 36.2259 22.3676 36.5057 23.0623 36.5057C23.757 36.5057 24.4225 36.2259 24.9085 35.7296L44.2985 15.3479C44.9814 14.6478 45.1335 13.5867 44.6748 12.7229L38.996 2.5846C38.5149 1.72585 37.6091 1.19219 36.6248 1.18752H9.12063Z" stroke="#E961FF" stroke-linecap="round" stroke-linejoin="round"/>
<path id="Shape_5" d="M1.1875 42.7266H9.9375" stroke="#00E5E5" stroke-linecap="round" stroke-linejoin="round"/>
<path id="Shape_6" d="M5.5625 38.3516V47.1016" stroke="#00E5E5" stroke-linecap="round" stroke-linejoin="round"/>
<path id="Shape_7" d="M58.0625 5.53906H66.8125" stroke="#00E5E5" stroke-linecap="round" stroke-linejoin="round"/>
<path id="Shape_8" d="M62.4375 1.16406V9.91406" stroke="#00E5E5" stroke-linecap="round" stroke-linejoin="round"/>
<path id="Shape_9" d="M12.0054 1.1875L22.94 36.5025" stroke="#E961FF" stroke-linecap="round" stroke-linejoin="round"/>
<path id="Shape_10" d="M34.1192 1.1875L23.1846 36.5025" stroke="#E961FF" stroke-linecap="round" stroke-linejoin="round"/>
</g>
</g>
</svg>
