<svg width="68" height="68" viewBox="0 0 68 68" fill="none" xmlns="http://www.w3.org/2000/svg">
<g id="Group">
<g id="face-id-4">
<path id="Shape" d="M66.8125 53.6875V62.4375C66.8125 64.8537 64.8537 66.8125 62.4375 66.8125H53.6875" stroke="#00E5E5" stroke-linecap="round" stroke-linejoin="round"/>
<path id="Shape_2" d="M53.6875 1.1875H62.4375C64.8537 1.1875 66.8125 3.14625 66.8125 5.5625V14.3125" stroke="#00E5E5" stroke-linecap="round" stroke-linejoin="round"/>
<path id="Shape_3" d="M1.1875 14.3125V5.5625C1.1875 3.14625 3.14625 1.1875 5.5625 1.1875H14.3125" stroke="#00E5E5" stroke-linecap="round" stroke-linejoin="round"/>
<path id="Shape_4" d="M14.3125 66.8125H5.5625C3.14625 66.8125 1.1875 64.8537 1.1875 62.4375V53.6875" stroke="#00E5E5" stroke-linecap="round" stroke-linejoin="round"/>
<path id="Oval" fill-rule="evenodd" clip-rule="evenodd" d="M34 37.2813C40.6447 37.2813 46.0313 31.8947 46.0313 25.25C46.0313 18.6053 40.6447 13.2188 34 13.2188C27.3553 13.2188 21.9688 18.6053 21.9688 25.25C21.9688 31.8947 27.3553 37.2813 34 37.2813Z" stroke="#E961FF" stroke-linecap="round" stroke-linejoin="round"/>
<path id="Shape_5" d="M52.5647 54.7811C49.7835 46.9134 42.3449 41.6533 34.0001 41.6533C25.6554 41.6533 18.2168 46.9134 15.4355 54.7811" stroke="#E961FF" stroke-linecap="round" stroke-linejoin="round"/>
</g>
</g>
</svg>
