<svg width="68" height="64" viewBox="0 0 68 64" fill="none" xmlns="http://www.w3.org/2000/svg">
<g id="Group">
<g id="touch-password-approved">
<path id="Shape" d="M58.0625 10.125L47.125 23.25L40.5625 16.6875" stroke="#00E5E5" stroke-linecap="round" stroke-linejoin="round"/>
<path id="Shape_2" d="M9.9375 32H5.5625C3.14625 32 1.1875 30.0412 1.1875 27.625V5.75C1.1875 3.33375 3.14625 1.375 5.5625 1.375H62.4375C64.8537 1.375 66.8125 3.33375 66.8125 5.75V27.625C66.8125 30.0412 64.8537 32 62.4375 32H36.1875" stroke="#00E5E5" stroke-linecap="round" stroke-linejoin="round"/>
<path id="Shape_3" d="M14.3124 62.625L6.25069 53.5542C5.15019 52.345 4.78463 50.6376 5.2936 49.0838C5.80256 47.5301 7.10745 46.3699 8.71008 46.0461C10.3127 45.7224 11.9656 46.2852 13.0378 47.5196L18.6874 53.875V27.625C18.6874 25.2088 20.6461 23.25 23.0624 23.25C25.4786 23.25 27.4373 25.2088 27.4373 27.625V47.3125H31.8124C39.0611 47.3125 44.9374 53.1888 44.9374 60.4375V62.625" stroke="#E961FF" stroke-linecap="round" stroke-linejoin="round"/>
</g>
</g>
</svg>
