<svg width="68" height="68" viewBox="0 0 68 68" fill="none" xmlns="http://www.w3.org/2000/svg">
<g id="Group">
<g id="content-typing-machine">
<path id="Shape" d="M54.2095 44.9375H58.0508C60.467 44.9375 62.4258 42.9787 62.4258 40.5625V31.8125C62.4258 29.3963 60.467 27.4375 58.0508 27.4375H9.92578C7.50954 27.4375 5.55078 29.3963 5.55078 31.8125V40.5625C5.55078 42.9787 7.50954 44.9375 9.92578 44.9375H13.7699" stroke="#00E5E5" stroke-linecap="round" stroke-linejoin="round"/>
<path id="Shape_2" fill-rule="evenodd" clip-rule="evenodd" d="M14.3008 3.37503C14.3008 2.79284 14.5328 2.23467 14.9456 1.8241C15.3584 1.41352 15.9178 1.18443 16.4999 1.18753H51.4999C52.7081 1.18753 53.6874 2.16691 53.6874 3.37503V27.4375H14.3008V3.37503Z" stroke="#00E5E5" stroke-linecap="round" stroke-linejoin="round"/>
<path id="Shape_3" d="M62.4258 36.1875H66.8008" stroke="#00E5E5" stroke-linecap="round" stroke-linejoin="round"/>
<path id="Shape_4" d="M1.17578 36.1875H5.55078" stroke="#00E5E5" stroke-linecap="round" stroke-linejoin="round"/>
<path id="Shape_5" d="M22.0884 55.875C21.4843 55.875 20.9946 56.3647 20.9946 56.9688C20.9946 57.5728 21.4843 58.0625 22.0884 58.0625C22.6924 58.0625 23.1821 57.5728 23.1821 56.9688C23.1821 56.3647 22.6924 55.875 22.0884 55.875" stroke="#E961FF" stroke-linecap="round" stroke-linejoin="round"/>
<path id="Shape_6" d="M34 55.875C33.3959 55.875 32.9062 56.3647 32.9062 56.9688C32.9062 57.5728 33.3959 58.0625 34 58.0625C34.6041 58.0625 35.0938 57.5728 35.0938 56.9688C35.0938 56.3647 34.6041 55.875 34 55.875" stroke="#E961FF" stroke-linecap="round" stroke-linejoin="round"/>
<path id="Shape_7" d="M45.8882 55.875C45.2841 55.875 44.7944 56.3647 44.7944 56.9688C44.7944 57.5728 45.2841 58.0625 45.8882 58.0625C46.4922 58.0625 46.9819 57.5728 46.9819 56.9688C46.9819 56.3647 46.4922 55.875 45.8882 55.875" stroke="#E961FF" stroke-linecap="round" stroke-linejoin="round"/>
<path id="Shape_8" fill-rule="evenodd" clip-rule="evenodd" d="M49.683 40.5625H40.5509C40.5509 44.1869 37.6128 47.125 33.9884 47.125C30.3641 47.125 27.4259 44.1869 27.4259 40.5625H18.2968C14.8638 40.5625 15.0213 41.3617 7.75884 60.915C7.26043 62.2577 7.45077 63.7593 8.26841 64.9352C9.08605 66.1111 10.4275 66.8123 11.8597 66.8125H56.1201C57.5523 66.8123 58.8937 66.1111 59.7113 64.9352C60.529 63.7593 60.7193 62.2577 60.2209 60.915C52.9584 41.3763 53.1159 40.5625 49.683 40.5625Z" stroke="#E961FF" stroke-linecap="round" stroke-linejoin="round"/>
<path id="Shape_9" d="M25.2383 18.6875H42.7383" stroke="#00E5E5" stroke-linecap="round" stroke-linejoin="round"/>
<path id="Shape_10" d="M25.2383 9.9375H36.1758" stroke="#00E5E5" stroke-linecap="round" stroke-linejoin="round"/>
</g>
</g>
</svg>
