<svg width="70" height="70" viewBox="0 0 70 70" fill="none" xmlns="http://www.w3.org/2000/svg">
<g id="Shipping-Delivery / Shipment / shipment-give">
<g id="Group">
<g id="shipment-give">
<path id="Shape" d="M10.9375 67.8125L5.06333 60.4713C3.20172 58.1441 2.18751 55.2527 2.1875 52.2725V37.1875C2.1875 34.7713 4.14625 32.8125 6.5625 32.8125V32.8125C8.97875 32.8125 10.9375 34.7713 10.9375 37.1875V48.125" stroke="#00E5E5" stroke-linecap="round" stroke-linejoin="round"/>
<path id="Shape_2" d="M24.0622 67.4157V58.6657C24.0633 56.0703 23.295 53.5328 21.8542 51.374L18.5234 46.3749C17.9491 45.4172 17.0076 44.7365 15.9182 44.4913C14.8287 44.2461 13.6864 44.4577 12.7572 45.077V45.077C11.0391 46.2217 10.4457 48.4687 11.3747 50.3124L15.3122 56.8749" stroke="#00E5E5" stroke-linecap="round" stroke-linejoin="round"/>
<path id="Shape_3" d="M59.0625 67.8125L64.9367 60.4713C66.7983 58.1441 67.8125 55.2527 67.8125 52.2725V37.1875C67.8125 34.7713 65.8537 32.8125 63.4375 32.8125V32.8125C61.0213 32.8125 59.0625 34.7713 59.0625 37.1875V48.125" stroke="#00E5E5" stroke-linecap="round" stroke-linejoin="round"/>
<path id="Shape_4" d="M45.9375 67.4157V58.6657C45.9363 56.0703 46.7047 53.5328 48.1454 51.374L51.4763 46.3749C52.0506 45.4172 52.992 44.7365 54.0815 44.4913C55.1709 44.2461 56.3132 44.4577 57.2425 45.077V45.077C58.9606 46.2217 59.5539 48.4687 58.625 50.3124L54.6875 56.8749" stroke="#00E5E5" stroke-linecap="round" stroke-linejoin="round"/>
<path id="Shape_5" fill-rule="evenodd" clip-rule="evenodd" d="M35 2.1875L17.5 12.1887L35 22.1871L52.5 12.1887L35 2.1875V2.1875Z" stroke="#E961FF" stroke-linecap="round" stroke-linejoin="round"/>
<path id="Shape_6" d="M21.875 37.1875L35 44.6891V22.1871L17.5 12.1887V28.4375" stroke="#E961FF" stroke-linecap="round" stroke-linejoin="round"/>
<path id="Shape_7" d="M48.125 37.1875L35 44.6891V22.1871L52.5 12.1887V28.4375" stroke="#E961FF" stroke-linecap="round" stroke-linejoin="round"/>
</g>
</g>
</g>
</svg>
