<svg width="70" height="70" viewBox="0 0 70 70" fill="none" xmlns="http://www.w3.org/2000/svg">
<g id="Shopping-E-Commerce / Shops / shop-1">
<g id="Group">
<g id="shop-1">
<path id="Shape" d="M63.4375 37.1875V63.4375C63.4375 65.8537 61.4787 67.8125 59.0625 67.8125H10.9375C8.52125 67.8125 6.5625 65.8537 6.5625 63.4375V37.1875" stroke="#00E5E5" stroke-linecap="round" stroke-linejoin="round"/>
<path id="Shape_2" fill-rule="evenodd" clip-rule="evenodd" d="M61.6817 2.1875H8.31833C7.29277 2.18733 6.40438 2.89877 6.18042 3.89958L2.1875 21.875C2.1875 25.4994 5.12563 28.4375 8.75 28.4375C12.3744 28.4375 15.3125 25.4994 15.3125 21.875C15.3125 25.4994 18.2506 28.4375 21.875 28.4375C25.4994 28.4375 28.4375 25.4994 28.4375 21.875C28.4375 25.4994 31.3756 28.4375 35 28.4375C38.6244 28.4375 41.5625 25.4994 41.5625 21.875C41.5625 25.4994 44.5006 28.4375 48.125 28.4375C51.7494 28.4375 54.6875 25.4994 54.6875 21.875C54.6875 25.4994 57.6256 28.4375 61.25 28.4375C64.8744 28.4375 67.8125 25.4994 67.8125 21.875L63.8167 3.89958C63.5949 2.89861 62.7069 2.1865 61.6817 2.1875Z" stroke="#00E5E5" stroke-linecap="round" stroke-linejoin="round"/>
<path id="Shape_3" fill-rule="evenodd" clip-rule="evenodd" d="M54.6875 48.125C54.6875 43.2925 50.77 39.375 45.9375 39.375C41.105 39.375 37.1875 43.2925 37.1875 48.125V67.8125H54.6875V48.125Z" stroke="#E961FF" stroke-linecap="round" stroke-linejoin="round"/>
<path id="Rectangle-path" fill-rule="evenodd" clip-rule="evenodd" d="M15.3125 46.6875C15.3125 46.2733 15.6483 45.9375 16.0625 45.9375H27.6875C28.1017 45.9375 28.4375 46.2733 28.4375 46.6875V58.3125C28.4375 58.7267 28.1017 59.0625 27.6875 59.0625H16.0625C15.6483 59.0625 15.3125 58.7267 15.3125 58.3125V46.6875Z" stroke="#E961FF" stroke-linecap="round" stroke-linejoin="round"/>
<path id="Shape_4" d="M47.0313 52.5C47.6353 52.5 48.125 52.9897 48.125 53.5938C48.125 54.1978 47.6353 54.6875 47.0313 54.6875C46.4272 54.6875 45.9375 54.1978 45.9375 53.5938C45.9375 52.9897 46.4272 52.5 47.0313 52.5" stroke="#E961FF" stroke-linecap="round" stroke-linejoin="round"/>
</g>
</g>
</g>
</svg>
