<svg width="30" height="32" viewBox="0 0 30 32" fill="none" xmlns="http://www.w3.org/2000/svg">
<path d="M14.9998 7.00195V13.002" stroke="#CCCCCC" stroke-width="1.2" stroke-linecap="round" stroke-linejoin="round"/>
<path d="M7 27.002V31.002" stroke="#CCCCCC" stroke-width="1.2" stroke-linecap="round" stroke-linejoin="round"/>
<path d="M11 23V19" stroke="#CCCCCC" stroke-width="1.2" stroke-linecap="round" stroke-linejoin="round"/>
<path fill-rule="evenodd" clip-rule="evenodd" d="M28.3894 24.5521L19 13.0001V7.00004C19 4.00002 17.2093 1 15 1C12.7907 1 11 4.00002 11 7.00004V13.0001L1.61058 24.5521C0.947101 25.3689 0.81257 26.4945 1.26486 27.4447C1.71716 28.3948 2.67562 29.0001 3.72793 29.0002H13C13 30.1047 13.8954 31.0002 15 31.0002C16.1046 31.0002 17 30.1047 17 29.0002H26.2721C27.3244 29.0001 28.2828 28.3948 28.7351 27.4447C29.1874 26.4945 29.0529 25.3689 28.3894 24.5521V24.5521Z" stroke="#CCCCCC" stroke-width="1.2" stroke-linecap="round" stroke-linejoin="round"/>
<path d="M23 27.002V31.002" stroke="#CCCCCC" stroke-width="1.2" stroke-linecap="round" stroke-linejoin="round"/>
<path d="M19 23V19" stroke="#CCCCCC" stroke-width="1.2" stroke-linecap="round" stroke-linejoin="round"/>
</svg>
