<svg width="70" height="70" viewBox="0 0 70 70" fill="none" xmlns="http://www.w3.org/2000/svg">
<g id="app-window-bookmark">
<path id="Vector" d="M62.7085 5.84497H7.29183C4.07017 5.84497 1.4585 8.45664 1.4585 11.6783V58.345C1.4585 61.5666 4.07017 64.1783 7.29183 64.1783H62.7085C65.9302 64.1783 68.5418 61.5666 68.5418 58.345V11.6783C68.5418 8.45664 65.9302 5.84497 62.7085 5.84497Z" stroke="#00E5E5" stroke-linecap="round" stroke-linejoin="round"/>
<path id="Vector_2" d="M1.4585 20.4282H68.5418" stroke="#00E5E5" stroke-linecap="round" stroke-linejoin="round"/>
<path id="Vector_3" d="M11.6667 12.4075C11.8109 12.4075 11.9519 12.4502 12.0718 12.5304C12.1917 12.6105 12.2851 12.7244 12.3403 12.8576C12.3955 12.9908 12.41 13.1374 12.3818 13.2789C12.3537 13.4203 12.2842 13.5503 12.1823 13.6522C12.0803 13.7542 11.9504 13.8237 11.8089 13.8518C11.6675 13.8799 11.5209 13.8655 11.3876 13.8103C11.2544 13.7551 11.1405 13.6616 11.0604 13.5417C10.9803 13.4218 10.9375 13.2809 10.9375 13.1366C10.9375 12.9433 11.0143 12.7578 11.1511 12.621C11.2878 12.4843 11.4733 12.4075 11.6667 12.4075" stroke="#E961FF" stroke-linecap="round" stroke-linejoin="round"/>
<path id="Vector_4" d="M20.4167 12.4075C20.5609 12.4075 20.7019 12.4502 20.8218 12.5304C20.9417 12.6105 21.0351 12.7244 21.0903 12.8576C21.1455 12.9908 21.16 13.1374 21.1318 13.2789C21.1037 13.4203 21.0342 13.5503 20.9323 13.6522C20.8303 13.7542 20.7004 13.8237 20.5589 13.8518C20.4175 13.8799 20.2709 13.8655 20.1376 13.8103C20.0044 13.7551 19.8905 13.6616 19.8104 13.5417C19.7303 13.4218 19.6875 13.2809 19.6875 13.1366C19.6875 12.9433 19.7643 12.7578 19.9011 12.621C20.0378 12.4843 20.2233 12.4075 20.4167 12.4075Z" stroke="#E961FF" stroke-linecap="round" stroke-linejoin="round"/>
<path id="Vector_5" d="M29.1667 12.4075C29.3109 12.4075 29.4519 12.4502 29.5718 12.5304C29.6917 12.6105 29.7851 12.7244 29.8403 12.8576C29.8955 12.9908 29.91 13.1374 29.8818 13.2789C29.8537 13.4203 29.7842 13.5503 29.6823 13.6522C29.5803 13.7542 29.4504 13.8237 29.3089 13.8518C29.1675 13.8799 29.0209 13.8655 28.8876 13.8103C28.7544 13.7551 28.6405 13.6616 28.5604 13.5417C28.4803 13.4218 28.4375 13.2809 28.4375 13.1366C28.4375 12.9433 28.5143 12.7578 28.6511 12.621C28.7878 12.4843 28.9733 12.4075 29.1667 12.4075Z" stroke="#E961FF" stroke-linecap="round" stroke-linejoin="round"/>
<path id="Vector_6" d="M56.875 42.493C56.8749 42.7568 56.8032 43.0156 56.6676 43.2419C56.532 43.4681 56.3376 43.6534 56.105 43.7779C55.8724 43.9024 55.6105 43.9615 55.347 43.9489C55.0835 43.9363 54.8284 43.8525 54.6087 43.7063L48.125 39.3751L41.6413 43.6947C41.4216 43.8408 41.1665 43.9246 40.903 43.9372C40.6395 43.9499 40.3776 43.8908 40.145 43.7662C39.9124 43.6417 39.718 43.4565 39.5824 43.2302C39.4468 43.0039 39.3751 42.7451 39.375 42.4813V20.4167H56.875V42.493Z" stroke="#00E5E5" stroke-linecap="round" stroke-linejoin="round"/>
</g>
</svg>
