<svg width="71" height="70" viewBox="0 0 71 70" fill="none" xmlns="http://www.w3.org/2000/svg">
<path d="M28.208 33.5416L42.7913 18.9583" stroke="#00E5E5" stroke-linecap="round" stroke-linejoin="round"/>
<path d="M43.6466 9.35367C43.0996 9.90052 42.7922 10.6423 42.792 11.4158V18.9583H50.3345C51.108 18.9581 51.8497 18.6507 52.3966 18.1037L60.292 10.2083H51.542V1.45825L43.6466 9.35367Z" stroke="#00E5E5" stroke-linecap="round" stroke-linejoin="round"/>
<path d="M28.2084 48.1249C25.5132 48.1242 22.871 47.3766 20.5749 45.9652C18.2789 44.5537 16.4189 42.5335 15.2015 40.129C13.984 37.7244 13.4568 35.0295 13.6782 32.3434C13.8997 29.6573 14.8611 27.0852 16.4559 24.9124C18.0507 22.7397 20.2164 21.0514 22.7126 20.035C25.2088 19.0186 27.9378 18.7138 30.5967 19.1545C33.2556 19.5952 35.7404 20.7641 37.7752 22.5315C39.8101 24.2989 41.3153 26.5955 42.1239 29.1666" stroke="#00E5E5" stroke-linecap="round" stroke-linejoin="round"/>
<path d="M28.2082 59.7917C24.3915 59.7892 20.6212 58.9544 17.1602 57.3455C13.6992 55.7366 10.6306 53.3924 8.1684 50.4761C5.70618 47.5598 3.90951 44.1417 2.90363 40.4599C1.89774 36.7781 1.70682 32.9213 2.34419 29.1582C2.98155 25.3951 4.43186 21.8162 6.59404 18.671C8.75622 15.5258 11.5783 12.89 14.8635 10.9471C18.1487 9.00431 21.8181 7.80125 25.6159 7.4218C29.4137 7.04235 33.2485 7.49564 36.8532 8.75008" stroke="#00E5E5" stroke-linecap="round" stroke-linejoin="round"/>
<path d="M51.542 68.5418C61.207 68.5418 69.042 60.7067 69.042 51.0418C69.042 41.3768 61.207 33.5417 51.542 33.5417C41.877 33.5417 34.042 41.3768 34.042 51.0418C34.042 60.7067 41.877 68.5418 51.542 68.5418Z" stroke="#E961FF" stroke-linecap="round" stroke-linejoin="round"/>
<path d="M59.341 45.9551L50.8681 57.2513C50.6796 57.5017 50.4397 57.7088 50.1644 57.8586C49.8892 58.0084 49.585 58.0975 49.2725 58.1199C48.9599 58.1423 48.6461 58.0974 48.3524 57.9884C48.0586 57.8793 47.7916 57.7085 47.5693 57.4876L43.1943 53.1126" stroke="#E961FF" stroke-linecap="round" stroke-linejoin="round"/>
</svg>
