<svg width="46" height="84" viewBox="0 0 46 84" fill="none" xmlns="http://www.w3.org/2000/svg">
<path d="M45.6769 61.323V23.4525L8.59102 23.584V38.4193H30.7101V61.4954C30.7101 62.5079 30.5107 63.5105 30.1232 64.4459C29.7358 65.3814 29.1678 66.2313 28.4519 66.9473C27.7359 67.6632 26.886 68.2312 25.9505 68.6187C25.0151 69.0061 24.0125 69.2056 23 69.2056C21.9874 69.2056 20.9848 69.0061 20.0494 68.6187C19.114 68.2312 18.264 67.6632 17.548 66.9473C16.8321 66.2313 16.2642 65.3814 15.8767 64.4459C15.4892 63.5105 15.2898 62.5079 15.2898 61.4954L0.322998 61.323C0.322998 67.3373 2.71217 73.1053 6.96493 77.3581C11.2177 81.6108 16.9857 84 23 84C29.0143 84 34.7822 81.6108 39.035 77.3581C43.2877 73.1053 45.6769 67.3373 45.6769 61.323Z" fill="url(#paint0_linear_308_3712)"/>
<path d="M32.0472 16.1145C30.6003 17.0813 28.8991 17.5973 27.1589 17.5973C24.8254 17.5973 22.5874 16.6703 20.9373 15.0203C19.2872 13.3702 18.3602 11.1322 18.3602 8.79867C18.3602 7.05845 18.8763 5.35732 19.8431 3.91039C20.8099 2.46346 22.1841 1.33571 23.7918 0.669764C25.3995 0.00381273 27.1687 -0.170432 28.8754 0.169069C30.5822 0.508569 32.15 1.34655 33.3805 2.57707C34.611 3.80759 35.449 5.37535 35.7885 7.08213C36.128 8.7889 35.9538 10.558 35.2878 12.1658C34.6219 13.7735 33.4941 15.1477 32.0472 16.1145Z" fill="url(#paint1_linear_308_3712)"/>
<defs>
<linearGradient id="paint0_linear_308_3712" x1="41.6582" y1="7.21875" x2="-16.4306" y2="39.9184" gradientUnits="userSpaceOnUse">
<stop stop-color="#00E5E5"/>
<stop offset="0.510417" stop-color="#72A5F2"/>
<stop offset="1" stop-color="#E961FF"/>
</linearGradient>
<linearGradient id="paint1_linear_308_3712" x1="41.6582" y1="7.21875" x2="-16.4306" y2="39.9184" gradientUnits="userSpaceOnUse">
<stop stop-color="#00E5E5"/>
<stop offset="0.510417" stop-color="#72A5F2"/>
<stop offset="1" stop-color="#E961FF"/>
</linearGradient>
</defs>
</svg>
