<svg width="71" height="70" viewBox="0 0 71 70" fill="none" xmlns="http://www.w3.org/2000/svg">
<path d="M18 1.45837L35.5 18.9584L53 1.45837" stroke="#E961FF" stroke-linecap="round" stroke-linejoin="round"/>
<path d="M63.2083 18.9584H7.79167C6.18084 18.9584 4.875 20.2642 4.875 21.875V59.7917C4.875 61.4025 6.18084 62.7084 7.79167 62.7084H63.2083C64.8192 62.7084 66.125 61.4025 66.125 59.7917V21.875C66.125 20.2642 64.8192 18.9584 63.2083 18.9584Z" stroke="#00E5E5" stroke-linecap="round" stroke-linejoin="round"/>
<path d="M10.709 62.7084V68.5417" stroke="#00E5E5" stroke-linecap="round" stroke-linejoin="round"/>
<path d="M60.291 62.7084V68.5417" stroke="#00E5E5" stroke-linecap="round" stroke-linejoin="round"/>
<path d="M48.625 24.7916H22.375C17.5425 24.7916 13.625 28.7091 13.625 33.5416V48.125C13.625 52.9575 17.5425 56.875 22.375 56.875H48.625C53.4575 56.875 57.375 52.9575 57.375 48.125V33.5416C57.375 28.7091 53.4575 24.7916 48.625 24.7916Z" stroke="#00E5E5" stroke-linecap="round" stroke-linejoin="round"/>
</svg>
