<svg width="68" height="68" viewBox="0 0 68 68" fill="none" xmlns="http://www.w3.org/2000/svg">
<g id="Group">
<g id="monitor-find">
<path id="Shape" d="M16.5 58.0625H23.0625" stroke="#00E5E5" stroke-linecap="round" stroke-linejoin="round"/>
<path id="Shape_2" d="M1.1875 36.3013L23.0625 36.1875" stroke="#00E5E5" stroke-linecap="round" stroke-linejoin="round"/>
<path id="Shape_3" d="M18.6875 44.9375H9.9375C5.10501 44.9375 1.1875 41.02 1.1875 36.1875V9.9375C1.1875 5.10501 5.10501 1.1875 9.9375 1.1875H58.0625C62.895 1.1875 66.8125 5.10501 66.8125 9.9375V31.8125" stroke="#00E5E5" stroke-linecap="round" stroke-linejoin="round"/>
<path id="Oval" fill-rule="evenodd" clip-rule="evenodd" d="M44.9375 60.25C53.3944 60.25 60.25 53.3944 60.25 44.9375C60.25 36.4806 53.3944 29.625 44.9375 29.625C36.4806 29.625 29.625 36.4806 29.625 44.9375C29.625 53.3944 36.4806 60.25 44.9375 60.25Z" stroke="#E961FF" stroke-linecap="round" stroke-linejoin="round"/>
<path id="Shape_4" d="M66.8125 66.812L55.7642 55.7637" stroke="#E961FF" stroke-linecap="round" stroke-linejoin="round"/>
</g>
</g>
</svg>
