<svg width="70" height="70" viewBox="0 0 70 70" fill="none" xmlns="http://www.w3.org/2000/svg">
<g id="Interface-Essential / Edit / pen-write">
<g id="Group">
<g id="pen-write">
<path id="Shape" fill-rule="evenodd" clip-rule="evenodd" d="M24.7684 32.8563L21.6768 45.2318L34.0493 42.1372L52.6109 23.5755L43.3301 14.2947L24.7684 32.8563V32.8563Z" stroke="#E961FF" stroke-linecap="round" stroke-linejoin="round"/>
<path id="Shape_2" d="M63.4404 12.7488L66.5321 15.8404C67.3532 16.661 67.8145 17.7742 67.8145 18.935C67.8145 20.0958 67.3532 21.2091 66.5321 22.0296L56.875 31.6838" stroke="#E961FF" stroke-linecap="round" stroke-linejoin="round"/>
<path id="Shape_3" d="M52.6109 23.5755L63.4405 12.7488C65.1484 11.0403 65.1484 8.27097 63.4405 6.56254L60.3459 3.46795C58.6375 1.76003 55.8681 1.76003 54.1597 3.46795L43.3301 14.2917" stroke="#E961FF" stroke-linecap="round" stroke-linejoin="round"/>
<path id="Shape_4" d="M54.6875 41.5625V63.4375C54.6875 65.8537 52.7287 67.8125 50.3125 67.8125H6.5625C4.14625 67.8125 2.1875 65.8537 2.1875 63.4375V19.6875C2.1875 17.2713 4.14625 15.3125 6.5625 15.3125H28.4375" stroke="#00E5E5" stroke-linecap="round" stroke-linejoin="round"/>
</g>
</g>
</g>
</svg>
