<svg width="68" height="68" viewBox="0 0 68 68" fill="none" xmlns="http://www.w3.org/2000/svg">
<g id="Group">
<g id="idea-strategy">
<path id="Oval" fill-rule="evenodd" clip-rule="evenodd" d="M8.95719 66.8128C13.1663 66.8128 16.5784 63.4007 16.5784 59.1916C16.5784 54.9825 13.1663 51.5703 8.95719 51.5703C4.74809 51.5703 1.33594 54.9825 1.33594 59.1916C1.33594 63.4007 4.74809 66.8128 8.95719 66.8128Z" stroke="#E961FF" stroke-linecap="round" stroke-linejoin="round"/>
<path id="Rectangle-path" fill-rule="evenodd" clip-rule="evenodd" d="M26.7402 51.9961H41.2565V66.5123H26.7402V51.9961Z" stroke="#E961FF" stroke-linecap="round" stroke-linejoin="round"/>
<path id="Shape" fill-rule="evenodd" clip-rule="evenodd" d="M66.6634 66.5117H49.2422L57.9514 50.543L66.6634 66.5117V66.5117Z" stroke="#E961FF" stroke-linecap="round" stroke-linejoin="round"/>
<path id="Shape_2" fill-rule="evenodd" clip-rule="evenodd" d="M44.8879 12.3724C44.8972 6.93205 40.8894 2.31971 35.501 1.56969C30.1126 0.819669 24.9975 4.16218 23.5208 9.39831C22.0441 14.6344 24.659 20.157 29.6454 22.3328V27.6149H38.3545V22.3328C42.318 20.6058 44.8827 16.6958 44.8879 12.3724V12.3724Z" stroke="#00E5E5" stroke-linecap="round" stroke-linejoin="round"/>
<path id="Shape_3" d="M9.32129 44.0106V36.7539H58.6771V44.0106" stroke="#00E5E5" stroke-linecap="round" stroke-linejoin="round"/>
<path id="Shape_4" d="M56.6768 14.252H61.0313" stroke="#00E5E5" stroke-linecap="round" stroke-linejoin="round"/>
<path id="Shape_5" d="M55.7754 24.2383L58.8525 27.3183" stroke="#00E5E5" stroke-linecap="round" stroke-linejoin="round"/>
<path id="Shape_6" d="M55.7754 4.2675L58.8525 1.1875" stroke="#00E5E5" stroke-linecap="round" stroke-linejoin="round"/>
<path id="Shape_7" d="M11.3224 14.252H6.96777" stroke="#00E5E5" stroke-linecap="round" stroke-linejoin="round"/>
<path id="Shape_8" d="M12.2236 24.2383L9.14355 27.3183" stroke="#00E5E5" stroke-linecap="round" stroke-linejoin="round"/>
<path id="Shape_9" d="M12.2236 4.2675L9.14355 1.1875" stroke="#00E5E5" stroke-linecap="round" stroke-linejoin="round"/>
<path id="Shape_10" d="M34 27.6152V42.5602" stroke="#00E5E5" stroke-linecap="round" stroke-linejoin="round"/>
</g>
</g>
</svg>
