<svg width="68" height="68" viewBox="0 0 68 68" fill="none" xmlns="http://www.w3.org/2000/svg">
<g id="Group">
<g id="data-file-edit">
<path id="Shape" fill-rule="evenodd" clip-rule="evenodd" d="M65.0042 42.3689L42.75 64.626L31.8125 66.8135L34 55.876L56.2542 33.6219C57.4108 32.4634 58.9805 31.8125 60.6175 31.8125C62.2545 31.8125 63.8242 32.4634 64.9808 33.6219L65.0042 33.6452C66.1624 34.8013 66.8133 36.3706 66.8133 38.0071C66.8133 39.6436 66.1624 41.2129 65.0042 42.3689V42.3689Z" stroke="#E961FF" stroke-linecap="round" stroke-linejoin="round"/>
<path id="Shape_2" d="M9.9375 18.6875V44.9375H31.8125" stroke="#00E5E5" stroke-linecap="round" stroke-linejoin="round"/>
<path id="Shape_3" d="M9.9375 36.1878L17.7804 28.3449C18.601 27.5238 19.7142 27.0625 20.875 27.0625C22.0358 27.0625 23.149 27.5238 23.9696 28.3449L25.6642 30.0395C26.6168 30.9911 27.9546 31.451 29.2909 31.2863C30.6273 31.1217 31.8134 30.3509 32.5067 29.1966L33.5508 27.4466" stroke="#00E5E5" stroke-linecap="round" stroke-linejoin="round"/>
<path id="Shape_4" d="M23.0625 58.0625H5.5625C3.14625 58.0625 1.1875 56.1037 1.1875 53.6875V5.5625C1.1875 3.14625 3.14625 1.1875 5.5625 1.1875H36.5638C37.7233 1.18775 38.8353 1.64828 39.6554 2.46792L48.0321 10.8446C48.8517 11.6647 49.3123 12.7767 49.3125 13.9362V27.4375" stroke="#00E5E5" stroke-linecap="round" stroke-linejoin="round"/>
</g>
</g>
</svg>
