<svg width="68" height="68" viewBox="0 0 68 68" fill="none" xmlns="http://www.w3.org/2000/svg">
<g id="Group">
<g id="common-file-text-edit">
<path id="Shape" fill-rule="evenodd" clip-rule="evenodd" d="M65.0042 42.3719L42.75 64.626L31.8125 66.8135L34 55.876L56.2542 33.6219C57.4108 32.4634 58.9805 31.8125 60.6175 31.8125C62.2545 31.8125 63.8242 32.4634 64.9808 33.6219L65.0042 33.6452C66.1626 34.8018 66.8135 36.3716 66.8135 38.0085C66.8135 39.6455 66.1626 41.2153 65.0042 42.3719V42.3719Z" stroke="#E961FF" stroke-linecap="round" stroke-linejoin="round"/>
<path id="Shape_2" d="M9.9375 18.6875H40.5625" stroke="#00E5E5" stroke-linecap="round" stroke-linejoin="round"/>
<path id="Shape_3" d="M9.9375 31.8125H40.5625" stroke="#00E5E5" stroke-linecap="round" stroke-linejoin="round"/>
<path id="Shape_4" d="M9.9375 44.9375H25.25" stroke="#00E5E5" stroke-linecap="round" stroke-linejoin="round"/>
<path id="Shape_5" d="M20.875 58.0625H5.5625C3.14625 58.0625 1.1875 56.1037 1.1875 53.6875V5.5625C1.1875 3.14625 3.14625 1.1875 5.5625 1.1875H36.5638C37.7233 1.18775 38.8353 1.64828 39.6554 2.46792L48.0321 10.8446C48.8517 11.6647 49.3123 12.7767 49.3125 13.9362V23.0625" stroke="#00E5E5" stroke-linecap="round" stroke-linejoin="round"/>
</g>
</g>
</svg>
