<svg width="50" height="68" viewBox="0 0 50 68" fill="none" xmlns="http://www.w3.org/2000/svg">
<g id="Group">
<g id="smart-watch-square-cash">
<path id="Rectangle-path" fill-rule="evenodd" clip-rule="evenodd" d="M0.9375 12.9375C0.9375 11.2806 2.28065 9.9375 3.9375 9.9375H46.0625C47.7194 9.9375 49.0625 11.2806 49.0625 12.9375V55.0625C49.0625 56.7194 47.7194 58.0625 46.0625 58.0625H3.9375C2.28064 58.0625 0.9375 56.7194 0.9375 55.0625V12.9375Z" stroke="#00E5E5" stroke-linecap="round" stroke-linejoin="round"/>
<path id="Shape" fill-rule="evenodd" clip-rule="evenodd" d="M40.3125 9.9375H9.6875V5.5625C9.6875 3.14625 11.6463 1.1875 14.0625 1.1875H35.9375C38.3537 1.1875 40.3125 3.14625 40.3125 5.5625V9.9375Z" stroke="#00E5E5" stroke-linecap="round" stroke-linejoin="round"/>
<path id="Shape_2" fill-rule="evenodd" clip-rule="evenodd" d="M35.9375 66.8125H14.0625C11.6463 66.8125 9.6875 64.8537 9.6875 62.4375V58.0625H40.3125V62.4375C40.3125 64.8537 38.3537 66.8125 35.9375 66.8125Z" stroke="#00E5E5" stroke-linecap="round" stroke-linejoin="round"/>
<path id="Shape_3" d="M19.5813 39.3785C20.8623 41.0635 22.8856 42.0163 25.0005 41.9306C28.3226 41.9306 31.0146 39.9123 31.0146 37.4185C31.0146 34.9248 28.3226 32.9094 25.0005 32.9094C21.6784 32.9094 18.9834 30.8881 18.9834 28.3944C18.9834 25.9006 21.6784 23.8823 25.0005 23.8823C27.1153 23.7966 29.1387 24.7494 30.4196 26.4344" stroke="#E961FF" stroke-linecap="round" stroke-linejoin="round"/>
<path id="Shape_4" d="M25 41.9297V44.9368" stroke="#E961FF" stroke-linecap="round" stroke-linejoin="round"/>
<path id="Shape_5" d="M25 20.875V23.8821" stroke="#E961FF" stroke-linecap="round" stroke-linejoin="round"/>
</g>
</g>
</svg>
