<svg width="68" height="57" viewBox="0 0 68 57" fill="none" xmlns="http://www.w3.org/2000/svg">
<g id="Group">
<g id="seo-zoom">
<path id="Shape" d="M13.5425 15.4339C17.375 13.4564 27.4666 12.2285 34 12.2285C40.125 12.2285 49.4087 12.6456 53.6875 14.416H63.96C65.5354 14.416 66.8125 15.6931 66.8125 17.2685V29.0606C66.8133 29.8176 66.5131 30.5439 65.978 31.0795C65.443 31.6151 64.717 31.916 63.96 31.916H53.6875C47.3247 33.9654 40.6846 35.0239 34 35.0544C27.2222 35.1303 20.4756 34.124 14.015 32.0735" stroke="#E961FF" stroke-linecap="round" stroke-linejoin="round"/>
<path id="Shape_2" d="M5.56268 31.916H4.04018C3.27513 31.9076 2.54477 31.5955 2.00982 31.0485C1.47486 30.5015 1.17912 29.7644 1.18768 28.9993V17.3327C1.17912 16.5676 1.47486 15.8305 2.00982 15.2835C2.54477 14.7365 3.27513 14.4245 4.04018 14.416H5.56268" stroke="#E961FF" stroke-linecap="round" stroke-linejoin="round"/>
<path id="Shape_3" d="M25.25 20.9785V25.3535" stroke="#E961FF" stroke-linecap="round" stroke-linejoin="round"/>
<path id="Shape_4" d="M34 20.9785V25.3535" stroke="#E961FF" stroke-linecap="round" stroke-linejoin="round"/>
<path id="Oval" fill-rule="evenodd" clip-rule="evenodd" d="M34 45.041C46.0812 45.041 55.875 35.2472 55.875 23.166C55.875 11.0848 46.0812 1.29102 34 1.29102C21.9188 1.29102 12.125 11.0848 12.125 23.166C12.125 35.2472 21.9188 45.041 34 45.041Z" stroke="#00E5E5" stroke-linecap="round" stroke-linejoin="round"/>
<path id="Shape_5" d="M48.2656 39.75L66.8127 55.9783" stroke="#00E5E5" stroke-linecap="round" stroke-linejoin="round"/>
</g>
</g>
</svg>
