<svg width="26" height="26" viewBox="0 0 26 26" fill="none" xmlns="http://www.w3.org/2000/svg">
<path d="M12.9993 18.3327C15.9448 18.3327 18.3327 15.9448 18.3327 12.9993C18.3327 10.0538 15.9448 7.66602 12.9993 7.66602C10.0538 7.66602 7.66602 10.0538 7.66602 12.9993C7.66602 15.9448 10.0538 18.3327 12.9993 18.3327Z" stroke="#CCCCCC" stroke-linecap="round" stroke-linejoin="round"/>
<path d="M1 18.3333V7.66667C1 3.98477 3.98477 1 7.66667 1H18.3333C22.0152 1 25 3.98477 25 7.66667V18.3333C25 22.0152 22.0152 25 18.3333 25H7.66667C3.98477 25 1 22.0152 1 18.3333Z" stroke="#CCCCCC"/>
<path d="M20.333 5.68083L20.3463 5.66602" stroke="#CCCCCC" stroke-linecap="round" stroke-linejoin="round"/>
</svg>
