<svg width="22" height="21" viewBox="0 0 22 21" fill="none" xmlns="http://www.w3.org/2000/svg">
<path fill-rule="evenodd" clip-rule="evenodd" d="M4.25 13.75C6.32107 13.75 8 12.0711 8 10C8 7.92893 6.32107 6.25 4.25 6.25C2.17893 6.25 0.5 7.92893 0.5 10C0.5 12.0711 2.17893 13.75 4.25 13.75Z" stroke="#CCCCCC" stroke-linecap="round" stroke-linejoin="round"/>
<path fill-rule="evenodd" clip-rule="evenodd" d="M17.75 8.5C19.8211 8.5 21.5 6.82107 21.5 4.75C21.5 2.67893 19.8211 1 17.75 1C15.6789 1 14 2.67893 14 4.75C14 6.82107 15.6789 8.5 17.75 8.5Z" stroke="#CCCCCC" stroke-linecap="round" stroke-linejoin="round"/>
<path fill-rule="evenodd" clip-rule="evenodd" d="M17.75 20.5C19.8211 20.5 21.5 18.8211 21.5 16.75C21.5 14.6789 19.8211 13 17.75 13C15.6789 13 14 14.6789 14 16.75C14 18.8211 15.6789 20.5 17.75 20.5Z" stroke="#CCCCCC" stroke-linecap="round" stroke-linejoin="round"/>
<path d="M7.74609 8.64037L14.2541 6.10938" stroke="#CCCCCC" stroke-linecap="round" stroke-linejoin="round"/>
<path d="M7.60547 11.6777L14.3955 15.0727" stroke="#CCCCCC" stroke-linecap="round" stroke-linejoin="round"/>
</svg>
