<svg width="68" height="68" viewBox="0 0 68 68" fill="none" xmlns="http://www.w3.org/2000/svg">
<g id="Group">
<g id="data-file-bars-check">
<path id="Oval" fill-rule="evenodd" clip-rule="evenodd" d="M49.3125 66.8125C58.9775 66.8125 66.8125 58.9775 66.8125 49.3125C66.8125 39.6475 58.9775 31.8125 49.3125 31.8125C39.6475 31.8125 31.8125 39.6475 31.8125 49.3125C31.8125 58.9775 39.6475 66.8125 49.3125 66.8125Z" stroke="#E961FF" stroke-linecap="round" stroke-linejoin="round"/>
<path id="Shape" d="M57.1115 44.2227L48.6386 55.5218C48.2574 56.0288 47.6751 56.3457 47.0424 56.3904C46.4097 56.4352 45.7886 56.2034 45.3398 55.7552L40.9648 51.3802" stroke="#E961FF" stroke-linecap="round" stroke-linejoin="round"/>
<path id="Shape_2" d="M9.9375 40.5625H23.0625" stroke="#00E5E5" stroke-linecap="round" stroke-linejoin="round"/>
<path id="Shape_3" d="M23.0625 40.5625V18.6875" stroke="#00E5E5" stroke-linecap="round" stroke-linejoin="round"/>
<path id="Shape_4" d="M31.8125 27.4375V23.0625" stroke="#00E5E5" stroke-linecap="round" stroke-linejoin="round"/>
<path id="Shape_5" d="M14.3125 40.5625V27.4375" stroke="#00E5E5" stroke-linecap="round" stroke-linejoin="round"/>
<path id="Shape_6" d="M20.875 58.0625H5.5625C3.14625 58.0625 1.1875 56.1037 1.1875 53.6875V5.5625C1.1875 3.14625 3.14625 1.1875 5.5625 1.1875H36.5638C37.7233 1.18775 38.8353 1.64828 39.6554 2.46792L48.0321 10.8446C48.8517 11.6647 49.3123 12.7767 49.3125 13.9362V20.875" stroke="#00E5E5" stroke-linecap="round" stroke-linejoin="round"/>
</g>
</g>
</svg>
