<svg width="66" height="68" viewBox="0 0 66 68" fill="none" xmlns="http://www.w3.org/2000/svg">
<g id="Group">
<g id="ranking-star-top">
<path id="Rectangle-path" fill-rule="evenodd" clip-rule="evenodd" d="M1.28125 45.6875C1.28125 45.2733 1.61704 44.9375 2.03125 44.9375H15.8438C16.258 44.9375 16.5938 45.2733 16.5938 45.6875V66.0625C16.5938 66.4767 16.258 66.8125 15.8438 66.8125H2.03125C1.61704 66.8125 1.28125 66.4767 1.28125 66.0625V45.6875Z" stroke="#00E5E5" stroke-linecap="round" stroke-linejoin="round"/>
<path id="Rectangle-path_2" fill-rule="evenodd" clip-rule="evenodd" d="M49.4062 54.4375C49.4062 54.0233 49.742 53.6875 50.1563 53.6875H63.9688C64.383 53.6875 64.7188 54.0233 64.7188 54.4375V66.0625C64.7188 66.4767 64.383 66.8125 63.9688 66.8125H50.1562C49.742 66.8125 49.4062 66.4767 49.4062 66.0625V54.4375Z" stroke="#00E5E5" stroke-linecap="round" stroke-linejoin="round"/>
<path id="Rectangle-path_3" fill-rule="evenodd" clip-rule="evenodd" d="M25.3438 36.9375C25.3438 36.5233 25.6795 36.1875 26.0938 36.1875H39.9063C40.3205 36.1875 40.6563 36.5233 40.6563 36.9375V66.0625C40.6563 66.4767 40.3205 66.8125 39.9063 66.8125H26.0937C25.6795 66.8125 25.3438 66.4767 25.3438 66.0625V36.9375Z" stroke="#00E5E5" stroke-linecap="round" stroke-linejoin="round"/>
<path id="Shape" fill-rule="evenodd" clip-rule="evenodd" d="M35.6397 2.13802L39.2827 9.29844H45.4864C46.1854 9.28137 46.8233 9.69459 47.0935 10.3394C47.3637 10.9843 47.2108 11.7288 46.7085 12.2151L41.0122 17.8093L44.1681 25.0572C44.4533 25.7379 44.2719 26.5247 43.7174 27.0118C43.1629 27.4989 42.3592 27.5774 41.721 27.2068L34.0939 22.9164L26.4668 27.2068C25.8286 27.5774 25.0249 27.4989 24.4704 27.0118C23.9159 26.5247 23.7345 25.7379 24.0197 25.0572L27.1668 17.8093L21.4793 12.2034C20.977 11.7172 20.8241 10.9726 21.0943 10.3278C21.3645 9.68292 22.0025 9.2697 22.7014 9.28677H28.9168L32.5597 2.12636C32.8591 1.55095 33.4547 1.19092 34.1033 1.19337C34.7519 1.19583 35.3448 1.56036 35.6397 2.13802Z" stroke="#E961FF" stroke-linecap="round" stroke-linejoin="round"/>
</g>
</g>
</svg>
