<svg width="70" height="70" viewBox="0 0 70 70" fill="none" xmlns="http://www.w3.org/2000/svg">
<g id="Business-Products / Business-Deals / business-deal-cash-2">
<g id="Group">
<g id="business-deal-cash-2">
<path id="Shape" d="M29.5862 20.6908C30.866 22.374 32.8867 23.3266 34.9995 23.2429C38.3216 23.2429 41.0166 21.2216 41.0166 18.7308C41.0166 16.24 38.3275 14.2216 34.9995 14.2216C31.6716 14.2216 28.9912 12.2004 28.9912 9.70662C28.9912 7.21287 31.6833 5.19454 34.9995 5.19454C37.1144 5.10882 39.1377 6.06169 40.4187 7.74662" stroke="#E961FF" stroke-linecap="round" stroke-linejoin="round"/>
<path id="Shape_2" d="M35.0059 23.2429V26.25" stroke="#E961FF" stroke-linecap="round" stroke-linejoin="round"/>
<path id="Shape_3" d="M35.0059 2.1875V5.19458" stroke="#E961FF" stroke-linecap="round" stroke-linejoin="round"/>
<path id="Oval" fill-rule="evenodd" clip-rule="evenodd" d="M13.1309 28.4375C17.9634 28.4375 21.8809 24.52 21.8809 19.6875C21.8809 14.855 17.9634 10.9375 13.1309 10.9375C8.29837 10.9375 4.38086 14.855 4.38086 19.6875C4.38086 24.52 8.29837 28.4375 13.1309 28.4375Z" stroke="#00E5E5" stroke-linecap="round" stroke-linejoin="round"/>
<path id="Shape_4" fill-rule="evenodd" clip-rule="evenodd" d="M24.0684 50.3125V43.75C24.0684 37.7094 19.1715 32.8125 13.1309 32.8125C7.09025 32.8125 2.19336 37.7094 2.19336 43.75V50.3125H6.56836L8.75586 67.8125H17.5L19.6875 50.3125H24.0684Z" stroke="#00E5E5" stroke-linecap="round" stroke-linejoin="round"/>
<path id="Oval_2" fill-rule="evenodd" clip-rule="evenodd" d="M56.8809 28.4375C61.7134 28.4375 65.6309 24.52 65.6309 19.6875C65.6309 14.855 61.7134 10.9375 56.8809 10.9375C52.0484 10.9375 48.1309 14.855 48.1309 19.6875C48.1309 24.52 52.0484 28.4375 56.8809 28.4375Z" stroke="#00E5E5" stroke-linecap="round" stroke-linejoin="round"/>
<path id="Shape_5" fill-rule="evenodd" clip-rule="evenodd" d="M67.8184 50.3125V43.75C67.8184 37.7094 62.9215 32.8125 56.8809 32.8125C50.8402 32.8125 45.9434 37.7094 45.9434 43.75V50.3125H50.3184L52.5059 67.8125H61.2559L63.4434 50.3125H67.8184Z" stroke="#00E5E5" stroke-linecap="round" stroke-linejoin="round"/>
</g>
</g>
</g>
</svg>
