<svg width="70" height="70" viewBox="0 0 70 70" fill="none" xmlns="http://www.w3.org/2000/svg">
<g id="Shipping-Delivery / Shipment-Management / shipment-heart">
<g id="Group">
<g id="shipment-heart">
<path id="Shape" fill-rule="evenodd" clip-rule="evenodd" d="M50.3126 67.8125L35.3968 52.252C32.7109 49.5668 32.0447 45.4641 33.7431 42.067V42.067C35.0121 39.53 37.4233 37.7576 40.2234 37.3034C43.0236 36.8492 45.8713 37.7687 47.8772 39.7745L50.3126 42.21L52.7481 39.7745C54.7539 37.7687 57.6017 36.8492 60.4019 37.3034C63.202 37.7576 65.6132 39.53 66.8822 42.067V42.067C68.5806 45.4641 67.9144 49.5668 65.2285 52.252L50.3126 67.8125Z" stroke="#E961FF" stroke-linecap="round" stroke-linejoin="round"/>
<path id="Shape_2" d="M24.0625 54.6875H6.5625C4.14625 54.6875 2.1875 52.7287 2.1875 50.3125V19.6875C2.1875 17.2713 4.14625 15.3125 6.5625 15.3125H50.3125C52.7287 15.3125 54.6875 17.2713 54.6875 19.6875V24.0625" stroke="#00E5E5" stroke-linecap="round" stroke-linejoin="round"/>
<path id="Shape_3" d="M53.2763 16.4704L45.0484 4.13583C44.2387 2.9213 42.8768 2.19053 41.4171 2.1875H15.4588C13.996 2.18761 12.6301 2.91872 11.8188 4.13583L3.59961 16.4704" stroke="#00E5E5" stroke-linecap="round" stroke-linejoin="round"/>
<path id="Shape_4" d="M28.4375 2.1875V15.3125" stroke="#00E5E5" stroke-linecap="round" stroke-linejoin="round"/>
</g>
</g>
</g>
</svg>
