<svg width="70" height="70" viewBox="0 0 70 70" fill="none" xmlns="http://www.w3.org/2000/svg">
<g id="Shipping-Delivery / Shipment / shipment-delivered">
<g id="Group">
<g id="shipment-delivered">
<path id="Shape" d="M21.875 41.5625H6.5625C4.14625 41.5625 2.1875 39.6037 2.1875 37.1875V6.5625C2.1875 4.14625 4.14625 2.1875 6.5625 2.1875H41.5625C43.9787 2.1875 45.9375 4.14625 45.9375 6.5625V17.5" stroke="#00E5E5" stroke-linecap="round" stroke-linejoin="round"/>
<path id="Shape_2" d="M67.813 63.9888C57.7738 68.8217 57.0709 67.7017 46.1217 67.7017C40.9417 67.7017 38.3313 64.3271 36.8059 59.3775V59.3454L33.1892 47.0954V47.0721C32.8223 45.8766 33.0442 44.578 33.7872 43.5721C34.6148 42.5899 35.7183 41.8786 36.9547 41.5304H46.6059C48.143 41.5304 49.5838 41.5304 50.3305 40.5621C51.0766 39.5951 51.331 38.3363 51.0188 37.1554L48.6855 30.4471C48.3759 28.9018 49.1648 27.3455 50.5942 26.6817C52.0237 26.0179 53.7217 26.4193 54.7026 27.6529L64.3276 41.2884C65.0639 42.3306 66.2598 42.9513 67.5359 42.9538" stroke="#E961FF" stroke-linecap="round" stroke-linejoin="round"/>
<path id="Rectangle-path" fill-rule="evenodd" clip-rule="evenodd" d="M17.5 2.1875H30.625V24.0625H17.5V2.1875Z" stroke="#00E5E5" stroke-linecap="round" stroke-linejoin="round"/>
</g>
</g>
</g>
</svg>
