<svg width="24" height="24" viewBox="0 0 24 24" fill="none" xmlns="http://www.w3.org/2000/svg">
<path d="M18.7499 14.0039L13.9629 14.9609" stroke="#CCCCCC" stroke-linecap="round" stroke-linejoin="round"/>
<path d="M14.438 9.53057L12.178 10.4856C11.8176 10.6345 11.4119 10.6287 11.056 10.4696C10.6952 10.3084 10.4139 10.0095 10.275 9.63957C9.99448 8.91884 10.2979 8.10226 10.981 7.73957L13.24 6.61257C13.7339 6.35654 14.3134 6.32237 14.834 6.51857L19.473 8.34657" stroke="#CCCCCC" stroke-linecap="round" stroke-linejoin="round"/>
<path d="M5.2002 15H6.8002L9.8492 17.326C10.1456 17.661 10.6542 17.7008 10.9992 17.416L15.2592 13.898C15.6092 13.6083 15.6663 13.0933 15.3882 12.734L13.0412 10.125" stroke="#CCCCCC" stroke-linecap="round" stroke-linejoin="round"/>
<path d="M10.7363 7.90056L10.4893 7.70056C9.99138 7.3332 9.33882 7.2496 8.76434 7.47956L5.19434 9.00056" stroke="#CCCCCC" stroke-linecap="round" stroke-linejoin="round"/>
<path d="M1.38965 15.7497H4.04965C4.67642 15.7833 5.21259 15.3043 5.24965 14.6777V9.32071C5.21206 8.69454 4.67605 8.21615 4.04965 8.24971H1.38965" stroke="#CCCCCC" stroke-linecap="round" stroke-linejoin="round"/>
<path d="M22.61 15.7497H19.95C19.3232 15.7833 18.7871 15.3043 18.75 14.6777V9.32071C18.7876 8.69454 19.3236 8.21615 19.95 8.24971H22.61" stroke="#CCCCCC" stroke-linecap="round" stroke-linejoin="round"/>
<path fill-rule="evenodd" clip-rule="evenodd" d="M12 23.25C18.2132 23.25 23.25 18.2132 23.25 12C23.25 5.7868 18.2132 0.75 12 0.75C5.7868 0.75 0.75 5.7868 0.75 12C0.75 18.2132 5.7868 23.25 12 23.25Z" stroke="#CCCCCC" stroke-linecap="round" stroke-linejoin="round"/>
</svg>
