<svg width="24" height="24" viewBox="0 0 24 24" fill="none" xmlns="http://www.w3.org/2000/svg">
<path d="M4.5 8.25V5.25C4.5 4.42157 5.17157 3.75 6 3.75C6.82843 3.75 7.5 4.42157 7.5 5.25V8.25" stroke="#CCCCCC" stroke-linecap="round" stroke-linejoin="round"/>
<path d="M4.5 6.75H7.5" stroke="#CCCCCC" stroke-linecap="round" stroke-linejoin="round"/>
<path d="M16.5 10.5V12" stroke="#CCCCCC" stroke-linecap="round" stroke-linejoin="round"/>
<path d="M13.5 12H19.5" stroke="#CCCCCC" stroke-linecap="round" stroke-linejoin="round"/>
<path d="M18 12C18 12 16.5 16.5 13.5 16.5" stroke="#CCCCCC" stroke-linecap="round" stroke-linejoin="round"/>
<path d="M16.5 14.7676C17.1779 15.7784 18.2857 16.4184 19.5 16.5006" stroke="#CCCCCC" stroke-linecap="round" stroke-linejoin="round"/>
<path fill-rule="evenodd" clip-rule="evenodd" d="M11.25 18.75C10.4216 18.75 9.75 18.0784 9.75 17.25V9.75C9.75 8.92157 10.4216 8.25 11.25 8.25H21.75C22.5784 8.25 23.25 8.92157 23.25 9.75V17.25C23.25 18.0784 22.5784 18.75 21.75 18.75H20.25V23.25L15.75 18.75H11.25Z" stroke="#CCCCCC" stroke-linecap="round" stroke-linejoin="round"/>
<path d="M6.75 12.75L3.75 15.75V11.25H2.25C1.42157 11.25 0.75 10.5784 0.75 9.75V2.25C0.75 1.42157 1.42157 0.75 2.25 0.75H12.75C13.5784 0.75 14.25 1.42157 14.25 2.25V5.25" stroke="#CCCCCC" stroke-linecap="round" stroke-linejoin="round"/>
</svg>
