<svg width="24" height="24" viewBox="0 0 24 24" fill="none" xmlns="http://www.w3.org/2000/svg">
<path d="M10.4997 2.28338C11.7961 2.17079 13.1014 2.34385 14.3237 2.79038C18.0854 4.15917 20.4909 7.84796 20.2265 11.8422C19.9622 15.8365 17.0915 19.1761 13.1822 20.0372C9.27295 20.8983 5.26479 19.0739 3.34668 15.5604" stroke="#CCCCCC" stroke-linecap="round" stroke-linejoin="round"/>
<path d="M17.2256 17.9785L23.2496 23.2495" stroke="#CCCCCC" stroke-linecap="round" stroke-linejoin="round"/>
<path d="M3 6.75H9" stroke="#CCCCCC" stroke-linecap="round" stroke-linejoin="round"/>
<path d="M3 6.74922L0.75 5.69922" stroke="#CCCCCC" stroke-linecap="round" stroke-linejoin="round"/>
<path d="M3 9H0.75" stroke="#CCCCCC" stroke-linecap="round" stroke-linejoin="round"/>
<path d="M3.267 10.9824L1.5 12.7494" stroke="#CCCCCC" stroke-linecap="round" stroke-linejoin="round"/>
<path d="M9 6.74922L11.25 5.69922" stroke="#CCCCCC" stroke-linecap="round" stroke-linejoin="round"/>
<path d="M9 9H11.25" stroke="#CCCCCC" stroke-linecap="round" stroke-linejoin="round"/>
<path d="M8.7334 10.9824L10.5004 12.7494" stroke="#CCCCCC" stroke-linecap="round" stroke-linejoin="round"/>
<path d="M5.09539 3.14L3.90039 0.75" stroke="#CCCCCC" stroke-linecap="round" stroke-linejoin="round"/>
<path d="M6.90527 3.141L8.10027 0.75" stroke="#CCCCCC" stroke-linecap="round" stroke-linejoin="round"/>
<path fill-rule="evenodd" clip-rule="evenodd" d="M3 6C3 4.34315 4.34315 3 6 3V3C7.65685 3 9 4.34315 9 6V9.75C9 11.4069 7.65685 12.75 6 12.75V12.75C4.34315 12.75 3 11.4069 3 9.75V6Z" stroke="#CCCCCC" stroke-linecap="round" stroke-linejoin="round"/>
</svg>
