<svg width="24" height="24" viewBox="0 0 24 24" fill="none" xmlns="http://www.w3.org/2000/svg">
<path d="M17.9069 8.58984C19.2748 9.70332 20.0901 11.319 20.1523 13.0396C20.2146 14.7603 19.518 16.4263 18.2339 17.6282C15.6521 20.0443 11.5347 20.0443 8.95294 17.6282C8.21003 16.9307 7.65507 16.0701 7.33594 15.1207" stroke="#CCCCCC" stroke-linecap="round" stroke-linejoin="round"/>
<path fill-rule="evenodd" clip-rule="evenodd" d="M15.8367 10.542C15.468 10.8876 14.8794 10.8876 14.5107 10.542L13.1847 9.29401C13.0098 9.12983 12.9111 8.90488 12.9111 8.67001C12.9111 8.43514 13.0098 8.21019 13.1847 8.04601L17.1617 4.29241C17.5304 3.9468 18.119 3.9468 18.4877 4.29241L19.8137 5.54041C19.9886 5.70459 20.0873 5.92954 20.0873 6.16441C20.0873 6.39928 19.9886 6.62423 19.8137 6.78841L15.8367 10.542Z" stroke="#CCCCCC" stroke-linecap="round" stroke-linejoin="round"/>
<path d="M18.9678 4.7431L21.6558 2.1607L20.1558 0.720703" stroke="#CCCCCC" stroke-linecap="round" stroke-linejoin="round"/>
<path d="M23.1562 3.60016L21.6562 2.16016" stroke="#CCCCCC" stroke-linecap="round" stroke-linejoin="round"/>
<path d="M5.08887 15.1211H10.3389" stroke="#CCCCCC" stroke-linecap="round" stroke-linejoin="round"/>
<path d="M5.90625 22.3203H20.1562" stroke="#CCCCCC" stroke-linecap="round" stroke-linejoin="round"/>
<path d="M13.4062 19.4414V22.3214" stroke="#CCCCCC" stroke-linecap="round" stroke-linejoin="round"/>
<path d="M10.4062 0.720703H13.4062V3.6007" stroke="#CCCCCC" stroke-linecap="round" stroke-linejoin="round"/>
<path d="M13.406 0.720703L7.272 6.50374C6.90288 6.84834 6.31512 6.84834 5.946 6.50374L4.694 5.32294C4.32531 4.97733 3.73669 4.97733 3.368 5.32294L0.75 7.7911" stroke="#CCCCCC" stroke-linecap="round" stroke-linejoin="round"/>
</svg>
