<svg width="24" height="24" viewBox="0 0 24 24" fill="none" xmlns="http://www.w3.org/2000/svg">
<path fill-rule="evenodd" clip-rule="evenodd" d="M10.5456 2.4379C10.9168 2.84984 11.4452 3.08504 11.9996 3.08504C12.5541 3.08504 13.0825 2.84984 13.4536 2.4379L14.3936 1.3969C14.9491 0.781215 15.8319 0.581889 16.598 0.899225C17.364 1.21656 17.8473 1.98182 17.8046 2.8099L17.7326 4.2099C17.7045 4.7636 17.9122 5.30332 18.3042 5.69535C18.6962 6.08739 19.2359 6.29505 19.7896 6.2669L21.1896 6.1959C22.0167 6.15512 22.78 6.63875 23.0965 7.40396C23.4129 8.16917 23.214 9.05068 22.5996 9.6059L21.5576 10.5469C21.1463 10.9183 20.9115 11.4466 20.9115 12.0009C20.9115 12.5551 21.1463 13.0835 21.5576 13.4549L22.5996 14.3949C23.2153 14.9503 23.4147 15.8332 23.0973 16.5992C22.78 17.3653 22.0147 17.8486 21.1866 17.8059L19.7866 17.7339C19.2331 17.7058 18.6936 17.9133 18.3016 18.3051C17.9096 18.6969 17.7018 19.2364 17.7296 19.7899L17.8016 21.1899C17.8418 22.0162 17.3587 22.7786 16.5943 23.0951C15.83 23.4115 14.9493 23.2138 14.3936 22.6009L13.4536 21.5599C13.0822 21.1485 12.5539 20.9137 11.9996 20.9137C11.4454 20.9137 10.9171 21.1485 10.5456 21.5599L9.60565 22.6009C9.04993 23.2118 8.1708 23.4086 7.40769 23.0929C6.64458 22.7772 6.16139 22.0168 6.19965 21.1919L6.27165 19.7919C6.30086 19.2369 6.09286 18.6957 5.69952 18.3031C5.30618 17.9106 4.76455 17.7036 4.20965 17.7339L2.80965 17.8059C1.98213 17.8472 1.21811 17.3634 0.901592 16.5977C0.585072 15.832 0.784501 14.95 1.39965 14.3949L2.44165 13.4549C2.85302 13.0835 3.0878 12.5551 3.0878 12.0009C3.0878 11.4466 2.85302 10.9183 2.44165 10.5469L1.39965 9.6059C0.789581 9.05003 0.593338 8.17142 0.908912 7.4088C1.22449 6.64619 1.98418 6.16315 2.80865 6.2009L4.20865 6.2719C4.76342 6.30108 5.30448 6.09322 5.69703 5.70011C6.08957 5.30699 6.29664 4.76563 6.26665 4.2109L6.19965 2.8099C6.16139 1.98495 6.64458 1.22461 7.40769 0.908926C8.1708 0.593241 9.04993 0.790017 9.60565 1.4009L10.5456 2.4379Z" stroke="#CCCCCC" stroke-linecap="round" stroke-linejoin="round"/>
<path d="M6 14.85L7.516 12.15L10.653 14.432L13.214 10.522L15.598 12.75L18 9" stroke="#CCCCCC" stroke-linecap="round" stroke-linejoin="round"/>
</svg>
