<svg width="24" height="24" viewBox="0 0 24 24" fill="none" xmlns="http://www.w3.org/2000/svg">
<g id="Cases/Interface-Essential/Form-Edition/paper-write">
<g id="Group">
<g id="paper-write">
<path id="Shape" fill-rule="evenodd" clip-rule="evenodd" d="M13.045 18.6351L9.33301 19.1651L9.86301 15.4531L19.409 5.90706C20.2877 5.02838 21.7123 5.02838 22.591 5.90706C23.4697 6.78575 23.4697 8.21038 22.591 9.08906L13.045 18.6351Z" stroke="#CCCCCC" stroke-linecap="round" stroke-linejoin="round"/>
<path id="Rectangle-path" fill-rule="evenodd" clip-rule="evenodd" d="M5.25 1.49805C5.25 1.08383 5.58579 0.748047 6 0.748047H12C12.4142 0.748047 12.75 1.08383 12.75 1.49805V2.99805C12.75 3.41226 12.4142 3.74805 12 3.74805H6C5.58579 3.74805 5.25 3.41226 5.25 2.99805V1.49805Z" stroke="#CCCCCC" stroke-linecap="round" stroke-linejoin="round"/>
<path id="Shape_2" d="M12.75 2.24805H15.75C16.5784 2.24805 17.25 2.91962 17.25 3.74805" stroke="#CCCCCC" stroke-linecap="round" stroke-linejoin="round"/>
<path id="Shape_3" d="M17.25 18.748V21.748C17.25 22.5765 16.5784 23.248 15.75 23.248H2.25C1.42157 23.248 0.75 22.5765 0.75 21.748V3.74805C0.75 2.91962 1.42157 2.24805 2.25 2.24805H5.25" stroke="#CCCCCC" stroke-linecap="round" stroke-linejoin="round"/>
<path id="Shape_4" d="M5.25 8.24805H12.75" stroke="#CCCCCC" stroke-linecap="round" stroke-linejoin="round"/>
<path id="Shape_5" d="M5.25 12.748H8.25" stroke="#CCCCCC" stroke-linecap="round" stroke-linejoin="round"/>
</g>
</g>
</g>
</svg>
