<svg width="24" height="24" viewBox="0 0 24 24" fill="none" xmlns="http://www.w3.org/2000/svg">
<g id="Work-Office-Companies / Presentations / presentation-analytics">
<g id="Group">
<g id="presentation-analytics">
<path id="Shape" d="M16.5 0.75V3" stroke="#CCCCCC" stroke-linecap="round" stroke-linejoin="round"/>
<path id="Shape_2" d="M12 3H22.1C22.737 3.00385 23.2511 3.52195 23.25 4.159V14.591C23.2511 15.228 22.737 15.7461 22.1 15.75H15" stroke="#CCCCCC" stroke-linecap="round" stroke-linejoin="round"/>
<path id="Shape_3" d="M13.6396 9.72581L15.4666 7.90081C15.6922 7.67603 16.0571 7.67603 16.2826 7.90081L17.6996 9.31981C17.9252 9.54459 18.2901 9.54459 18.5156 9.31981L20.9526 6.88281" stroke="#CCCCCC" stroke-linecap="round" stroke-linejoin="round"/>
<path id="Shape_4" d="M16.5 15.75V21" stroke="#CCCCCC" stroke-linecap="round" stroke-linejoin="round"/>
<path id="Shape_5" d="M16.5 21L13.5 23.25" stroke="#CCCCCC" stroke-linecap="round" stroke-linejoin="round"/>
<path id="Shape_6" d="M16.5 21L19.191 23.25" stroke="#CCCCCC" stroke-linecap="round" stroke-linejoin="round"/>
<path id="Oval" fill-rule="evenodd" clip-rule="evenodd" d="M6 6.75C7.65685 6.75 9 5.40685 9 3.75C9 2.09315 7.65685 0.75 6 0.75C4.34315 0.75 3 2.09315 3 3.75C3 5.40685 4.34315 6.75 6 6.75Z" stroke="#CCCCCC" stroke-linecap="round" stroke-linejoin="round"/>
<path id="Shape_7" fill-rule="evenodd" clip-rule="evenodd" d="M11.25 13.5C11.25 10.6005 8.89949 8.25 6 8.25C3.10051 8.25 0.75 10.6005 0.75 13.5V15.75H3L3.75 23.25H8.25L9 15.75H11.25V13.5Z" stroke="#CCCCCC" stroke-linecap="round" stroke-linejoin="round"/>
</g>
</g>
</g>
</svg>
