<svg width="24" height="24" viewBox="0 0 24 24" fill="none" xmlns="http://www.w3.org/2000/svg">
<g id="Work-Office-Companies / Presentations / presentation-projector-screen-bars">
<g id="Group">
<g id="presentation-projector-screen-bars">
<path id="Rectangle-path" fill-rule="evenodd" clip-rule="evenodd" d="M1.5 2.25C1.5 1.83579 1.83579 1.5 2.25 1.5H21.75C22.1642 1.5 22.5 1.83579 22.5 2.25V3.75C22.5 4.16421 22.1642 4.5 21.75 4.5H2.25C1.83579 4.5 1.5 4.16421 1.5 3.75V2.25Z" stroke="#CCCCCC" stroke-linecap="round" stroke-linejoin="round"/>
<path id="Rectangle-path_2" fill-rule="evenodd" clip-rule="evenodd" d="M3 4.5H21V18H3V4.5Z" stroke="#CCCCCC" stroke-linecap="round" stroke-linejoin="round"/>
<path id="Shape" d="M12 21.5V18" stroke="#CCCCCC" stroke-linecap="round" stroke-linejoin="round"/>
<path id="Shape_2" d="M1.5 18H22.5" stroke="#CCCCCC" stroke-linecap="round" stroke-linejoin="round"/>
<path id="Shape_3" d="M13.5 22.5C13.5 21.947 12.828 21.5 12 21.5C11.172 21.5 10.5 21.947 10.5 22.5" stroke="#CCCCCC" stroke-linecap="round" stroke-linejoin="round"/>
<path id="Shape_4" d="M7.5 15H16.5" stroke="#CCCCCC" stroke-linecap="round" stroke-linejoin="round"/>
<path id="Shape_5" d="M9 12V15" stroke="#CCCCCC" stroke-linecap="round" stroke-linejoin="round"/>
<path id="Shape_6" d="M12 9.75V15" stroke="#CCCCCC" stroke-linecap="round" stroke-linejoin="round"/>
<path id="Shape_7" d="M15 7.5V15" stroke="#CCCCCC" stroke-linecap="round" stroke-linejoin="round"/>
</g>
</g>
</g>
</svg>
