<svg width="24" height="24" viewBox="0 0 24 24" fill="none" xmlns="http://www.w3.org/2000/svg">
<path fill-rule="evenodd" clip-rule="evenodd" d="M3.375 19.502C4.82475 19.502 6 18.3267 6 16.877C6 15.4272 4.82475 14.252 3.375 14.252C1.92525 14.252 0.75 15.4272 0.75 16.877C0.75 18.3267 1.92525 19.502 3.375 19.502Z" stroke="#CCCCCC" stroke-linecap="round" stroke-linejoin="round"/>
<path d="M7.514 22.9841C6.97705 21.7289 5.89928 20.7853 4.5841 20.419C3.26891 20.0526 1.85854 20.3032 0.75 21.1001" stroke="#CCCCCC" stroke-linecap="round" stroke-linejoin="round"/>
<path fill-rule="evenodd" clip-rule="evenodd" d="M20.625 19.502C22.0747 19.502 23.25 18.3267 23.25 16.877C23.25 15.4272 22.0747 14.252 20.625 14.252C19.1753 14.252 18 15.4272 18 16.877C18 18.3267 19.1753 19.502 20.625 19.502Z" stroke="#CCCCCC" stroke-linecap="round" stroke-linejoin="round"/>
<path d="M16.4863 22.9841C17.0233 21.7289 18.101 20.7853 19.4162 20.419C20.7314 20.0526 22.1418 20.3032 23.2503 21.1001" stroke="#CCCCCC" stroke-linecap="round" stroke-linejoin="round"/>
<path fill-rule="evenodd" clip-rule="evenodd" d="M12 19.502C13.864 19.502 15.375 17.9909 15.375 16.127C15.375 14.263 13.864 12.752 12 12.752C10.136 12.752 8.625 14.263 8.625 16.127C8.625 17.9909 10.136 19.502 12 19.502Z" stroke="#CCCCCC" stroke-linecap="round" stroke-linejoin="round"/>
<path d="M16.7151 23.2509C15.5634 21.8284 13.8309 21.002 12.0006 21.002C10.1703 21.002 8.43786 21.8284 7.28613 23.2509" stroke="#CCCCCC" stroke-linecap="round" stroke-linejoin="round"/>
<path fill-rule="evenodd" clip-rule="evenodd" d="M15.75 9.75H8.25V12L4.5 9.75H1.5V0.75H15.75V9.75V9.75Z" stroke="#CCCCCC" stroke-linecap="round" stroke-linejoin="round"/>
<path d="M6 3.75L4.5 5.25L6 6.75" stroke="#CCCCCC" stroke-linecap="round" stroke-linejoin="round"/>
<path d="M11.25 3.75L12.75 5.25L11.25 6.75" stroke="#CCCCCC" stroke-linecap="round" stroke-linejoin="round"/>
<path d="M9 3.75L8.25 6.75" stroke="#CCCCCC" stroke-linecap="round" stroke-linejoin="round"/>
</svg>
