<svg width="24" height="24" viewBox="0 0 24 24" fill="none" xmlns="http://www.w3.org/2000/svg">
<path fill-rule="evenodd" clip-rule="evenodd" d="M16.875 18.25C20.3958 18.25 23.25 15.3958 23.25 11.875C23.25 8.35418 20.3958 5.5 16.875 5.5C13.3542 5.5 10.5 8.35418 10.5 11.875C10.5 15.3958 13.3542 18.25 16.875 18.25Z" stroke="#CCCCCC" stroke-linecap="round" stroke-linejoin="round"/>
<path d="M10.5 11.875H23.25" stroke="#CCCCCC" stroke-linecap="round" stroke-linejoin="round"/>
<path d="M18.3779 5.67773C19.0154 7.68093 19.3155 9.77614 19.2659 11.8777C19.3156 13.9793 19.0155 16.0746 18.3779 18.0777" stroke="#CCCCCC" stroke-linecap="round" stroke-linejoin="round"/>
<path d="M15.3718 5.67773C14.7344 7.68093 14.4343 9.77614 14.4838 11.8777C14.4341 13.9793 14.7342 16.0746 15.3718 18.0777" stroke="#CCCCCC" stroke-linecap="round" stroke-linejoin="round"/>
<path d="M2.25 8.125C1.42157 8.125 0.75 8.79657 0.75 9.625C0.75 11.875 2.25 11.875 2.25 14.125C2.25 14.9534 1.57843 15.625 0.75 15.625" stroke="#CCCCCC" stroke-linecap="round" stroke-linejoin="round"/>
<path d="M7.5 15.625H6.75C5.92157 15.625 5.25 14.9534 5.25 14.125V9.625C5.25 8.79657 5.92157 8.125 6.75 8.125H7.5" stroke="#CCCCCC" stroke-linecap="round" stroke-linejoin="round"/>
<path d="M5.25 11.875H7.5" stroke="#CCCCCC" stroke-linecap="round" stroke-linejoin="round"/>
</svg>
