<svg width="24" height="24" viewBox="0 0 24 24" fill="none" xmlns="http://www.w3.org/2000/svg">
<path d="M0.75 4.99414C5.15 6.05714 6.23 10.7011 8.25 15.7501H6V18.5351C6 19.1889 5.7403 19.8159 5.27802 20.2782C4.81574 20.7404 4.18876 21.0001 3.535 21.0001H2.25V23.2501" stroke="url(#paint0_linear_2720_9536)" stroke-linecap="round" stroke-linejoin="round"/>
<path d="M23.25 4.99414C18.85 6.05714 17.769 10.7011 15.75 15.7501H18V18.5351C18 19.8961 19.103 20.9996 20.464 21.0001H21.75V23.2501" stroke="url(#paint1_linear_2720_9536)" stroke-linecap="round" stroke-linejoin="round"/>
<path fill-rule="evenodd" clip-rule="evenodd" d="M8.25 7.5H10.5V10.5L14.25 7.5H16.5C16.9142 7.5 17.25 7.16421 17.25 6.75V1.5C17.25 1.08579 16.9142 0.75 16.5 0.75H8.25C7.83579 0.75 7.5 1.08579 7.5 1.5V6.75C7.5 7.16421 7.83579 7.5 8.25 7.5Z" stroke="url(#paint2_linear_2720_9536)" stroke-linecap="round" stroke-linejoin="round"/>
<defs>
<linearGradient id="paint0_linear_2720_9536" x1="7.58544" y1="6.56302" x2="-3.10345" y2="11.1413" gradientUnits="userSpaceOnUse">
<stop stop-color="#00E5E5"/>
<stop offset="0.510417" stop-color="#72A5F2"/>
<stop offset="1" stop-color="#E961FF"/>
</linearGradient>
<linearGradient id="paint1_linear_2720_9536" x1="22.5854" y1="6.56302" x2="11.8965" y2="11.1413" gradientUnits="userSpaceOnUse">
<stop stop-color="#00E5E5"/>
<stop offset="0.510417" stop-color="#72A5F2"/>
<stop offset="1" stop-color="#E961FF"/>
</linearGradient>
<linearGradient id="paint2_linear_2720_9536" x1="16.3861" y1="1.58789" x2="8.50643" y2="9.80316" gradientUnits="userSpaceOnUse">
<stop stop-color="#00E5E5"/>
<stop offset="0.510417" stop-color="#72A5F2"/>
<stop offset="1" stop-color="#E961FF"/>
</linearGradient>
</defs>
</svg>
