<svg width="24" height="24" viewBox="0 0 24 24" fill="none" xmlns="http://www.w3.org/2000/svg">
<path fill-rule="evenodd" clip-rule="evenodd" d="M2.99958 23.2491C2.48705 23.2489 2.01008 22.9871 1.73478 22.5548C1.45948 22.1225 1.42395 21.5796 1.64058 21.1151L10.6406 1.61508C10.8872 1.08729 11.417 0.75 11.9996 0.75C12.5821 0.75 13.112 1.08729 13.3586 1.61508L22.3586 21.1151C22.5752 21.5796 22.5397 22.1225 22.2644 22.5548C21.9891 22.9871 21.5121 23.2489 20.9996 23.2491H2.99958Z" stroke="url(#paint0_linear_2720_8777)" stroke-linecap="round" stroke-linejoin="round"/>
<path fill-rule="evenodd" clip-rule="evenodd" d="M7.5 23.2489H16.5L13.342 15.0779C13.0881 14.5694 12.5684 14.248 12 14.248C11.4316 14.248 10.9119 14.5694 10.658 15.0779L7.5 23.2489Z" stroke="url(#paint1_linear_2720_8777)" stroke-linecap="round" stroke-linejoin="round"/>
<path d="M8.25 6.75H15.656" stroke="url(#paint2_linear_2720_8777)" stroke-linecap="round" stroke-linejoin="round"/>
<path d="M6.19336 11.25H17.8054" stroke="url(#paint3_linear_2720_8777)" stroke-linecap="round" stroke-linejoin="round"/>
<path d="M12 14.25V23.25" stroke="url(#paint4_linear_2720_8777)" stroke-linecap="round" stroke-linejoin="round"/>
<defs>
<linearGradient id="paint0_linear_2720_8777" x1="20.6385" y1="2.68351" x2="2.44635" y2="20.386" gradientUnits="userSpaceOnUse">
<stop stop-color="#00E5E5"/>
<stop offset="0.510417" stop-color="#72A5F2"/>
<stop offset="1" stop-color="#E961FF"/>
</linearGradient>
<linearGradient id="paint1_linear_2720_8777" x1="15.7025" y1="15.0216" x2="8.42825" y2="22.6049" gradientUnits="userSpaceOnUse">
<stop stop-color="#00E5E5"/>
<stop offset="0.510417" stop-color="#72A5F2"/>
<stop offset="1" stop-color="#E961FF"/>
</linearGradient>
<linearGradient id="paint2_linear_2720_8777" x1="14.9998" y1="6.83594" x2="14.7937" y2="8.427" gradientUnits="userSpaceOnUse">
<stop stop-color="#00E5E5"/>
<stop offset="0.510417" stop-color="#72A5F2"/>
<stop offset="1" stop-color="#E961FF"/>
</linearGradient>
<linearGradient id="paint3_linear_2720_8777" x1="16.7764" y1="11.3359" x2="16.6437" y2="12.9427" gradientUnits="userSpaceOnUse">
<stop stop-color="#00E5E5"/>
<stop offset="0.510417" stop-color="#72A5F2"/>
<stop offset="1" stop-color="#E961FF"/>
</linearGradient>
<linearGradient id="paint4_linear_2720_8777" x1="12.9114" y1="15.0234" x2="11.2471" y2="15.2162" gradientUnits="userSpaceOnUse">
<stop stop-color="#00E5E5"/>
<stop offset="0.510417" stop-color="#72A5F2"/>
<stop offset="1" stop-color="#E961FF"/>
</linearGradient>
</defs>
</svg>
