<svg width="24" height="24" viewBox="0 0 24 24" fill="none" xmlns="http://www.w3.org/2000/svg">
<path fill-rule="evenodd" clip-rule="evenodd" d="M15 11.2617H9C9 9.60486 10.3431 8.26172 12 8.26172V8.26172C13.6569 8.26172 15 9.60486 15 11.2617Z" stroke="url(#paint0_linear_2720_10897)" stroke-linecap="round" stroke-linejoin="round"/>
<path fill-rule="evenodd" clip-rule="evenodd" d="M12 8.26172C13.2426 8.26172 14.25 7.25436 14.25 6.01172C14.25 4.76908 13.2426 3.76172 12 3.76172C10.7574 3.76172 9.75 4.76908 9.75 6.01172C9.75 7.25436 10.7574 8.26172 12 8.26172Z" stroke="url(#paint1_linear_2720_10897)" stroke-linecap="round" stroke-linejoin="round"/>
<path fill-rule="evenodd" clip-rule="evenodd" d="M3.75 3.76172C3.75 2.10486 5.09315 0.761719 6.75 0.761719H17.25C18.9069 0.761719 20.25 2.10486 20.25 3.76172V8.26172C20.25 9.91857 18.9069 11.2617 17.25 11.2617H6.75C5.09315 11.2617 3.75 9.91857 3.75 8.26172V3.76172Z" stroke="url(#paint2_linear_2720_10897)" stroke-linecap="round" stroke-linejoin="round"/>
<path fill-rule="evenodd" clip-rule="evenodd" d="M4.5 20.2617C5.74264 20.2617 6.75 19.2544 6.75 18.0117C6.75 16.7691 5.74264 15.7617 4.5 15.7617C3.25736 15.7617 2.25 16.7691 2.25 18.0117C2.25 19.2544 3.25736 20.2617 4.5 20.2617Z" stroke="url(#paint3_linear_2720_10897)" stroke-linecap="round" stroke-linejoin="round"/>
<path d="M8.25 23.2617C7.51138 21.8768 6.06958 21.0117 4.5 21.0117C2.93042 21.0117 1.48862 21.8768 0.75 23.2617" stroke="url(#paint4_linear_2720_10897)" stroke-linecap="round" stroke-linejoin="round"/>
<path fill-rule="evenodd" clip-rule="evenodd" d="M19.5 20.2617C20.7426 20.2617 21.75 19.2544 21.75 18.0117C21.75 16.7691 20.7426 15.7617 19.5 15.7617C18.2574 15.7617 17.25 16.7691 17.25 18.0117C17.25 19.2544 18.2574 20.2617 19.5 20.2617Z" stroke="url(#paint5_linear_2720_10897)" stroke-linecap="round" stroke-linejoin="round"/>
<path d="M23.25 23.2617C22.5114 21.8768 21.0696 21.0117 19.5 21.0117C17.9304 21.0117 16.4886 21.8768 15.75 23.2617" stroke="url(#paint6_linear_2720_10897)" stroke-linecap="round" stroke-linejoin="round"/>
<path fill-rule="evenodd" clip-rule="evenodd" d="M12 20.2617C13.2426 20.2617 14.25 19.2544 14.25 18.0117C14.25 16.7691 13.2426 15.7617 12 15.7617C10.7574 15.7617 9.75 16.7691 9.75 18.0117C9.75 19.2544 10.7574 20.2617 12 20.2617Z" stroke="url(#paint7_linear_2720_10897)" stroke-linecap="round" stroke-linejoin="round"/>
<path d="M15.75 23.2617C15.0114 21.8768 13.5696 21.0117 12 21.0117C10.4304 21.0117 8.98862 21.8768 8.25 23.2617" stroke="url(#paint8_linear_2720_10897)" stroke-linecap="round" stroke-linejoin="round"/>
<defs>
<linearGradient id="paint0_linear_2720_10897" x1="14.4684" y1="8.51953" x2="12.5761" y2="12.4653" gradientUnits="userSpaceOnUse">
<stop stop-color="#00E5E5"/>
<stop offset="0.510417" stop-color="#72A5F2"/>
<stop offset="1" stop-color="#E961FF"/>
</linearGradient>
<linearGradient id="paint1_linear_2720_10897" x1="13.8513" y1="4.14844" x2="10.2145" y2="7.9401" gradientUnits="userSpaceOnUse">
<stop stop-color="#00E5E5"/>
<stop offset="0.510417" stop-color="#72A5F2"/>
<stop offset="1" stop-color="#E961FF"/>
</linearGradient>
<linearGradient id="paint2_linear_2720_10897" x1="18.788" y1="1.66406" x2="11.2342" y2="14.0398" gradientUnits="userSpaceOnUse">
<stop stop-color="#00E5E5"/>
<stop offset="0.510417" stop-color="#72A5F2"/>
<stop offset="1" stop-color="#E961FF"/>
</linearGradient>
<linearGradient id="paint3_linear_2720_10897" x1="6.35127" y1="16.1484" x2="2.7145" y2="19.9401" gradientUnits="userSpaceOnUse">
<stop stop-color="#00E5E5"/>
<stop offset="0.510417" stop-color="#72A5F2"/>
<stop offset="1" stop-color="#E961FF"/>
</linearGradient>
<linearGradient id="paint4_linear_2720_10897" x1="7.58544" y1="21.2051" x2="6.61816" y2="24.5667" gradientUnits="userSpaceOnUse">
<stop stop-color="#00E5E5"/>
<stop offset="0.510417" stop-color="#72A5F2"/>
<stop offset="1" stop-color="#E961FF"/>
</linearGradient>
<linearGradient id="paint5_linear_2720_10897" x1="21.3513" y1="16.1484" x2="17.7145" y2="19.9401" gradientUnits="userSpaceOnUse">
<stop stop-color="#00E5E5"/>
<stop offset="0.510417" stop-color="#72A5F2"/>
<stop offset="1" stop-color="#E961FF"/>
</linearGradient>
<linearGradient id="paint6_linear_2720_10897" x1="22.5854" y1="21.2051" x2="21.6182" y2="24.5667" gradientUnits="userSpaceOnUse">
<stop stop-color="#00E5E5"/>
<stop offset="0.510417" stop-color="#72A5F2"/>
<stop offset="1" stop-color="#E961FF"/>
</linearGradient>
<linearGradient id="paint7_linear_2720_10897" x1="13.8513" y1="16.1484" x2="10.2145" y2="19.9401" gradientUnits="userSpaceOnUse">
<stop stop-color="#00E5E5"/>
<stop offset="0.510417" stop-color="#72A5F2"/>
<stop offset="1" stop-color="#E961FF"/>
</linearGradient>
<linearGradient id="paint8_linear_2720_10897" x1="15.0854" y1="21.2051" x2="14.1182" y2="24.5667" gradientUnits="userSpaceOnUse">
<stop stop-color="#00E5E5"/>
<stop offset="0.510417" stop-color="#72A5F2"/>
<stop offset="1" stop-color="#E961FF"/>
</linearGradient>
</defs>
</svg>
