<svg width="24" height="24" viewBox="0 0 24 24" fill="none" xmlns="http://www.w3.org/2000/svg">
<path fill-rule="evenodd" clip-rule="evenodd" d="M13.629 23.25H2.25C1.42157 23.25 0.75 22.5784 0.75 21.75V2.25C0.75 1.42157 1.42157 0.75 2.25 0.75H21.75C22.5784 0.75 23.25 1.42157 23.25 2.25V13.629C23.2499 14.0265 23.092 14.4078 22.811 14.689L14.689 22.811C14.4078 23.092 14.0265 23.2499 13.629 23.25Z" stroke="url(#paint0_linear_2720_8600)" stroke-linecap="round" stroke-linejoin="round"/>
<path d="M14.25 23.115V15.75C14.25 14.9216 14.9216 14.25 15.75 14.25H23.115" stroke="url(#paint1_linear_2720_8600)" stroke-linecap="round" stroke-linejoin="round"/>
<path d="M15 5.25L9.691 12.328C9.43727 12.6663 9.05254 12.8817 8.63154 12.9213C8.21053 12.961 7.79237 12.821 7.48 12.536L5.25 10.5" stroke="url(#paint2_linear_2720_8600)" stroke-linecap="round" stroke-linejoin="round"/>
<defs>
<linearGradient id="paint0_linear_2720_8600" x1="21.2563" y1="2.68359" x2="3.07252" y2="21.6419" gradientUnits="userSpaceOnUse">
<stop stop-color="#00E5E5"/>
<stop offset="0.510417" stop-color="#72A5F2"/>
<stop offset="1" stop-color="#E961FF"/>
</linearGradient>
<linearGradient id="paint1_linear_2720_8600" x1="22.3295" y1="15.0118" x2="15.1651" y2="22.4814" gradientUnits="userSpaceOnUse">
<stop stop-color="#00E5E5"/>
<stop offset="0.510417" stop-color="#72A5F2"/>
<stop offset="1" stop-color="#E961FF"/>
</linearGradient>
<linearGradient id="paint2_linear_2720_8600" x1="14.1361" y1="5.90982" x2="8.16236" y2="13.8188" gradientUnits="userSpaceOnUse">
<stop stop-color="#00E5E5"/>
<stop offset="0.510417" stop-color="#72A5F2"/>
<stop offset="1" stop-color="#E961FF"/>
</linearGradient>
</defs>
</svg>
