<svg width="24" height="24" viewBox="0 0 24 24" fill="none" xmlns="http://www.w3.org/2000/svg">
<path fill-rule="evenodd" clip-rule="evenodd" d="M9.7496 11.5937L5.5996 7.25969C4.85161 6.5112 4.66633 5.36812 5.1396 4.42169V4.42169C5.49288 3.7148 6.16448 3.22088 6.94451 3.09428C7.72455 2.96767 8.51789 3.22383 9.0766 3.78269L9.7546 4.46169L10.4336 3.78269C10.9923 3.22383 11.7857 2.96767 12.5657 3.09428C13.3457 3.22088 14.0173 3.7148 14.3706 4.42169V4.42169C14.8436 5.36833 14.6579 6.51144 13.9096 7.25969L9.7496 11.5937Z" stroke="url(#paint0_linear_2667_7532)" stroke-linecap="round" stroke-linejoin="round"/>
<path fill-rule="evenodd" clip-rule="evenodd" d="M6.375 22.8438C7.41053 22.8438 8.25 22.0043 8.25 20.9688C8.25 19.9332 7.41053 19.0938 6.375 19.0938C5.33947 19.0938 4.5 19.9332 4.5 20.9688C4.5 22.0043 5.33947 22.8438 6.375 22.8438Z" stroke="url(#paint1_linear_2667_7532)" stroke-linecap="round" stroke-linejoin="round"/>
<path fill-rule="evenodd" clip-rule="evenodd" d="M13.875 22.8438C14.9105 22.8438 15.75 22.0043 15.75 20.9688C15.75 19.9332 14.9105 19.0938 13.875 19.0938C12.8395 19.0938 12 19.9332 12 20.9688C12 22.0043 12.8395 22.8438 13.875 22.8438Z" stroke="url(#paint2_linear_2667_7532)" stroke-linecap="round" stroke-linejoin="round"/>
<path d="M0.75 7.09325L3.08 14.9803C3.25526 15.6366 3.8497 16.0932 4.529 16.0933H15.348C16.0284 16.0945 16.6245 15.6376 16.8 14.9803L20.038 2.82625C20.3007 1.84142 21.1927 1.15623 22.212 1.15625H23.25" stroke="url(#paint3_linear_2667_7532)" stroke-linecap="round" stroke-linejoin="round"/>
<defs>
<linearGradient id="paint0_linear_2667_7532" x1="13.7661" y1="3.79565" x2="6.97006" y2="11.8935" gradientUnits="userSpaceOnUse">
<stop stop-color="#00E5E5"/>
<stop offset="0.510417" stop-color="#72A5F2"/>
<stop offset="1" stop-color="#E961FF"/>
</linearGradient>
<linearGradient id="paint1_linear_2667_7532" x1="7.91772" y1="19.416" x2="4.88709" y2="22.5757" gradientUnits="userSpaceOnUse">
<stop stop-color="#00E5E5"/>
<stop offset="0.510417" stop-color="#72A5F2"/>
<stop offset="1" stop-color="#E961FF"/>
</linearGradient>
<linearGradient id="paint2_linear_2667_7532" x1="15.4177" y1="19.416" x2="12.3871" y2="22.5757" gradientUnits="userSpaceOnUse">
<stop stop-color="#00E5E5"/>
<stop offset="0.510417" stop-color="#72A5F2"/>
<stop offset="1" stop-color="#E961FF"/>
</linearGradient>
<linearGradient id="paint3_linear_2667_7532" x1="21.2563" y1="2.4399" x2="10.3086" y2="19.6332" gradientUnits="userSpaceOnUse">
<stop stop-color="#00E5E5"/>
<stop offset="0.510417" stop-color="#72A5F2"/>
<stop offset="1" stop-color="#E961FF"/>
</linearGradient>
</defs>
</svg>
