<svg width="67" height="68" viewBox="0 0 67 68" fill="none" xmlns="http://www.w3.org/2000/svg">
<g id="Group">
<g id="Regular">
<path id="Oval" fill-rule="evenodd" clip-rule="evenodd" d="M34.6996 34C38.7589 34 42.0496 30.5722 42.0496 26.3438C42.0496 22.1153 38.7589 18.6875 34.6996 18.6875C30.6403 18.6875 27.3496 22.1153 27.3496 26.3438C27.3496 30.5722 30.6403 34 34.6996 34Z" stroke="#E961FF" stroke-linecap="round" stroke-linejoin="round"/>
<path id="Shape" d="M22.0996 49.3125C22.0996 42.0638 27.7408 36.1875 34.6996 36.1875C41.6584 36.1875 47.2996 42.0638 47.2996 49.3125" stroke="#E961FF" stroke-linecap="round" stroke-linejoin="round"/>
<path id="Shape_2" d="M13.6992 1.1875V66.8125" stroke="#00E5E5" stroke-linecap="round" stroke-linejoin="round"/>
<path id="Shape_3" d="M64.0996 7.75V16.5" stroke="#00E5E5" stroke-linecap="round" stroke-linejoin="round"/>
<path id="Shape_4" d="M64.0996 25.25V34" stroke="#00E5E5" stroke-linecap="round" stroke-linejoin="round"/>
<path id="Shape_5" d="M64.0996 42.75V51.5" stroke="#00E5E5" stroke-linecap="round" stroke-linejoin="round"/>
<path id="Rectangle-path" fill-rule="evenodd" clip-rule="evenodd" d="M1.09961 2.6875C1.09961 1.85907 1.77118 1.1875 2.59961 1.1875H54.1996C55.028 1.1875 55.6996 1.85907 55.6996 2.6875V65.3125C55.6996 66.1409 55.028 66.8125 54.1996 66.8125H2.59961C1.77118 66.8125 1.09961 66.1409 1.09961 65.3125V2.6875Z" stroke="#00E5E5" stroke-linecap="round" stroke-linejoin="round"/>
</g>
</g>
</svg>
