<svg width="108" height="40" viewBox="0 0 108 40" fill="none" xmlns="http://www.w3.org/2000/svg">
<path d="M22 11.1679V29.2014C22 32.0654 20.8411 34.8121 18.7782 36.8372C16.7153 38.8623 13.9174 40 11 40C8.08262 40 5.28473 38.8623 3.22183 36.8372C1.15893 34.8121 0 32.0654 0 29.2014L7.26 29.2835C7.26 29.7657 7.35674 30.2431 7.54469 30.6885C7.73264 31.134 8.00813 31.5387 8.35542 31.8797C8.70271 32.2206 9.11501 32.491 9.56876 32.6755C10.0225 32.8601 10.5089 32.955 11 32.955C11.4911 32.955 11.9775 32.8601 12.4312 32.6755C12.885 32.491 13.2973 32.2206 13.6446 31.8797C13.9919 31.5387 14.2674 31.134 14.4553 30.6885C14.6433 30.2431 14.74 29.7657 14.74 29.2835V18.2949H4.0106V11.2305L22 11.1679ZM13.0174 8.37968C13.8615 8.37968 14.6867 8.13395 15.3886 7.67356C16.0904 7.21318 16.6375 6.55882 16.9605 5.79322C17.2836 5.02763 17.3681 4.18519 17.2034 3.37244C17.0387 2.55969 16.6322 1.81314 16.0353 1.22718C15.4384 0.641218 14.678 0.242174 13.85 0.0805085C13.0221 -0.0811574 12.164 0.00181538 11.3841 0.318934C10.6042 0.636053 9.93766 1.17308 9.46869 1.86209C8.99971 2.55111 8.7494 3.36117 8.7494 4.18984C8.7494 5.30105 9.19906 6.36676 9.99947 7.1525C10.7999 7.93825 11.8855 8.37968 13.0174 8.37968Z" fill="url(#paint0_linear_190_5478)"/>
<path d="M33.4792 29.3333C35.8586 29.3333 37.7182 28.0193 37.7182 25.2174V16.2126H36.0586V25.1981C36.0586 26.8019 35.0188 27.9034 33.3792 27.9034C32.2195 27.9034 31.4397 27.3043 30.8598 26.628L30 27.8454C30.9198 28.8889 32.0595 29.3333 33.4792 29.3333Z" fill="url(#paint1_linear_190_5478)"/>
<path d="M45.1287 29.3333C46.7083 29.3333 48.008 28.8309 48.9678 27.9034L48.248 26.9565C47.4881 27.7101 46.3684 28.1353 45.2687 28.1353C43.1891 28.1353 41.9094 26.6667 41.7895 24.9082H49.6077V24.5411C49.6077 21.7391 47.888 19.5362 44.9687 19.5362C42.2094 19.5362 40.2098 21.7198 40.2098 24.4251C40.2098 27.343 42.2693 29.3333 45.1287 29.3333ZM48.128 23.8454H41.7895C41.8694 22.4155 42.8892 20.7343 44.9487 20.7343C47.1482 20.7343 48.108 22.4541 48.128 23.8454Z" fill="url(#paint2_linear_190_5478)"/>
<path d="M54.4761 29.3333C55.3558 29.3333 55.8957 29.0821 56.2756 28.7343L55.8357 27.6522C55.6358 27.8647 55.2359 28.0386 54.816 28.0386C54.1561 28.0386 53.8362 27.5362 53.8362 26.8406V21.0435H55.7957V19.7681H53.8362V17.2174H52.3365V19.7681H50.7369V21.0435H52.3365V27.1498C52.3365 28.5411 53.0564 29.3333 54.4761 29.3333Z" fill="url(#paint3_linear_190_5478)"/>
<path d="M64.0527 29.3333C67.9918 29.3333 70.6712 26.4734 70.6712 22.6667C70.6712 18.8599 67.9918 16 64.0527 16C60.0937 16 57.4343 18.8599 57.4343 22.6667C57.4343 26.4734 60.0937 29.3333 64.0527 29.3333ZM64.0527 27.9034C61.0534 27.9034 59.1539 25.6618 59.1539 22.6667C59.1539 19.6522 61.0534 17.43 64.0527 17.43C67.0321 17.43 68.9516 19.6522 68.9516 22.6667C68.9516 25.6618 67.0321 27.9034 64.0527 27.9034Z" fill="url(#paint4_linear_190_5478)"/>
<path d="M80.7818 29.1014V21.0435H82.7414V19.7681H80.7818V19.0531C80.7818 17.8744 81.3217 17.2174 82.3015 17.2174C82.6814 17.2174 82.9413 17.314 83.1613 17.4493L83.5412 16.3478C83.1613 16.1159 82.6414 16.0193 82.0815 16.0193C80.4019 16.0193 79.2822 17.1208 79.2822 19.0531V19.7681H77.6826V21.0435H79.2822V29.1014H80.7818ZM85.2808 18.4348C85.8407 18.4348 86.3006 18.0097 86.3006 17.4686C86.3006 16.9275 85.8407 16.4831 85.2808 16.4831C84.7409 16.4831 84.281 16.9275 84.281 17.4686C84.281 18.0097 84.7409 18.4348 85.2808 18.4348ZM86.0406 29.1014V19.7681H84.541V29.1014H86.0406ZM75.1232 29.1014V21.0435H78.0827V19.7681H75.1232V19.0531C75.1232 17.8744 75.663 17.2174 76.6428 17.2174C77.1427 17.2174 77.5226 17.4106 77.8425 17.6812L78.4624 16.7343C77.8625 16.1932 77.1827 16.0193 76.4229 16.0193C74.7032 16.0193 73.6235 17.1401 73.6235 19.0531V19.7681H72.0239V21.0435H73.6235V29.1014H75.1232Z" fill="url(#paint5_linear_190_5478)"/>
<path d="M93.2988 29.3333C95.0584 29.3333 96.0981 28.6377 96.838 27.7101L95.8382 26.8213C95.1983 27.6522 94.3785 28.0386 93.3788 28.0386C91.3192 28.0386 90.0396 26.4928 90.0396 24.4251C90.0396 22.3575 91.3192 20.8309 93.3788 20.8309C94.3785 20.8309 95.1983 21.1981 95.8382 22.0483L96.838 21.1594C96.0981 20.2319 95.0584 19.5362 93.2988 19.5362C90.4195 19.5362 88.4799 21.6618 88.4799 24.4251C88.4799 27.2077 90.4195 29.3333 93.2988 29.3333Z" fill="url(#paint6_linear_190_5478)"/>
<path d="M103.299 29.3333C104.878 29.3333 106.178 28.8309 107.138 27.9034L106.418 26.9565C105.658 27.7101 104.539 28.1353 103.439 28.1353C101.359 28.1353 100.08 26.6667 99.9596 24.9082H107.778V24.5411C107.778 21.7391 106.058 19.5362 103.139 19.5362C100.379 19.5362 98.38 21.7198 98.38 24.4251C98.38 27.343 100.439 29.3333 103.299 29.3333ZM106.298 23.8454H99.9596C100.04 22.4155 101.059 20.7343 103.119 20.7343C105.318 20.7343 106.278 22.4541 106.298 23.8454Z" fill="url(#paint7_linear_190_5478)"/>
<defs>
<linearGradient id="paint0_linear_190_5478" x1="98.2279" y1="3.4375" x2="77.7836" y2="60.8697" gradientUnits="userSpaceOnUse">
<stop stop-color="#00E5E5"/>
<stop offset="0.510417" stop-color="#72A5F2"/>
<stop offset="1" stop-color="#E961FF"/>
</linearGradient>
<linearGradient id="paint1_linear_190_5478" x1="98.2279" y1="3.4375" x2="77.7836" y2="60.8697" gradientUnits="userSpaceOnUse">
<stop stop-color="#00E5E5"/>
<stop offset="0.510417" stop-color="#72A5F2"/>
<stop offset="1" stop-color="#E961FF"/>
</linearGradient>
<linearGradient id="paint2_linear_190_5478" x1="98.2279" y1="3.4375" x2="77.7836" y2="60.8697" gradientUnits="userSpaceOnUse">
<stop stop-color="#00E5E5"/>
<stop offset="0.510417" stop-color="#72A5F2"/>
<stop offset="1" stop-color="#E961FF"/>
</linearGradient>
<linearGradient id="paint3_linear_190_5478" x1="98.2279" y1="3.4375" x2="77.7836" y2="60.8697" gradientUnits="userSpaceOnUse">
<stop stop-color="#00E5E5"/>
<stop offset="0.510417" stop-color="#72A5F2"/>
<stop offset="1" stop-color="#E961FF"/>
</linearGradient>
<linearGradient id="paint4_linear_190_5478" x1="98.2279" y1="3.4375" x2="77.7836" y2="60.8697" gradientUnits="userSpaceOnUse">
<stop stop-color="#00E5E5"/>
<stop offset="0.510417" stop-color="#72A5F2"/>
<stop offset="1" stop-color="#E961FF"/>
</linearGradient>
<linearGradient id="paint5_linear_190_5478" x1="98.2279" y1="3.4375" x2="77.7836" y2="60.8697" gradientUnits="userSpaceOnUse">
<stop stop-color="#00E5E5"/>
<stop offset="0.510417" stop-color="#72A5F2"/>
<stop offset="1" stop-color="#E961FF"/>
</linearGradient>
<linearGradient id="paint6_linear_190_5478" x1="98.2279" y1="3.4375" x2="77.7836" y2="60.8697" gradientUnits="userSpaceOnUse">
<stop stop-color="#00E5E5"/>
<stop offset="0.510417" stop-color="#72A5F2"/>
<stop offset="1" stop-color="#E961FF"/>
</linearGradient>
<linearGradient id="paint7_linear_190_5478" x1="98.2279" y1="3.4375" x2="77.7836" y2="60.8697" gradientUnits="userSpaceOnUse">
<stop stop-color="#00E5E5"/>
<stop offset="0.510417" stop-color="#72A5F2"/>
<stop offset="1" stop-color="#E961FF"/>
</linearGradient>
</defs>
</svg>
