<svg width="70" height="70" viewBox="0 0 70 70" fill="none" xmlns="http://www.w3.org/2000/svg">
<g id="Emails / Read-Email / read-email-target">
<g id="Group">
<g id="read-email-target">
<path id="Rectangle-path" fill-rule="evenodd" clip-rule="evenodd" d="M19.6875 25.5625C19.6875 24.7341 20.3591 24.0625 21.1875 24.0625H48.8125C49.6409 24.0625 50.3125 24.7341 50.3125 25.5625V44.4375C50.3125 45.2659 49.6409 45.9375 48.8125 45.9375H21.1875C20.3591 45.9375 19.6875 45.2659 19.6875 44.4375V25.5625Z" stroke="#E961FF" stroke-linecap="round" stroke-linejoin="round"/>
<path id="Shape" d="M19.6875 28.4375L35 37.1875L50.3125 28.4375" stroke="#E961FF" stroke-linecap="round" stroke-linejoin="round"/>
<path id="Shape_2" d="M15.3125 54.6875L2.1875 67.8125" stroke="#00E5E5" stroke-linecap="round" stroke-linejoin="round"/>
<path id="Shape_3" d="M54.6875 54.6875L67.8125 67.8125" stroke="#00E5E5" stroke-linecap="round" stroke-linejoin="round"/>
<path id="Shape_4" d="M15.3125 15.3125L2.1875 2.1875" stroke="#00E5E5" stroke-linecap="round" stroke-linejoin="round"/>
<path id="Shape_5" d="M54.6875 15.3125L67.8125 2.1875" stroke="#00E5E5" stroke-linecap="round" stroke-linejoin="round"/>
<path id="Shape_6" d="M63.5513 51.1788C69.2328 41.1411 69.2328 28.8589 63.5513 18.8213" stroke="#00E5E5" stroke-linecap="round" stroke-linejoin="round"/>
<path id="Shape_7" d="M18.8213 63.5513C28.8589 69.2328 41.1411 69.2328 51.1788 63.5513" stroke="#00E5E5" stroke-linecap="round" stroke-linejoin="round"/>
<path id="Shape_8" d="M6.44874 18.8213C0.767251 28.8589 0.767251 41.1411 6.44874 51.1788" stroke="#00E5E5" stroke-linecap="round" stroke-linejoin="round"/>
<path id="Shape_9" d="M51.1788 6.44886C41.1411 0.767373 28.8589 0.767373 18.8213 6.44886" stroke="#00E5E5" stroke-linecap="round" stroke-linejoin="round"/>
</g>
</g>
</g>
</svg>
