<svg width="68" height="68" viewBox="0 0 68 68" fill="none" xmlns="http://www.w3.org/2000/svg">
<g id="Group">
<g id="Regular">
<path id="Shape" d="M51.5 7.38047C41.2944 -0.876825 26.7056 -0.876825 16.5 7.38047" stroke="#E961FF" stroke-linecap="round" stroke-linejoin="round"/>
<path id="Shape_2" d="M23.7916 17.9237C29.7455 13.1088 38.2544 13.1088 44.2083 17.9237" stroke="#E961FF" stroke-linecap="round" stroke-linejoin="round"/>
<path id="Oval" fill-rule="evenodd" clip-rule="evenodd" d="M8.84375 47.125C13.0722 47.125 16.5 43.6972 16.5 39.4688C16.5 35.2403 13.0722 31.8125 8.84375 31.8125C4.61532 31.8125 1.1875 35.2403 1.1875 39.4688C1.1875 43.6972 4.61532 47.125 8.84375 47.125Z" stroke="#00E5E5" stroke-linecap="round" stroke-linejoin="round"/>
<path id="Shape_3" d="M20.9158 57.285C19.3491 53.6244 16.2054 50.873 12.3695 49.8051C8.53361 48.7373 4.42035 49.4685 1.1875 51.7929" stroke="#00E5E5" stroke-linecap="round" stroke-linejoin="round"/>
<path id="Oval_2" fill-rule="evenodd" clip-rule="evenodd" d="M59.1563 47.125C63.3847 47.125 66.8125 43.6972 66.8125 39.4688C66.8125 35.2403 63.3847 31.8125 59.1563 31.8125C54.9278 31.8125 51.5 35.2403 51.5 39.4688C51.5 43.6972 54.9278 47.125 59.1563 47.125Z" stroke="#00E5E5" stroke-linecap="round" stroke-linejoin="round"/>
<path id="Shape_4" d="M47.0842 57.285C48.6509 53.6244 51.7947 50.873 55.6306 49.8051C59.4665 48.7373 63.5797 49.4685 66.8126 51.7929" stroke="#00E5E5" stroke-linecap="round" stroke-linejoin="round"/>
<path id="Oval_3" fill-rule="evenodd" clip-rule="evenodd" d="M34 47.125C39.4366 47.125 43.8438 42.7178 43.8438 37.2813C43.8438 31.8447 39.4366 27.4375 34 27.4375C28.5634 27.4375 24.1562 31.8447 24.1562 37.2813C24.1562 42.7178 28.5634 47.125 34 47.125Z" stroke="#00E5E5" stroke-linecap="round" stroke-linejoin="round"/>
<path id="Shape_5" d="M51.5 66.8122C50.3216 58.0485 42.8425 51.5078 34 51.5078C25.1575 51.5078 17.6784 58.0485 16.5 66.8122" stroke="#00E5E5" stroke-linecap="round" stroke-linejoin="round"/>
</g>
</g>
</svg>
