<svg width="68" height="68" viewBox="0 0 68 68" fill="none" xmlns="http://www.w3.org/2000/svg">
<g id="Group">
<g id="Regular">
<path id="Oval" fill-rule="evenodd" clip-rule="evenodd" d="M34 18.6875C38.8325 18.6875 42.75 14.77 42.75 9.9375C42.75 5.10501 38.8325 1.1875 34 1.1875C29.1675 1.1875 25.25 5.10501 25.25 9.9375C25.25 14.77 29.1675 18.6875 34 18.6875Z" stroke="#E961FF" stroke-linecap="round" stroke-linejoin="round"/>
<path id="Shape" fill-rule="evenodd" clip-rule="evenodd" d="M44.9375 40.5625V34C44.9375 27.9594 40.0406 23.0625 34 23.0625C27.9594 23.0625 23.0625 27.9594 23.0625 34V40.5625H27.4375L29.625 58.0625H38.375L40.5625 40.5625H44.9375Z" stroke="#E961FF" stroke-linecap="round" stroke-linejoin="round"/>
<path id="Oval_2" fill-rule="evenodd" clip-rule="evenodd" d="M12.125 23.0625C15.7494 23.0625 18.6875 20.1244 18.6875 16.5C18.6875 12.8756 15.7494 9.9375 12.125 9.9375C8.50063 9.9375 5.5625 12.8756 5.5625 16.5C5.5625 20.1244 8.50063 23.0625 12.125 23.0625Z" stroke="#00E5E5" stroke-linecap="round" stroke-linejoin="round"/>
<path id="Shape_2" d="M15.625 28.0132C12.2869 26.8898 8.61212 27.4413 5.75082 29.4951C2.88952 31.5489 1.19125 34.854 1.1875 38.3761V40.5636H5.5625L7.75 53.6886H16.5L17.5967 47.1086" stroke="#00E5E5" stroke-linecap="round" stroke-linejoin="round"/>
<path id="Oval_3" fill-rule="evenodd" clip-rule="evenodd" d="M55.875 23.0625C59.4994 23.0625 62.4375 20.1244 62.4375 16.5C62.4375 12.8756 59.4994 9.9375 55.875 9.9375C52.2506 9.9375 49.3125 12.8756 49.3125 16.5C49.3125 20.1244 52.2506 23.0625 55.875 23.0625Z" stroke="#00E5E5" stroke-linecap="round" stroke-linejoin="round"/>
<path id="Shape_3" d="M52.375 28.0132C55.7131 26.8898 59.3879 27.4413 62.2492 29.4951C65.1105 31.5489 66.8087 34.854 66.8125 38.3761V40.5636H62.4375L60.25 53.6886H51.5L50.4033 47.1086" stroke="#00E5E5" stroke-linecap="round" stroke-linejoin="round"/>
<path id="Shape_4" d="M66.8125 60.25C66.8125 63.8754 52.1213 66.8125 34 66.8125C15.8788 66.8125 1.1875 63.8754 1.1875 60.25" stroke="#00E5E5" stroke-linecap="round" stroke-linejoin="round"/>
</g>
</g>
</svg>
