<svg width="68" height="68" viewBox="0 0 68 68" fill="none" xmlns="http://www.w3.org/2000/svg">
<g id="Group">
<g id="Regular">
<path id="Oval" fill-rule="evenodd" clip-rule="evenodd" d="M34.0964 16.8442C38.4199 16.8442 41.9247 13.3393 41.9247 9.01583C41.9247 4.69236 38.4199 1.1875 34.0964 1.1875C29.7729 1.1875 26.2681 4.69236 26.2681 9.01583C26.2681 13.3393 29.7729 16.8442 34.0964 16.8442Z" stroke="#00E5E5" stroke-linecap="round" stroke-linejoin="round"/>
<path id="Shape" d="M43.4209 35.823C45.227 35.7938 46.9325 36.6527 47.9844 38.1213C49.0362 39.5899 49.3004 41.4811 48.6913 43.1817" stroke="#E961FF" stroke-linecap="round" stroke-linejoin="round"/>
<path id="Shape_2" d="M34.0967 16.8438V66.8121" stroke="#00E5E5" stroke-linecap="round" stroke-linejoin="round"/>
<path id="Shape_3" d="M41.2744 12.125H64.284C72.0919 12.125 60.784 30.9463 44.5323 24.6667" stroke="#00E5E5" stroke-linecap="round" stroke-linejoin="round"/>
<path id="Shape_4" d="M26.9098 12.125H3.90607C-3.89893 12.125 7.40607 30.9463 23.6577 24.6667" stroke="#00E5E5" stroke-linecap="round" stroke-linejoin="round"/>
<path id="Shape_5" d="M24.769 35.8226C21.7151 35.7918 19.2119 38.2375 19.1719 41.2913C19.1879 44.3975 21.6639 46.9316 24.769 47.0196H39.6906C42.7818 47.0196 45.2877 49.5255 45.2877 52.6167C45.2877 55.7079 42.7818 58.2138 39.6906 58.2138H29.4327C26.795 58.2743 24.7058 60.4615 24.766 63.0992C24.7586 64.4733 25.319 65.7894 26.3148 66.7363" stroke="#E961FF" stroke-linecap="round" stroke-linejoin="round"/>
</g>
</g>
</svg>
