<svg width="68" height="66" viewBox="0 0 68 66" fill="none" xmlns="http://www.w3.org/2000/svg">
<g id="Group">
<g id="seo-search">
<path id="Oval" fill-rule="evenodd" clip-rule="evenodd" d="M54.0521 19.6042C59.0859 19.6042 63.1667 15.5234 63.1667 10.4896C63.1667 5.45574 59.0859 1.375 54.0521 1.375C49.0182 1.375 44.9375 5.45574 44.9375 10.4896C44.9375 15.5234 49.0182 19.6042 54.0521 19.6042Z" stroke="#00E5E5" stroke-linecap="round" stroke-linejoin="round"/>
<path id="Shape" d="M60.498 16.9326L66.8126 23.2501" stroke="#00E5E5" stroke-linecap="round" stroke-linejoin="round"/>
<path id="Shape_2" d="M36.1875 18.875H5.5625C3.14625 18.875 1.1875 16.9162 1.1875 14.5V10.125C1.1875 7.70875 3.14625 5.75 5.5625 5.75H36.1875" stroke="#00E5E5" stroke-linecap="round" stroke-linejoin="round"/>
<path id="Shape_3" d="M6.65625 29.8125C7.26031 29.8125 7.75 30.3022 7.75 30.9063C7.75 31.5103 7.26031 32 6.65625 32C6.05219 32 5.5625 31.5103 5.5625 30.9063C5.5625 30.3022 6.05219 29.8125 6.65625 29.8125" stroke="#E961FF" stroke-linecap="round" stroke-linejoin="round"/>
<path id="Shape_4" d="M16.5 32H51.5" stroke="#E961FF" stroke-linecap="round" stroke-linejoin="round"/>
<path id="Shape_5" d="M6.65625 45.125C7.26031 45.125 7.75 45.6147 7.75 46.2188C7.75 46.8228 7.26031 47.3125 6.65625 47.3125C6.05219 47.3125 5.5625 46.8228 5.5625 46.2188C5.5625 45.6147 6.05219 45.125 6.65625 45.125" stroke="#E961FF" stroke-linecap="round" stroke-linejoin="round"/>
<path id="Shape_6" d="M16.5 47.3125H51.5" stroke="#E961FF" stroke-linecap="round" stroke-linejoin="round"/>
<path id="Shape_7" d="M6.65625 60.4375C7.26031 60.4375 7.75 60.9272 7.75 61.5313C7.75 62.1353 7.26031 62.625 6.65625 62.625C6.05219 62.625 5.5625 62.1353 5.5625 61.5313C5.5625 60.9272 6.05219 60.4375 6.65625 60.4375" stroke="#E961FF" stroke-linecap="round" stroke-linejoin="round"/>
<path id="Shape_8" d="M16.5 62.625H51.5" stroke="#E961FF" stroke-linecap="round" stroke-linejoin="round"/>
</g>
</g>
</svg>
