<svg width="68" height="67" viewBox="0 0 68 67" fill="none" xmlns="http://www.w3.org/2000/svg">
<g id="Group">
<g id="travel-map-finger">
<path id="Shape" d="M36.1672 65.8086L28.1026 56.7407C26.4362 54.8657 26.6054 51.9948 28.4804 50.3284C30.3554 48.662 33.2262 48.8311 34.8926 50.7061L40.5422 57.0586V30.8086C40.5422 29.2456 41.3761 27.8013 42.7297 27.0197C44.0834 26.2382 45.7511 26.2382 47.1047 27.0197C48.4584 27.8013 49.2922 29.2456 49.2922 30.8086V50.5019H53.6672C60.916 50.5019 66.7922 56.3782 66.7922 63.6269V65.8144" stroke="#00E5E5" stroke-linecap="round" stroke-linejoin="round"/>
<path id="Shape_2" d="M6.63016 65.5005C5.15113 63.0607 3.96091 60.4571 3.0835 57.7422" stroke="#E961FF" stroke-linecap="round" stroke-linejoin="round"/>
<path id="Shape_3" d="M1.38884 49.8154C1.0981 46.9761 1.13137 44.113 1.488 41.2812" stroke="#E961FF" stroke-linecap="round" stroke-linejoin="round"/>
<path id="Shape_4" d="M3.43042 33.4025C4.40763 30.7203 5.6969 28.1623 7.27167 25.7812" stroke="#E961FF" stroke-linecap="round" stroke-linejoin="round"/>
<path id="Shape_5" d="M12.4167 19.5051C14.4561 17.5124 16.72 15.7633 19.163 14.293" stroke="#E961FF" stroke-linecap="round" stroke-linejoin="round"/>
<path id="Shape_6" d="M25.5305 10.912C26.5 10 32 8 33.5 8" stroke="#E961FF" stroke-linecap="round" stroke-linejoin="round"/>
<path id="Shape_7" d="M52.5 0.5L45 10" stroke="#E961FF" stroke-linecap="round" stroke-linejoin="round"/>
<path id="Vector 1" d="M45 10L40.5 5" stroke="#E961FF" stroke-linecap="round"/>
</g>
</g>
</svg>
