<svg width="64" height="68" viewBox="0 0 64 68" fill="none" xmlns="http://www.w3.org/2000/svg">
<g id="Group">
<g id="plane-boarding-pass-smartphone-check">
<path id="Shape" d="M42.9404 27.4375V9.9375C42.9404 5.10501 39.0229 1.1875 34.1904 1.1875H10.125C5.29251 1.1875 1.375 5.10501 1.375 9.9375V58.0625C1.375 62.895 5.29251 66.8125 10.125 66.8125H27.625" stroke="#00E5E5" stroke-linecap="round" stroke-linejoin="round"/>
<path id="Shape_2" d="M62.625 51.5C62.625 59.9569 55.7694 66.8125 47.3125 66.8125C38.8556 66.8125 32 59.9569 32 51.5C32 43.0431 38.8556 36.1875 47.3125 36.1875" stroke="#E961FF" stroke-linecap="round" stroke-linejoin="round"/>
<path id="Shape_3" d="M62.6251 40.0156L48.6688 53.9748C47.9199 54.7213 46.7082 54.7213 45.9592 53.9748L41.5842 49.5998" stroke="#E961FF" stroke-linecap="round" stroke-linejoin="round"/>
<path id="Shape_4" d="M1.375 55.875H23.2529" stroke="#00E5E5" stroke-linecap="round" stroke-linejoin="round"/>
<path id="Shape_5" d="M31.125 14.3125L16.6875 33.5625" stroke="#00E5E5" stroke-linecap="round" stroke-linejoin="round"/>
<path id="Shape_6" d="M14.5 18.25L25.875 21.3125L32 31.375" stroke="#00E5E5" stroke-linecap="round" stroke-linejoin="round"/>
<path id="Shape_7" d="M11.875 32.6875L16.6875 33.5625L18.875 37.9375" stroke="#00E5E5" stroke-linecap="round" stroke-linejoin="round"/>
</g>
</g>
</svg>
