<svg width="68" height="68" viewBox="0 0 68 68" fill="none" xmlns="http://www.w3.org/2000/svg">
<g id="Group">
<g id="graphic-tablet-draw">
<path id="Shape" d="M66.8125 27.4375V62.4375C66.8125 64.8537 64.8537 66.8125 62.4375 66.8125H5.5625C3.14625 66.8125 1.1875 64.8537 1.1875 62.4375V20.875C1.1875 18.4588 3.14625 16.5 5.5625 16.5H31.8125" stroke="#00E5E5" stroke-linecap="round" stroke-linejoin="round"/>
<path id="Shape_2" d="M58.0625 34V55.875C58.0625 57.0831 57.0831 58.0625 55.875 58.0625H12.125C10.9169 58.0625 9.9375 57.0831 9.9375 55.875V27.4375C9.9375 26.2294 10.9169 25.25 12.125 25.25H27.4375" stroke="#00E5E5" stroke-linecap="round" stroke-linejoin="round"/>
<path id="Shape_3" fill-rule="evenodd" clip-rule="evenodd" d="M64.5345 11.1011L45.547 36.0707L35.0149 39.7398L35.6799 28.6069L54.6674 3.63441C56.7224 0.918473 60.5897 0.381863 63.3066 2.43566L63.3357 2.459C64.6408 3.44594 65.5004 4.91098 65.7252 6.53173C65.95 8.15249 65.5217 9.79616 64.5345 11.1011Z" stroke="#E961FF" stroke-linecap="round" stroke-linejoin="round"/>
<path id="Shape_4" d="M33.9299 47.6234C31.5482 50.7693 27.2986 51.8343 23.7148 50.1835C20.131 48.5327 18.1785 44.6107 19.0215 40.7561C19.8645 36.9015 23.2758 34.1526 27.2215 34.1484" stroke="#E961FF" stroke-linecap="round" stroke-linejoin="round"/>
<path id="Shape_5" d="M47.7754 58.0638V47.1875H58.0625" stroke="#00E5E5" stroke-linecap="round" stroke-linejoin="round"/>
</g>
</g>
</svg>
