<svg width="68" height="68" viewBox="0 0 68 68" fill="none" xmlns="http://www.w3.org/2000/svg">
<g id="Group">
<g id="design-tool-layout">
<path id="Rectangle-path" fill-rule="evenodd" clip-rule="evenodd" d="M1.1875 2.6875C1.1875 1.85907 1.85907 1.1875 2.6875 1.1875H65.3125C66.1409 1.1875 66.8125 1.85907 66.8125 2.6875V65.3125C66.8125 66.1409 66.1409 66.8125 65.3125 66.8125H2.6875C1.85907 66.8125 1.1875 66.1409 1.1875 65.3125V2.6875Z" stroke="#00E5E5" stroke-linecap="round" stroke-linejoin="round"/>
<path id="Rectangle-path_2" fill-rule="evenodd" clip-rule="evenodd" d="M9.9375 10.6875C9.9375 10.2733 10.2733 9.9375 10.6875 9.9375H39.8125C40.2267 9.9375 40.5625 10.2733 40.5625 10.6875V39.8125C40.5625 40.2267 40.2267 40.5625 39.8125 40.5625H10.6875C10.2733 40.5625 9.9375 40.2267 9.9375 39.8125V10.6875Z" stroke="#E961FF" stroke-linecap="round" stroke-linejoin="round"/>
<path id="Rectangle-path_3" fill-rule="evenodd" clip-rule="evenodd" d="M38.375 50.0625C38.375 49.6483 38.7108 49.3125 39.125 49.3125H55.125C55.5392 49.3125 55.875 49.6483 55.875 50.0625V57.3125C55.875 57.7267 55.5392 58.0625 55.125 58.0625H39.125C38.7108 58.0625 38.375 57.7267 38.375 57.3125V50.0625Z" stroke="#E961FF" stroke-linecap="round" stroke-linejoin="round"/>
<path id="Shape" d="M12.125 58.0625H20.875" stroke="#E961FF" stroke-linecap="round" stroke-linejoin="round"/>
<path id="Shape_2" d="M12.125 49.3125H25.25" stroke="#E961FF" stroke-linecap="round" stroke-linejoin="round"/>
<path id="Shape_3" d="M10.5791 10.5781L39.9208 39.9198" stroke="#E961FF" stroke-linecap="round" stroke-linejoin="round"/>
<path id="Shape_4" d="M39.9208 10.5781L10.5791 39.9198" stroke="#E961FF" stroke-linecap="round" stroke-linejoin="round"/>
<path id="Shape_5" d="M55.875 38.375V12.125" stroke="#E961FF" stroke-linecap="round" stroke-linejoin="round"/>
</g>
</g>
</svg>
