<svg width="70" height="70" viewBox="0 0 70 70" fill="none" xmlns="http://www.w3.org/2000/svg">
<g id="receipt-dollar">
<path id="Vector" d="M11.666 65.0214C11.6661 65.3099 11.7517 65.592 11.9122 65.8318C12.0726 66.0717 12.3006 66.2586 12.5673 66.3688C12.8339 66.479 13.1273 66.5077 13.4103 66.4511C13.6932 66.3945 13.9531 66.2552 14.1568 66.0509L17.4993 62.7084L22.3002 67.5093C22.4356 67.6451 22.5966 67.7528 22.7738 67.8264C22.9509 67.8999 23.1409 67.9377 23.3327 67.9377C23.5245 67.9377 23.7144 67.8999 23.8916 67.8264C24.0688 67.7528 24.2297 67.6451 24.3652 67.5093L29.166 62.7084L33.9668 67.5093C34.1023 67.6451 34.2632 67.7528 34.4404 67.8264C34.6176 67.8999 34.8075 67.9377 34.9993 67.9377C35.1912 67.9377 35.3811 67.8999 35.5583 67.8264C35.7355 67.7528 35.8964 67.6451 36.0318 67.5093L40.8327 62.7084L45.6335 67.5093C45.769 67.6451 45.9299 67.7528 46.1071 67.8264C46.2843 67.8999 46.4742 67.9377 46.666 67.9377C46.8578 67.9377 47.0478 67.8999 47.2249 67.8264C47.4021 67.7528 47.563 67.6451 47.6985 67.5093L52.4993 62.7084L55.8418 66.0509C56.0456 66.2552 56.3054 66.3945 56.5884 66.4511C56.8714 66.5077 57.1648 66.479 57.4314 66.3688C57.6981 66.2586 57.9261 66.0717 58.0865 65.8318C58.247 65.592 58.3326 65.3099 58.3327 65.0214V4.97886C58.3326 4.6903 58.247 4.40824 58.0865 4.16838C57.9261 3.92853 57.6981 3.74166 57.4314 3.63143C57.1648 3.5212 56.8714 3.49256 56.5884 3.54914C56.3054 3.60572 56.0456 3.74497 55.8418 3.94927L52.4993 7.29177L47.6985 2.49094C47.563 2.35513 47.4021 2.24738 47.2249 2.17386C47.0478 2.10034 46.8578 2.0625 46.666 2.0625C46.4742 2.0625 46.2843 2.10034 46.1071 2.17386C45.9299 2.24738 45.769 2.35513 45.6335 2.49094L40.8327 7.29177L36.0318 2.49094C35.8964 2.35513 35.7355 2.24738 35.5583 2.17386C35.3811 2.10034 35.1912 2.0625 34.9993 2.0625C34.8075 2.0625 34.6176 2.10034 34.4404 2.17386C34.2632 2.24738 34.1023 2.35513 33.9668 2.49094L29.166 7.29177L24.3652 2.49094C24.2297 2.35513 24.0688 2.24738 23.8916 2.17386C23.7144 2.10034 23.5245 2.0625 23.3327 2.0625C23.1409 2.0625 22.9509 2.10034 22.7738 2.17386C22.5966 2.24738 22.4356 2.35513 22.3002 2.49094L17.4993 7.29177L14.1568 3.94927C13.9531 3.74497 13.6932 3.60572 13.4103 3.54914C13.1273 3.49256 12.8339 3.5212 12.5673 3.63143C12.3006 3.74166 12.0726 3.92853 11.9122 4.16838C11.7517 4.40824 11.6661 4.6903 11.666 4.97886V65.0214Z" stroke="#00E5E5" stroke-linecap="round" stroke-linejoin="round"/>
<path id="Vector_2" d="M20.416 18.9583H43.7493" stroke="#00E5E5" stroke-linecap="round" stroke-linejoin="round"/>
<path id="Vector_3" d="M20.416 27.7083H32.0827" stroke="#E961FF" stroke-linecap="round" stroke-linejoin="round"/>
<path id="Vector_4" d="M20.416 36.4583H32.0827" stroke="#00E5E5" stroke-linecap="round" stroke-linejoin="round"/>
<path id="Vector_5" d="M20.416 45.2083H29.166" stroke="#E961FF" stroke-linecap="round" stroke-linejoin="round"/>
<path id="Vector_6" d="M43.75 50.7908V53.9583" stroke="#00E5E5" stroke-linecap="round" stroke-linejoin="round"/>
<path id="Vector_7" d="M46.666 30.625V33.7983" stroke="#00E5E5" stroke-linecap="round" stroke-linejoin="round"/>
<path id="Vector_8" d="M40.834 46.6668C40.834 47.532 41.0906 48.3779 41.5713 49.0974C42.052 49.8168 42.7353 50.3776 43.5347 50.7087C44.3342 51.0399 45.2138 51.1265 46.0625 50.9577C46.9112 50.7889 47.6907 50.3722 48.3026 49.7603C48.9144 49.1485 49.3311 48.3689 49.4999 47.5203C49.6687 46.6716 49.5821 45.7919 49.251 44.9925C48.9198 44.1931 48.3591 43.5098 47.6396 43.0291C46.9201 42.5483 46.0743 42.2917 45.209 42.2917C44.3437 42.2917 43.4978 42.0352 42.7784 41.5544C42.0589 41.0737 41.4981 40.3904 41.167 39.591C40.8359 38.7916 40.7492 37.9119 40.9181 37.0632C41.0869 36.2146 41.5035 35.435 42.1154 34.8232C42.7272 34.2113 43.5068 33.7946 44.3555 33.6258C45.2041 33.457 46.0838 33.5436 46.8832 33.8748C47.6827 34.2059 48.3659 34.7667 48.8467 35.4861C49.3274 36.2056 49.584 37.0515 49.584 37.9168" stroke="#00E5E5" stroke-linecap="round" stroke-linejoin="round"/>
</g>
</svg>
