<svg width="68" height="58" viewBox="0 0 68 58" fill="none" xmlns="http://www.w3.org/2000/svg">
<g id="Group">
<g id="tool-box">
<path id="Shape" d="M1 31.5664H29.4375" stroke="#E961FF" stroke-linecap="round" stroke-linejoin="round"/>
<path id="Shape_2" d="M38.1875 31.5664H66.625" stroke="#E961FF" stroke-linecap="round" stroke-linejoin="round"/>
<path id="Shape_3" fill-rule="evenodd" clip-rule="evenodd" d="M33.8125 38.125C31.3963 38.125 29.4375 36.1662 29.4375 33.75V29.375C29.4375 26.9588 31.3963 25 33.8125 25C36.2287 25 38.1875 26.9588 38.1875 29.375V33.75C38.1875 36.1662 36.2287 38.125 33.8125 38.125Z" stroke="#E961FF" stroke-linecap="round" stroke-linejoin="round"/>
<path id="Rectangle-path" fill-rule="evenodd" clip-rule="evenodd" d="M1.1875 15.1914C1.1875 14.363 1.85907 13.6914 2.6875 13.6914H65.3125C66.1409 13.6914 66.8125 14.363 66.8125 15.1914V55.9414C66.8125 56.7698 66.1409 57.4414 65.3125 57.4414H2.6875C1.85907 57.4414 1.1875 56.7698 1.1875 55.9414V15.1914Z" stroke="#00E5E5" stroke-linecap="round" stroke-linejoin="round"/>
<path id="Shape_4" d="M47.125 13.6914C47.125 6.44267 41.2487 0.566406 34 0.566406C26.7513 0.566406 20.875 6.44267 20.875 13.6914" stroke="#00E5E5" stroke-linecap="round" stroke-linejoin="round"/>
</g>
</g>
</svg>
