<svg width="68" height="68" viewBox="0 0 68 68" fill="none" xmlns="http://www.w3.org/2000/svg">
<g id="Group">
<g id="security-officer-luggage-check">
<path id="Shape" d="M36.1875 18.6875H40.5625V23.0625C40.5625 27.895 44.48 31.8125 49.3125 31.8125C54.145 31.8125 58.0625 27.895 58.0625 23.0625V18.6875" stroke="#00E5E5" stroke-linecap="round" stroke-linejoin="round"/>
<path id="Shape_2" d="M58.0625 58.0625V49.3125" stroke="#00E5E5" stroke-linecap="round" stroke-linejoin="round"/>
<path id="Shape_3" d="M36.7183 50.5942L40.5624 46.75V46.75V66.8138" stroke="#00E5E5" stroke-linecap="round" stroke-linejoin="round"/>
<path id="Shape_4" d="M58.0626 66.8125V58.0625C58.0626 60.4788 60.0214 62.4375 62.4376 62.4375C64.8539 62.4375 66.8126 60.4788 66.8126 58.0625V49.3125C66.8126 42.0638 60.9364 36.1875 53.6876 36.1875L49.3126 42.75L44.9376 36.1875C41.235 36.1807 37.6617 37.5484 34.9101 40.0259L25.4397 49.4992" stroke="#00E5E5" stroke-linecap="round" stroke-linejoin="round"/>
<path id="Shape_5" fill-rule="evenodd" clip-rule="evenodd" d="M58.0625 18.6875H40.5625L38.375 9.9375L60.25 12.125L58.0625 18.6875V18.6875Z" stroke="#00E5E5" stroke-linecap="round" stroke-linejoin="round"/>
<path id="Shape_6" fill-rule="evenodd" clip-rule="evenodd" d="M5.5625 58.0625H31.8125V63.8958C31.8125 65.5067 30.5067 66.8125 28.8958 66.8125H8.47917C6.86834 66.8125 5.5625 65.5067 5.5625 63.8958V58.0625Z" stroke="#E961FF" stroke-linecap="round" stroke-linejoin="round"/>
<path id="Shape_7" d="M9.9375 36.1875V58.0625H5.5625C3.14625 58.0625 1.1875 56.1037 1.1875 53.6875V36.1875" stroke="#E961FF" stroke-linecap="round" stroke-linejoin="round"/>
<path id="Shape_8" d="M27.4375 14.3125C27.4375 21.5612 21.5612 27.4375 14.3125 27.4375C7.06376 27.4375 1.1875 21.5612 1.1875 14.3125C1.1875 7.06376 7.06376 1.1875 14.3125 1.1875" stroke="#E961FF" stroke-linecap="round" stroke-linejoin="round"/>
<path id="Shape_9" d="M27.4375 4.46484L15.4792 16.4232C15.1708 16.7345 14.7507 16.9097 14.3125 16.9097C13.8743 16.9097 13.4542 16.7345 13.1458 16.4232L9.39209 12.6694" stroke="#E961FF" stroke-linecap="round" stroke-linejoin="round"/>
</g>
</g>
</svg>
