<svg width="70" height="70" viewBox="0 0 70 70" fill="none" xmlns="http://www.w3.org/2000/svg">
<g id="Business-Products / Business-Deals / business-deal-handshake">
<g id="Group">
<g id="business-deal-handshake">
<path id="Shape" d="M59.1794 41.8252L44.1294 44.701" stroke="#00E5E5" stroke-linecap="round" stroke-linejoin="round"/>
<path id="Shape_2" d="M42.0465 24.7276L31.9315 28.0701C30.3111 28.6035 28.5483 27.8369 27.8336 26.288C27.0599 24.6279 27.7426 22.6533 29.3765 21.8255L39.1736 16.8993C40.8614 16.0481 42.8265 15.934 44.6015 16.5843L59.1061 21.8897" stroke="#00E5E5" stroke-linecap="round" stroke-linejoin="round"/>
<path id="Shape_3" d="M10.748 41.8485H17.8793L28.1226 53.3285C29.1909 54.5665 30.9162 55.0099 32.4491 54.4404C33.9819 53.871 34.9992 52.4087 35.0001 50.7735V48.9797L35.5105 49.1839C36.9983 49.779 38.6844 49.5975 40.0115 48.6993C41.3385 47.8012 42.1337 46.3034 42.1343 44.701H43.5605C45.1813 44.6999 46.6625 43.7838 47.3873 42.3341C48.1121 40.8845 47.9563 39.1499 46.9847 37.8527L37.8293 26.1218" stroke="#E961FF" stroke-linecap="round" stroke-linejoin="round"/>
<path id="Shape_4" d="M30.8671 21.0731L29.8229 20.2127C28.7707 19.4379 27.4983 19.0199 26.1917 19.0198C25.4131 19.0195 24.6417 19.169 23.9196 19.4602L10.9375 24.6519" stroke="#E961FF" stroke-linecap="round" stroke-linejoin="round"/>
<path id="Shape_5" d="M2.1875 19.6875H8.02083C9.56277 19.6233 10.8666 20.8176 10.9375 22.3592V41.0755C10.8666 42.6175 9.56327 43.8126 8.02083 43.75H2.1875" stroke="#E961FF" stroke-linecap="round" stroke-linejoin="round"/>
<path id="Shape_6" d="M67.8125 43.75H61.9792C60.4367 43.8126 59.1334 42.6175 59.0625 41.0755V22.3592C59.1334 20.8176 60.4372 19.6233 61.9792 19.6875H67.8125" stroke="#00E5E5" stroke-linecap="round" stroke-linejoin="round"/>
<path id="Shape_7" d="M35 48.9797L32.1475 46.1272" stroke="#E961FF" stroke-linecap="round" stroke-linejoin="round"/>
<path id="Shape_8" d="M42.1342 44.7009L37.8525 40.4192" stroke="#E961FF" stroke-linecap="round" stroke-linejoin="round"/>
</g>
</g>
</g>
</svg>
