<svg width="70" height="70" viewBox="0 0 70 70" fill="none" xmlns="http://www.w3.org/2000/svg">
<g id="Business-Products / Performances / performance-increase">
<g id="Group">
<g id="performance-increase">
<path id="Shape" d="M2.1875 65.1001H67.8125" stroke="#00E5E5" stroke-linecap="round" stroke-linejoin="round"/>
<path id="Shape_2" fill-rule="evenodd" clip-rule="evenodd" d="M17.5 48.3H8.75C7.54188 48.3 6.5625 49.2403 6.5625 50.4V65.1H19.6875V50.4C19.6875 49.2403 18.7081 48.3 17.5 48.3Z" stroke="#00E5E5" stroke-linecap="round" stroke-linejoin="round"/>
<path id="Shape_3" fill-rule="evenodd" clip-rule="evenodd" d="M39.375 35.7002H30.625C29.4169 35.7002 28.4375 36.6404 28.4375 37.8002V65.1002H41.5625V37.8002C41.5625 36.6404 40.5831 35.7002 39.375 35.7002Z" stroke="#00E5E5" stroke-linecap="round" stroke-linejoin="round"/>
<path id="Shape_4" fill-rule="evenodd" clip-rule="evenodd" d="M61.25 27.3H52.5C51.2919 27.3 50.3125 28.2403 50.3125 29.4V65.1H63.4375V29.4C63.4375 28.2403 62.4581 27.3 61.25 27.3Z" stroke="#00E5E5" stroke-linecap="round" stroke-linejoin="round"/>
<path id="Shape_5" d="M12.1973 25.875L59.0623 5.44336" stroke="#E961FF" stroke-linecap="round" stroke-linejoin="round"/>
<path id="Shape_6" d="M55.5801 14.3529L59.0626 5.4433L49.7817 2.1001" stroke="#E961FF" stroke-linecap="round" stroke-linejoin="round"/>
</g>
</g>
</g>
</svg>
