<svg width="70" height="70" viewBox="0 0 70 70" fill="none" xmlns="http://www.w3.org/2000/svg">
<g id="Interface-Essential / Time / time-clock-fire">
<g id="Group">
<g id="time-clock-fire">
<path id="Oval" fill-rule="evenodd" clip-rule="evenodd" d="M34.0342 67.8125C44.9073 67.8125 53.7217 58.9981 53.7217 48.125C53.7217 37.2519 44.9073 28.4375 34.0342 28.4375C23.1611 28.4375 14.3467 37.2519 14.3467 48.125C14.3467 58.9981 23.1611 67.8125 34.0342 67.8125Z" stroke="#E961FF" stroke-linecap="round" stroke-linejoin="round"/>
<path id="Shape" d="M31.354 37.1875V48.125L40.104 54.6875" stroke="#E961FF" stroke-linecap="round" stroke-linejoin="round"/>
<path id="Shape_2" d="M53.6052 45.9783C60.2483 43.825 64.7244 37.6081 64.6593 30.625C64.559 24.8589 62.2031 19.3618 58.0968 15.3125C57.846 17.3612 56.7709 19.2192 55.1197 20.4576C53.4685 21.696 51.3838 22.2078 49.3468 21.875C43.611 17.0528 41.8182 8.98512 44.9718 2.1875C31.2985 2.1875 22.5485 10.255 20.9093 21.875C16.7254 22.3119 12.9114 19.4514 12.1593 15.3125C1.18101 24.6458 3.8381 41.6879 14.4606 45.9871" stroke="#00E5E5" stroke-linecap="round" stroke-linejoin="round"/>
</g>
</g>
</g>
</svg>
