<svg width="24" height="24" viewBox="0 0 24 24" fill="none" xmlns="http://www.w3.org/2000/svg">
<path fill-rule="evenodd" clip-rule="evenodd" d="M0.75 7.5C0.75 6.67157 1.42157 6 2.25 6H21.75C22.5784 6 23.25 6.67157 23.25 7.5V21C23.25 21.8284 22.5784 22.5 21.75 22.5H2.25C1.42157 22.5 0.75 21.8284 0.75 21V7.5Z" stroke="#CCCCCC" stroke-linecap="round" stroke-linejoin="round"/>
<path d="M5.25 11.25H18.75" stroke="#CCCCCC" stroke-linecap="round" stroke-linejoin="round"/>
<path d="M5.25 17.25H18.75" stroke="#CCCCCC" stroke-linecap="round" stroke-linejoin="round"/>
<path fill-rule="evenodd" clip-rule="evenodd" d="M15.342 2.525C15.1376 1.91276 14.5645 1.49992 13.919 1.5H10.081C9.43554 1.49992 8.8624 1.91276 8.658 2.525L7.5 6H16.5L15.342 2.525Z" stroke="#CCCCCC" stroke-linecap="round" stroke-linejoin="round"/>
<path d="M3.75 6V4.5" stroke="#CCCCCC" stroke-linecap="round" stroke-linejoin="round"/>
<path d="M20.25 6V4.5" stroke="#CCCCCC" stroke-linecap="round" stroke-linejoin="round"/>
</svg>
