<svg width="24" height="24" viewBox="0 0 24 24" fill="none" xmlns="http://www.w3.org/2000/svg">
<path d="M0.75 4.99414C5.15 6.05714 6.23 10.7011 8.25 15.7501H6V18.5351C6 19.1889 5.7403 19.8159 5.27802 20.2782C4.81574 20.7404 4.18876 21.0001 3.535 21.0001H2.25V23.2501" stroke="#CCCCCC" stroke-linecap="round" stroke-linejoin="round"/>
<path d="M23.25 4.99414C18.85 6.05714 17.769 10.7011 15.75 15.7501H18V18.5351C18 19.8961 19.103 20.9996 20.464 21.0001H21.75V23.2501" stroke="#CCCCCC" stroke-linecap="round" stroke-linejoin="round"/>
<path fill-rule="evenodd" clip-rule="evenodd" d="M8.25 7.5H10.5V10.5L14.25 7.5H16.5C16.9142 7.5 17.25 7.16421 17.25 6.75V1.5C17.25 1.08579 16.9142 0.75 16.5 0.75H8.25C7.83579 0.75 7.5 1.08579 7.5 1.5V6.75C7.5 7.16421 7.83579 7.5 8.25 7.5Z" stroke="#CCCCCC" stroke-linecap="round" stroke-linejoin="round"/>
</svg>
