<svg width="24" height="24" viewBox="0 0 24 24" fill="none" xmlns="http://www.w3.org/2000/svg">
<g id="Business-Products / Business-Deals / business-contract-handshake-sign">
<g id="Group">
<g id="business-contract-handshake-sign">
<path id="Shape" d="M17.25 0.75H3.75C2.09315 0.75 0.75 2.09315 0.75 3.75V21.75C0.75 22.5784 1.42157 23.25 2.25 23.25H3.685" stroke="#CCCCCC" stroke-linecap="round" stroke-linejoin="round"/>
<path id="Shape_2" d="M3.75 4.5H10.5" stroke="#CCCCCC" stroke-linecap="round" stroke-linejoin="round"/>
<path id="Shape_3" d="M3.75 7.5H10.5" stroke="#CCCCCC" stroke-linecap="round" stroke-linejoin="round"/>
<path id="Shape_4" d="M3.75 10.5H7.109" stroke="#CCCCCC" stroke-linecap="round" stroke-linejoin="round"/>
<path id="Shape_5" d="M15 9.75V3C15.0038 1.75895 16.009 0.753843 17.25 0.75V0.75C18.4913 0.753297 19.4967 1.75873 19.5 3V4.5H15" stroke="#CCCCCC" stroke-linecap="round" stroke-linejoin="round"/>
<path id="Shape_6" d="M21.7499 19.6094L16.9629 20.5674" stroke="#CCCCCC" stroke-linecap="round" stroke-linejoin="round"/>
<path id="Shape_7" d="M17.438 15.139L15.178 16.093C14.8178 16.2422 14.4121 16.2368 14.056 16.078C13.6953 15.9161 13.4141 15.617 13.275 15.247C12.9945 14.5262 13.2979 13.7097 13.981 13.347L16.24 12.219C16.7343 11.9643 17.3132 11.9302 17.834 12.125L22.473 13.953" stroke="#CCCCCC" stroke-linecap="round" stroke-linejoin="round"/>
<path id="Shape_8" d="M8.2002 20.6055H9.8002L12.8492 22.9315C13.1456 23.2665 13.6542 23.3063 13.9992 23.0215L18.2592 19.5035C18.6092 19.2138 18.6663 18.6987 18.3882 18.3395L16.0412 15.7305" stroke="#CCCCCC" stroke-linecap="round" stroke-linejoin="round"/>
<path id="Shape_9" d="M13.7363 13.5069L13.4893 13.3069C12.991 12.9405 12.3387 12.8573 11.7643 13.0869L8.19434 14.6009" stroke="#CCCCCC" stroke-linecap="round" stroke-linejoin="round"/>
<path id="Shape_10" d="M6.75 21.3552H7.05C7.6764 21.3887 8.21241 20.9103 8.25 20.2842V14.9262C8.21241 14.3 7.6764 13.8216 7.05 13.8552H6.75" stroke="#CCCCCC" stroke-linecap="round" stroke-linejoin="round"/>
<path id="Shape_11" d="M23.25 21.3552H22.95C22.3236 21.3887 21.7876 20.9103 21.75 20.2842V14.9262C21.7876 14.3 22.3236 13.8216 22.95 13.8552H23.25" stroke="#CCCCCC" stroke-linecap="round" stroke-linejoin="round"/>
</g>
</g>
</g>
</svg>
