<svg width="24" height="24" viewBox="0 0 24 24" fill="none" xmlns="http://www.w3.org/2000/svg">
<path d="M13.6841 23.25H1.82409C1.53846 23.2503 1.26441 23.1371 1.06225 22.9353C0.860082 22.7335 0.746359 22.4596 0.746094 22.174V1.82601C0.746359 1.54037 0.860082 1.26654 1.06225 1.06475C1.26441 0.862961 1.53846 0.749746 1.82409 0.750012H16.9181C17.2044 0.748682 17.4795 0.861427 17.6825 1.06333C17.8856 1.26524 17.9998 1.53968 18.0001 1.82601V7.20701" stroke="#CCCCCC" stroke-linecap="round" stroke-linejoin="round"/>
<path d="M7.20312 6.375H13.6591" stroke="#CCCCCC" stroke-linecap="round" stroke-linejoin="round"/>
<path d="M3.80469 6C4.01179 6 4.17969 6.16789 4.17969 6.375C4.17969 6.58211 4.01179 6.75 3.80469 6.75C3.59758 6.75 3.42969 6.58211 3.42969 6.375C3.42969 6.27554 3.4692 6.18016 3.53952 6.10983C3.60985 6.03951 3.70523 6 3.80469 6" stroke="#CCCCCC" stroke-linecap="round" stroke-linejoin="round"/>
<path d="M3.80469 9.86133C4.01179 9.86133 4.17969 10.0292 4.17969 10.2363C4.17969 10.4434 4.01179 10.6113 3.80469 10.6113C3.59758 10.6113 3.42969 10.4434 3.42969 10.2363C3.42969 10.0292 3.59758 9.86133 3.80469 9.86133" stroke="#CCCCCC" stroke-linecap="round" stroke-linejoin="round"/>
<path d="M15.9289 11.3528C15.7667 11.2374 15.5959 11.1348 15.4179 11.0458L14.2359 10.4548C13.55 10.112 12.7309 10.1763 12.1069 10.6218L10.2619 11.9398C9.68382 12.3545 9.3002 12.9874 9.1999 13.6918L8.9209 15.6498" stroke="#CCCCCC" stroke-linecap="round" stroke-linejoin="round"/>
<path d="M23.2456 22.4995L17.8906 13.9355" stroke="#CCCCCC" stroke-linecap="round" stroke-linejoin="round"/>
<path d="M13.7069 16.4996L19.2779 13.0866C19.7696 12.7852 20.0633 12.2444 20.0482 11.6678C20.0331 11.0913 19.7116 10.5666 19.2047 10.2913C18.6978 10.0161 18.0826 10.0322 17.5909 10.3336L7.49987 16.5186V16.5186L5.58887 19.5816L9.18887 19.2706V19.2706L11.2459 17.9996" stroke="#CCCCCC" stroke-linecap="round" stroke-linejoin="round"/>
<path d="M16.5 16.5H12.75C11.9216 16.5 11.25 17.1716 11.25 18V18C11.25 18.8284 11.9216 19.5 12.75 19.5H15.492L17.25 23.25" stroke="#CCCCCC" stroke-linecap="round" stroke-linejoin="round"/>
</svg>
