<svg width="24" height="24" viewBox="0 0 24 24" fill="none" xmlns="http://www.w3.org/2000/svg">
<g id="Cases/Emails/Drawers/drawer-envelope">
<g id="Group">
<g id="drawer-envelope">
<path id="Shape" d="M7.69531 12.6061L15.4003 13.1071L19.8963 6.83008" stroke="#CCCCCC" stroke-linecap="round" stroke-linejoin="round"/>
<path id="Shape_2" d="M15.75 18.7499L22.392 15.6059C22.7522 15.4357 23.0299 15.1292 23.1638 14.754C23.2978 14.3788 23.2769 13.9657 23.106 13.6059L19.9 6.82988C19.7298 6.46967 19.4233 6.19197 19.0481 6.05803C18.6729 5.92408 18.2598 5.9449 17.9 6.11588L8.40996 10.6079C8.04975 10.7781 7.77205 11.0846 7.63811 11.4598C7.50416 11.835 7.52497 12.248 7.69596 12.6079L10.6 18.7499" stroke="#CCCCCC" stroke-linecap="round" stroke-linejoin="round"/>
<path id="Shape_3" d="M2.25 2.25C2.25 3.90685 3.59315 5.25 5.25 5.25H14.25C15.9069 5.25 17.25 3.90685 17.25 2.25" stroke="#CCCCCC" stroke-linecap="round" stroke-linejoin="round"/>
<path id="Shape_4" d="M2.25 18.75V2.25C2.25 1.42157 2.92157 0.75 3.75 0.75H15.75C16.5784 0.75 17.25 1.42157 17.25 2.25V6.423" stroke="#CCCCCC" stroke-linecap="round" stroke-linejoin="round"/>
<path id="Shape_5" d="M9.75 5.25V9.973" stroke="#CCCCCC" stroke-linecap="round" stroke-linejoin="round"/>
<path id="Shape_6" fill-rule="evenodd" clip-rule="evenodd" d="M21.75 23.25H2.25C1.42157 23.25 0.75 22.5784 0.75 21.75V18.75H23.25V21.75C23.25 22.5784 22.5784 23.25 21.75 23.25Z" stroke="#CCCCCC" stroke-linecap="round" stroke-linejoin="round"/>
</g>
</g>
</g>
</svg>
