<svg width="24" height="24" viewBox="0 0 24 24" fill="none" xmlns="http://www.w3.org/2000/svg">
<path d="M0.749023 19.5009V2.25391C0.749023 1.42548 1.4206 0.753906 2.24902 0.753906H12.878C13.2761 0.753991 13.6577 0.912276 13.939 1.19391L19.81 7.06491C20.0913 7.34635 20.2492 7.72801 20.249 8.12591V12.7539" stroke="#CCCCCC" stroke-linecap="round" stroke-linejoin="round"/>
<path d="M20.249 8.25391H14.249C13.4206 8.25391 12.749 7.58233 12.749 6.75391V0.753906" stroke="#CCCCCC" stroke-linecap="round" stroke-linejoin="round"/>
<path d="M5.24902 15.7539V21.7539C5.24902 22.5823 4.57745 23.2539 3.74902 23.2539H2.24902" stroke="#CCCCCC" stroke-linecap="round" stroke-linejoin="round"/>
<path d="M8.24902 23.2539V17.2539C8.24902 16.4255 8.9206 15.7539 9.74902 15.7539C10.5775 15.7539 11.249 16.4255 11.249 17.2539V23.2539" stroke="#CCCCCC" stroke-linecap="round" stroke-linejoin="round"/>
<path d="M8.24902 20.2539H11.249" stroke="#CCCCCC" stroke-linecap="round" stroke-linejoin="round"/>
<path d="M20.249 23.2539V17.2539C20.249 16.4255 20.9206 15.7539 21.749 15.7539C22.5775 15.7539 23.249 16.4255 23.249 17.2539V23.2539" stroke="#CCCCCC" stroke-linecap="round" stroke-linejoin="round"/>
<path d="M20.249 20.2539H23.249" stroke="#CCCCCC" stroke-linecap="round" stroke-linejoin="round"/>
<path d="M14.249 15.7539V18.3009C14.2491 20.0641 14.771 21.7878 15.749 23.2549C16.727 21.7878 17.2489 20.0641 17.249 18.3009V15.7539" stroke="#CCCCCC" stroke-linecap="round" stroke-linejoin="round"/>
</svg>
