<svg width="24" height="24" viewBox="0 0 24 24" fill="none" xmlns="http://www.w3.org/2000/svg">
<path fill-rule="evenodd" clip-rule="evenodd" d="M15.75 23.2285C13.316 23.2285 11.25 21.9125 11.25 19.4785V15.7285H20.25V19.4785C20.25 20.2665 19.643 23.2285 15.75 23.2285Z" stroke="#CCCCCC" stroke-linecap="round" stroke-linejoin="round"/>
<path d="M8.25 12.7285L6.75 15.7285" stroke="#CCCCCC" stroke-linecap="round" stroke-linejoin="round"/>
<path d="M11.25 12.7285H2.25C1.42157 12.7285 0.75 12.0569 0.75 11.2285V2.22852C0.75 1.40009 1.42157 0.728516 2.25 0.728516H18C18.8284 0.728516 19.5 1.40009 19.5 2.22852V6.72852" stroke="#CCCCCC" stroke-linecap="round" stroke-linejoin="round"/>
<path d="M5.25 15.7285H8.25" stroke="#CCCCCC" stroke-linecap="round" stroke-linejoin="round"/>
<path d="M3.75 9.72852H11.25" stroke="#CCCCCC" stroke-linecap="round" stroke-linejoin="round"/>
<path d="M5.25 9.72852V7.47852" stroke="#CCCCCC" stroke-linecap="round" stroke-linejoin="round"/>
<path d="M8.25 9.72852V5.97852" stroke="#CCCCCC" stroke-linecap="round" stroke-linejoin="round"/>
<path d="M11.25 9.72852V3.72852" stroke="#CCCCCC" stroke-linecap="round" stroke-linejoin="round"/>
<path d="M14.2766 10.1836C13.1766 11.2836 15.3656 11.6546 14.2916 12.7286" stroke="#CCCCCC" stroke-linecap="round" stroke-linejoin="round"/>
<path d="M17.4407 8.26758C15.5287 10.1786 19.3407 10.8286 17.4667 12.6996" stroke="#CCCCCC" stroke-linecap="round" stroke-linejoin="round"/>
<path d="M20.2502 16.4785H21.0002C22.2428 16.4785 23.2502 17.4859 23.2502 18.7285C23.2502 19.9712 22.2428 20.9785 21.0002 20.9785H19.8672" stroke="#CCCCCC" stroke-linecap="round" stroke-linejoin="round"/>
</svg>
