<svg width="24" height="24" viewBox="0 0 24 24" fill="none" xmlns="http://www.w3.org/2000/svg">
<path d="M8.25 22.3203H15.75" stroke="#CCCCCC" stroke-linecap="round" stroke-linejoin="round"/>
<path d="M12 19.4414V22.3214" stroke="#CCCCCC" stroke-linecap="round" stroke-linejoin="round"/>
<path d="M0.75 15.8398H23.25" stroke="#CCCCCC" stroke-linecap="round" stroke-linejoin="round"/>
<path d="M21.75 2.88086C22.5784 2.88086 23.25 3.52557 23.25 4.32086V18.0009C23.25 18.7962 22.5784 19.4409 21.75 19.4409H2.25C1.42157 19.4409 0.75 18.7962 0.75 18.0009V4.32086C0.75 3.52557 1.42157 2.88086 2.25 2.88086" stroke="#CCCCCC" stroke-linecap="round" stroke-linejoin="round"/>
<path d="M5.25 12.9607V2.1607C5.25 1.36541 5.92157 0.720703 6.75 0.720703H17.25C18.0784 0.720703 18.75 1.36541 18.75 2.1607V12.9607" stroke="#CCCCCC" stroke-linecap="round" stroke-linejoin="round"/>
<path fill-rule="evenodd" clip-rule="evenodd" d="M8.25 6.48047H11.25V9.36047H8.25V6.48047Z" stroke="#CCCCCC" stroke-linecap="round" stroke-linejoin="round"/>
<path d="M5.25 3.60156H18.75" stroke="#CCCCCC" stroke-linecap="round" stroke-linejoin="round"/>
<path d="M14.25 6.48047H15.75" stroke="#CCCCCC" stroke-linecap="round" stroke-linejoin="round"/>
<path d="M14.25 8.64062H15.75" stroke="#CCCCCC" stroke-linecap="round" stroke-linejoin="round"/>
<path d="M8.25 12.2402H15.75" stroke="#CCCCCC" stroke-linecap="round" stroke-linejoin="round"/>
</svg>
