<svg width="24" height="24" viewBox="0 0 24 24" fill="none" xmlns="http://www.w3.org/2000/svg">
<path fill-rule="evenodd" clip-rule="evenodd" d="M5.25 6.75C6.90685 6.75 8.25 5.40685 8.25 3.75C8.25 2.09315 6.90685 0.75 5.25 0.75C3.59315 0.75 2.25 2.09315 2.25 3.75C2.25 5.40685 3.59315 6.75 5.25 6.75Z" stroke="#CCCCCC" stroke-linecap="round" stroke-linejoin="round"/>
<path d="M5.25 8.25V14.25" stroke="#CCCCCC" stroke-linecap="round" stroke-linejoin="round"/>
<path fill-rule="evenodd" clip-rule="evenodd" d="M7.5 23.25L8.25 15.75H9.75V12.75C9.75 10.2647 7.73528 8.25 5.25 8.25C2.76472 8.25 0.75 10.2647 0.75 12.75V15.75H2.25L3 23.25H7.5Z" stroke="#CCCCCC" stroke-linecap="round" stroke-linejoin="round"/>
<path fill-rule="evenodd" clip-rule="evenodd" d="M22.318 8.55671L14.25 6.53971V2.78971L22.318 0.772707C22.542 0.716265 22.7795 0.766348 22.9617 0.908431C23.1438 1.05051 23.2502 1.2687 23.25 1.49971V7.82871C23.2497 8.05961 23.1433 8.27755 22.9613 8.41969C22.7793 8.56183 22.5421 8.61236 22.318 8.55671V8.55671Z" stroke="#CCCCCC" stroke-linecap="round" stroke-linejoin="round"/>
<path d="M14.25 1.28906V8.03906" stroke="#CCCCCC" stroke-linecap="round" stroke-linejoin="round"/>
<path d="M17.25 7.28906V7.91706C17.25 9.33349 18.1563 10.591 19.5 11.0391V11.0391" stroke="#CCCCCC" stroke-linecap="round" stroke-linejoin="round"/>
</svg>
