<svg width="68" height="68" viewBox="0 0 68 68" fill="none" xmlns="http://www.w3.org/2000/svg">
<g id="Group">
<g id="programming-laptop-type">
<path id="Shape" d="M1.18752 66.8125C1.18752 66.8125 1.14377 54.37 5.27085 47.16C6.82752 44.4348 9.72449 42.7521 12.8629 42.75H20.5396C21.1736 42.7505 21.7764 43.0258 22.192 43.5046C22.6076 43.9834 22.7953 44.6188 22.7067 45.2467L20.875 58.0625C31.8125 51.5 31.8125 58.0625 25.25 66.8125" stroke="#00E5E5" stroke-linecap="round" stroke-linejoin="round"/>
<path id="Shape_2" d="M66.8126 66.8125C66.8126 66.8125 66.8564 54.37 62.7293 47.16C61.1726 44.4348 58.2756 42.7521 55.1372 42.75H47.4605C46.8265 42.7505 46.2238 43.0258 45.8082 43.5046C45.3925 43.9834 45.2048 44.6188 45.2935 45.2467L47.1251 58.0625C36.1876 51.5 36.1876 58.0625 42.7501 66.8125" stroke="#00E5E5" stroke-linecap="round" stroke-linejoin="round"/>
<path id="Shape_3" d="M14.3125 25.25V5.5625C14.3125 3.14625 16.2713 1.1875 18.6875 1.1875H49.3125C51.7287 1.1875 53.6875 3.14625 53.6875 5.5625V25.25" stroke="#E961FF" stroke-linecap="round" stroke-linejoin="round"/>
<path id="Shape_4" fill-rule="evenodd" clip-rule="evenodd" d="M7.75 25.25C7.75 31.2904 12.6471 34 18.6875 34H49.3125C55.3529 34 60.25 31.2904 60.25 25.25H7.75Z" stroke="#E961FF" stroke-linecap="round" stroke-linejoin="round"/>
</g>
</g>
</svg>
