<svg width="64" height="68" viewBox="0 0 64 68" fill="none" xmlns="http://www.w3.org/2000/svg">
<g id="Group">
<g id="programming-user-head">
<path id="Oval" fill-rule="evenodd" clip-rule="evenodd" d="M32 47.125C37.4366 47.125 41.8438 42.7178 41.8438 37.2813C41.8438 31.8447 37.4366 27.4375 32 27.4375C26.5634 27.4375 22.1562 31.8447 22.1562 37.2813C22.1562 42.7178 26.5634 47.125 32 47.125Z" stroke="#E961FF" stroke-linecap="round" stroke-linejoin="round"/>
<path id="Shape" fill-rule="evenodd" clip-rule="evenodd" d="M49.5 66.8122C48.3216 58.0485 40.8425 51.5078 32 51.5078C23.1575 51.5078 15.6784 58.0485 14.5 66.8122H49.5Z" stroke="#E961FF" stroke-linecap="round" stroke-linejoin="round"/>
<path id="Shape_2" d="M1.375 1.1875H3.5625C4.77062 1.1875 5.75 2.16688 5.75 3.375V18.6875" stroke="#00E5E5" stroke-linecap="round" stroke-linejoin="round"/>
<path id="Shape_3" d="M1.375 18.6875H10.125" stroke="#00E5E5" stroke-linecap="round" stroke-linejoin="round"/>
<path id="Shape_4" d="M1.375 53.6875H3.5625C4.77062 53.6875 5.75 54.6669 5.75 55.875V66.8125" stroke="#00E5E5" stroke-linecap="round" stroke-linejoin="round"/>
<path id="Shape_5" d="M53.875 53.6875H56.0625C57.2706 53.6875 58.25 54.6669 58.25 55.875V66.8125" stroke="#00E5E5" stroke-linecap="round" stroke-linejoin="round"/>
<path id="Shape_6" fill-rule="evenodd" clip-rule="evenodd" d="M27.625 14.3125C27.625 16.7287 25.6662 18.6875 23.25 18.6875C20.8338 18.6875 18.875 16.7287 18.875 14.3125V5.5625C18.875 3.14625 20.8338 1.1875 23.25 1.1875C25.6662 1.1875 27.625 3.14625 27.625 5.5625V14.3125Z" stroke="#00E5E5" stroke-linecap="round" stroke-linejoin="round"/>
<path id="Shape_7" fill-rule="evenodd" clip-rule="evenodd" d="M10.125 40.5625C10.125 42.9787 8.16625 44.9375 5.75 44.9375C3.33375 44.9375 1.375 42.9787 1.375 40.5625V31.8125C1.375 29.3963 3.33375 27.4375 5.75 27.4375C8.16625 27.4375 10.125 29.3963 10.125 31.8125V40.5625Z" stroke="#00E5E5" stroke-linecap="round" stroke-linejoin="round"/>
<path id="Shape_8" d="M53.875 1.1875H56.0625C57.2706 1.1875 58.25 2.16688 58.25 3.375V18.6875" stroke="#00E5E5" stroke-linecap="round" stroke-linejoin="round"/>
<path id="Shape_9" d="M53.875 18.6875H62.625" stroke="#00E5E5" stroke-linecap="round" stroke-linejoin="round"/>
<path id="Shape_10" fill-rule="evenodd" clip-rule="evenodd" d="M45.125 14.3125C45.125 16.7287 43.1662 18.6875 40.75 18.6875C38.3338 18.6875 36.375 16.7287 36.375 14.3125V5.5625C36.375 3.14625 38.3338 1.1875 40.75 1.1875C43.1662 1.1875 45.125 3.14625 45.125 5.5625V14.3125Z" stroke="#00E5E5" stroke-linecap="round" stroke-linejoin="round"/>
<path id="Shape_11" fill-rule="evenodd" clip-rule="evenodd" d="M62.625 40.5625C62.625 42.9787 60.6662 44.9375 58.25 44.9375C55.8338 44.9375 53.875 42.9787 53.875 40.5625V31.8125C53.875 29.3963 55.8338 27.4375 58.25 27.4375C60.6662 27.4375 62.625 29.3963 62.625 31.8125V40.5625Z" stroke="#00E5E5" stroke-linecap="round" stroke-linejoin="round"/>
</g>
</g>
</svg>
