<svg width="68" height="67" viewBox="0 0 68 67" fill="none" xmlns="http://www.w3.org/2000/svg">
<g id="Group">
<g id="analytics-graph-bar">
<path id="Shape" d="M1.18457 64.0996H64.6221" stroke="#00E5E5" stroke-linecap="round" stroke-linejoin="round"/>
<path id="Shape_2" fill-rule="evenodd" clip-rule="evenodd" d="M7.0179 51.5H15.0417C15.8471 51.5 16.5 52.1268 16.5 52.9V64.1H5.55957V52.9C5.55957 52.1268 6.21249 51.5 7.0179 51.5Z" stroke="#00E5E5" stroke-linecap="round" stroke-linejoin="round"/>
<path id="Shape_3" fill-rule="evenodd" clip-rule="evenodd" d="M28.8929 26.2998H36.9167C37.7221 26.2998 38.375 26.9266 38.375 27.6998V64.0998H27.4346V27.6998C27.4346 26.9266 28.0875 26.2998 28.8929 26.2998Z" stroke="#00E5E5" stroke-linecap="round" stroke-linejoin="round"/>
<path id="Shape_4" fill-rule="evenodd" clip-rule="evenodd" d="M50.7679 38.8994H58.7917C59.5971 38.8994 60.25 39.5262 60.25 40.2994V64.0994H49.3125V40.2994C49.3125 39.5273 49.9636 38.901 50.7679 38.8994Z" stroke="#00E5E5" stroke-linecap="round" stroke-linejoin="round"/>
<path id="Shape_5" d="M19.0754 13.3389L7.35913 24.5753" stroke="#E961FF" stroke-linecap="round" stroke-linejoin="round"/>
<path id="Shape_6" d="M40.7404 16.71L27.1079 13.21" stroke="#E961FF" stroke-linecap="round" stroke-linejoin="round"/>
<path id="Shape_7" d="M58.4767 7.08887L48.0321 14.9289" stroke="#E961FF" stroke-linecap="round" stroke-linejoin="round"/>
<path id="Oval" fill-rule="evenodd" clip-rule="evenodd" d="M23.0596 15.8023C25.4758 15.8023 27.4346 13.9219 27.4346 11.6023C27.4346 9.28275 25.4758 7.40234 23.0596 7.40234C20.6433 7.40234 18.6846 9.28275 18.6846 11.6023C18.6846 13.9219 20.6433 15.8023 23.0596 15.8023Z" stroke="#E961FF" stroke-linecap="round" stroke-linejoin="round"/>
<path id="Oval_2" fill-rule="evenodd" clip-rule="evenodd" d="M62.4375 9.49961C64.8537 9.49961 66.8125 7.61921 66.8125 5.29961C66.8125 2.98001 64.8537 1.09961 62.4375 1.09961C60.0213 1.09961 58.0625 2.98001 58.0625 5.29961C58.0625 7.61921 60.0213 9.49961 62.4375 9.49961Z" stroke="#E961FF" stroke-linecap="round" stroke-linejoin="round"/>
<path id="Oval_3" fill-rule="evenodd" clip-rule="evenodd" d="M44.9375 22.0992C47.3537 22.0992 49.3125 20.2188 49.3125 17.8992C49.3125 15.5796 47.3537 13.6992 44.9375 13.6992C42.5213 13.6992 40.5625 15.5796 40.5625 17.8992C40.5625 20.2188 42.5213 22.0992 44.9375 22.0992Z" stroke="#E961FF" stroke-linecap="round" stroke-linejoin="round"/>
<path id="Oval_4" fill-rule="evenodd" clip-rule="evenodd" d="M5.55957 32.6021C7.97582 32.6021 9.93457 30.7217 9.93457 28.4021C9.93457 26.0826 7.97582 24.2021 5.55957 24.2021C3.14332 24.2021 1.18457 26.0826 1.18457 28.4021C1.18457 30.7217 3.14332 32.6021 5.55957 32.6021Z" stroke="#E961FF" stroke-linecap="round" stroke-linejoin="round"/>
</g>
</g>
</svg>
