<svg width="68" height="68" viewBox="0 0 68 68" fill="none" xmlns="http://www.w3.org/2000/svg">
<g id="Group">
<g id="Regular">
<path id="Oval" fill-rule="evenodd" clip-rule="evenodd" d="M32.542 20.875C37.9785 20.875 42.3857 16.4678 42.3857 11.0313C42.3857 5.5947 37.9785 1.1875 32.542 1.1875C27.1054 1.1875 22.6982 5.5947 22.6982 11.0313C22.6982 16.4678 27.1054 20.875 32.542 20.875Z" stroke="#E961FF" stroke-linecap="round" stroke-linejoin="round"/>
<path id="Shape" d="M44.3632 29.6259C37.6588 23.5362 27.4251 23.5362 20.7207 29.6259" stroke="#E961FF" stroke-linecap="round" stroke-linejoin="round"/>
<path id="Shape_2" d="M42.3858 11.3543C40.6081 11.8665 38.7671 12.1258 36.9171 12.1243C31.9804 12.1316 27.2226 10.2766 23.5938 6.92969" stroke="#E961FF" stroke-linecap="round" stroke-linejoin="round"/>
<path id="Oval_2" fill-rule="evenodd" clip-rule="evenodd" d="M52.958 55.875C58.3946 55.875 62.8018 51.4678 62.8018 46.0313C62.8018 40.5947 58.3946 36.1875 52.958 36.1875C47.5215 36.1875 43.1143 40.5947 43.1143 46.0313C43.1143 51.4678 47.5215 55.875 52.958 55.875Z" stroke="#00E5E5" stroke-linecap="round" stroke-linejoin="round"/>
<path id="Shape_3" d="M66.8128 66.8132C63.4821 62.5467 58.3713 60.0527 52.9587 60.0527C47.546 60.0527 42.4352 62.5467 39.1045 66.8132" stroke="#00E5E5" stroke-linecap="round" stroke-linejoin="round"/>
<path id="Shape_4" d="M62.8018 46.3543C56.1948 48.2568 49.0739 46.5802 44.0098 41.9297" stroke="#00E5E5" stroke-linecap="round" stroke-linejoin="round"/>
<path id="Oval_3" fill-rule="evenodd" clip-rule="evenodd" d="M15.042 55.875C20.4785 55.875 24.8857 51.4678 24.8857 46.0313C24.8857 40.5947 20.4785 36.1875 15.042 36.1875C9.60544 36.1875 5.19824 40.5947 5.19824 46.0313C5.19824 51.4678 9.60544 55.875 15.042 55.875Z" stroke="#00E5E5" stroke-linecap="round" stroke-linejoin="round"/>
<path id="Shape_5" d="M28.8929 66.8132C25.5622 62.5467 20.4514 60.0527 15.0387 60.0527C9.62606 60.0527 4.51528 62.5467 1.18457 66.8132" stroke="#00E5E5" stroke-linecap="round" stroke-linejoin="round"/>
<path id="Shape_6" d="M24.8858 46.3543C18.2788 48.2568 11.1579 46.5802 6.09375 41.9297" stroke="#00E5E5" stroke-linecap="round" stroke-linejoin="round"/>
</g>
</g>
</svg>
