<svg width="64" height="68" viewBox="0 0 64 68" fill="none" xmlns="http://www.w3.org/2000/svg">
<g id="Group">
<g id="color-painting-palette">
<path id="Shape" fill-rule="evenodd" clip-rule="evenodd" d="M43.7311 44.5701C44.6061 55.8168 61.2719 48.0701 59.9536 51.9784C52.589 73.798 23.0636 68.5597 10.4694 55.3763C-1.68532 42.9866 -1.65676 23.1382 10.5336 10.7834C22.8653 -1.54823 43.7603 -2.44365 55.1236 10.7193C77.3836 36.5026 42.9611 34.5338 43.7311 44.5701Z" stroke="#00E5E5" stroke-linecap="round" stroke-linejoin="round"/>
<path id="Oval" fill-rule="evenodd" clip-rule="evenodd" d="M17.9714 42.2514C20.4199 42.2514 22.4048 40.2666 22.4048 37.8181C22.4048 35.3696 20.4199 33.3848 17.9714 33.3848C15.523 33.3848 13.5381 35.3696 13.5381 37.8181C13.5381 40.2666 15.523 42.2514 17.9714 42.2514Z" stroke="#E961FF" stroke-linecap="round" stroke-linejoin="round"/>
<path id="Oval_2" fill-rule="evenodd" clip-rule="evenodd" d="M28.9382 56.353C31.3867 56.353 33.3715 54.3681 33.3715 51.9197C33.3715 49.4712 31.3867 47.4863 28.9382 47.4863C26.4898 47.4863 24.5049 49.4712 24.5049 51.9197C24.5049 54.3681 26.4898 56.353 28.9382 56.353Z" stroke="#E961FF" stroke-linecap="round" stroke-linejoin="round"/>
<path id="Oval_3" fill-rule="evenodd" clip-rule="evenodd" d="M39.5427 20.6772C41.9912 20.6772 43.976 18.6923 43.976 16.2439C43.976 13.7954 41.9912 11.8105 39.5427 11.8105C37.0942 11.8105 35.1094 13.7954 35.1094 16.2439C35.1094 18.6923 37.0942 20.6772 39.5427 20.6772Z" stroke="#E961FF" stroke-linecap="round" stroke-linejoin="round"/>
<path id="Oval_4" fill-rule="evenodd" clip-rule="evenodd" d="M20.7419 25.3784C23.1904 25.3784 25.1753 23.3935 25.1753 20.9451C25.1753 18.4966 23.1904 16.5117 20.7419 16.5117C18.2935 16.5117 16.3086 18.4966 16.3086 20.9451C16.3086 23.3935 18.2935 25.3784 20.7419 25.3784Z" stroke="#E961FF" stroke-linecap="round" stroke-linejoin="round"/>
</g>
</g>
</svg>
