<svg width="68" height="68" viewBox="0 0 68 68" fill="none" xmlns="http://www.w3.org/2000/svg">
<g id="Group">
<g id="vectors-pen-anchor">
<path id="Rectangle-path" fill-rule="evenodd" clip-rule="evenodd" d="M25.4336 10.8565C25.1408 10.5636 25.1408 10.0887 25.4337 9.79584L33.6538 1.57573C33.9467 1.28283 34.4215 1.28283 34.7144 1.57573L42.5633 9.42461C42.8562 9.7175 42.8562 10.1924 42.5633 10.4853L34.3432 18.7054C34.0503 18.9983 33.5754 18.9983 33.2825 18.7054L25.4336 10.8565Z" stroke="#00E5E5" stroke-linecap="round" stroke-linejoin="round"/>
<path id="Rectangle-path_2" fill-rule="evenodd" clip-rule="evenodd" d="M0.995173 34.3155C0.70228 34.0226 0.702281 33.5477 0.995174 33.2548L9.21529 25.0347C9.50818 24.7418 9.98306 24.7418 10.276 25.0347L18.1248 32.8836C18.4177 33.1765 18.4177 33.6514 18.1248 33.9443L9.90472 42.1644C9.61183 42.4573 9.13695 42.4573 8.84406 42.1644L0.995173 34.3155Z" stroke="#00E5E5" stroke-linecap="round" stroke-linejoin="round"/>
<path id="Rectangle-path_3" fill-rule="evenodd" clip-rule="evenodd" d="M49.8721 34.3174C49.5792 34.0245 49.5792 33.5497 49.8721 33.2568L58.0922 25.0367C58.3851 24.7438 58.86 24.7438 59.1529 25.0367L67.0018 32.8855C67.2947 33.1784 67.2947 33.6533 67.0018 33.9462L58.7817 42.1663C58.4888 42.4592 58.0139 42.4592 57.721 42.1663L49.8721 34.3174Z" stroke="#00E5E5" stroke-linecap="round" stroke-linejoin="round"/>
<path id="Shape" d="M29.3591 14.5938L14.2012 29.1454" stroke="#00E5E5" stroke-linecap="round" stroke-linejoin="round"/>
<path id="Shape_2" d="M38.6396 14.5938L53.7976 29.1454" stroke="#00E5E5" stroke-linecap="round" stroke-linejoin="round"/>
<path id="Shape_3" fill-rule="evenodd" clip-rule="evenodd" d="M31.9345 27.2191L23.2282 43.9351C20.8775 48.4483 21.7985 53.8992 25.5149 57.4675V57.4675C30.2839 62.0453 38.0155 62.0453 42.7845 57.4675V57.4675C46.5009 53.8992 47.4219 48.4483 45.0712 43.9351L36.3649 27.2191C35.9456 26.4134 35.0879 25.9043 34.1497 25.9043C33.2115 25.9043 32.3538 26.4134 31.9345 27.2191V27.2191Z" stroke="#E961FF" stroke-linecap="round" stroke-linejoin="round"/>
<path id="Shape_4" d="M34.1514 25.9062V46.1139" stroke="#E961FF" stroke-linecap="round" stroke-linejoin="round"/>
<path id="Shape_5" d="M20.875 65.1016H47.125" stroke="#E961FF" stroke-linecap="round" stroke-linejoin="round"/>
</g>
</g>
</svg>
