<svg width="68" height="68" viewBox="0 0 68 68" fill="none" xmlns="http://www.w3.org/2000/svg">
<g id="Group">
<g id="Regular">
<path id="Oval" fill-rule="evenodd" clip-rule="evenodd" d="M34 55.875C38.2284 55.875 41.6563 52.4472 41.6563 48.2188C41.6563 43.9903 38.2284 40.5625 34 40.5625C29.7716 40.5625 26.3438 43.9903 26.3438 48.2188C26.3438 52.4472 29.7716 55.875 34 55.875Z" stroke="#E961FF" stroke-linecap="round" stroke-linejoin="round"/>
<path id="Shape" d="M46.3197 66.8126C44.4908 61.5737 39.5487 58.0645 33.9997 58.0645C28.4507 58.0645 23.5086 61.5737 21.6797 66.8126" stroke="#E961FF" stroke-linecap="round" stroke-linejoin="round"/>
<path id="Oval_2" fill-rule="evenodd" clip-rule="evenodd" d="M13.5078 16.5C17.7362 16.5 21.1641 13.0722 21.1641 8.84375C21.1641 4.61532 17.7362 1.1875 13.5078 1.1875C9.27938 1.1875 5.85156 4.61532 5.85156 8.84375C5.85156 13.0722 9.27938 16.5 13.5078 16.5Z" stroke="#00E5E5" stroke-linecap="round" stroke-linejoin="round"/>
<path id="Shape_2" fill-rule="evenodd" clip-rule="evenodd" d="M25.8333 27.4379C24.0057 22.1969 19.0625 18.6855 13.5119 18.6855C7.96128 18.6855 3.01812 22.1969 1.19043 27.4379H25.8333Z" stroke="#00E5E5" stroke-linecap="round" stroke-linejoin="round"/>
<path id="Oval_3" fill-rule="evenodd" clip-rule="evenodd" d="M54.4922 16.5C58.7206 16.5 62.1484 13.0722 62.1484 8.84375C62.1484 4.61532 58.7206 1.1875 54.4922 1.1875C50.2638 1.1875 46.8359 4.61532 46.8359 8.84375C46.8359 13.0722 50.2638 16.5 54.4922 16.5Z" stroke="#00E5E5" stroke-linecap="round" stroke-linejoin="round"/>
<path id="Shape_3" fill-rule="evenodd" clip-rule="evenodd" d="M66.8128 27.4379C64.9852 22.1969 60.042 18.6855 54.4914 18.6855C48.9408 18.6855 43.9976 22.1969 42.1699 27.4379H66.8128Z" stroke="#00E5E5" stroke-linecap="round" stroke-linejoin="round"/>
<path id="Shape_4" d="M9.9375 36.1875V47.125C9.9375 50.7494 12.8756 53.6875 16.5 53.6875H18.6875" stroke="#00E5E5" stroke-linecap="round" stroke-linejoin="round"/>
<path id="Shape_5" d="M58.0625 36.1875V47.125C58.0625 50.7494 55.1244 53.6875 51.5 53.6875H49.3125" stroke="#00E5E5" stroke-linecap="round" stroke-linejoin="round"/>
</g>
</g>
</svg>
