<svg width="68" height="68" viewBox="0 0 68 68" fill="none" xmlns="http://www.w3.org/2000/svg">
<g id="Group">
<g id="Regular">
<path id="Oval" fill-rule="evenodd" clip-rule="evenodd" d="M49.3125 66.8125C58.9775 66.8125 66.8125 58.9775 66.8125 49.3125C66.8125 39.6475 58.9775 31.8125 49.3125 31.8125C39.6475 31.8125 31.8125 39.6475 31.8125 49.3125C31.8125 58.9775 39.6475 66.8125 49.3125 66.8125Z" stroke="#E961FF" stroke-linecap="round" stroke-linejoin="round"/>
<path id="Shape" d="M57.1115 44.2227L48.6386 55.5218C48.2574 56.0288 47.6751 56.3457 47.0424 56.3904C46.4097 56.4352 45.7886 56.2034 45.3398 55.7552L40.9648 51.3802" stroke="#E961FF" stroke-linecap="round" stroke-linejoin="round"/>
<path id="Oval_2" fill-rule="evenodd" clip-rule="evenodd" d="M16.5 18.6875C21.3325 18.6875 25.25 14.77 25.25 9.9375C25.25 5.10501 21.3325 1.1875 16.5 1.1875C11.6675 1.1875 7.75 5.10501 7.75 9.9375C7.75 14.77 11.6675 18.6875 16.5 18.6875Z" stroke="#00E5E5" stroke-linecap="round" stroke-linejoin="round"/>
<path id="Shape_2" d="M29.7854 30.7565C26.3315 24.7397 19.2644 21.7961 12.5605 23.582C5.85655 25.3679 1.19042 31.4371 1.1875 38.3748V44.9373H7.75L9.9375 66.8123H23.0625L24.0046 57.3827" stroke="#00E5E5" stroke-linecap="round" stroke-linejoin="round"/>
</g>
</g>
</svg>
