<svg width="70" height="70" viewBox="0 0 70 70" fill="none" xmlns="http://www.w3.org/2000/svg">
<g id="Work-Office-Companies / Tasks / task-list-settings">
<g id="Group">
<g id="task-list-settings">
<path id="Oval" fill-rule="evenodd" clip-rule="evenodd" d="M50.3125 52.532C52.7287 52.532 54.6875 50.5732 54.6875 48.157C54.6875 45.7407 52.7287 43.782 50.3125 43.782C47.8963 43.782 45.9375 45.7407 45.9375 48.157C45.9375 50.5732 47.8963 52.532 50.3125 52.532Z" stroke="#E961FF" stroke-linecap="round" stroke-linejoin="round"/>
<path id="Shape" fill-rule="evenodd" clip-rule="evenodd" d="M54.0282 31.2317L55.3174 35.4696C55.7588 36.9291 57.2554 37.7973 58.7416 37.4559L63.0349 36.4613C64.7052 36.0848 66.426 36.8403 67.2794 38.3248C68.1327 39.8093 67.9196 41.6765 66.7536 42.9304L63.7465 46.1709C62.7054 47.2904 62.7054 49.0238 63.7465 50.1434L66.7536 53.375C67.9196 54.629 68.1327 56.4962 67.2794 57.9807C66.426 59.4651 64.7052 60.2206 63.0349 59.8442L58.7416 58.8584C57.2554 58.5169 55.7588 59.3851 55.3174 60.8446L54.0282 65.0825C53.5363 66.7238 52.0258 67.8479 50.3124 67.8479C48.599 67.8479 47.0885 66.7238 46.5966 65.0825L45.3074 60.8446C44.8659 59.3851 43.3693 58.5169 41.8832 58.8584L37.5899 59.8529C35.9159 60.235 34.1888 59.4789 33.3339 57.9898C32.4791 56.5007 32.6971 54.6279 33.8711 53.375L36.8782 50.1346C37.9193 49.0151 37.9193 47.2816 36.8782 46.1621L33.8711 42.9217C32.7106 41.667 32.5007 39.8035 33.353 38.3221C34.2053 36.8407 35.9219 36.0856 37.5899 36.4584L41.8832 37.4529C43.3693 37.7944 44.8659 36.9262 45.3074 35.4667L46.5966 31.2288C47.0891 29.5877 48.6001 28.4642 50.3135 28.4648C52.0269 28.4655 53.5369 29.5902 54.0282 31.2317Z" stroke="#E961FF" stroke-linecap="round" stroke-linejoin="round"/>
<path id="Shape_2" d="M15.3125 30.657H28.4375" stroke="#00E5E5" stroke-linecap="round" stroke-linejoin="round"/>
<path id="Shape_3" d="M15.3125 41.5945H21.875" stroke="#00E5E5" stroke-linecap="round" stroke-linejoin="round"/>
<path id="Shape_4" d="M15.3125 52.532H21.875" stroke="#00E5E5" stroke-linecap="round" stroke-linejoin="round"/>
<path id="Shape_5" d="M28.4375 67.8445H6.5625C4.14625 67.8445 2.1875 65.8857 2.1875 63.4695V17.532C2.1875 15.1157 4.14625 13.157 6.5625 13.157H17.5C17.5 7.11637 22.3969 2.21948 28.4375 2.21948C34.4781 2.21948 39.375 7.11637 39.375 13.157H50.3125C52.7287 13.157 54.6875 15.1157 54.6875 17.532V19.7195" stroke="#00E5E5" stroke-linecap="round" stroke-linejoin="round"/>
<path id="Shape_6" d="M28.4375 10.9695C29.0416 10.9695 29.5313 11.4592 29.5313 12.0632C29.5313 12.6673 29.0416 13.157 28.4375 13.157C27.8334 13.157 27.3438 12.6673 27.3438 12.0632C27.3438 11.4592 27.8334 10.9695 28.4375 10.9695" stroke="#00E5E5" stroke-linecap="round" stroke-linejoin="round"/>
</g>
</g>
</g>
</svg>
