<svg width="68" height="67" viewBox="0 0 68 67" fill="none" xmlns="http://www.w3.org/2000/svg">
<g id="Group">
<g id="database-share">
<path id="Oval" fill-rule="evenodd" clip-rule="evenodd" d="M34 13.7016C42.4569 13.7016 49.3125 10.881 49.3125 7.40156C49.3125 3.92217 42.4569 1.10156 34 1.10156C25.5431 1.10156 18.6875 3.92217 18.6875 7.40156C18.6875 10.881 25.5431 13.7016 34 13.7016Z" stroke="#E961FF" stroke-linecap="round" stroke-linejoin="round"/>
<path id="Shape" d="M18.6875 7.39844V15.7984C18.6875 19.276 25.5446 22.0984 34 22.0984C42.4554 22.0984 49.3125 19.2788 49.3125 15.7984V7.39844" stroke="#E961FF" stroke-linecap="round" stroke-linejoin="round"/>
<path id="Shape_2" d="M18.6875 15.7969V24.1969C18.6875 27.6745 25.5446 30.4969 34 30.4969C42.4554 30.4969 49.3125 27.6773 49.3125 24.1969V15.7969" stroke="#E961FF" stroke-linecap="round" stroke-linejoin="round"/>
<path id="Rectangle-path" fill-rule="evenodd" clip-rule="evenodd" d="M1.1875 40.3984C1.1875 39.57 1.85907 38.8984 2.6875 38.8984H25.9375C26.7659 38.8984 27.4375 39.57 27.4375 40.3984V54.1984C27.4375 55.0269 26.7659 55.6984 25.9375 55.6984H2.6875C1.85907 55.6984 1.1875 55.0269 1.1875 54.1984V40.3984Z" stroke="#00E5E5" stroke-linecap="round" stroke-linejoin="round"/>
<path id="Shape_3" d="M14.3125 55.7031V64.1031" stroke="#00E5E5" stroke-linecap="round" stroke-linejoin="round"/>
<path id="Shape_4" d="M7.75 64.1016H20.875" stroke="#00E5E5" stroke-linecap="round" stroke-linejoin="round"/>
<path id="Rectangle-path_2" fill-rule="evenodd" clip-rule="evenodd" d="M40.5625 40.3984C40.5625 39.57 41.2341 38.8984 42.0625 38.8984H65.3125C66.1409 38.8984 66.8125 39.57 66.8125 40.3984V54.1984C66.8125 55.0269 66.1409 55.6984 65.3125 55.6984H42.0625C41.2341 55.6984 40.5625 55.0269 40.5625 54.1984V40.3984Z" stroke="#00E5E5" stroke-linecap="round" stroke-linejoin="round"/>
<path id="Shape_5" d="M53.6875 55.7031V64.1031" stroke="#00E5E5" stroke-linecap="round" stroke-linejoin="round"/>
<path id="Shape_6" d="M47.125 64.1016H60.25" stroke="#00E5E5" stroke-linecap="round" stroke-linejoin="round"/>
<path id="Shape_7" d="M5.56543 30.5016V26.3016C5.56543 23.982 7.52418 22.1016 9.94043 22.1016" stroke="#00E5E5" stroke-linecap="round" stroke-linejoin="round"/>
<path id="Shape_8" d="M62.4404 30.5016V26.3016C62.4404 23.982 60.4817 22.1016 58.0654 22.1016" stroke="#00E5E5" stroke-linecap="round" stroke-linejoin="round"/>
</g>
</g>
</svg>
