<svg width="68" height="67" viewBox="0 0 68 67" fill="none" xmlns="http://www.w3.org/2000/svg">
<g id="Group">
<g id="server-4">
<path id="Shape" d="M18.6934 25.25C18.0893 25.25 17.5996 25.7201 17.5996 26.3C17.5996 26.8799 18.0893 27.35 18.6934 27.35C19.2974 27.35 19.7871 26.8799 19.7871 26.3C19.7879 26.0213 19.6729 25.7538 19.4676 25.5567C19.2623 25.3596 18.9837 25.2493 18.6934 25.25V25.25" stroke="#E961FF" stroke-linecap="round" stroke-linejoin="round"/>
<path id="Shape_2" d="M34.0059 26.3047H38.3809" stroke="#E961FF" stroke-linecap="round" stroke-linejoin="round"/>
<path id="Shape_3" d="M47.1309 26.3047H51.5059" stroke="#E961FF" stroke-linecap="round" stroke-linejoin="round"/>
<path id="Shape_4" d="M18.6934 42.0547C18.0893 42.0547 17.5996 42.5248 17.5996 43.1047C17.5996 43.6846 18.0893 44.1547 18.6934 44.1547C19.2974 44.1547 19.7871 43.6846 19.7871 43.1047C19.7879 42.826 19.6729 42.5585 19.4676 42.3614C19.2623 42.1643 18.9837 42.0539 18.6934 42.0547V42.0547" stroke="#E961FF" stroke-linecap="round" stroke-linejoin="round"/>
<path id="Shape_5" d="M34.0059 43.1016H38.3809" stroke="#E961FF" stroke-linecap="round" stroke-linejoin="round"/>
<path id="Shape_6" d="M47.1309 43.1016H51.5059" stroke="#E961FF" stroke-linecap="round" stroke-linejoin="round"/>
<path id="Shape_7" d="M34.0059 51.5V64.1" stroke="#00E5E5" stroke-linecap="round" stroke-linejoin="round"/>
<path id="Shape_8" d="M12.1309 64.1016H55.8779" stroke="#00E5E5" stroke-linecap="round" stroke-linejoin="round"/>
<path id="Shape_9" d="M65.7217 62C65.1176 62 64.6279 62.4701 64.6279 63.05C64.6279 63.6299 65.1176 64.1 65.7217 64.1C66.3257 64.1 66.8154 63.6299 66.8154 63.05C66.8154 62.4701 66.3257 62 65.7217 62V62" stroke="#E961FF" stroke-linecap="round" stroke-linejoin="round"/>
<path id="Shape_10" d="M2.28418 62C1.68012 62 1.19043 62.4701 1.19043 63.05C1.19043 63.6299 1.68012 64.1 2.28418 64.1C2.88824 64.1 3.37793 63.6299 3.37793 63.05C3.37793 62.4701 2.88824 62 2.28418 62V62" stroke="#E961FF" stroke-linecap="round" stroke-linejoin="round"/>
<path id="Shape_11" fill-rule="evenodd" clip-rule="evenodd" d="M60.25 26.2984C60.25 30.9376 56.3325 34.6984 51.5 34.6984H16.5C11.6675 34.6984 7.75 30.9376 7.75 26.2984C7.75 21.6592 11.6675 17.8984 16.5 17.8984H51.5C56.3325 17.8984 60.25 21.6592 60.25 26.2984Z" stroke="#00E5E5" stroke-linecap="round" stroke-linejoin="round"/>
<path id="Shape_12" d="M18.6934 8.45313C18.0893 8.45313 17.5996 8.92323 17.5996 9.50313C17.5996 10.083 18.0893 10.5531 18.6934 10.5531C19.2974 10.5531 19.7871 10.083 19.7871 9.50313C19.7879 9.22442 19.6729 8.95692 19.4676 8.75984C19.2623 8.56277 18.9837 8.45238 18.6934 8.45313V8.45313" stroke="#E961FF" stroke-linecap="round" stroke-linejoin="round"/>
<path id="Shape_13" d="M34.0059 9.5H38.3809" stroke="#E961FF" stroke-linecap="round" stroke-linejoin="round"/>
<path id="Shape_14" d="M47.1309 9.5H51.5059" stroke="#E961FF" stroke-linecap="round" stroke-linejoin="round"/>
<path id="Shape_15" fill-rule="evenodd" clip-rule="evenodd" d="M60.25 9.50156C60.25 14.1408 56.3325 17.9016 51.5 17.9016H16.5C11.6675 17.9016 7.75 14.1408 7.75 9.50156C7.75 4.86237 11.6675 1.10156 16.5 1.10156H51.5C56.3325 1.10156 60.25 4.86237 60.25 9.50156Z" stroke="#00E5E5" stroke-linecap="round" stroke-linejoin="round"/>
<path id="Shape_16" fill-rule="evenodd" clip-rule="evenodd" d="M60.25 43.1031C60.25 47.7423 56.3325 51.5031 51.5 51.5031H16.5C11.6675 51.5031 7.75 47.7423 7.75 43.1031C7.75 38.4639 11.6675 34.7031 16.5 34.7031H51.5C56.3325 34.7031 60.25 38.4639 60.25 43.1031Z" stroke="#00E5E5" stroke-linecap="round" stroke-linejoin="round"/>
</g>
</g>
</svg>
