<svg width="71" height="70" viewBox="0 0 71 70" fill="none" xmlns="http://www.w3.org/2000/svg">
<path d="M35.5 64.1667V68.5417" stroke="#00E5E5" stroke-linecap="round" stroke-linejoin="round"/>
<path d="M44.25 50.4146V58.3333C44.25 62.4925 40.75 64.1666 35.5 64.1666C30.25 64.1666 26.75 62.4925 26.75 58.3333V50.4146" stroke="#00E5E5" stroke-linecap="round" stroke-linejoin="round"/>
<path d="M35.5003 50.1578V37.9166L29.667 32.0833" stroke="#00E5E5" stroke-linecap="round" stroke-linejoin="round"/>
<path d="M42.7919 51.0416C46.2851 49.6567 49.2732 47.2398 51.3576 44.1132C53.442 40.9866 54.5237 37.2988 54.4585 33.5416C54.3694 28.5414 52.3434 23.7709 48.8072 20.2346C45.2709 16.6984 40.5004 14.6724 35.5002 14.5833C30.5 14.6724 25.7295 16.6984 22.1932 20.2346C18.657 23.7709 16.631 28.5414 16.5418 33.5416C16.4766 37.2988 17.5583 40.9866 19.6428 44.1132C21.7272 47.2398 24.7153 49.6567 28.2085 51.0416H42.7919Z" stroke="#00E5E5" stroke-linecap="round" stroke-linejoin="round"/>
<path d="M26.75 56.875H44.25" stroke="#00E5E5" stroke-linecap="round" stroke-linejoin="round"/>
<path d="M35.5 1.45825V7.29158" stroke="#00E5E5" stroke-linecap="round" stroke-linejoin="round"/>
<path d="M3.41699 30.625H10.0991" stroke="#00E5E5" stroke-linecap="round" stroke-linejoin="round"/>
<path d="M10.708 8.75L16.5413 14.5833" stroke="#E961FF" stroke-linecap="round" stroke-linejoin="round"/>
<path d="M67.5834 30.625H60.9014" stroke="#00E5E5" stroke-linecap="round" stroke-linejoin="round"/>
<path d="M60.2913 8.75L54.458 14.5833" stroke="#E961FF" stroke-linecap="round" stroke-linejoin="round"/>
<path d="M35.5 37.9166L41.3333 32.0833" stroke="#00E5E5" stroke-linecap="round" stroke-linejoin="round"/>
</svg>
