<svg width="40" height="40" viewBox="0 0 40 40" fill="none" xmlns="http://www.w3.org/2000/svg">
<g id="icon/40px/plus">
<path id="Vector (Stroke)" fill-rule="evenodd" clip-rule="evenodd" d="M20 8C20.9468 8 21.7143 8.76751 21.7143 9.71429V18.2857H30.2857C31.2325 18.2857 32 19.0532 32 20C32 20.9468 31.2325 21.7143 30.2857 21.7143H21.7143V30.2857C21.7143 31.2325 20.9468 32 20 32C19.0532 32 18.2857 31.2325 18.2857 30.2857V21.7143H9.71429C8.76751 21.7143 8 20.9468 8 20C8 19.0532 8.76751 18.2857 9.71429 18.2857H18.2857V9.71429C18.2857 8.76751 19.0532 8 20 8Z" fill="#CCCCCC"/>
</g>
</svg>
