<svg width="54" height="68" viewBox="0 0 54 68" fill="none" xmlns="http://www.w3.org/2000/svg">
<g id="Group">
<g id="archive-books">
<path id="Rectangle-path" fill-rule="evenodd" clip-rule="evenodd" d="M0.75 2.6875C0.75 1.85907 1.42157 1.1875 2.25 1.1875H25.5C26.3284 1.1875 27 1.85907 27 2.6875V65.3125C27 66.1409 26.3284 66.8125 25.5 66.8125H2.25C1.42157 66.8125 0.75 66.1409 0.75 65.3125V2.6875Z" stroke="#00E5E5" stroke-linecap="round" stroke-linejoin="round"/>
<path id="Rectangle-path_2" fill-rule="evenodd" clip-rule="evenodd" d="M27 2.6875C27 1.85907 27.6716 1.1875 28.5 1.1875H51.75C52.5784 1.1875 53.25 1.85907 53.25 2.6875V65.3125C53.25 66.1409 52.5784 66.8125 51.75 66.8125H28.5C27.6716 66.8125 27 66.1409 27 65.3125V2.6875Z" stroke="#00E5E5" stroke-linecap="round" stroke-linejoin="round"/>
<path id="Oval" fill-rule="evenodd" clip-rule="evenodd" d="M40.125 58.0625C42.5412 58.0625 44.5 56.1037 44.5 53.6875C44.5 51.2713 42.5412 49.3125 40.125 49.3125C37.7088 49.3125 35.75 51.2713 35.75 53.6875C35.75 56.1037 37.7088 58.0625 40.125 58.0625Z" stroke="#E961FF" stroke-linecap="round" stroke-linejoin="round"/>
<path id="Oval_2" fill-rule="evenodd" clip-rule="evenodd" d="M13.875 58.0625C16.2912 58.0625 18.25 56.1037 18.25 53.6875C18.25 51.2713 16.2912 49.3125 13.875 49.3125C11.4588 49.3125 9.5 51.2713 9.5 53.6875C9.5 56.1037 11.4588 58.0625 13.875 58.0625Z" stroke="#E961FF" stroke-linecap="round" stroke-linejoin="round"/>
<path id="Rectangle-path_3" fill-rule="evenodd" clip-rule="evenodd" d="M9.5 12.625C9.5 12.3489 9.72386 12.125 10 12.125H17.75C18.0261 12.125 18.25 12.3489 18.25 12.625V40.0625C18.25 40.3386 18.0261 40.5625 17.75 40.5625H10C9.72386 40.5625 9.5 40.3386 9.5 40.0625V12.625Z" stroke="#E961FF" stroke-linecap="round" stroke-linejoin="round"/>
<path id="Rectangle-path_4" fill-rule="evenodd" clip-rule="evenodd" d="M35.75 12.625C35.75 12.3489 35.9739 12.125 36.25 12.125H44C44.2761 12.125 44.5 12.3489 44.5 12.625V40.0625C44.5 40.3386 44.2761 40.5625 44 40.5625H36.25C35.9739 40.5625 35.75 40.3386 35.75 40.0625V12.625Z" stroke="#E961FF" stroke-linecap="round" stroke-linejoin="round"/>
</g>
</g>
</svg>
