<svg width="71" height="70" viewBox="0 0 71 70" fill="none" xmlns="http://www.w3.org/2000/svg">
<path d="M57.3737 1.45825H16.5404C13.3187 1.45825 10.707 4.06992 10.707 7.29159V62.7083C10.707 65.9299 13.3187 68.5416 16.5404 68.5416H57.3737C60.5954 68.5416 63.207 65.9299 63.207 62.7083V7.29159C63.207 4.06992 60.5954 1.45825 57.3737 1.45825Z" stroke="#00E5E5" stroke-linecap="round" stroke-linejoin="round"/>
<path d="M7.79297 13.125H13.6263" stroke="#00E5E5" stroke-linecap="round" stroke-linejoin="round"/>
<path d="M7.79297 21.875H13.6263" stroke="#00E5E5" stroke-linecap="round" stroke-linejoin="round"/>
<path d="M7.79297 30.625H13.6263" stroke="#00E5E5" stroke-linecap="round" stroke-linejoin="round"/>
<path d="M7.79297 39.375H13.6263" stroke="#00E5E5" stroke-linecap="round" stroke-linejoin="round"/>
<path d="M7.79297 48.125H13.6263" stroke="#00E5E5" stroke-linecap="round" stroke-linejoin="round"/>
<path d="M7.79297 56.875H13.6263" stroke="#00E5E5" stroke-linecap="round" stroke-linejoin="round"/>
<path d="M19.3906 21.7029L26.099 28.4112C26.6247 28.9501 27.2522 29.3793 27.9451 29.6738C28.638 29.9683 29.3825 30.1223 30.1354 30.1269C30.8883 30.1315 31.6345 29.9865 32.331 29.7004C33.0274 29.4144 33.6601 28.9929 34.1924 28.4604C34.7246 27.928 35.1459 27.2951 35.4317 26.5986C35.7175 25.902 35.8622 25.1557 35.8574 24.4028C35.8525 23.6499 35.6982 22.9055 35.4035 22.2127C35.1087 21.52 34.6793 20.8926 34.1402 20.367L27.4319 13.6587" stroke="#E961FF" stroke-linecap="round" stroke-linejoin="round"/>
<path d="M23.4102 17.6838L51.6085 45.8822" stroke="#E961FF" stroke-linecap="round" stroke-linejoin="round"/>
<path d="M43.9554 28.4083L26.3242 46.0367" stroke="#E961FF" stroke-linecap="round" stroke-linejoin="round"/>
<path d="M46.637 17.6837C47.165 17.1557 47.7918 16.7369 48.4816 16.4511C49.1715 16.1654 49.9109 16.0183 50.6576 16.0183C51.4043 16.0183 52.1437 16.1654 52.8335 16.4511C53.5234 16.7369 54.1502 17.1557 54.6782 17.6837C55.2062 18.2117 55.625 18.8385 55.9108 19.5284C56.1965 20.2182 56.3436 20.9576 56.3436 21.7043C56.3436 22.451 56.1965 23.1904 55.9108 23.8803C55.625 24.5701 55.2062 25.197 54.6782 25.725L51.9978 28.4083C50.923 29.4344 49.4893 29.9992 48.0034 29.9817C46.5176 29.9642 45.0975 29.3659 44.0472 28.3148C42.9968 27.2637 42.3996 25.8432 42.3832 24.3573C42.3668 22.8715 42.9325 21.4382 43.9595 20.3641L46.637 17.6837Z" stroke="#E961FF" stroke-linecap="round" stroke-linejoin="round"/>
</svg>
