<svg width="68" height="68" viewBox="0 0 68 68" fill="none" xmlns="http://www.w3.org/2000/svg">
<g id="Group">
<g id="data-file-search">
<path id="Shape" d="M9.9375 18.6875V44.9375H20.875" stroke="#00E5E5" stroke-linecap="round" stroke-linejoin="round"/>
<path id="Shape_2" d="M9.9375 36.1878L17.7804 28.3449C18.601 27.5238 19.7142 27.0625 20.875 27.0625C22.0358 27.0625 23.149 27.5238 23.9696 28.3449L25.2733 29.6486" stroke="#00E5E5" stroke-linecap="round" stroke-linejoin="round"/>
<path id="Shape_3" d="M25.25 58.0625H5.5625C3.14625 58.0625 1.1875 56.1037 1.1875 53.6875V5.5625C1.1875 3.14625 3.14625 1.1875 5.5625 1.1875H36.5638C37.7233 1.18775 38.8353 1.64828 39.6554 2.46792L48.0321 10.8446C48.8517 11.6647 49.3123 12.7767 49.3125 13.9362V20.875" stroke="#00E5E5" stroke-linecap="round" stroke-linejoin="round"/>
<path id="Oval" fill-rule="evenodd" clip-rule="evenodd" d="M44.9375 60.25C53.3944 60.25 60.25 53.3944 60.25 44.9375C60.25 36.4806 53.3944 29.625 44.9375 29.625C36.4806 29.625 29.625 36.4806 29.625 44.9375C29.625 53.3944 36.4806 60.25 44.9375 60.25Z" stroke="#E961FF" stroke-linecap="round" stroke-linejoin="round"/>
<path id="Shape_4" d="M66.8125 66.812L55.7642 55.7637" stroke="#E961FF" stroke-linecap="round" stroke-linejoin="round"/>
</g>
</g>
</svg>
