<svg width="68" height="68" viewBox="0 0 68 68" fill="none" xmlns="http://www.w3.org/2000/svg">
<g id="Group">
<g id="business-money-basket">
<path id="Shape" d="M18.5942 15.7168L4.9792 21.731C2.7693 22.7073 1.76909 25.2901 2.74504 27.5001L10.4567 44.968" stroke="#E961FF" stroke-linecap="round" stroke-linejoin="round"/>
<path id="Shape_2" d="M34.0583 44.9673L63.9775 31.7519C65.0393 31.2836 65.8715 30.4126 66.291 29.3306C66.7106 28.2487 66.6831 27.0444 66.2146 25.9827L56.4146 3.79561C55.4383 1.58571 52.8555 0.5855 50.6454 1.56144L35.8113 8.11228" stroke="#E961FF" stroke-linecap="round" stroke-linejoin="round"/>
<path id="Shape_3" d="M10.3489 52.6875L14.8289 66.5854" stroke="#00E5E5" stroke-linecap="round" stroke-linejoin="round"/>
<path id="Shape_4" d="M25.3318 52.6875L27.6301 66.5854" stroke="#00E5E5" stroke-linecap="round" stroke-linejoin="round"/>
<path id="Shape_5" d="M62.7701 66.5854L66.7426 56.5579C66.9418 55.6133 66.7051 54.6292 66.0981 53.8785C65.4911 53.1279 64.5784 52.6904 63.613 52.6875H4.38715C3.42178 52.6904 2.50903 53.1279 1.90204 53.8785C1.29505 54.6292 1.05834 55.6133 1.25757 56.5579L5.23007 66.5854" stroke="#00E5E5" stroke-linecap="round" stroke-linejoin="round"/>
<path id="Shape_6" d="M57.7097 52.6875L53.2297 66.5854" stroke="#00E5E5" stroke-linecap="round" stroke-linejoin="round"/>
<path id="Shape_7" d="M42.6685 52.6875L40.4285 66.5854" stroke="#00E5E5" stroke-linecap="round" stroke-linejoin="round"/>
<path id="Shape_8" d="M30.252 31.7832C32.0824 32.847 34.3171 32.9494 36.237 32.0573C39.0417 31.2706 40.7253 28.4105 40.052 25.5765C38.5119 23.1027 35.2933 22.2865 32.7604 23.7273C30.226 25.1671 27.0069 24.3482 25.4687 21.8723C24.7972 19.0393 26.4805 16.1811 29.2837 15.3944C31.2035 14.5029 33.4374 14.6042 35.2687 15.6657" stroke="#E961FF" stroke-linecap="round" stroke-linejoin="round"/>
<path id="Shape_9" d="M36.2371 32.0586L37.3921 34.8323" stroke="#E961FF" stroke-linecap="round" stroke-linejoin="round"/>
<path id="Shape_10" d="M28.1375 12.6211L29.2925 15.3948" stroke="#E961FF" stroke-linecap="round" stroke-linejoin="round"/>
</g>
</g>
</svg>
