<svg width="68" height="68" viewBox="0 0 68 68" fill="none" xmlns="http://www.w3.org/2000/svg">
<g id="Group">
<g id="cog-double">
<path id="Shape" fill-rule="evenodd" clip-rule="evenodd" d="M16.427 34.4408C17.0054 35.0797 17.827 35.4443 18.6889 35.4443C19.5507 35.4443 20.3724 35.0797 20.9508 34.4408L22.4091 32.8191C23.2736 31.8624 24.6465 31.5531 25.8377 32.0469C27.0288 32.5406 27.7804 33.7305 27.7145 35.0183L27.6008 37.197C27.5549 38.0612 27.8781 38.9042 28.49 39.5161C29.1019 40.128 29.9449 40.4512 30.8091 40.4053L32.9878 40.2945C34.2756 40.2286 35.4655 40.9802 35.9592 42.1713C36.453 43.3625 36.1437 44.7355 35.187 45.5999L33.5653 47.0583C32.9264 47.6366 32.5618 48.4583 32.5618 49.3201C32.5618 50.182 32.9264 51.0036 33.5653 51.582L35.187 53.0403C36.1437 53.9048 36.453 55.2778 35.9592 56.4689C35.4655 57.6601 34.2756 58.4117 32.9878 58.3458L30.8091 58.232C29.9449 58.1861 29.1019 58.5094 28.49 59.1213C27.8781 59.7332 27.5549 60.5762 27.6008 61.4403L27.7145 63.6191C27.7804 64.9068 27.0288 66.0967 25.8377 66.5905C24.6465 67.0842 23.2736 66.775 22.4091 65.8183L20.9508 64.1966C20.3724 63.5576 19.5507 63.1931 18.6889 63.1931C17.827 63.1931 17.0054 63.5576 16.427 64.1966L14.9687 65.8183C14.1042 66.775 12.7312 67.0842 11.5401 66.5905C10.3489 66.0967 9.59736 64.9068 9.66326 63.6191L9.77409 61.4403C9.81998 60.5762 9.49673 59.7332 8.88481 59.1213C8.2729 58.5094 7.42991 58.1861 6.56576 58.232L4.38701 58.3458C3.10306 58.4024 1.92158 57.6475 1.43336 56.4586C0.945144 55.2698 1.25511 53.9025 2.20826 53.0403L3.82992 51.582C4.4689 51.0036 4.83344 50.182 4.83344 49.3201C4.83344 48.4583 4.4689 47.6366 3.82992 47.0583L2.20826 45.5999C1.25153 44.7355 0.942301 43.3625 1.43605 42.1713C1.9298 40.9802 3.11968 40.2286 4.40742 40.2945L6.58617 40.4053C7.45033 40.4512 8.29332 40.128 8.90523 39.5161C9.51714 38.9042 9.8404 38.0612 9.79451 37.197L9.68367 35.0183C9.63614 33.7443 10.3865 32.5753 11.5646 32.0881C12.7427 31.6009 14.0995 31.8983 14.9658 32.8337L16.427 34.4408Z" stroke="#00E5E5" stroke-linecap="round" stroke-linejoin="round"/>
<path id="Oval" fill-rule="evenodd" clip-rule="evenodd" d="M18.6904 53.6914C21.1067 53.6914 23.0654 51.7327 23.0654 49.3164C23.0654 46.9002 21.1067 44.9414 18.6904 44.9414C16.2742 44.9414 14.3154 46.9002 14.3154 49.3164C14.3154 51.7327 16.2742 53.6914 18.6904 53.6914Z" stroke="#00E5E5" stroke-linecap="round" stroke-linejoin="round"/>
<path id="Shape_2" fill-rule="evenodd" clip-rule="evenodd" d="M47.052 3.81576C47.6304 4.45474 48.452 4.81928 49.3139 4.81928C50.1757 4.81928 50.9974 4.45474 51.5758 3.81576L53.0341 2.1941C53.8986 1.23737 55.2715 0.928141 56.4627 1.42189C57.6538 1.91564 58.4054 3.10552 58.3395 4.39326L58.2258 6.57201C58.1799 7.43617 58.5031 8.27916 59.115 8.89107C59.7269 9.50298 60.5699 9.82624 61.4341 9.78035L63.6128 9.66951C64.9006 9.60362 66.0905 10.3552 66.5842 11.5463C67.078 12.7375 66.7687 14.1105 65.812 14.9749L64.1903 16.4333C63.5514 17.0116 63.1868 17.8333 63.1868 18.6951C63.1868 19.557 63.5514 20.3786 64.1903 20.957L65.812 22.4153C66.7687 23.2798 67.078 24.6528 66.5842 25.8439C66.0905 27.0351 64.9006 27.7867 63.6128 27.7208L61.4341 27.607C60.5699 27.5611 59.7269 27.8844 59.115 28.4963C58.5031 29.1082 58.1799 29.9512 58.2258 30.8153L58.3395 32.9941C58.4054 34.2818 57.6538 35.4717 56.4627 35.9655C55.2715 36.4592 53.8986 36.15 53.0341 35.1933L51.5758 33.5716C50.9974 32.9326 50.1757 32.5681 49.3139 32.5681C48.452 32.5681 47.6304 32.9326 47.052 33.5716L45.5937 35.1933C44.7292 36.15 43.3562 36.4592 42.1651 35.9655C40.9739 35.4717 40.2224 34.2818 40.2883 32.9941L40.3991 30.8153C40.445 29.9512 40.1217 29.1082 39.5098 28.4963C38.8979 27.8844 38.0549 27.5611 37.1908 27.607L35.012 27.7208C33.7281 27.7774 32.5466 27.0225 32.0584 25.8336C31.5701 24.6448 31.8801 23.2775 32.8333 22.4153L34.4549 20.957C35.0939 20.3786 35.4584 19.557 35.4584 18.6951C35.4584 17.8333 35.0939 17.0116 34.4549 16.4333L32.8333 14.9749C31.8765 14.1105 31.5673 12.7375 32.061 11.5463C32.5548 10.3552 33.7447 9.60362 35.0324 9.66951L37.2112 9.78035C38.0753 9.82624 38.9183 9.50298 39.5302 8.89107C40.1421 8.27916 40.4654 7.43617 40.4195 6.57201L40.3087 4.39326C40.2611 3.11929 41.0115 1.95033 42.1896 1.46309C43.3677 0.975858 44.7245 1.2733 45.5908 2.20868L47.052 3.81576Z" stroke="#E961FF" stroke-linecap="round" stroke-linejoin="round"/>
<path id="Oval_2" fill-rule="evenodd" clip-rule="evenodd" d="M49.3154 23.0664C51.7317 23.0664 53.6904 21.1077 53.6904 18.6914C53.6904 16.2752 51.7317 14.3164 49.3154 14.3164C46.8992 14.3164 44.9404 16.2752 44.9404 18.6914C44.9404 21.1077 46.8992 23.0664 49.3154 23.0664Z" stroke="#E961FF" stroke-linecap="round" stroke-linejoin="round"/>
</g>
</g>
</svg>
