<svg width="70" height="70" viewBox="0 0 70 70" fill="none" xmlns="http://www.w3.org/2000/svg">
<g id="saving-piggy-coins">
<path id="Vector" d="M16.0531 33.4105C24.1072 33.4105 30.6364 32.1046 30.6364 30.4938C30.6364 28.883 24.1072 27.5771 16.0531 27.5771C7.99891 27.5771 1.46973 28.883 1.46973 30.4938C1.46973 32.1046 7.99891 33.4105 16.0531 33.4105Z" stroke="#00E5E5" stroke-linecap="round" stroke-linejoin="round"/>
<path id="Vector_2" d="M30.6247 30.4937V39.2437C30.6247 40.8566 24.0972 42.1603 16.0413 42.1603C7.98551 42.1603 1.45801 40.8566 1.45801 39.2437V30.4937" stroke="#00E5E5" stroke-linecap="round" stroke-linejoin="round"/>
<path id="Vector_3" d="M30.6247 39.2437V47.9937C30.6247 49.6066 24.0972 50.9103 16.0413 50.9103C7.98551 50.9103 1.45801 49.6066 1.45801 47.9937V39.2437" stroke="#00E5E5" stroke-linecap="round" stroke-linejoin="round"/>
<path id="Vector_4" d="M30.6247 47.9937V56.7437C30.6247 58.3566 24.0972 59.6603 16.0413 59.6603C7.98551 59.6603 1.45801 58.3566 1.45801 56.7437V47.9937" stroke="#00E5E5" stroke-linecap="round" stroke-linejoin="round"/>
<path id="Vector_5" d="M30.6247 56.7437V65.4937C30.6247 67.1066 24.0972 68.4103 16.0413 68.4103C7.98551 68.4103 1.45801 67.1066 1.45801 65.4937V56.7437" stroke="#00E5E5" stroke-linecap="round" stroke-linejoin="round"/>
<path id="Vector_6" d="M12.7783 20.2825C16.6954 11.8358 26.5421 5.83332 38.06 5.83332C41.0194 5.83357 43.9643 6.24586 46.81 7.05832C48.6273 4.47592 51.252 2.57147 54.2708 1.64498C54.4877 1.58416 54.7157 1.57441 54.937 1.6165C55.1583 1.65859 55.3669 1.75136 55.5463 1.88756C55.7257 2.02375 55.8711 2.19965 55.9712 2.40148C56.0712 2.6033 56.1232 2.82556 56.1229 3.05082V11.6812C59.2155 14.3907 61.5529 17.8557 62.9071 21.7379H65.64C66.4135 21.7379 67.1554 22.0452 67.7024 22.5922C68.2494 23.1392 68.5566 23.881 68.5566 24.6546V33.4046C68.5566 34.1781 68.2494 34.92 67.7024 35.467C67.1554 36.0139 66.4135 36.3212 65.64 36.3212H62.91C61.3741 40.1446 58.7276 43.42 55.3121 45.7246L57.6687 52.115C57.8738 52.6713 57.9674 53.2626 57.944 53.8551C57.9205 54.4476 57.7807 55.0297 57.5323 55.5681C57.284 56.1065 56.932 56.5907 56.4965 56.9931C56.061 57.3955 55.5505 57.7082 54.9941 57.9133C54.4378 58.1184 53.8465 58.2119 53.254 58.1885C52.6616 58.1651 52.0795 58.0253 51.5411 57.7769C51.0026 57.5285 50.5184 57.1766 50.116 56.7411C49.7136 56.3056 49.4009 55.7951 49.1958 55.2387L47.1337 49.6533C44.1909 50.5365 41.1354 50.9875 38.0629 50.9921" stroke="#00E5E5" stroke-linecap="round" stroke-linejoin="round"/>
<path id="Vector_7" d="M50.3239 20.2854C50.1797 20.2854 50.0387 20.3282 49.9188 20.4083C49.7989 20.4884 49.7054 20.6023 49.6502 20.7355C49.595 20.8688 49.5806 21.0154 49.6087 21.1568C49.6369 21.2983 49.7063 21.4282 49.8083 21.5302C49.9103 21.6321 50.0402 21.7016 50.1816 21.7297C50.3231 21.7579 50.4697 21.7434 50.6029 21.6882C50.7362 21.633 50.8501 21.5396 50.9302 21.4197C51.0103 21.2998 51.0531 21.1588 51.0531 21.0146C51.0531 20.8212 50.9762 20.6357 50.8395 20.499C50.7027 20.3622 50.5173 20.2854 50.3239 20.2854Z" stroke="#E961FF" stroke-linecap="round" stroke-linejoin="round"/>
<path id="Vector_8" d="M23.333 17.3687C26.3559 14.0342 30.5183 11.953 34.9997 11.5354" stroke="#E961FF" stroke-linecap="round" stroke-linejoin="round"/>
</g>
</svg>
