<svg width="70" height="70" viewBox="0 0 70 70" fill="none" xmlns="http://www.w3.org/2000/svg">
<g id="Interface-Essential / TouchID / touch-id-approved-1">
<g id="Group">
<g id="touch-id-approved-1">
<path id="Shape" d="M17.5 67.8125H6.56543C4.14918 67.8125 2.19043 65.8537 2.19043 63.4375V6.5625C2.19043 4.14625 4.14918 2.1875 6.56543 2.1875H17.5" stroke="#00E5E5" stroke-linecap="round" stroke-linejoin="round"/>
<path id="Shape_2" d="M52.5 67.8125H63.4375C65.8537 67.8125 67.8125 65.8537 67.8125 63.4375V6.5625C67.8125 4.14625 65.8537 2.1875 63.4375 2.1875H52.5" stroke="#00E5E5" stroke-linecap="round" stroke-linejoin="round"/>
<path id="Shape_3" d="M48.1279 52.5L32.8154 67.8125L26.2529 59.0625" stroke="#E961FF" stroke-linecap="round" stroke-linejoin="round"/>
<path id="Shape_4" d="M48.125 41.5625V24.0625C48.1307 21.7589 47.527 19.4948 46.375 17.5" stroke="#E961FF" stroke-linecap="round" stroke-linejoin="round"/>
<path id="Shape_5" d="M21.8779 24.0625V41.5625" stroke="#E961FF" stroke-linecap="round" stroke-linejoin="round"/>
<path id="Shape_6" d="M39.2936 11.6666C33.6734 9.73344 27.4552 11.8118 24.127 16.7358" stroke="#E961FF" stroke-linecap="round" stroke-linejoin="round"/>
<path id="Shape_7" d="M30.625 26.25V24.0625C30.625 21.6463 32.5838 19.6875 35 19.6875C37.4162 19.6875 39.375 21.6463 39.375 24.0625V41.5625" stroke="#E961FF" stroke-linecap="round" stroke-linejoin="round"/>
<path id="Shape_8" d="M30.6279 35V41.5625" stroke="#E961FF" stroke-linecap="round" stroke-linejoin="round"/>
</g>
</g>
</g>
</svg>
