<svg width="24" height="18" viewBox="0 0 24 18" fill="none" xmlns="http://www.w3.org/2000/svg">
<path d="M0.673584 1.5C0.673584 0.809644 1.23323 0.25 1.92358 0.25H21.9236C22.6139 0.25 23.1736 0.809644 23.1736 1.5C23.1736 2.19036 22.6139 2.75 21.9236 2.75H1.92358C1.23323 2.75 0.673584 2.19036 0.673584 1.5Z" fill="url(#paint0_linear_503_3267)"/>
<path d="M0.673584 9C0.673584 8.30964 1.23323 7.75 1.92358 7.75H21.9236C22.6139 7.75 23.1736 8.30964 23.1736 9C23.1736 9.69036 22.6139 10.25 21.9236 10.25H1.92358C1.23323 10.25 0.673584 9.69036 0.673584 9Z" fill="url(#paint1_linear_503_3267)"/>
<path d="M1.92358 15.25C1.23323 15.25 0.673584 15.8096 0.673584 16.5C0.673584 17.1904 1.23323 17.75 1.92358 17.75H21.9236C22.6139 17.75 23.1736 17.1904 23.1736 16.5C23.1736 15.8096 22.6139 15.25 21.9236 15.25H1.92358Z" fill="url(#paint2_linear_503_3267)"/>
<defs>
<linearGradient id="paint0_linear_503_3267" x1="21.1799" y1="1.75391" x2="7.61135" y2="19.9423" gradientUnits="userSpaceOnUse">
<stop stop-color="#00E5E5"/>
<stop offset="0.510417" stop-color="#72A5F2"/>
<stop offset="1" stop-color="#E961FF"/>
</linearGradient>
<linearGradient id="paint1_linear_503_3267" x1="21.1799" y1="1.75391" x2="7.61135" y2="19.9423" gradientUnits="userSpaceOnUse">
<stop stop-color="#00E5E5"/>
<stop offset="0.510417" stop-color="#72A5F2"/>
<stop offset="1" stop-color="#E961FF"/>
</linearGradient>
<linearGradient id="paint2_linear_503_3267" x1="21.1799" y1="1.75391" x2="7.61135" y2="19.9423" gradientUnits="userSpaceOnUse">
<stop stop-color="#00E5E5"/>
<stop offset="0.510417" stop-color="#72A5F2"/>
<stop offset="1" stop-color="#E961FF"/>
</linearGradient>
</defs>
</svg>
