<svg width="70" height="70" viewBox="0 0 70 70" fill="none" xmlns="http://www.w3.org/2000/svg">
<g id="browser-user-help-message" clip-path="url(#clip0_2640_7193)">
<path id="Vector" d="M46.666 16.0415C46.666 15.1762 46.9226 14.3304 47.4033 13.6109C47.8841 12.8914 48.5674 12.3307 49.3668 11.9995C50.1662 11.6684 51.0459 11.5818 51.8945 11.7506C52.7432 11.9194 53.5227 12.3361 54.1346 12.9479C54.7465 13.5598 55.1631 14.3393 55.332 15.188C55.5008 16.0367 55.4141 16.9163 55.083 17.7157C54.7519 18.5152 54.1911 19.1985 53.4716 19.6792C52.7522 20.1599 51.9063 20.4165 51.041 20.4165" stroke="#E961FF" stroke-linecap="round" stroke-linejoin="round"/>
<path id="Vector_2" d="M51.0417 24.7917C51.1859 24.7917 51.3269 24.8345 51.4468 24.9146C51.5667 24.9948 51.6601 25.1086 51.7153 25.2419C51.7705 25.3751 51.785 25.5217 51.7568 25.6632C51.7287 25.8046 51.6592 25.9345 51.5573 26.0365C51.4553 26.1385 51.3254 26.2079 51.1839 26.2361C51.0425 26.2642 50.8959 26.2498 50.7626 26.1946C50.6294 26.1394 50.5155 26.0459 50.4354 25.926C50.3553 25.8061 50.3125 25.6651 50.3125 25.5209C50.3125 25.3275 50.3893 25.1421 50.5261 25.0053C50.6628 24.8686 50.8483 24.7917 51.0417 24.7917Z" stroke="#E961FF" stroke-linecap="round" stroke-linejoin="round"/>
<path id="Vector_3" d="M50.8463 1.45825C48.5429 1.46596 46.2641 1.93182 44.1425 2.8287C42.0209 3.72558 40.099 5.03556 38.4885 6.68237C36.8781 8.32918 35.6114 10.2799 34.7621 12.421C33.9128 14.5621 33.4979 16.8507 33.5417 19.1537C33.4104 22.4104 34.1999 25.6381 35.8196 28.4666L30.625 39.3749L41.5362 34.1774C43.8623 35.6194 46.4912 36.5018 49.2161 36.7555C51.941 37.0091 54.6876 36.6269 57.2397 35.639C59.7919 34.6511 62.08 33.0844 63.924 31.0623C65.768 29.0401 67.1176 26.6176 67.8666 23.9854C68.6155 21.3532 68.7435 18.5831 68.2403 15.893C67.7371 13.203 66.6166 10.6664 64.9668 8.48288C63.3171 6.29936 61.1831 4.52845 58.7329 3.30952C56.2826 2.09059 53.5829 1.45688 50.8463 1.45825V1.45825Z" stroke="#E961FF" stroke-linecap="round" stroke-linejoin="round"/>
<path id="Vector_4" d="M48.125 42.2947V68.5447" stroke="#00E5E5" stroke-linecap="round" stroke-linejoin="round"/>
<path id="Vector_5" d="M1.45898 68.5418V16.0418C1.45898 14.4947 2.07357 13.011 3.16753 11.917C4.26149 10.8231 5.74522 10.2085 7.29232 10.2085H29.1673" stroke="#00E5E5" stroke-linecap="round" stroke-linejoin="round"/>
<path id="Vector_6" d="M27.709 21.8779H1.45898" stroke="#00E5E5" stroke-linecap="round" stroke-linejoin="round"/>
<path id="Vector_7" d="M23.334 55.4194C26.9584 55.4194 29.8965 52.4813 29.8965 48.8569C29.8965 45.2326 26.9584 42.2944 23.334 42.2944C19.7096 42.2944 16.7715 45.2326 16.7715 48.8569C16.7715 52.4813 19.7096 55.4194 23.334 55.4194Z" stroke="#00E5E5" stroke-linecap="round" stroke-linejoin="round"/>
<path id="Vector_8" d="M36.459 68.5417C35.7153 65.6252 34.0214 63.0394 31.6446 61.1927C29.2679 59.346 26.3438 58.3435 23.334 58.3435C20.3241 58.3435 17.4 59.346 15.0233 61.1927C12.6466 63.0394 10.9527 65.6252 10.209 68.5417" stroke="#00E5E5" stroke-linecap="round" stroke-linejoin="round"/>
<path id="Vector_9" d="M20.416 16.0444H27.7077" stroke="#00E5E5" stroke-linecap="round" stroke-linejoin="round"/>
</g>
<defs>
<clipPath id="clip0_2640_7193">
<rect width="70" height="70" fill="white"/>
</clipPath>
</defs>
</svg>
