<svg width="70" height="70" viewBox="0 0 70 70" fill="none" xmlns="http://www.w3.org/2000/svg">
<g id="Interface-Essential / Iris-Scan / iris-scan-2">
<g id="Group">
<g id="iris-scan-2">
<path id="Oval" fill-rule="evenodd" clip-rule="evenodd" d="M35 39.375C37.4162 39.375 39.375 37.4162 39.375 35C39.375 32.5838 37.4162 30.625 35 30.625C32.5838 30.625 30.625 32.5838 30.625 35C30.625 37.4162 32.5838 39.375 35 39.375Z" stroke="#E961FF"/>
<path id="Shape" fill-rule="evenodd" clip-rule="evenodd" d="M35.0001 13.1249C23.243 12.9062 11.0835 22.0412 3.43887 31.3833C1.77428 33.4995 1.77428 36.48 3.43887 38.5962C10.9143 47.7516 23.0418 57.0937 35.0001 56.8749C46.9585 57.0995 59.083 47.7574 66.5672 38.6049C68.2318 36.4888 68.2318 33.5082 66.5672 31.392C58.9168 22.0441 46.7572 12.9091 35.0001 13.1249Z" stroke="#00E5E5" stroke-linecap="round" stroke-linejoin="round"/>
<path id="Oval_2" fill-rule="evenodd" clip-rule="evenodd" d="M35 50.3125C43.4569 50.3125 50.3125 43.4569 50.3125 35C50.3125 26.5431 43.4569 19.6875 35 19.6875C26.5431 19.6875 19.6875 26.5431 19.6875 35C19.6875 43.4569 26.5431 50.3125 35 50.3125Z" stroke="#E961FF" stroke-linecap="round" stroke-linejoin="round"/>
<path id="Shape_2" d="M35 13.125V24.0625" stroke="#E961FF" stroke-linecap="round" stroke-linejoin="round"/>
<path id="Shape_3" d="M35 45.9375V56.875" stroke="#E961FF" stroke-linecap="round" stroke-linejoin="round"/>
<path id="Shape_4" d="M45.9375 35H54.6875" stroke="#E961FF" stroke-linecap="round" stroke-linejoin="round"/>
<path id="Shape_5" d="M15.3125 35H24.0625" stroke="#E961FF" stroke-linecap="round" stroke-linejoin="round"/>
</g>
</g>
</g>
</svg>
