<svg width="70" height="70" viewBox="0 0 70 70" fill="none" xmlns="http://www.w3.org/2000/svg">
<g id="Work-Office-Companies / Tasks / task-list-star">
<g id="Group">
<g id="task-list-star">
<path id="Shape" fill-rule="evenodd" clip-rule="evenodd" d="M52.3455 34.0987L56.8401 45.9695H65.5901C66.4942 45.934 67.3233 46.47 67.662 47.309C68.0007 48.148 67.7762 49.1094 67.1009 49.7116L59.5176 55.0054L63.7234 64.6712C64.1001 65.5786 63.8567 66.6251 63.1182 67.2732C62.3798 67.9212 61.3105 68.0267 60.4597 67.5354L50.2834 61.8158L40.113 67.5354C39.2622 68.0267 38.1929 67.9212 37.4545 67.2732C36.716 66.6251 36.4726 65.5786 36.8493 64.6712L41.058 55.0054L33.4747 49.7116C32.7973 49.1118 32.5701 48.1509 32.9071 47.3113C33.2442 46.4716 34.0727 45.9345 34.9768 45.9695H43.7268L48.2301 34.0987C48.636 33.3395 49.4269 32.8655 50.2878 32.8655C51.1487 32.8655 51.9396 33.3395 52.3455 34.0987Z" stroke="#E961FF" stroke-linecap="round" stroke-linejoin="round"/>
<path id="Shape_2" d="M15.3125 30.657H35" stroke="#00E5E5" stroke-linecap="round" stroke-linejoin="round"/>
<path id="Shape_3" d="M15.3125 41.5945H21.875" stroke="#00E5E5" stroke-linecap="round" stroke-linejoin="round"/>
<path id="Shape_4" d="M15.3125 52.532H21.875" stroke="#00E5E5" stroke-linecap="round" stroke-linejoin="round"/>
<path id="Shape_5" d="M26.25 67.8445H6.5625C4.14625 67.8445 2.1875 65.8857 2.1875 63.4695V17.532C2.1875 15.1157 4.14625 13.157 6.5625 13.157H17.5C17.5 7.11637 22.3969 2.21948 28.4375 2.21948C34.4781 2.21948 39.375 7.11637 39.375 13.157H50.3125C52.7287 13.157 54.6875 15.1157 54.6875 17.532V24.0945" stroke="#00E5E5" stroke-linecap="round" stroke-linejoin="round"/>
<path id="Shape_6" d="M28.4375 10.9695C29.0416 10.9695 29.5313 11.4592 29.5313 12.0632C29.5313 12.6673 29.0416 13.157 28.4375 13.157C27.8334 13.157 27.3438 12.6673 27.3438 12.0632C27.3438 11.4592 27.8334 10.9695 28.4375 10.9695" stroke="#00E5E5" stroke-linecap="round" stroke-linejoin="round"/>
</g>
</g>
</g>
</svg>
