<svg width="70" height="70" viewBox="0 0 70 70" fill="none" xmlns="http://www.w3.org/2000/svg">
<g id="Interface-Essential / Wireless / wifi-signal-2">
<g id="Group">
<g id="wifi-signal-2">
<path id="Oval" fill-rule="evenodd" clip-rule="evenodd" d="M35 36.6597C38.6244 36.6597 41.5625 33.7215 41.5625 30.0972C41.5625 26.4728 38.6244 23.5347 35 23.5347C31.3756 23.5347 28.4375 26.4728 28.4375 30.0972C28.4375 33.7215 31.3756 36.6597 35 36.6597Z" stroke="#E961FF" stroke-linecap="round" stroke-linejoin="round"/>
<path id="Shape" d="M35 36.6597V64.9047" stroke="#E961FF" stroke-linecap="round" stroke-linejoin="round"/>
<path id="Shape_2" d="M56.2507 55.0959C63.5855 48.8621 67.8128 39.7217 67.8128 30.0957C67.8128 20.4697 63.5855 11.3293 56.2507 5.09546" stroke="#00E5E5" stroke-linecap="round" stroke-linejoin="round"/>
<path id="Shape_3" d="M47.7485 45.0975C52.15 41.3574 54.6867 35.873 54.6867 30.0971C54.6867 24.3212 52.15 18.8368 47.7485 15.0967" stroke="#00E5E5" stroke-linecap="round" stroke-linejoin="round"/>
<path id="Shape_4" d="M13.749 55.0959C6.41424 48.8621 2.18701 39.7217 2.18701 30.0957C2.18701 20.4697 6.41424 11.3293 13.749 5.09546" stroke="#00E5E5" stroke-linecap="round" stroke-linejoin="round"/>
<path id="Shape_5" d="M22.2512 45.0975C17.8497 41.3574 15.313 35.873 15.313 30.0971C15.313 24.3212 17.8497 18.8368 22.2512 15.0967" stroke="#00E5E5" stroke-linecap="round" stroke-linejoin="round"/>
</g>
</g>
</g>
</svg>
